<svg width="74" height="74" viewBox="0 0 74 74" fill="none" xmlns="http://www.w3.org/2000/svg">
<circle cx="37" cy="37" r="37" fill="#ECFBFF"/>
<path d="M51.0017 35.7812C51.0017 42.2893 44.5107 47.5625 36.5017 47.5625C34.4003 47.5625 32.4066 47.2 30.6054 46.5486C29.9314 47.0414 28.8325 47.7154 27.5298 48.2818C26.1704 48.8709 24.5335 49.375 22.9079 49.375C22.5398 49.375 22.2112 49.1541 22.0696 48.8143C21.928 48.4744 22.0073 48.0893 22.2622 47.8287L22.2792 47.8117C22.2962 47.7947 22.3189 47.7721 22.3529 47.7324C22.4152 47.6645 22.5114 47.5568 22.6304 47.4096C22.8626 47.1264 23.1741 46.7072 23.4913 46.1861C24.0577 45.2459 24.5958 44.0111 24.7034 42.6234C23.0042 40.6977 22.0017 38.3357 22.0017 35.7812C22.0017 29.2732 28.4927 24 36.5017 24C44.5107 24 51.0017 29.2732 51.0017 35.7812Z" fill="#2294B1"/>
</svg>
