<svg width="74" height="74" viewBox="0 0 74 74" fill="none" xmlns="http://www.w3.org/2000/svg">
<circle cx="37" cy="37" r="37" fill="#ECFBFF"/>
<path d="M24.7188 26.625C23.2178 26.625 22 27.8428 22 29.3438C22 30.199 22.4021 31.0033 23.0875 31.5187L35.4125 40.7625C36.0582 41.2439 36.9418 41.2439 37.5875 40.7625L49.9125 31.5187C50.5979 31.0033 51 30.199 51 29.3438C51 27.8428 49.7822 26.625 48.2812 26.625H24.7188ZM22 32.9688V44.75C22 46.7494 23.6256 48.375 25.625 48.375H47.375C49.3744 48.375 51 46.7494 51 44.75V32.9688L38.675 42.2125C37.3836 43.1811 35.6164 43.1811 34.325 42.2125L22 32.9688Z" fill="#2294B1"/>
</svg>
