<svg width="539" height="374" viewBox="0 0 539 374" fill="none" xmlns="http://www.w3.org/2000/svg">
<path d="M502.64 220.749C499.5 254.452 479.377 279.542 461.666 295.456C450.256 305.71 439.846 312.153 435.621 314.641C429.852 318.036 423.971 321.225 417.977 324.21C416.862 324.765 415.397 325.607 413.761 326.522H414.218C414.218 326.522 362.814 356.335 268.763 356.41C226.256 356.443 191.42 352.596 163.059 346.742C154.432 344.965 146.394 343.015 138.944 340.89C137.754 340.556 136.579 340.219 135.419 339.877C132.929 339.144 130.501 338.398 128.137 337.638C118.006 334.38 109.058 330.891 101.185 327.339C85.3055 320.175 72.7554 308.516 63.6015 297.059C53.8362 284.838 47.936 272.851 45.9771 266.801C38.3146 243.13 20.6612 144.383 141.827 63.4151C235.786 0.628868 368.21 21.0694 392.686 65.757C400.195 79.4754 399.707 96.5376 392.563 115.185C406.458 117.679 423.674 121.587 440.352 128.338C448.597 131.675 456.708 135.709 464.221 140.617C488.365 156.379 506.33 181.15 502.64 220.749Z" fill="#F5F5F7"/>
<path d="M444.148 293.604C444.148 293.604 441.875 258.313 461.126 220.867C480.378 183.421 508.715 176.303 508.715 176.303C508.715 176.303 504.958 216.16 485.197 241.054C465.437 265.948 453.868 296.759 453.868 296.759L444.148 293.604Z" fill="#419786"/>
<path d="M446.753 291.623C446.753 291.623 461.266 227.107 493.658 194.172C493.658 194.172 464.361 234.626 451.347 293.111L446.753 291.623Z" fill="#6DC68C"/>
<path d="M449.613 298.569C449.613 298.569 462.63 253.692 485.2 241.054C507.77 228.417 527.043 232.301 527.043 232.301C527.043 232.301 516.025 257.055 500.57 266.873C485.114 276.69 465.847 286.315 460.753 298.984L449.613 298.569ZM444.969 297.064C444.969 297.064 460.653 253.052 449.747 229.568C438.84 206.085 420.945 197.927 420.945 197.927C420.945 197.927 415.411 224.451 422.19 241.481C428.968 258.511 438.963 277.605 435.691 290.865L444.969 297.064Z" fill="#6DC68C"/>
<path d="M450.058 300.953C451.564 299.417 461.563 262.977 497.646 246.597C497.646 246.597 469.309 264.788 454.826 300.258L450.058 300.953ZM442.99 298.662C442.668 296.535 455.865 261.132 436.195 226.689C436.195 226.689 448.529 258.057 439.532 295.303L442.99 298.662Z" fill="#419786"/>
<path d="M85.9031 289.457C85.9031 289.457 63.1297 269.878 51.8288 235.91C40.5279 201.943 53.0421 180.456 53.0421 180.456C53.0421 180.456 75.0103 206.42 78.3899 233.239C81.7695 260.058 93.5919 285.405 93.5919 285.405L85.9031 289.457Z" fill="#6DC68C"/>
<path d="M86.2462 286.692C86.2462 286.692 55.7024 239.531 54.9526 200.241C54.9526 200.241 62.1075 242.116 89.879 284.781L86.2462 286.692Z" fill="#419786"/>
<path d="M92.1616 289.079C92.1616 289.079 72.6558 254.493 78.3872 233.235C84.1186 211.977 97.9303 202.55 97.9303 202.55C97.9303 202.55 106.408 223.96 103.187 239.21C99.9667 254.459 94.3681 271.904 99.0287 282.534L92.1616 289.079ZM88.4887 291.013C88.4887 291.013 71.0884 255.316 50.3542 248.009C29.62 240.702 14.0403 246.762 14.0403 246.762C14.0403 246.762 26.8518 265.885 41.2197 271.872C55.5876 277.86 73.1137 283.106 79.22 292.978L88.4887 291.013Z" fill="#419786"/>
<path d="M93.8741 290.222C93.8354 288.393 77.6553 260.658 89.1457 228.951C89.1457 228.951 83.3548 257.016 96.284 286.906L93.8741 290.222ZM88.2852 293.166C86.8022 292.099 73.151 263.031 40.5583 254.552C40.5583 254.552 66.9271 265.673 84.1918 293.277L88.2852 293.166Z" fill="#6DC68C"/>
<path d="M432.804 58.7675V199.803C432.804 201.23 432.524 202.643 431.979 203.961C431.434 205.28 430.635 206.477 429.627 207.486C428.62 208.495 427.424 209.296 426.108 209.842C424.792 210.388 423.382 210.669 421.957 210.668H205.287C204.886 210.668 204.486 210.647 204.087 210.603C201.434 210.307 198.983 209.042 197.203 207.049C195.423 205.057 194.439 202.477 194.439 199.803V58.7675C194.439 57.3406 194.72 55.9278 195.265 54.6095C195.81 53.2913 196.609 52.0935 197.616 51.0846C198.623 50.0758 199.819 49.2756 201.135 48.7298C202.452 48.1839 203.862 47.9032 205.287 47.9036H421.957C423.382 47.9021 424.793 48.1821 426.109 48.7275C427.426 49.273 428.622 50.0731 429.63 51.0822C430.637 52.0913 431.436 53.2895 431.981 54.6082C432.526 55.927 432.805 57.3403 432.804 58.7675Z" fill="#D1DBED"/>
<path d="M432.804 58.7606V70.0014H194.447V58.7606C194.447 57.334 194.727 55.9213 195.272 54.6033C195.817 53.2853 196.616 52.0878 197.623 51.0791C198.63 50.0704 199.826 49.2703 201.142 48.7245C202.458 48.1787 203.868 47.8978 205.292 47.898H421.958C423.383 47.8977 424.793 48.1784 426.109 48.7241C427.425 49.2699 428.621 50.07 429.628 51.0787C430.635 52.0874 431.434 53.285 431.979 54.6031C432.524 55.9212 432.804 57.3339 432.804 58.7606Z" fill="#99B1DA"/>
<path d="M234.99 58.9546C234.99 59.6856 234.774 60.4002 234.368 61.0081C233.963 61.6161 233.387 62.09 232.713 62.3699C232.039 62.6498 231.297 62.7232 230.581 62.5808C229.865 62.4383 229.208 62.0865 228.692 61.5697C228.176 61.0529 227.824 60.3944 227.682 59.6774C227.539 58.9605 227.612 58.2174 227.891 57.542C228.171 56.8666 228.643 56.2893 229.25 55.8832C229.857 55.4771 230.57 55.2603 231.3 55.2603C231.785 55.2601 232.264 55.3555 232.712 55.5411C233.16 55.7267 233.566 55.9987 233.909 56.3418C234.251 56.6849 234.523 57.0922 234.709 57.5405C234.894 57.9888 234.99 58.4693 234.99 58.9546Z" fill="#6C98D8"/>
<path d="M225.368 58.9546C225.368 59.6856 225.152 60.4002 224.747 61.0081C224.342 61.6161 223.766 62.09 223.091 62.3699C222.417 62.6498 221.675 62.7232 220.96 62.5808C220.244 62.4383 219.586 62.0865 219.07 61.5697C218.554 61.0529 218.202 60.3944 218.06 59.6774C217.918 58.9605 217.991 58.2174 218.27 57.542C218.549 56.8666 219.022 56.2893 219.629 55.8832C220.235 55.4771 220.949 55.2603 221.679 55.2603C222.163 55.2601 222.643 55.3555 223.09 55.5411C223.538 55.7267 223.945 55.9987 224.287 56.3418C224.63 56.6849 224.902 57.0922 225.087 57.5405C225.273 57.9888 225.368 58.4693 225.368 58.9546Z" fill="white"/>
<path d="M215.5 58.9546C215.501 59.6856 215.284 60.4003 214.879 61.0083C214.474 61.6163 213.898 62.0902 213.223 62.37C212.549 62.6499 211.807 62.7232 211.091 62.5807C210.376 62.4381 209.718 62.0861 209.202 61.5692C208.686 61.0523 208.334 60.3936 208.192 59.6766C208.05 58.9596 208.123 58.2164 208.402 57.541C208.682 56.8657 209.155 56.2885 209.762 55.8825C210.369 55.4765 211.082 55.26 211.812 55.2603C212.79 55.2603 213.728 55.6495 214.42 56.3423C215.112 57.0351 215.5 57.9748 215.5 58.9546Z" fill="#3D5891"/>
<g opacity="0.24">
<path d="M334.638 70.0055L305.159 210.67H205.287C204.886 210.669 204.486 210.647 204.087 210.603C215.344 178.189 237.262 116.485 253.817 70.0055H334.638ZM377.293 70.0055H422.263L401.134 210.67H341.629C349.787 177.908 365.487 116.249 377.293 70.0055Z" fill="#F6F6F6"/>
</g>
<path d="M354.675 134.273H267.824C264.971 134.273 262.657 136.59 262.657 139.448C262.657 142.307 264.971 144.624 267.824 144.624H354.675C357.528 144.624 359.842 142.307 359.842 139.448C359.842 136.59 357.528 134.273 354.675 134.273Z" fill="white"/>
<path d="M354.675 161.302H267.826C266.456 161.298 265.144 160.752 264.176 159.782C263.208 158.812 262.662 157.498 262.657 156.127C262.662 154.755 263.208 153.441 264.176 152.471C265.144 151.502 266.456 150.955 267.826 150.951H354.675C356.044 150.955 357.356 151.502 358.324 152.471C359.292 153.441 359.838 154.755 359.842 156.127C359.838 157.498 359.292 158.812 358.324 159.782C357.356 160.752 356.044 161.298 354.675 161.302Z" fill="white"/>
<path d="M284.046 156.579C284.046 156.939 283.939 157.291 283.739 157.591C283.539 157.891 283.255 158.124 282.923 158.262C282.59 158.4 282.225 158.436 281.872 158.366C281.519 158.295 281.195 158.122 280.94 157.867C280.686 157.612 280.513 157.287 280.442 156.934C280.372 156.581 280.408 156.214 280.546 155.881C280.684 155.548 280.917 155.264 281.216 155.063C281.515 154.863 281.867 154.756 282.227 154.756C282.709 154.756 283.172 154.948 283.513 155.29C283.854 155.632 284.046 156.095 284.046 156.579ZM290.279 156.579C290.279 156.939 290.173 157.291 289.973 157.591C289.773 157.891 289.489 158.124 289.156 158.262C288.824 158.4 288.458 158.436 288.105 158.366C287.752 158.295 287.428 158.122 287.174 157.867C286.919 157.612 286.746 157.287 286.676 156.934C286.606 156.581 286.642 156.214 286.779 155.881C286.917 155.548 287.15 155.264 287.45 155.063C287.749 154.863 288.1 154.756 288.46 154.756C288.943 154.756 289.405 154.948 289.747 155.29C290.088 155.632 290.279 156.095 290.279 156.579ZM296.517 156.579C296.517 156.939 296.41 157.291 296.21 157.591C296.011 157.891 295.726 158.124 295.394 158.262C295.062 158.4 294.696 158.436 294.343 158.366C293.99 158.295 293.666 158.122 293.412 157.867C293.157 157.612 292.984 157.287 292.914 156.934C292.843 156.581 292.88 156.214 293.017 155.881C293.155 155.548 293.388 155.264 293.687 155.063C293.986 154.863 294.338 154.756 294.698 154.756C295.18 154.756 295.643 154.948 295.984 155.29C296.325 155.632 296.517 156.095 296.517 156.579ZM302.755 156.579C302.755 156.939 302.648 157.291 302.448 157.591C302.248 157.891 301.964 158.124 301.632 158.262C301.299 158.4 300.934 158.436 300.581 158.366C300.228 158.295 299.904 158.122 299.649 157.867C299.395 157.612 299.222 157.287 299.151 156.934C299.081 156.581 299.117 156.214 299.255 155.881C299.393 155.548 299.626 155.264 299.925 155.063C300.224 154.863 300.576 154.756 300.936 154.756C301.418 154.756 301.881 154.948 302.222 155.29C302.563 155.632 302.755 156.095 302.755 156.579ZM308.991 156.579C308.991 156.939 308.884 157.291 308.684 157.591C308.485 157.891 308.2 158.124 307.868 158.262C307.536 158.4 307.17 158.436 306.817 158.366C306.464 158.295 306.14 158.122 305.886 157.867C305.631 157.612 305.458 157.287 305.388 156.934C305.317 156.581 305.354 156.214 305.491 155.881C305.629 155.548 305.862 155.264 306.161 155.063C306.46 154.863 306.812 154.756 307.172 154.756C307.654 154.756 308.117 154.948 308.458 155.29C308.799 155.632 308.991 156.095 308.991 156.579ZM315.229 156.579C315.229 156.939 315.122 157.291 314.922 157.591C314.722 157.891 314.438 158.124 314.106 158.262C313.773 158.4 313.408 158.436 313.055 158.366C312.702 158.295 312.378 158.122 312.123 157.867C311.869 157.612 311.696 157.287 311.625 156.934C311.555 156.581 311.591 156.214 311.729 155.881C311.867 155.548 312.1 155.264 312.399 155.063C312.698 154.863 313.05 154.756 313.41 154.756C313.892 154.756 314.355 154.948 314.696 155.29C315.037 155.632 315.229 156.095 315.229 156.579ZM321.466 156.579C321.466 156.939 321.36 157.291 321.16 157.591C320.96 157.891 320.676 158.124 320.343 158.262C320.011 158.4 319.645 158.436 319.292 158.366C318.94 158.295 318.615 158.122 318.361 157.867C318.107 157.612 317.933 157.287 317.863 156.934C317.793 156.581 317.829 156.214 317.967 155.881C318.104 155.548 318.337 155.264 318.637 155.063C318.936 154.863 319.287 154.756 319.647 154.756C320.13 154.756 320.592 154.948 320.934 155.29C321.275 155.632 321.466 156.095 321.466 156.579ZM327.704 156.579C327.704 156.939 327.597 157.291 327.398 157.591C327.198 157.891 326.914 158.124 326.581 158.262C326.249 158.4 325.883 158.436 325.53 158.366C325.177 158.295 324.853 158.122 324.599 157.867C324.344 157.612 324.171 157.287 324.101 156.934C324.031 156.581 324.067 156.214 324.204 155.881C324.342 155.548 324.575 155.264 324.874 155.063C325.173 154.863 325.525 154.756 325.885 154.756C326.124 154.756 326.36 154.803 326.581 154.895C326.802 154.987 327.002 155.121 327.171 155.29C327.34 155.459 327.474 155.66 327.566 155.881C327.657 156.102 327.704 156.339 327.704 156.579ZM333.94 156.579C333.94 156.939 333.834 157.291 333.634 157.591C333.434 157.891 333.15 158.124 332.817 158.262C332.485 158.4 332.119 158.436 331.766 158.366C331.414 158.295 331.089 158.122 330.835 157.867C330.581 157.612 330.407 157.287 330.337 156.934C330.267 156.581 330.303 156.214 330.441 155.881C330.578 155.548 330.811 155.264 331.111 155.063C331.41 154.863 331.761 154.756 332.121 154.756C332.604 154.756 333.066 154.948 333.408 155.29C333.749 155.632 333.94 156.095 333.94 156.579Z" fill="#99B1DA"/>
<path d="M325.396 113.932C333.193 106.122 333.193 93.46 325.396 85.6501C317.599 77.8402 304.958 77.8402 297.161 85.6501C289.364 93.46 289.364 106.122 297.161 113.932C304.958 121.742 317.599 121.742 325.396 113.932Z" fill="white"/>
<path d="M311.307 98.9872C312.25 98.9802 313.18 98.7611 314.028 98.3462C314.876 97.9313 315.62 97.3312 316.205 96.59C317.091 95.4831 317.568 94.1037 317.556 92.6851C317.556 89.2319 314.756 86.3773 311.307 86.3773C309.637 86.3792 308.037 87.0443 306.856 88.2268C305.675 89.4094 305.011 91.0127 305.01 92.6851C304.996 94.1038 305.473 95.4834 306.36 96.59C306.951 97.3363 307.703 97.9395 308.56 98.3545C309.416 98.7695 310.355 98.9858 311.307 98.9872ZM322.372 110.227C322.372 114.208 300.18 114.208 300.18 110.227V105.589C301.057 99.2464 320.563 98.9803 322.371 105.589L322.372 110.227Z" fill="#99B1DA"/>
<path d="M272.132 155.165V154.888C272.139 154.616 272.092 154.346 271.993 154.092C271.894 153.839 271.745 153.608 271.556 153.413C271.366 153.219 271.14 153.064 270.89 152.958C270.639 152.852 270.371 152.798 270.099 152.798C269.828 152.798 269.559 152.852 269.309 152.958C269.058 153.064 268.832 153.219 268.643 153.413C268.453 153.608 268.304 153.839 268.205 154.092C268.106 154.346 268.059 154.616 268.066 154.888V155.165H267.758V158.836C267.758 159.47 272.461 159.47 272.461 158.836V155.165H272.132ZM268.791 154.888C268.791 154.183 269.224 153.544 270.1 153.544C270.975 153.544 271.421 154.142 271.421 154.888V155.165H268.793L268.791 154.888ZM270.451 157.015V158.075C270.45 158.12 270.439 158.164 270.42 158.205C270.402 158.245 270.375 158.282 270.342 158.312C270.309 158.342 270.271 158.366 270.228 158.381C270.186 158.396 270.142 158.403 270.097 158.401C270.054 158.402 270.011 158.395 269.971 158.379C269.93 158.364 269.894 158.34 269.863 158.309C269.833 158.279 269.809 158.242 269.793 158.202C269.777 158.161 269.77 158.118 269.772 158.075V157.015C269.674 156.962 269.592 156.883 269.534 156.787C269.477 156.692 269.446 156.582 269.445 156.47C269.445 156.357 269.474 156.246 269.529 156.147C269.585 156.048 269.665 155.966 269.762 155.907C269.859 155.849 269.969 155.817 270.083 155.815C270.196 155.812 270.307 155.839 270.407 155.893C270.506 155.947 270.59 156.026 270.65 156.122C270.71 156.218 270.744 156.328 270.748 156.441C270.753 156.555 270.728 156.667 270.675 156.768C270.623 156.868 270.546 156.953 270.451 157.015ZM270.104 139.073C270.303 139.071 270.5 139.025 270.678 138.937C270.857 138.85 271.014 138.723 271.137 138.566C271.325 138.333 271.425 138.042 271.422 137.743C271.428 137.565 271.398 137.388 271.334 137.222C271.27 137.056 271.174 136.905 271.05 136.777C270.927 136.65 270.779 136.548 270.616 136.479C270.452 136.409 270.277 136.374 270.099 136.374C269.922 136.374 269.746 136.409 269.583 136.479C269.419 136.548 269.271 136.65 269.148 136.777C269.025 136.905 268.928 137.056 268.864 137.222C268.8 137.388 268.77 137.565 268.776 137.743C268.773 138.041 268.873 138.332 269.06 138.566C269.184 138.724 269.343 138.851 269.524 138.939C269.705 139.027 269.903 139.073 270.104 139.073ZM272.439 141.445C272.439 142.285 267.736 142.285 267.736 141.445L267.762 140.467C267.947 139.128 272.063 139.072 272.445 140.467L272.439 141.445Z" fill="#3D5891"/>
<path d="M300.526 140.967H281.493C281.09 140.967 280.703 140.807 280.417 140.521C280.132 140.235 279.972 139.847 279.972 139.443C279.972 139.039 280.132 138.651 280.417 138.365C280.703 138.079 281.09 137.919 281.493 137.919H300.526C300.93 137.919 301.317 138.079 301.602 138.365C301.887 138.651 302.048 139.039 302.048 139.443C302.048 139.847 301.887 140.235 301.602 140.521C301.317 140.807 300.93 140.967 300.526 140.967ZM325.628 140.967H306.595C306.191 140.967 305.804 140.807 305.519 140.521C305.234 140.235 305.073 139.847 305.073 139.443C305.073 139.039 305.234 138.651 305.519 138.365C305.804 138.079 306.191 137.919 306.595 137.919H325.628C326.031 137.919 326.418 138.079 326.704 138.365C326.989 138.651 327.149 139.039 327.149 139.443C327.149 139.847 326.989 140.235 326.704 140.521C326.418 140.807 326.031 140.967 325.628 140.967Z" fill="#99B1DA"/>
<path d="M348.727 175.392H273.77C271.065 175.392 268.873 177.588 268.873 180.298V191.829C268.873 194.539 271.065 196.735 273.77 196.735H348.727C351.432 196.735 353.625 194.539 353.625 191.829V180.298C353.625 177.588 351.432 175.392 348.727 175.392Z" fill="#496DAD"/>
<path d="M279.906 183.197V185.128H284.203V187.336H279.906V190.661H277.042V180.99H284.534V183.197H279.906ZM295.54 185.817C295.54 188.659 293.309 190.783 290.283 190.783C287.258 190.783 285.026 188.673 285.026 185.817C285.026 182.961 287.258 180.905 290.283 180.905C293.309 180.905 295.54 182.989 295.54 185.817ZM287.951 185.831C287.951 187.293 289.058 188.382 290.319 188.382C291.581 188.382 292.606 187.293 292.606 185.831C292.606 184.369 291.586 183.306 290.319 183.306C289.052 183.306 287.951 184.367 287.951 185.829V185.831ZM300.995 188.046H299.473V190.653H296.61V180.982H301.112C303.702 180.982 305.189 182.229 305.189 184.417C305.189 185.852 304.611 186.9 303.564 187.494L305.52 190.653H302.27L300.995 188.046ZM301.118 185.839C301.973 185.839 302.468 185.369 302.468 184.5C302.468 183.658 301.973 183.19 301.118 183.19H299.479V185.839H301.118ZM315.374 185.651V189.542C314.328 190.259 312.619 190.789 311.242 190.789C308.254 190.789 306.05 188.678 306.05 185.836C306.05 182.994 308.323 180.91 311.435 180.91C312.909 180.91 314.493 181.475 315.512 182.372L313.887 184.345C313.225 183.711 312.261 183.298 311.421 183.298C310.03 183.298 308.984 184.387 308.984 185.836C308.984 187.312 310.044 188.387 311.449 188.387C311.955 188.361 312.451 188.234 312.909 188.016V185.66L315.374 185.651ZM326.766 185.817C326.766 188.659 324.535 190.783 321.509 190.783C318.484 190.783 316.252 188.673 316.252 185.817C316.252 182.961 318.484 180.905 321.509 180.905C324.535 180.905 326.766 182.989 326.766 185.817ZM319.177 185.831C319.177 187.293 320.283 188.382 321.545 188.382C322.807 188.382 323.832 187.293 323.832 185.831C323.832 184.369 322.812 183.306 321.545 183.306C320.278 183.306 319.184 184.367 319.184 185.829L319.177 185.831ZM332.413 183.278V190.659H329.534V183.278H326.738V180.988H335.223V183.278H332.413ZM335.333 184.258C335.347 182.146 336.559 180.905 338.624 180.905C340.539 180.905 341.697 181.787 341.697 183.36C341.697 185.403 339.622 185.734 339.622 187.279H337.547C337.547 185.182 339.145 185.016 339.145 183.815C339.145 183.318 338.868 183.097 338.373 183.097C337.781 183.097 337.478 183.469 337.478 184.257L335.333 184.258ZM339.838 189.458C339.847 189.633 339.819 189.808 339.757 189.971C339.694 190.134 339.598 190.282 339.475 190.406C339.351 190.529 339.203 190.626 339.04 190.688C338.877 190.751 338.703 190.779 338.529 190.769C337.771 190.769 337.248 190.232 337.248 189.458C337.239 189.288 337.267 189.117 337.328 188.958C337.389 188.798 337.483 188.653 337.604 188.532C337.725 188.411 337.87 188.317 338.029 188.256C338.188 188.194 338.358 188.167 338.529 188.175C339.299 188.175 339.838 188.699 339.838 189.458Z" fill="white"/>
<path d="M369.977 162.367C373.422 162.367 376.214 159.57 376.214 156.12C376.214 152.67 373.422 149.873 369.977 149.873C366.533 149.873 363.741 152.67 363.741 156.12C363.741 159.57 366.533 162.367 369.977 162.367Z" fill="#3D5891"/>
<path d="M369.197 158.963C369.191 158.856 369.206 158.749 369.243 158.647C369.279 158.546 369.335 158.454 369.408 158.375C369.481 158.296 369.569 158.233 369.667 158.189C369.765 158.145 369.87 158.121 369.978 158.119C370.424 158.119 370.757 158.453 370.757 158.963C370.757 159.443 370.455 159.795 369.987 159.795C369.88 159.794 369.774 159.772 369.676 159.73C369.578 159.688 369.489 159.626 369.415 159.548C369.341 159.47 369.284 159.379 369.246 159.278C369.209 159.178 369.192 159.07 369.197 158.963ZM369.395 157.439L369.239 152.701H370.726L370.559 157.439H369.395Z" fill="white"/>
<path d="M173.196 312.538C163.305 310.497 154.106 308.243 145.544 305.833C144.181 305.451 142.834 305.063 141.504 304.672L141.204 294.732L138.751 272.334V272.327C138.752 272.334 138.752 272.341 138.751 272.348C138.749 272.36 138.746 272.373 138.742 272.385L138.733 272.418C138.733 272.418 138.733 272.428 138.733 272.433C137.051 279.338 135.092 283.404 133.16 302.104C121.546 298.363 111.286 294.368 102.259 290.297C102.702 277.878 103.428 259.552 104.504 237.863C104.817 231.532 105.095 209.272 105.289 205.554C105.334 204.767 105.372 204.048 105.409 203.399C105.421 203.26 105.428 203.109 105.435 202.983C105.574 200.489 105.861 197.471 105.861 197.471L151.912 202.875L154.327 203.141L174.151 205.328C174.417 206.63 174.617 225.515 174.761 227.776C174.807 228.4 174.838 229.037 174.881 229.729C174.906 230.228 174.924 230.744 174.951 231.272C175.956 258.775 173.863 299.395 173.196 312.538Z" fill="#2C4DA2"/>
<path opacity="0.49" d="M176.442 232.705C153.552 239.163 129.683 241.402 105.994 239.315C106.31 232.984 106.586 210.724 106.781 207.006C114.556 207.919 122.48 207.283 130.299 206.654C138.803 205.959 147.307 205.266 155.81 204.575L175.642 206.766C175.906 208.072 176.107 226.953 176.252 229.215C176.297 229.838 176.327 230.474 176.371 231.169C176.398 231.66 176.417 232.177 176.442 232.705Z" fill="#1D2F59"/>
<path d="M148.835 264.773C147.792 275.367 146.464 292.141 145.544 305.833C144.181 305.451 142.834 305.064 141.504 304.672L141.204 294.732L138.751 272.334C138.752 272.338 138.752 272.343 138.751 272.348C138.749 272.36 138.746 272.373 138.742 272.385C138.742 272.402 138.733 272.422 138.73 272.44C138.73 272.433 138.73 272.425 138.73 272.418C138.812 271.833 138.906 271.268 139.007 270.726C142.977 269.335 146.664 266.663 148.835 264.773Z" fill="#4F4F4F"/>
<path d="M141.223 269.561H141.185C141.144 269.556 141.104 269.543 141.067 269.523C141.031 269.503 140.999 269.476 140.973 269.443C140.948 269.411 140.929 269.373 140.917 269.333C140.906 269.293 140.903 269.252 140.908 269.21C142.265 258.083 142.54 217.86 141.618 206.249C141.611 206.166 141.638 206.084 141.692 206.02C141.746 205.957 141.823 205.917 141.906 205.911C141.989 205.904 142.072 205.931 142.135 205.985C142.198 206.039 142.238 206.116 142.244 206.2C143.169 217.839 142.892 258.134 141.533 269.286C141.523 269.362 141.486 269.431 141.429 269.481C141.372 269.532 141.299 269.56 141.223 269.561Z" fill="#D1DBED"/>
<path d="M142.488 248.795C142.376 248.795 142.264 248.795 142.153 248.781C142.112 248.777 142.072 248.766 142.035 248.747C141.998 248.728 141.966 248.702 141.939 248.67C141.913 248.639 141.892 248.602 141.88 248.563C141.867 248.523 141.863 248.482 141.866 248.441C141.869 248.399 141.881 248.359 141.9 248.323C141.919 248.286 141.945 248.253 141.976 248.226C142.008 248.2 142.044 248.18 142.084 248.167C142.123 248.154 142.164 248.15 142.206 248.153C143.636 248.272 145.167 247.478 146.197 246.075C147.226 244.671 147.651 242.928 147.915 241.546C149.034 235.654 148.405 212.388 147.785 206.436C147.781 206.356 147.807 206.276 147.86 206.214C147.913 206.153 147.987 206.114 148.067 206.105C148.148 206.097 148.228 206.12 148.292 206.169C148.357 206.219 148.399 206.291 148.412 206.371C149.033 212.346 149.657 235.726 148.533 241.664C148.257 243.112 147.799 244.963 146.703 246.449C145.623 247.92 144.033 248.795 142.488 248.795ZM104.813 242.267C104.733 242.267 104.656 242.237 104.597 242.182C104.539 242.128 104.504 242.053 104.498 241.974C104.493 241.894 104.518 241.815 104.568 241.753C104.619 241.691 104.691 241.651 104.77 241.64C108.264 241.154 108.717 237.378 109.115 234.047L109.123 233.976C109.285 232.625 109.374 230.527 109.461 228.498C109.482 228.006 109.502 227.516 109.524 227.038C109.529 226.955 109.566 226.877 109.627 226.821C109.689 226.764 109.769 226.734 109.852 226.737C109.894 226.739 109.934 226.749 109.972 226.766C110.009 226.784 110.043 226.808 110.07 226.839C110.098 226.869 110.12 226.905 110.134 226.944C110.148 226.983 110.154 227.024 110.153 227.065C110.13 227.545 110.11 228.035 110.089 228.526C110.002 230.566 109.912 232.683 109.749 234.051L109.74 234.121C109.335 237.503 108.831 241.711 104.856 242.264C104.841 242.266 104.827 242.267 104.813 242.267ZM174.365 243.773C174.349 243.774 174.332 243.774 174.315 243.773C172.145 243.428 170.698 241.323 170.067 239.469C169.386 237.462 169.323 235.283 169.262 233.175V233.036C169.2 230.908 169.18 229.711 169.18 226.406C169.18 226.322 169.213 226.242 169.272 226.183C169.331 226.124 169.411 226.091 169.494 226.091C169.578 226.091 169.658 226.124 169.716 226.183C169.775 226.242 169.808 226.322 169.808 226.406C169.808 229.708 169.828 230.897 169.89 233.018V233.157C169.951 235.219 170.013 237.35 170.662 239.265C171.381 241.377 172.853 242.903 174.414 243.145C174.493 243.156 174.566 243.196 174.617 243.259C174.667 243.321 174.692 243.401 174.686 243.481C174.68 243.562 174.643 243.636 174.583 243.69C174.524 243.744 174.446 243.773 174.365 243.772V243.773Z" fill="#D1DBED"/>
<path d="M206.456 164.167C204.443 174.096 173.523 201.226 173.402 201.251L166.333 189.841C166.333 189.841 181.473 172.747 185.398 162.787C185.398 162.787 185.41 162.767 185.41 162.762C185.208 162.515 185.015 162.27 184.819 162.005C184.222 161.218 183.668 160.468 183.159 159.749C180.303 155.793 178.58 152.882 177.541 150.784C177.143 149.987 176.792 149.166 176.491 148.327C177.139 147.281 177.775 146.399 178.045 146.248C178.296 146.111 178.557 145.993 178.825 145.895L182.926 145.845L195.745 145.7L196.23 145.373C196.23 145.373 198.443 147.836 200.828 151.119C203.847 155.289 207.142 160.783 206.456 164.167Z" fill="#F5B0A6"/>
<path d="M183.153 159.749C189.359 157.573 195.289 154.674 200.82 151.112C198.435 147.829 196.221 145.366 196.221 145.366L195.737 145.693L182.917 145.838C181.126 147.488 179.332 149.137 177.533 150.784L183.153 159.749Z" fill="#F18A8B"/>
<path d="M155.193 107.002C156.023 102.958 168.421 106.082 176.164 115.016C183.907 123.95 198.11 144.393 198.11 144.393L176.479 160.938C176.479 160.938 152.432 120.605 155.193 107.002Z" fill="#6DC68C"/>
<path d="M136.588 121.978C134.82 121.198 122.636 115.968 127.336 101.584C127.378 101.446 127.423 101.32 127.461 101.194C127.503 101.082 127.539 100.968 127.568 100.853C128.423 97.9885 128.78 94.9986 128.625 92.0133L137.55 93.2286H146.558C146.275 94.6928 146.125 96.1798 146.111 97.6711C146.098 99.4795 147.299 107.008 147.299 107.008C147.299 107.008 146.462 120.404 136.588 121.978Z" fill="#F5B0A6"/>
<path d="M146.116 97.6642C144.456 99.1206 138.356 103.549 127.461 101.187C127.503 101.075 127.538 100.962 127.568 100.847C128.423 97.9825 128.78 94.9922 128.625 92.0064L137.55 93.223H146.558C146.28 94.6875 146.133 96.1737 146.116 97.6642Z" fill="#F18A8B"/>
<path d="M176.548 229.15C164.358 234.216 110.685 232.489 102.307 229.672C102.307 229.672 108.232 184.825 102.471 143.595C98.7534 117 104.34 114.108 107.422 110.536C109.868 107.701 115.812 105.912 120.359 104.91C123.473 104.23 125.926 103.915 126.169 103.896C125.735 115.741 137.202 120.473 137.202 120.473C137.202 120.473 147.229 114.153 146.886 104.331C147.086 104.331 148.854 104.299 151.276 104.425C156.019 104.677 163.283 105.541 166.217 108.502C169.546 111.854 170.571 114.442 173.431 141.138C174.931 155.194 176.548 229.15 176.548 229.15Z" fill="#6DC68C"/>
<path d="M151.275 104.425C150.798 110.012 148.68 115.333 145.188 119.716C143.604 121.695 141.622 123.521 139.157 124.108C135.837 124.896 132.402 123.257 129.734 121.128C124.74 117.146 121.369 111.218 120.362 104.916C123.476 104.235 125.929 103.921 126.172 103.901C125.738 115.746 137.205 120.478 137.205 120.478C137.205 120.478 147.231 114.158 146.888 104.336C147.085 104.336 148.853 104.299 151.275 104.425ZM166.333 171.198C160.949 182.462 152.293 191.234 142.456 196.489C132.619 201.743 121.643 203.576 110.915 202.637C117.507 204.685 124.472 204.086 131.181 202.681C138.949 201.049 146.692 198.283 153.264 193.016C159.837 187.749 165.151 179.733 166.333 171.198Z" fill="#40947E"/>
<path d="M168.899 193.741C153.293 204.855 132.964 209.076 114.233 205.103C121.089 208.606 129.084 209.086 136.763 208.6C142.789 208.223 148.847 207.271 154.407 204.921C160.109 202.491 165.098 198.642 168.899 193.741ZM174.259 156.165C173.014 142.03 172.101 132.084 170.068 116.533C174.711 132.79 176.045 144.213 174.259 156.165Z" fill="#40947E"/>
<path d="M174.064 148.497C176.554 139.235 176.724 130.043 177.208 119.952C178.868 128.628 178.132 144.448 174.259 155.952C174.013 154.363 173.805 149.448 174.064 148.497Z" fill="#40947E"/>
<path d="M127.236 88.5324C117.287 91.1528 106.485 57.5356 115.806 55.4847C115.806 55.4847 121.449 47.808 126.458 46.5774C131.468 45.3469 133.725 48.4703 133.725 48.4703C133.725 48.4703 134.67 46.1049 136.087 46.1991C137.503 46.2934 138.732 47.4296 138.732 47.4296C138.732 47.4296 141.755 44.4961 145.249 44.686C148.743 44.8758 150.823 46.8615 151.198 48.3747C151.198 48.3747 156.771 45.4426 157.527 52.1604C157.867 55.1882 155.92 56.6072 155.92 56.6072C155.92 56.6072 156.488 62.0946 153.653 63.2295C153.653 63.2295 154.504 66.8323 152.986 66.8323L127.236 88.5324Z" fill="#1E1E1E"/>
<path d="M131.3 51.9484C142.139 50.1581 148.941 53.4727 152.303 64.6401C152.473 65.2068 152.605 65.7791 152.746 66.3542C153.408 69.0563 153.941 72.3668 153.231 73.8952C153.231 73.8952 159.078 87.9767 147.873 100.103C146.597 101.489 140.423 100.745 138.695 100.398C124.123 97.4785 125.582 81.4237 125.582 81.4237C125.255 80.4538 119.85 80.081 119.54 79.0778C116.572 69.4305 118.059 54.1351 131.3 51.9484Z" fill="#F5B0A6"/>
<path d="M149.623 82.5185C149.623 86.0728 151.052 89.2419 153.282 91.3149C156.614 82.0639 153.231 73.8952 153.231 73.8952C153.259 73.8342 153.281 73.7663 153.306 73.7012C151.062 75.7742 149.623 78.9517 149.623 82.5185ZM126.309 77.0519C124.324 77.0519 122.549 78.1854 121.347 79.9701C123.053 80.4274 125.371 80.8016 125.581 81.4307C125.581 81.4307 124.996 87.9435 128.332 93.4253C130.96 92.3334 132.866 89.1754 132.866 85.4437C132.866 80.803 129.931 77.0519 126.309 77.0519Z" fill="#F18A8B"/>
<path d="M137.549 68.9469C137.004 68.4009 135.621 69.5012 134.203 70.0208C133.225 70.3797 131.724 70.5377 131.647 70.5834C130.25 71.4411 131.055 71.9996 131.268 72.3127C131.393 72.4957 131.912 72.2005 133.205 71.8458C135.972 71.0906 137.171 71.4591 137.672 70.5875C137.971 70.0734 137.916 69.3141 137.549 68.9469ZM146.743 68.5991C147.02 68.0794 148.321 68.9621 149.352 69.1533C150.203 69.3085 151.15 69.1201 151.221 69.1533C152.419 69.7215 152.134 70.4116 152.033 70.7206C151.975 70.9007 151.534 70.7109 150.511 70.582C148.316 70.2965 147.49 70.7926 146.957 70.0873C146.636 69.6591 146.537 68.976 146.743 68.5991Z" fill="#606060"/>
<path d="M134.872 76.7983C135.06 77.5161 135.583 78.0011 136.04 77.8819C136.496 77.7627 136.716 77.0823 136.528 76.3576C136.34 75.6329 135.818 75.1534 135.362 75.274C134.905 75.3946 134.685 76.0819 134.872 76.7983ZM148.171 75.0911C148.357 75.8075 148.847 76.2994 149.264 76.1913C149.68 76.0833 149.867 75.4126 149.679 74.6962C149.49 73.9798 149.002 73.4878 148.586 73.5973C148.169 73.7068 147.984 74.3747 148.171 75.0911Z" fill="#2B2B2B"/>
<path d="M152.303 64.6401C152.303 64.6401 159.87 52.5845 153.843 50.765C147.815 48.9456 137.646 45.2527 127.936 50.966C118.226 56.6792 115.56 63.6881 114.112 65.8817C112.26 68.6877 117.879 79.7166 121.582 86.361C122.765 88.4812 124.92 88.0779 125.821 85.8234L125.389 84.7744L126.23 80.2501L126.799 63.3334C126.799 63.3334 145.246 64.2673 149.928 59.8927C149.928 59.8871 151.664 61.9006 152.303 64.6401Z" fill="#1E1E1E"/>
<path d="M117.234 83.2127C118.262 86.44 121.455 88.301 124.364 87.3698C127.273 86.4386 128.799 83.0741 127.771 79.8427C126.743 76.6112 123.551 74.7544 120.64 75.6856C117.729 76.6168 116.205 79.9854 117.234 83.2127Z" fill="#F5B0A6"/>
<path d="M122.093 83.3984C122.4 82.5448 123.956 82.1263 124.529 82.0362L124.929 81.9739L124.771 81.6011C124.187 80.2154 123.388 79.3507 122.404 79.032C122.012 78.9147 121.601 78.8776 121.194 78.9231C120.788 78.9686 120.395 79.0956 120.038 79.2967L120.366 79.8371C120.374 79.8371 121.247 79.3202 122.217 79.6376C122.937 79.8718 123.545 80.4967 124.029 81.4944C123.316 81.6662 121.875 82.136 121.498 83.1836L122.093 83.3984Z" fill="#2B2B2B"/>
<path d="M127.639 59.4312C127.639 59.4312 132.216 77.8001 126.309 78.8644L126.117 62.6863L127.639 59.4312Z" fill="#1E1E1E"/>
<path d="M145.432 82.0404C145.506 81.9947 147.291 80.9221 148.031 79.614C148.098 79.5032 148.136 79.3775 148.141 79.2483C148.147 79.119 148.121 78.9904 148.064 78.8741C147.551 77.7655 144.216 77.0907 143.553 76.9659L143.437 77.5881C144.958 77.8653 147.215 78.5415 147.491 79.1415C147.505 79.1665 147.512 79.1948 147.51 79.2233C147.508 79.2517 147.498 79.2791 147.482 79.3022C146.825 80.4621 145.13 81.4861 145.108 81.4958L145.432 82.0404Z" fill="#2B2B2B"/>
<path d="M124.977 76.1373C124.977 76.1373 128.02 68.8485 128.069 76.0929C128.157 88.2553 131.129 92.4179 131.812 93.2147C135.556 94.818 140.832 96.4157 143.07 93.9422C143.07 93.9422 144.485 94.2443 145.56 93.9006C145.56 93.9006 148.309 97.3524 151.881 94.8554C151.881 94.8554 150.929 99.4435 148.351 100.728C145.945 101.925 131.577 102.378 128.251 93.3006C124.722 88.4008 124.977 76.1373 124.977 76.1373Z" fill="#1E1E1E"/>
<path d="M140.933 88.9412L140.483 88.416C140.53 88.3744 145.226 84.4169 148.784 88.4493L148.266 88.9079C146.969 87.4391 145.354 86.9887 143.469 87.5694C142.548 87.8691 141.688 88.334 140.933 88.9412Z" fill="#2B2B2B"/>
<path d="M96.973 135.752C96.5275 144.275 96.0931 152.882 97.4572 161.312C98.8212 169.743 103.219 183.068 108.818 183.729C110.516 175.003 112.212 166.273 113.906 157.539C114.195 156.058 114.471 154.471 113.888 153.072C113.491 152.121 112.73 151.371 111.987 150.652C106.987 145.783 101.986 140.918 96.973 135.752Z" fill="#F18A8B"/>
<path d="M112.856 107.015C106.769 107.619 100.445 113.762 98.1503 121.544C94.5148 133.877 93.6709 143.879 92.4895 159.316C100.257 160.424 109.032 161.874 116.805 161.105C119.63 143.834 118.731 106.202 112.856 107.015Z" fill="#6DC68C"/>
<path d="M113.975 114.241C116.185 129.271 116.477 144.52 114.844 159.623C117.995 144.509 119.158 128.462 113.975 114.241Z" fill="#40947E"/>
<path d="M129.265 125.136C129.265 125.136 127.171 152.889 124.209 168.439C121.247 183.989 109.138 184.524 107.566 183.667C102.912 181.128 100.911 172.326 103.345 166.139C107.704 155.07 117.472 129.867 118.875 123.013L129.265 125.136Z" fill="#F5B0A6"/>
<path d="M134.235 115.574C134.235 115.574 133.901 122.026 129.265 125.136L118.875 123.013L121.868 103.638C121.868 103.638 122.102 97.728 124.75 94.4327C127.398 91.1375 133.36 91.6101 134.103 93.539C134.846 95.4679 131.172 95.0189 129.373 95.7242C127.575 96.4295 126.914 100.867 126.914 100.867C126.914 100.867 131.34 98.7492 133.831 99.2536C136.321 99.758 140.02 103.759 138.108 105.951C138.108 105.951 140.077 107.507 138.523 109.831C138.519 109.825 141.16 114.474 134.235 115.574Z" fill="#F5B0A6"/>
<path d="M134.518 113.029C134.464 113.029 134.411 113.01 134.369 112.975C133.209 112.024 133.515 111.114 133.529 111.075C133.539 111.046 133.555 111.019 133.576 110.996C133.596 110.972 133.621 110.954 133.649 110.94C133.677 110.927 133.707 110.919 133.738 110.917C133.769 110.915 133.8 110.919 133.829 110.93C133.858 110.94 133.885 110.956 133.909 110.976C133.932 110.997 133.951 111.022 133.964 111.05C133.978 111.078 133.985 111.108 133.987 111.139C133.989 111.17 133.985 111.201 133.974 111.23C133.963 111.262 133.784 111.884 134.666 112.616C134.69 112.636 134.71 112.66 134.725 112.687C134.74 112.714 134.749 112.744 134.752 112.775C134.755 112.806 134.752 112.837 134.743 112.867C134.734 112.897 134.719 112.925 134.699 112.949C134.677 112.974 134.649 112.995 134.618 113.009C134.586 113.022 134.552 113.029 134.518 113.029ZM138.519 110.061C138.476 110.061 138.433 110.049 138.396 110.027C138.359 110.004 138.329 109.972 138.309 109.933C138.263 109.843 137.129 107.74 134.158 108.342C134.097 108.355 134.033 108.343 133.981 108.308C133.929 108.273 133.893 108.22 133.88 108.158C133.868 108.097 133.88 108.033 133.915 107.981C133.949 107.929 134.003 107.892 134.064 107.88C137.385 107.203 138.711 109.691 138.724 109.717C138.742 109.753 138.751 109.793 138.75 109.833C138.748 109.874 138.737 109.913 138.716 109.948C138.695 109.982 138.665 110.011 138.63 110.031C138.595 110.05 138.555 110.061 138.515 110.061H138.519ZM138.109 106.174C138.054 106.174 138 106.154 137.957 106.118C137.924 106.089 134.521 103.278 131.305 105.196C131.251 105.228 131.187 105.237 131.126 105.221C131.065 105.206 131.013 105.167 130.982 105.113C130.95 105.059 130.94 104.995 130.956 104.934C130.971 104.874 131.01 104.821 131.064 104.79C134.571 102.698 138.226 105.726 138.257 105.76C138.294 105.791 138.321 105.832 138.333 105.879C138.346 105.926 138.343 105.975 138.327 106.021C138.31 106.066 138.28 106.105 138.24 106.133C138.201 106.161 138.154 106.175 138.105 106.175L138.109 106.174Z" fill="#9A9A9A"/>
<path d="M134.266 115.159C134.205 115.159 134.146 115.135 134.102 115.092C134.058 115.049 134.033 114.99 134.031 114.929C134.018 114.316 134.132 113.708 134.365 113.142C134.599 112.575 134.946 112.064 135.387 111.639C135.409 111.618 135.436 111.601 135.465 111.59C135.494 111.579 135.524 111.573 135.555 111.574C135.586 111.575 135.617 111.582 135.645 111.594C135.674 111.607 135.699 111.625 135.72 111.647C135.742 111.67 135.758 111.696 135.77 111.725C135.781 111.754 135.786 111.785 135.785 111.816C135.785 111.847 135.778 111.878 135.765 111.906C135.753 111.934 135.735 111.96 135.712 111.981C135.319 112.36 135.008 112.817 134.8 113.322C134.592 113.827 134.491 114.37 134.503 114.916C134.505 114.978 134.482 115.038 134.44 115.083C134.398 115.128 134.34 115.155 134.279 115.159H134.266Z" fill="#9A9A9A"/>
<path d="M437.068 261.737H88.1982L63.6016 292.106H461.666L437.068 261.737Z" fill="#50698E"/>
<path d="M461.666 292.113V295.464C450.256 305.718 439.846 312.162 435.621 314.649C429.852 318.044 423.971 321.234 417.977 324.219C416.862 324.773 415.397 325.615 413.761 326.53H414.218C414.218 326.53 408.3 329.962 396.807 334.499C374.427 343.337 330.904 356.367 268.764 356.417C226.256 356.45 191.42 352.603 163.059 346.749C154.432 344.968 146.394 343.015 138.944 340.89C137.754 340.557 136.579 340.219 135.419 339.877C132.929 339.144 130.501 338.398 128.137 337.638C118.006 334.38 109.058 330.891 101.185 327.339C94.2685 324.216 87.9741 320.239 82.323 315.798C75.009 310.048 68.7657 303.522 63.6016 297.059V292.113H461.666Z" fill="#607089"/>
<path d="M461.666 292.106H63.6016V300.224H461.666V292.106Z" fill="#4A5668"/>
<path d="M396.807 334.492C374.427 343.33 330.904 356.36 268.764 356.41C226.256 356.443 191.42 352.596 163.059 346.742C154.432 344.965 146.394 343.015 138.944 340.89C137.754 340.557 136.579 340.219 135.419 339.877C132.929 339.145 130.501 338.398 128.137 337.638C118.006 334.38 109.058 330.891 101.185 327.339C94.2686 324.216 87.9741 320.239 82.323 315.798C126.124 315.594 311.483 317.161 396.807 334.492Z" fill="#7A8DB0"/>
<path d="M112.86 266.575L156.034 286.453L247.028 263.124L208.655 242.79L112.86 266.575Z" fill="#292929"/>
<path d="M113.487 263.417L156.659 283.295L247.653 259.966L209.282 239.632L113.487 263.417Z" fill="#476B9E"/>
<path d="M133.239 265.562L126.265 262.84L134.381 260.738L141.218 263.268L133.239 265.562Z" fill="#99B1DA"/>
<path d="M141.07 268.775L134.095 266.054L142.212 263.953L149.049 266.482L141.07 268.775Z" fill="#99B1DA"/>
<path d="M148.9 271.989L141.926 269.267L150.043 267.166L156.879 269.697L148.9 271.989Z" fill="#99B1DA"/>
<path d="M143.062 263.038L136.087 260.317L144.205 258.216L151.041 260.746L143.062 263.038Z" fill="#99B1DA"/>
<path d="M150.892 266.253L143.918 263.532L152.036 261.43L158.871 263.96L150.892 266.253Z" fill="#99B1DA"/>
<path d="M158.722 269.467L151.748 266.745L159.866 264.644L166.703 267.175L158.722 269.467Z" fill="#99B1DA"/>
<path d="M152.884 260.516L145.91 257.795L154.028 255.694L160.863 258.224L152.884 260.516Z" fill="#99B1DA"/>
<path d="M160.715 263.73L153.74 261.008L161.858 258.908L168.695 261.438L160.715 263.73Z" fill="#99B1DA"/>
<path d="M168.545 266.945L161.572 264.223L169.689 262.121L176.525 264.651L168.545 266.945Z" fill="#9C9C9C"/>
<path d="M162.707 257.994L155.732 255.273L163.85 253.172L170.687 255.701L162.707 257.994Z" fill="#99B1DA"/>
<path d="M170.537 261.208L163.564 258.486L171.681 256.386L178.518 258.916L170.537 261.208Z" fill="#9C9C9C"/>
<path d="M178.369 264.421L171.394 261.7L179.512 259.599L186.348 262.129L178.369 264.421Z" fill="#9C9C9C"/>
<path d="M270.226 201.528C269.712 202.619 257.118 235.339 250.969 251.339L247.649 259.966L156.655 283.295L180.119 222.332L200.089 217.722L270.226 201.528Z" fill="#3D5891"/>
<path d="M169.615 249.637C169.492 249.619 166.493 257.141 162.915 266.433C159.338 275.726 156.536 283.278 156.659 283.295C156.783 283.311 159.782 275.792 163.359 266.496C166.937 257.199 169.737 249.654 169.615 249.637Z" fill="#505050"/>
<path d="M211.418 240.96C209.87 243.464 210.385 246.127 212.565 246.907C214.745 247.688 217.768 246.289 219.316 243.785C220.864 241.281 220.349 238.617 218.168 237.837C215.986 237.056 212.965 238.455 211.418 240.96Z" fill="white"/>
<path d="M250.969 251.339L247.649 259.966L156.655 283.295L180.119 222.332L200.089 217.722C196.797 225.221 187.287 248.849 195.44 254.562C202.78 259.707 235.393 254.303 250.969 251.339Z" fill="#476B9E"/>
<path d="M247.653 259.966L247.028 263.124L156.034 286.453L156.659 283.295L247.653 259.966Z" fill="#263F72"/>
<path d="M113.487 263.417L112.86 266.575L156.034 286.453L156.659 283.295L113.487 263.417Z" fill="#1D2F59"/>
<path d="M154.63 282.415L178.243 220.469L180.123 222.332L156.659 283.295L154.63 282.415Z" fill="#3D5891"/>
<path d="M270.226 201.528L267.928 200.464L178.243 220.47L180.123 222.332L270.226 201.528Z" fill="#99B1DA"/>
<path d="M64.4218 174.504C76.5224 174.504 86.3319 164.678 86.3319 152.558C86.3319 140.437 76.5224 130.611 64.4218 130.611C52.3212 130.611 42.5117 140.437 42.5117 152.558C42.5117 164.678 52.3212 174.504 64.4218 174.504Z" fill="#99B1DA"/>
<path d="M61.6829 162.55C61.6829 160.757 62.9597 159.586 64.422 159.586C65.9921 159.586 67.1611 160.757 67.1611 162.55C67.1611 164.232 66.1014 165.476 64.4579 165.476C62.8878 165.475 61.6829 164.231 61.6829 162.55ZM62.3746 157.171L61.8212 140.524H67.0463L66.4611 157.171H62.3746Z" fill="white"/>
<path d="M170.183 65.4549C168.938 64.3297 167.278 62.6017 167.073 60.8294C166.97 59.9523 167.143 59.3051 167.489 58.8409C168.92 59.9273 170.326 60.7643 171.224 61.1578C172.755 61.8271 175.992 63.2087 176.721 60.7199C177.442 58.2603 173.595 56.736 171.849 56.2247C170.293 55.7674 168.32 55.6053 166.885 56.3758C165.83 55.3753 164.702 54.0117 164.518 52.7397C164.345 51.5438 164.776 50.8288 165.487 50.42C165.925 50.754 166.338 51.0588 166.703 51.329C170.626 54.2279 176.489 58.295 181.686 57.5799C182.175 57.5134 182.4 56.9162 182.309 56.4977C181.216 51.4773 170.827 46.5109 165.401 48.2389C163.203 46.4874 161.153 44.4019 160.421 42.1321C159.528 39.3385 161.016 38.1718 163.41 37.8849C166.201 41.9215 171.549 45.013 175.349 47.1941C179.756 49.723 186.257 53.5073 191.59 52.4182C192.069 52.3212 192.295 51.7877 192.203 51.3512C190.819 44.7871 180.636 40.2101 175.049 37.975C172.931 37.1283 168.198 35.7468 164.294 35.9477C163.585 34.871 163.073 33.6225 163.641 32.4973C165.189 29.4363 171.54 30.3578 174.111 30.8206C183.251 32.464 190.8 37.7644 196.583 44.9201C196.653 45.0074 196.798 44.891 196.737 44.7996C191.088 36.2429 182.865 30.319 172.589 28.979C168.608 28.4593 159.849 29.0372 162.037 35.2659C162.149 35.5814 162.277 35.8909 162.421 36.193C160.346 36.6572 158.761 37.7865 158.357 40.0175C157.758 43.3432 160.879 46.655 163.782 49.0717C160.739 51.3831 162.854 54.7531 165.73 57.3859C165.581 57.591 165.453 57.8117 165.351 58.0441C164.037 61.083 166.849 64.8604 168.924 66.7367C169.792 67.5057 171.04 66.2267 170.183 65.4549ZM176.537 40.5247C180.845 42.6254 188.425 45.9719 190.259 50.8579C186.214 51.1807 181.383 48.4578 178.085 46.7146C173.723 44.4074 169.132 41.5875 165.822 37.8461C169.891 38.1136 174.939 39.7445 176.537 40.5247ZM170.257 50.2565C173.339 50.9729 178.644 52.6828 180.238 55.9254C176.601 55.8783 172.517 53.1304 169.724 51.2916C169.114 50.8897 168.435 50.4408 167.728 49.9502C168.579 49.9585 169.428 50.0612 170.257 50.2565ZM173.044 58.622C176.256 60.2502 173.383 60.1837 171.688 59.416C170.749 58.998 169.839 58.5175 168.965 57.9776C170.232 57.6936 171.868 58.0261 173.044 58.622Z" fill="#5F5F5F"/>
<path d="M275.68 263.383C273.584 255.424 272.685 247.195 273.012 238.97C273.217 233.857 274.174 228.259 278.508 224.877C281.062 222.885 284.643 221.947 287.984 222.469C291.325 222.991 294.359 225.008 295.773 227.749C297.198 230.512 296.958 233.707 296.651 236.728C295.703 246.193 294.441 255.628 292.865 265.032L275.68 263.383Z" fill="#419786"/>
<path d="M280.641 263.045C280.574 263.045 280.508 263.021 280.456 262.978C280.404 262.935 280.369 262.875 280.356 262.808C277.324 246.528 277.036 227.577 285.337 223.208C285.37 223.189 285.407 223.178 285.446 223.174C285.484 223.17 285.522 223.174 285.559 223.185C285.596 223.196 285.63 223.214 285.66 223.239C285.689 223.263 285.714 223.293 285.732 223.327C285.75 223.361 285.762 223.398 285.766 223.436C285.769 223.474 285.766 223.513 285.755 223.55C285.744 223.586 285.725 223.621 285.701 223.65C285.677 223.68 285.647 223.705 285.613 223.723C282.027 225.612 279.803 230.749 279.178 238.578C278.649 245.2 279.276 253.767 280.94 262.702C280.954 262.777 280.937 262.856 280.894 262.919C280.85 262.983 280.783 263.027 280.708 263.041C280.686 263.045 280.664 263.046 280.641 263.045ZM286.947 266.153H286.914C286.837 266.144 286.767 266.105 286.719 266.045C286.671 265.984 286.649 265.907 286.658 265.831C287.228 260.842 287.924 256.143 288.536 251.993C290.502 238.69 291.921 229.086 287.531 223.65C287.487 223.589 287.467 223.514 287.477 223.44C287.487 223.366 287.524 223.299 287.582 223.252C287.64 223.205 287.714 223.182 287.788 223.188C287.863 223.194 287.932 223.228 287.982 223.284C292.534 228.918 291.098 238.633 289.11 252.077C288.499 256.223 287.805 260.921 287.235 265.897C287.226 265.968 287.192 266.033 287.139 266.08C287.086 266.127 287.018 266.153 286.947 266.153Z" fill="#337266"/>
<path d="M290.516 263.644C290.116 257.792 290.55 251.913 291.804 246.184C292.26 244.085 292.933 241.854 294.598 240.584C296.525 239.125 299.365 239.458 301.247 240.977C303.128 242.495 304.109 244.985 304.325 247.453C304.541 249.921 304.063 252.4 303.459 254.798C302.438 258.89 301.057 262.884 299.331 266.731L290.516 263.644Z" fill="#6DC68C"/>
<path d="M292.317 264.387C292.24 264.387 292.166 264.356 292.112 264.301C292.057 264.247 292.027 264.173 292.027 264.096C292.027 255.851 292.757 241.771 297.652 240.094C297.688 240.081 297.726 240.076 297.765 240.079C297.803 240.081 297.84 240.091 297.875 240.108C297.909 240.125 297.94 240.149 297.965 240.178C297.991 240.207 298.01 240.24 298.022 240.277C298.035 240.313 298.04 240.352 298.037 240.39C298.035 240.428 298.025 240.466 298.008 240.5C297.991 240.535 297.967 240.566 297.939 240.591C297.91 240.616 297.876 240.636 297.84 240.648C293.118 242.265 292.608 257.586 292.608 264.098C292.607 264.175 292.576 264.248 292.522 264.302C292.467 264.356 292.394 264.387 292.317 264.387ZM296.743 266.07C296.707 266.071 296.671 266.064 296.638 266.051C296.602 266.037 296.57 266.017 296.542 265.99C296.514 265.964 296.492 265.933 296.477 265.898C296.461 265.863 296.453 265.825 296.452 265.787C296.451 265.749 296.458 265.711 296.472 265.675C298.289 260.946 299.782 255.546 300.461 251.232C301.308 245.872 300.937 242.328 299.391 240.978C299.362 240.953 299.338 240.922 299.321 240.888C299.304 240.854 299.294 240.817 299.291 240.778C299.289 240.74 299.294 240.702 299.306 240.666C299.318 240.629 299.337 240.596 299.362 240.567C299.387 240.538 299.418 240.515 299.452 240.498C299.486 240.481 299.523 240.47 299.561 240.468C299.6 240.465 299.638 240.47 299.674 240.482C299.71 240.494 299.744 240.514 299.772 240.539C303.611 243.882 300.226 257.526 297.014 265.882C296.993 265.937 296.956 265.984 296.908 266.018C296.859 266.052 296.802 266.07 296.743 266.07Z" fill="#419786"/>
<path d="M276.74 262.411C275.68 255.055 274.423 247.732 272.966 240.442C272.795 239.61 272.623 238.757 272.145 238.068C271.335 236.894 269.807 236.467 268.416 236.544C265.348 236.721 262.531 239.153 261.791 242.249C261.266 244.432 261.711 246.733 262.235 248.915C263.519 254.312 265.266 259.587 267.458 264.682L276.74 262.411Z" fill="#4DAD9B"/>
<path d="M269.545 264.208C269.485 264.209 269.426 264.191 269.377 264.157C269.327 264.123 269.289 264.074 269.269 264.018C265.329 253.413 261.826 241.96 265.717 237.428C265.768 237.372 265.839 237.339 265.914 237.335C265.99 237.33 266.063 237.355 266.121 237.405C266.178 237.454 266.213 237.523 266.22 237.599C266.227 237.674 266.205 237.749 266.157 237.807C264.456 239.79 264.153 243.573 265.257 249.051C266.225 253.869 268.105 259.219 269.814 263.816C269.83 263.86 269.835 263.908 269.829 263.955C269.823 264.002 269.806 264.046 269.778 264.085C269.751 264.123 269.715 264.155 269.673 264.176C269.631 264.198 269.584 264.209 269.537 264.208H269.545ZM274.554 263.013C274.493 263.013 274.433 262.994 274.384 262.958C274.334 262.922 274.297 262.871 274.278 262.812C273.392 260.095 272.885 256.492 272.348 252.679C271.38 245.833 270.386 238.755 267.115 237.298C267.044 237.266 266.989 237.208 266.961 237.136C266.934 237.064 266.936 236.984 266.967 236.913C266.999 236.842 267.057 236.787 267.129 236.76C267.201 236.732 267.281 236.734 267.351 236.765C270.916 238.359 271.937 245.599 272.923 252.601C273.456 256.39 273.961 259.968 274.83 262.635C274.854 262.708 274.848 262.788 274.813 262.857C274.778 262.926 274.718 262.978 274.644 263.002C274.615 263.011 274.585 263.014 274.554 263.013Z" fill="#419786"/>
<path d="M308.111 258.995C308.111 258.995 307.883 264.915 304.747 270.847L304.736 270.858C301.565 276.837 295.431 282.815 283.593 282.721C258.814 282.721 259.077 258.995 259.077 258.995H308.111Z" fill="#F9BE69"/>
<path d="M308.111 258.995C308.111 258.995 307.883 264.915 304.747 270.847L304.736 270.858C301.139 273.23 295.716 274.903 287.582 274.832C269.736 274.832 264.581 264.678 263.096 258.995H308.111Z" fill="#F3CE90"/>
<path d="M458.678 204.803C466.774 204.803 473.336 198.229 473.336 190.12C473.336 182.011 466.774 175.437 458.678 175.437C450.582 175.437 444.02 182.011 444.02 190.12C444.02 198.229 450.582 204.803 458.678 204.803Z" fill="#3D5891"/>
<path d="M459.923 196.774L458.198 192.643L454.651 195.329L450.514 194.194L456.7 189.923L453.716 183.272L457.798 184.39L459.494 188.26L462.885 185.785L466.802 186.859L460.888 190.935L464.095 197.916L459.923 196.774Z" fill="white"/>
<path d="M218.293 332.992C217.765 332.991 217.248 332.837 216.806 332.547L188.387 313.949C188.01 313.703 187.7 313.366 187.484 312.97C187.269 312.574 187.155 312.13 187.153 311.679C187.151 311.228 187.261 310.783 187.472 310.385C187.684 309.986 187.991 309.647 188.366 309.397L216.229 290.8C216.527 290.601 216.861 290.463 217.211 290.394C217.562 290.324 217.923 290.325 218.274 290.395C218.624 290.465 218.958 290.604 219.255 290.803C219.552 291.003 219.807 291.259 220.005 291.557C220.204 291.855 220.341 292.189 220.411 292.541C220.48 292.892 220.479 293.254 220.409 293.605C220.339 293.956 220.2 294.29 220.001 294.588C219.802 294.885 219.547 295.141 219.249 295.339L194.82 311.643L219.785 327.981C220.276 328.302 220.651 328.774 220.853 329.326C221.055 329.878 221.073 330.48 220.906 331.044C220.738 331.607 220.393 332.101 219.922 332.452C219.452 332.803 218.88 332.992 218.293 332.992Z" fill="#1D2F59"/>
<path d="M198.468 312.54C198.468 314.243 197.963 315.907 197.019 317.322C196.074 318.738 194.732 319.841 193.162 320.493C191.591 321.144 189.863 321.315 188.196 320.982C186.529 320.65 184.997 319.83 183.795 318.626C182.594 317.422 181.775 315.888 181.443 314.218C181.112 312.548 181.282 310.818 181.932 309.244C182.582 307.671 183.684 306.327 185.097 305.381C186.51 304.434 188.172 303.929 189.872 303.929C192.152 303.929 194.338 304.836 195.95 306.451C197.562 308.066 198.468 310.256 198.468 312.54Z" fill="#D1DBED"/>
<path d="M195.276 305.84C195.517 306.751 195.638 307.69 195.639 308.632C195.639 314.47 190.985 319.38 185.248 319.794C187.1 320.982 189.336 321.414 191.496 321.002C193.656 320.589 195.576 319.362 196.86 317.575C198.145 315.787 198.697 313.574 198.402 311.391C198.108 309.208 196.989 307.222 195.276 305.84Z" fill="#99B1DA"/>
<path d="M226.891 293.942C226.891 295.645 226.387 297.31 225.442 298.726C224.498 300.142 223.155 301.246 221.584 301.898C220.013 302.549 218.285 302.72 216.617 302.388C214.95 302.055 213.418 301.235 212.216 300.031C211.014 298.826 210.195 297.292 209.864 295.621C209.532 293.951 209.702 292.22 210.353 290.646C211.004 289.073 212.106 287.728 213.52 286.782C214.934 285.836 216.596 285.331 218.296 285.332C220.576 285.332 222.762 286.239 224.374 287.854C225.986 289.469 226.891 291.659 226.891 293.942Z" fill="#D1DBED"/>
<path d="M223.694 287.242C223.936 288.153 224.059 289.092 224.061 290.035C224.061 295.871 219.407 300.781 213.671 301.195C215.523 302.381 217.758 302.811 219.916 302.397C222.075 301.984 223.993 300.758 225.277 298.971C226.561 297.184 227.113 294.973 226.819 292.791C226.525 290.609 225.409 288.623 223.698 287.241L223.694 287.242Z" fill="#99B1DA"/>
<path d="M226.891 331.136C226.891 332.839 226.387 334.504 225.442 335.92C224.498 337.336 223.155 338.44 221.584 339.091C220.013 339.743 218.285 339.914 216.617 339.581C214.95 339.249 213.418 338.429 212.216 337.224C211.014 336.02 210.195 334.486 209.864 332.815C209.532 331.145 209.702 329.413 210.353 327.84C211.004 326.267 212.106 324.922 213.52 323.976C214.934 323.03 216.596 322.525 218.296 322.525C219.425 322.525 220.543 322.748 221.586 323.18C222.629 323.613 223.577 324.247 224.375 325.047C225.173 325.847 225.806 326.796 226.238 327.841C226.67 328.886 226.892 330.005 226.891 331.136Z" fill="#D1DBED"/>
<path d="M223.694 324.438C223.935 325.349 224.057 326.287 224.056 327.23C224.056 333.068 219.403 337.976 213.667 338.392C215.519 339.577 217.754 340.008 219.912 339.594C222.071 339.18 223.989 337.954 225.273 336.167C226.557 334.381 227.109 332.169 226.815 329.988C226.521 327.806 225.404 325.82 223.694 324.438Z" fill="#99B1DA"/>
<path d="M460.947 73.3186C460.947 73.3186 439.433 110.43 427.659 115.829C413.526 122.31 407.187 117.779 400.981 121.575C400.979 121.574 400.976 121.574 400.974 121.575C400.971 121.576 400.969 121.578 400.968 121.58C399.394 114.461 391.737 113.037 386.578 98.3412C382.287 86.103 394.038 44.835 394.038 44.835C419.569 43.5529 436.749 37.2493 436.749 37.2493L436.754 37.2607C436.981 37.7757 444.409 54.3216 460.947 73.3186Z" fill="#C3C3C3"/>
<path d="M436.754 37.2607L400.981 121.575C400.979 121.574 400.976 121.574 400.974 121.575C400.971 121.576 400.969 121.578 400.968 121.58C399.394 114.461 391.737 113.037 386.578 98.3412C382.287 86.103 394.038 44.835 394.038 44.835C419.569 43.5529 436.749 37.2493 436.749 37.2493L436.754 37.2607ZM460.947 73.3186C460.947 73.3186 439.433 110.43 427.659 115.829C413.526 122.31 407.187 117.779 400.981 121.575L436.754 37.2607C436.981 37.7757 444.409 54.3216 460.947 73.3186Z" fill="#F4B558"/>
<path d="M454.417 74.2653C454.417 74.2653 436.243 105.615 426.298 110.175C414.353 115.656 408.993 111.822 403.748 115.029C402.415 109.019 395.942 107.816 391.586 95.3976C387.965 85.057 397.89 50.2011 397.89 50.2011C419.457 49.1155 433.977 43.795 433.977 43.795C433.977 43.795 440.229 57.9582 454.417 74.2653Z" fill="#FCE8CD"/>
<path d="M412.976 77.0387L412.45 105.342L416.978 109.684L421.982 105.296L421.809 104.272L423.427 101.263L421.927 97.351L423.502 93.6746L421.567 90.4677L423.61 87.2795L422.017 84.2043L422.51 76.7038L412.976 77.0387Z" fill="#F3CE90"/>
<path opacity="0.43" d="M415.088 76.9227L412.951 76.9993L412.424 105.304L415.036 107.828C414.311 97.5465 414.394 87.2092 415.088 76.9227Z" fill="#F19A6D"/>
<path opacity="0.53" d="M421.982 84.1698L422.476 76.6698L418.859 76.7965C418.089 87.1907 417.992 97.6377 418.754 108.031L421.879 105.272L421.711 104.25L423.362 101.235L421.88 97.3204L423.462 93.6429L421.532 90.4345L423.578 87.2405L421.982 84.1698Z" fill="#D18C66"/>
<path d="M423.683 76.8857L411.366 77.268L411.458 80.2486L423.775 79.8663L423.683 76.8857Z" fill="#C5C5C5"/>
<path d="M423.683 76.8857L411.366 77.268L411.458 80.2486L423.775 79.8663L423.683 76.8857Z" fill="#F3CE90"/>
<path d="M415.388 53.1725C412.863 53.5305 410.501 54.6304 408.6 56.3331C406.699 58.0357 405.344 60.2648 404.708 62.7383C404.071 65.2119 404.181 67.819 405.024 70.23C405.866 72.641 407.403 74.7477 409.441 76.2837C411.479 77.8197 413.925 78.7161 416.471 78.8596C419.017 79.0031 421.549 78.3872 423.746 77.0898C425.942 75.7924 427.706 73.8717 428.813 71.5706C429.92 69.2694 430.321 66.6912 429.966 64.1617C429.729 62.4811 429.165 60.8635 428.304 59.4016C427.444 57.9396 426.304 56.6618 424.95 55.6412C423.596 54.6207 422.055 53.8774 420.414 53.4537C418.774 53.0301 417.066 52.9346 415.388 53.1725ZM417.913 61.8103C417.303 61.8968 416.68 61.8 416.125 61.5322C415.569 61.2644 415.106 60.8377 414.792 60.3059C414.479 59.774 414.33 59.1611 414.365 58.5446C414.399 57.928 414.615 57.3355 414.986 56.8421C415.356 56.3486 415.865 55.9764 416.447 55.7724C417.029 55.5684 417.658 55.5418 418.255 55.696C418.852 55.8502 419.39 56.1783 419.8 56.6387C420.211 57.0992 420.476 57.6713 420.563 58.2827C420.678 59.1024 420.464 59.9345 419.967 60.5961C419.47 61.2576 418.731 61.6943 417.913 61.8103Z" fill="#F3CE90"/>
<path opacity="0.43" d="M406.842 64.2324C406.477 62.0732 406.591 59.86 407.176 57.75C405.232 60.1328 404.201 63.1327 404.268 66.2095C404.336 69.2863 405.498 72.2378 407.546 74.5324C409.593 76.8269 412.392 78.3137 415.436 78.725C418.481 79.1363 421.573 78.4451 424.154 76.7757C416.055 77.9972 408.216 72.3504 406.842 64.2324Z" fill="#F19A6D"/>
<path d="M432.685 232.127L378.292 221.058C374.822 220.352 371.437 222.597 370.732 226.074L364.034 259.098C363.329 262.574 365.571 265.965 369.041 266.671L423.435 277.739C426.905 278.446 430.29 276.2 430.995 272.724L437.693 239.699C438.398 236.223 436.156 232.833 432.685 232.127Z" fill="#99B1DA"/>
<path d="M403.535 270.431L406.34 287.335C406.696 289.474 409.501 290.045 410.661 288.214L419.83 273.747L403.535 270.431Z" fill="#99B1DA"/>
<path d="M395.578 259.087C396.002 256.997 397.77 255.936 399.472 256.282C401.302 256.655 402.389 258.29 401.964 260.387C401.566 262.348 400.037 263.545 398.121 263.155C396.287 262.784 395.181 261.048 395.578 259.087ZM397.663 252.985L400.958 233.453L407.046 234.692L402.434 253.955L397.663 252.985Z" fill="white"/>
</svg>
