<svg width="34" height="34" viewBox="0 0 34 34" fill="none" xmlns="http://www.w3.org/2000/svg">
<path fill-rule="evenodd" clip-rule="evenodd" d="M25.8615 0.0705566C30.7552 0.0705566 33.9294 3.24483 33.9294 8.13851V25.8615C33.9294 30.7552 30.7552 33.9295 25.8615 33.9295H8.13848C3.2448 33.9295 0.0705261 30.7552 0.0705261 25.8615V8.13851C0.0705261 3.24483 3.2448 0.0705566 8.13848 0.0705566H25.8615Z" fill="white"/>
<path fill-rule="evenodd" clip-rule="evenodd" d="M25.8615 0.0705566C30.7552 0.0705566 33.9294 3.24483 33.9294 8.13851V25.8615C33.9294 30.7552 30.7552 33.9295 25.8615 33.9295H8.13848C3.2448 33.9295 0.0705261 30.7552 0.0705261 25.8615V8.13851C0.0705261 3.24483 3.2448 0.0705566 8.13848 0.0705566H25.8615Z" fill="white"/>
<path fill-rule="evenodd" clip-rule="evenodd" d="M2.31927 2.31927C0.929298 3.70923 0.141079 5.7072 0.141079 8.1385V25.8615C0.141079 28.2928 0.929298 30.2908 2.31927 31.6807C3.70923 33.0707 5.7072 33.8589 8.1385 33.8589H25.8615C28.2928 33.8589 30.2908 33.0707 31.6807 31.6807C33.0707 30.2908 33.8589 28.2928 33.8589 25.8615V8.1385C33.8589 5.7072 33.0707 3.70923 31.6807 2.31927C30.2908 0.929298 28.2928 0.141079 25.8615 0.141079H8.1385C5.7072 0.141079 3.70923 0.929298 2.31927 2.31927ZM2.21951 2.21951C3.6401 0.798917 5.67611 0 8.1385 0H25.8615C28.3239 0 30.3599 0.798917 31.7805 2.21951C33.2011 3.6401 34 5.67611 34 8.1385V25.8615C34 28.3239 33.2011 30.3599 31.7805 31.7805C30.3599 33.2011 28.3239 34 25.8615 34H8.1385C5.67611 34 3.6401 33.2011 2.21951 31.7805C0.798917 30.3599 0 28.3239 0 25.8615V8.1385C0 5.67611 0.798917 3.6401 2.21951 2.21951Z" fill="#A4A4A4"/>
<path fill-rule="evenodd" clip-rule="evenodd" d="M13.7624 6.33091C11.026 7.26891 8.69428 9.32039 7.39554 11.9166C6.9425 12.8122 6.6163 13.7623 6.41696 14.7487C5.92163 17.1936 6.26595 19.8018 7.3895 22.0289C8.12043 23.4812 9.17149 24.7763 10.44 25.7869C11.6421 26.7431 13.0375 27.4572 14.5235 27.8505C16.3961 28.3528 18.3895 28.3407 20.2742 27.911C21.9777 27.5177 23.5905 26.7007 24.8772 25.5146C26.2363 24.2619 27.2089 22.6159 27.7223 20.8427C28.284 18.9123 28.3565 16.8486 28.0064 14.8637C24.4846 14.8637 20.9568 14.8637 17.4351 14.8637C17.4351 16.3282 17.4351 17.7927 17.4351 19.2572C19.4768 19.2572 21.5186 19.2572 23.5603 19.2572C23.3247 20.6612 22.4911 21.9441 21.3132 22.7369C20.5702 23.2392 19.7185 23.5599 18.8366 23.7173C17.9546 23.8686 17.0364 23.8867 16.1545 23.7112C15.2544 23.5297 14.4027 23.1544 13.6537 22.628C12.4576 21.7868 11.5455 20.5583 11.0803 19.1725C10.6031 17.7624 10.5971 16.1951 11.0803 14.7911C11.4186 13.7986 11.9744 12.8848 12.7113 12.1344C13.6174 11.2025 14.7953 10.5368 16.0699 10.2645C17.1572 10.0345 18.305 10.0769 19.3681 10.3976C20.2742 10.6699 21.1078 11.1722 21.7904 11.8258C22.4791 11.1359 23.1677 10.446 23.8563 9.75613C24.2188 9.38698 24.5993 9.02991 24.9497 8.64866C23.9047 7.68041 22.6724 6.89974 21.3313 6.40351C18.9151 5.50788 16.1968 5.48971 13.7624 6.33091Z" fill="white"/>
<path fill-rule="evenodd" clip-rule="evenodd" d="M13.7624 6.33087C16.1907 5.48968 18.9151 5.50785 21.3313 6.39743C22.6723 6.89367 23.8986 7.66827 24.9497 8.64259C24.5993 9.02384 24.2188 9.38088 23.8563 9.75003C23.1677 10.4399 22.479 11.1298 21.7904 11.8197C21.1078 11.1661 20.2742 10.6699 19.3681 10.3915C18.305 10.0708 17.1572 10.0224 16.0699 10.2584C14.8014 10.5307 13.6235 11.1964 12.7113 12.1283C11.9744 12.8727 11.4186 13.7925 11.0803 14.785C9.85409 13.8288 8.62783 12.8787 7.39554 11.9226C8.69428 9.32036 11.026 7.26888 13.7624 6.33087Z" fill="#EA4335"/>
<path fill-rule="evenodd" clip-rule="evenodd" d="M6.42299 14.7428C6.62233 13.7624 6.94853 12.8063 7.40159 11.9106C8.62782 12.8668 9.85408 13.8169 11.0864 14.773C10.6031 16.1831 10.6031 17.7505 11.0864 19.1544C9.86012 20.1106 8.63389 21.0668 7.40763 22.0169C6.27198 19.7959 5.92766 17.1877 6.42299 14.7428Z" fill="#FBBC05"/>
<path fill-rule="evenodd" clip-rule="evenodd" d="M17.4351 14.8577C20.9568 14.8577 24.4846 14.8577 28.0064 14.8577C28.3566 16.8366 28.2781 18.9002 27.7224 20.8367C27.2089 22.6098 26.2364 24.2559 24.8772 25.5086C23.6872 24.5827 22.4972 23.6567 21.3072 22.7308C22.4851 21.9381 23.3187 20.6551 23.5543 19.2511C21.5126 19.2511 19.4708 19.2511 17.4291 19.2511C17.4351 17.7867 17.4351 16.3221 17.4351 14.8577Z" fill="#4285F4"/>
<path fill-rule="evenodd" clip-rule="evenodd" d="M7.39554 22.0228C8.6218 21.0727 9.84805 20.1166 11.0743 19.1604C11.5455 20.5462 12.4515 21.7747 13.6476 22.6159C14.3967 23.1424 15.2544 23.5176 16.1484 23.6991C17.0304 23.8807 17.9425 23.8565 18.8305 23.7052C19.7124 23.5478 20.5642 23.2271 21.3071 22.7248C22.4972 23.6507 23.6872 24.5766 24.8772 25.5025C23.5905 26.6947 21.9777 27.5056 20.2742 27.899C18.3895 28.3286 16.3961 28.3407 14.5235 27.8385C13.0375 27.4451 11.6421 26.7371 10.44 25.7749C9.17753 24.7703 8.12647 23.4752 7.39554 22.0228Z" fill="#34A853"/>
</svg>
