<svg width="52" height="52" viewBox="0 0 52 52" fill="none" xmlns="http://www.w3.org/2000/svg">
<path d="M51.9344 44.7778C51.9344 48.7673 48.7058 52 44.7213 52H7.21311C3.23003 52 0 48.7673 0 44.7778V7.22222C0 3.23267 3.23003 0 7.21311 0H44.7213C48.7058 0 51.9344 3.23267 51.9344 7.22222V44.7778Z" fill="#424242"/>
<path d="M36.0657 8.66602H28.8525V42.6105C32.4591 42.6105 36.0455 43.35 36.0657 43.3327C36.0859 43.3153 36.0657 8.66602 36.0657 8.66602Z" fill="#B71C1C"/>
<path d="M15.8688 8.66602H23.082V42.6105C19.4754 42.6105 15.889 43.35 15.8688 43.3327C15.8486 43.3153 15.8688 8.66602 15.8688 8.66602Z" fill="#B71C1C"/>
<path d="M23.0818 8.66602H15.8687L28.8523 42.6105C32.4588 42.6105 36.0452 43.35 36.0654 43.3327C36.0856 43.3153 23.0818 8.66602 23.0818 8.66602Z" fill="#E53935"/>
</svg>
