<svg width="53" height="52" viewBox="0 0 53 52" fill="none" xmlns="http://www.w3.org/2000/svg">
<path fill-rule="evenodd" clip-rule="evenodd" d="M40.5291 0C48.0353 0 52.9042 4.875 52.9042 12.3906V39.6094C52.9042 47.125 48.0353 52 40.5291 52H13.3447C5.83858 52 0.969727 47.125 0.969727 39.6094V12.3906C0.969727 4.875 5.83858 0 13.3447 0H40.5291Z" fill="#191414"/>
<path fill-rule="evenodd" clip-rule="evenodd" d="M27.1306 46.7582C38.4841 46.7582 47.6879 37.543 47.6879 26.1751C47.6879 14.8072 38.4841 5.5918 27.1306 5.5918C15.7771 5.5918 6.57324 14.8072 6.57324 26.1751C6.57324 37.543 15.7771 46.7582 27.1306 46.7582ZM42.2045 21.9251C42.1971 23.6502 40.645 24.59 39.3732 23.8586C36.8635 22.4155 34.1647 21.5151 31.3355 20.9987C26.0217 20.0292 20.7266 19.9971 15.4751 21.4342C14.3501 21.742 13.3306 21.2039 13.0209 20.143C12.7154 19.0965 13.2991 18.0765 14.4177 17.74C16.3313 17.1642 18.2937 16.8392 20.2791 16.6529C22.4632 16.4479 24.6516 16.404 26.8412 16.5592C31.6457 16.8996 36.293 17.8492 40.5912 20.1397C40.8327 20.2684 41.073 20.4014 41.3033 20.5489C41.8997 20.9313 42.1985 21.4828 42.2045 21.9251ZM23.6891 23.5446C28.201 23.5653 32.5334 24.416 36.6156 26.3916C37.2576 26.7023 37.8844 27.0504 38.4933 27.422C39.3126 27.9221 39.5409 28.8666 39.0673 29.6341C38.5874 30.4119 37.6536 30.6398 36.8392 30.153C33.7156 28.2863 30.3089 27.3209 26.7165 26.9294C23.2178 26.5481 19.7718 26.78 16.3832 27.7639C15.4873 28.0241 14.6212 27.5445 14.3686 26.68C14.1192 25.8259 14.6036 24.9555 15.5034 24.6829C16.7405 24.3081 18.0019 24.0323 19.2809 23.8494C20.7414 23.6407 22.2094 23.512 23.6891 23.5446ZM36.0636 33.6617C36.9126 34.1915 37.0588 35.1429 36.3931 35.7686C35.9518 36.1835 35.3588 36.2399 34.7987 35.8889C32.8187 34.6484 30.6804 33.8111 28.3956 33.3411C25.8123 32.8097 23.2101 32.7505 20.5941 33.0257C19.3397 33.1576 18.0963 33.3536 16.8606 33.6094C16.0905 33.7689 15.4422 33.328 15.2885 32.5862C15.1477 31.9059 15.6502 31.2581 16.3657 31.0905C20.0492 30.2275 21.4982 30.1607 24.1071 30.1907C28.3814 30.2885 32.4028 31.3779 36.0636 33.6617Z" fill="#1ED760"/>
</svg>
