<svg width="60" height="34" viewBox="0 0 60 34" fill="none" xmlns="http://www.w3.org/2000/svg">
<path d="M36 33.6H4.8C3.52696 33.6 2.30606 33.0943 1.40589 32.1941C0.505713 31.2939 0 30.073 0 28.8V4.8C0 3.52696 0.505713 2.30606 1.40589 1.40589C2.30606 0.505714 3.52696 0 4.8 0H36C37.273 0 38.4939 0.505714 39.3941 1.40589C40.2943 2.30606 40.8 3.52696 40.8 4.8V28.8C40.8 30.073 40.2943 31.2939 39.3941 32.1941C38.4939 33.0943 37.273 33.6 36 33.6ZM45.6 9.6V24L56.268 31.1136C56.6296 31.3549 57.05 31.4934 57.4842 31.5144C57.9184 31.5353 58.3501 31.438 58.7333 31.2327C59.1165 31.0275 59.4367 30.722 59.6598 30.3489C59.8829 29.9758 60.0005 29.5491 60 29.1144V4.4856C60.0001 4.0511 59.8822 3.62473 59.6589 3.25198C59.4356 2.87923 59.1154 2.57409 58.7322 2.3691C58.3491 2.16412 57.9176 2.06699 57.4836 2.08807C57.0496 2.10915 56.6294 2.24765 56.268 2.4888L45.6 9.6Z" fill="#2294B1"/>
</svg>
