<svg width="17" height="17" viewBox="0 0 17 17" fill="none" xmlns="http://www.w3.org/2000/svg">
<path d="M12.55 12.5495C11.3845 13.4379 9.9653 13.9301 8.5 13.954C3.72727 13.954 1 8.49948 1 8.49948C1.84811 6.91896 3.02441 5.53808 4.45 4.44948M7.06818 3.20858C7.5375 3.09872 8.018 3.04381 8.5 3.04494C13.2727 3.04494 16 8.49948 16 8.49948C15.5861 9.27376 15.0925 10.0027 14.5273 10.6745M9.94545 9.94494C9.75819 10.1459 9.53238 10.3071 9.28147 10.4189C9.03056 10.5307 8.75971 10.5908 8.48506 10.5956C8.21042 10.6005 7.93761 10.55 7.68292 10.4471C7.42822 10.3442 7.19686 10.1911 7.00262 9.99686C6.80839 9.80263 6.65527 9.57126 6.55239 9.31657C6.44952 9.06187 6.399 8.78907 6.40384 8.51442C6.40869 8.23978 6.4688 7.96892 6.5806 7.71802C6.69239 7.46711 6.85358 7.24129 7.05455 7.05403" stroke="#888888" stroke-width="1.7" stroke-linecap="round" stroke-linejoin="round"/>
<path d="M1 1L16 16" stroke="#888888" stroke-width="1.7" stroke-linecap="round" stroke-linejoin="round"/>
</svg>
