<svg width="347" height="389" viewBox="0 0 347 389" fill="none" xmlns="http://www.w3.org/2000/svg">
<g clip-path="url(#clip0_851_8152)">
<path d="M68.0696 33.394C65.72 33.9057 64.1876 35.5429 63.779 37.8964C63.6768 38.5104 63.779 39.5336 62.7574 39.2266C62.4509 39.1243 62.0423 38.1011 62.1445 37.4871C62.5531 34.4173 64.5962 32.6778 67.3545 31.4498C67.3545 30.1195 67.4567 28.7893 67.3545 27.459C67.3545 27.0497 66.7415 26.6404 66.3329 26.4357C64.1876 25.3102 62.7574 23.6729 62.1445 21.3194C62.0423 20.91 61.9402 20.5007 62.0423 20.0914C62.1445 19.6821 62.5531 19.3752 62.8596 18.9659C63.166 19.2728 63.6768 19.5798 63.779 19.9892C64.0854 22.3426 65.3114 23.8776 67.4567 24.7985C67.661 24.9009 67.8653 24.9009 68.1718 25.0032C70.0107 21.7287 72.8711 20.1938 76.651 20.1938C77.0595 20.1938 77.7747 19.4775 77.979 18.8635C80.2264 13.8495 82.7804 9.04011 86.356 4.94703C87.5819 3.51444 89.2163 2.18419 90.8508 1.16092C94.3242 -0.98795 98.1041 -0.0670059 100.454 3.20746C104.847 9.24477 104.847 15.1797 100.045 20.9101C98.0019 23.3659 95.2437 25.4125 92.894 27.5614C92.3832 28.073 91.7703 28.38 91.0552 28.994C92.3833 30.0172 93.7113 31.0405 94.9372 31.9614C98.4106 34.8266 101.577 37.9987 103.11 42.3988C105.051 47.8221 101.578 54.5757 98.4106 56.7246C95.6524 58.6688 91.9746 58.4642 89.0121 55.599C86.5602 53.2455 84.3128 50.4826 82.4739 47.6174C80.6351 44.9569 79.4092 41.7848 77.8769 38.9197C77.5704 38.408 76.9574 37.8964 76.5487 37.8964C72.6667 38.1011 69.8063 36.5662 68.0696 33.394ZM84.9257 29.0962C85.743 28.5847 86.4582 28.073 87.071 27.6637C90.8509 25.0031 94.7329 22.445 97.5934 18.6589C100.965 14.2588 100.965 9.65408 97.5934 5.35634C95.9589 3.3098 94.2221 3.00281 92.0768 4.33307C91.0552 4.94703 90.1358 5.76564 89.3185 6.68659C84.8235 11.7006 81.7588 17.6356 79.6134 23.9799C78.4897 27.1521 78.3876 30.3242 79.3071 33.4964C81.248 39.8406 84.4149 45.5709 88.5012 50.6873C89.5228 52.0176 90.953 53.1431 92.3832 54.0641C94.2221 55.2921 95.7545 55.0874 97.0826 53.4502C100.249 49.7664 101.271 45.4686 98.7171 41.2732C96.8782 38.3057 94.3242 36.0545 91.566 33.9057C89.4206 32.2683 87.1732 30.7335 84.9257 29.0962ZM76.038 34.4173C74.9142 30.9381 74.9142 27.3567 76.038 23.8776C72.4624 23.7752 70.4193 26.0264 70.5214 29.5056C70.7258 32.6778 72.871 34.6219 76.038 34.4173Z" fill="#060626"/>
<path d="M95.2437 27.0508C95.2437 28.4834 95.2437 29.7113 95.2437 31.1439C94.3242 30.4275 93.507 29.9159 92.4854 29.1996C93.507 28.381 94.222 27.8694 95.2437 27.0508Z" fill="black"/>
<path d="M84.9259 29.0957C87.2756 30.7329 89.5231 32.2678 91.6684 33.905C94.4267 35.9516 96.9806 38.2028 98.8195 41.2726C101.373 45.4681 100.352 49.8681 97.1849 53.4496C95.7547 55.0867 94.2224 55.2915 92.4857 54.0636C91.0555 53.1426 89.7274 52.017 88.6036 50.6867C84.5173 45.5703 81.3504 39.7377 79.4094 33.4957C78.3879 30.3236 78.5921 27.1514 79.7159 23.9793C81.9633 17.635 85.0281 11.8024 89.4209 6.68601C90.2382 5.76506 91.1576 5.04879 92.1792 4.3325C94.3245 2.89991 96.0611 3.30922 97.6957 5.35576C101.067 9.65351 101.067 14.2583 97.6957 18.6583C94.8352 22.3421 90.9533 25.0026 87.1734 27.6631C86.3561 28.0724 85.6411 28.584 84.9259 29.0957Z" fill="white"/>
<path d="M76.0379 34.4174C72.871 34.7243 70.7257 32.6778 70.6235 29.4033C70.5214 26.0266 72.5646 23.7754 76.1401 23.7754C75.0163 27.3568 74.9142 30.9383 76.0379 34.4174Z" fill="#E6952A"/>
<path d="M144.756 30.6235L144.647 27.6029C145.759 27.6515 146.725 27.5908 147.547 27.421C148.393 27.2512 149.093 26.9479 149.649 26.5112C150.229 26.0502 150.664 25.4194 150.954 24.6188C151.244 23.8182 151.389 22.8356 151.389 21.671C151.389 20.094 151.244 18.8688 150.954 17.9954C150.688 17.0978 150.229 16.4669 149.577 16.103C148.948 15.7391 148.091 15.5571 147.003 15.5571C146.544 15.5571 146.025 15.5814 145.445 15.6299C144.865 15.6785 144.249 15.7513 143.596 15.8483L142.219 12.7913C142.702 12.7671 143.173 12.7428 143.633 12.7186C144.116 12.67 144.575 12.6458 145.01 12.6458C145.469 12.6215 145.892 12.6094 146.278 12.6094C148.284 12.6094 149.927 12.852 151.208 13.3372C152.488 13.7981 153.431 14.6837 154.035 15.9938C154.663 17.2797 154.977 19.1357 154.977 21.5618C154.977 23.8182 154.554 25.6135 153.709 26.9479C152.887 28.258 151.703 29.2042 150.157 29.7865C148.634 30.3445 146.834 30.6235 144.756 30.6235ZM142.255 38.8845C142.279 37.8655 142.304 36.6282 142.328 35.1725C142.352 33.6926 142.364 32.1277 142.364 30.4779C142.388 28.8281 142.4 27.2512 142.4 25.7469C142.4 24.2185 142.388 22.6414 142.364 21.016C142.364 19.3905 142.352 17.862 142.328 16.4306C142.304 14.9749 142.267 13.7618 142.219 12.7913L146.133 13.0825C146.109 13.689 146.085 14.3926 146.061 15.1932C146.061 15.9938 146.049 16.8551 146.025 17.7771C146.001 18.6747 145.988 19.5845 145.988 20.5065C145.988 21.4284 145.976 22.3382 145.952 23.2359C145.952 24.1093 145.964 24.9221 145.988 25.6742C145.988 26.4262 145.988 27.3482 145.988 28.44C146.013 29.5075 146.025 30.6477 146.025 31.8608C146.049 33.0739 146.061 34.2627 146.061 35.4273C146.085 36.5918 146.097 37.6593 146.097 38.6298L142.255 38.8845ZM152.078 38.8845C151.449 37.2347 150.773 35.585 150.048 33.9352C149.347 32.2611 148.574 30.5385 147.728 28.7675L151.208 27.6393C151.933 29.4347 152.718 31.2543 153.564 33.0982C154.434 34.9178 155.424 36.8102 156.536 38.7753L152.078 38.8845ZM166.619 39.1029C165.242 39.1029 164.142 38.7511 163.321 38.0475C162.523 37.3439 161.919 36.4098 161.508 35.2453C161.218 34.3477 161.013 33.3651 160.892 32.2975C160.771 31.2058 160.711 30.0534 160.711 28.8403C160.711 27.8213 160.759 26.8509 160.856 25.9289C160.977 25.0069 161.158 24.1579 161.4 23.3815C161.81 22.0956 162.451 21.0645 163.321 20.2881C164.215 19.5117 165.411 19.1236 166.909 19.1236C168.189 19.1236 169.192 19.4025 169.917 19.9606C170.666 20.4943 171.198 21.2465 171.512 22.2169C171.85 23.1873 172.019 24.3276 172.019 25.6378C172.019 26.2928 171.983 26.9843 171.911 27.7121C171.838 28.4157 171.741 29.1436 171.621 29.8956L168.504 27.6029C168.552 27.1177 168.588 26.6567 168.612 26.22C168.661 25.7833 168.685 25.3709 168.685 24.9827C168.685 24.3276 168.624 23.7575 168.504 23.2723C168.383 22.787 168.177 22.411 167.887 22.1441C167.622 21.853 167.223 21.7074 166.691 21.7074C166.063 21.7074 165.568 21.95 165.205 22.4353C164.867 22.9205 164.613 23.5756 164.444 24.4004C164.299 24.9827 164.203 25.6378 164.154 26.3656C164.13 27.0935 164.118 27.8455 164.118 28.6219C164.118 29.2528 164.118 29.8714 164.118 30.4779C164.142 31.0844 164.166 31.6546 164.19 32.1884C164.215 32.6978 164.275 33.1831 164.372 33.644C164.517 34.4932 164.77 35.1725 165.133 35.682C165.495 36.1673 166.027 36.4098 166.728 36.4098C167.259 36.4098 167.682 36.3007 167.996 36.0823C168.31 35.8397 168.528 35.5243 168.649 35.1361C168.794 34.7236 168.866 34.2749 168.866 33.7896C168.866 33.5713 168.854 33.3407 168.83 33.0982C168.806 32.8556 168.757 32.6129 168.685 32.3703H171.911C171.959 32.6372 171.995 32.892 172.019 33.1346C172.044 33.3771 172.056 33.6198 172.056 33.8624C172.056 34.9056 171.85 35.8276 171.44 36.6282C171.029 37.4046 170.425 38.0111 169.627 38.4478C168.83 38.8845 167.827 39.1029 166.619 39.1029ZM161.835 30.1868L161.726 27.421L171.222 27.3482L171.621 29.8956C171.621 29.8956 171.403 29.8956 170.968 29.8956C170.558 29.8956 169.99 29.9078 169.265 29.932C168.564 29.9563 167.779 29.9806 166.909 30.0048C166.039 30.0048 165.157 30.029 164.263 30.0776C163.393 30.1018 162.584 30.1382 161.835 30.1868ZM183.419 39.0665C182.018 39.0665 180.918 38.7025 180.121 37.9747C179.324 37.2469 178.732 36.2764 178.345 35.0633C178.104 34.2385 177.935 33.3407 177.838 32.3703C177.741 31.3756 177.693 30.3202 177.693 29.2042C177.693 28.0396 177.754 26.9479 177.874 25.9289C178.019 24.8857 178.249 23.9395 178.562 23.0903C178.852 22.2897 179.227 21.5982 179.686 21.016C180.17 20.4095 180.762 19.9484 181.462 19.6331C182.187 19.2934 183.021 19.1236 183.963 19.1236C185.293 19.1236 186.319 19.3905 187.044 19.9242C187.794 20.4579 188.312 21.2101 188.602 22.1805C188.917 23.1267 189.073 24.267 189.073 25.6014C189.073 26.0866 189.05 26.5961 189.001 27.1298C188.977 27.6393 188.928 28.173 188.856 28.7311L185.521 28.2216C185.57 27.6636 185.606 27.1298 185.63 26.6204C185.679 26.0866 185.703 25.6014 185.703 25.1647C185.703 24.461 185.643 23.8546 185.521 23.3451C185.425 22.8113 185.231 22.411 184.942 22.1441C184.652 21.853 184.242 21.7074 183.709 21.7074C183.082 21.7074 182.586 21.9622 182.223 22.4716C181.886 22.9569 181.632 23.612 181.462 24.4368C181.317 25.0677 181.221 25.7833 181.172 26.584C181.148 27.3604 181.136 28.173 181.136 29.0222C181.136 29.6045 181.136 30.1626 181.136 30.6963C181.161 31.23 181.185 31.7274 181.208 32.1884C181.233 32.6493 181.281 33.086 181.353 33.4985C181.474 34.3961 181.704 35.1119 182.042 35.6456C182.404 36.1551 182.948 36.4098 183.673 36.4098C184.47 36.4098 185.026 36.2279 185.34 35.864C185.679 35.5 185.848 35.0269 185.848 34.4447C185.848 34.2263 185.836 34.0201 185.811 33.826C185.788 33.6319 185.751 33.4257 185.703 33.2073L188.783 32.7342C188.832 32.9768 188.856 33.2195 188.856 33.4621C188.881 33.7047 188.892 33.9352 188.892 34.1535C188.892 35.1483 188.7 36.0217 188.312 36.7738C187.926 37.5016 187.334 38.0717 186.536 38.4842C185.739 38.8723 184.7 39.0665 183.419 39.0665ZM201.889 30.114C202.179 28.9252 202.397 27.8213 202.542 26.8023C202.687 25.7591 202.759 24.8493 202.759 24.0729C202.759 23.2965 202.651 22.7022 202.433 22.2897C202.216 21.853 201.841 21.6346 201.31 21.6346C200.875 21.6346 200.451 21.853 200.041 22.2897C199.63 22.7022 199.291 23.3572 199.026 24.2549C198.784 25.1525 198.664 26.3292 198.664 27.7849L197.141 29.3134C197.141 28.3186 197.189 27.3118 197.286 26.2928C197.406 25.2738 197.576 24.3276 197.794 23.4542C198.035 22.5566 198.337 21.768 198.7 21.0887C199.086 20.3851 199.557 19.8392 200.113 19.4511C200.668 19.063 201.321 18.8688 202.071 18.8688C202.988 18.8688 203.713 19.0872 204.245 19.5239C204.777 19.9606 205.163 20.5793 205.405 21.3799C205.646 22.1805 205.768 23.0903 205.768 24.1093C205.768 24.9827 205.695 25.9411 205.55 26.9843C205.405 28.0033 205.211 29.0465 204.97 30.114H201.889ZM195.039 38.6662C195.087 37.9869 195.123 37.3196 195.148 36.6646C195.195 35.9853 195.232 35.2817 195.257 34.5538C195.28 33.8018 195.304 33.0011 195.329 32.152C195.353 31.2785 195.365 30.3081 195.365 29.2406C195.389 28.1003 195.389 27.0449 195.365 26.0745C195.365 25.0797 195.34 24.1699 195.293 23.3451C195.268 22.5202 195.232 21.7802 195.184 21.1251C195.159 20.4459 195.123 19.8514 195.075 19.3419L198.482 19.16C198.482 19.7908 198.482 20.5186 198.482 21.3435C198.482 22.1683 198.494 23.1145 198.519 24.1821C198.566 25.2253 198.615 26.4262 198.664 27.7849C198.664 28.8767 198.664 29.932 198.664 30.951C198.664 31.97 198.675 32.9404 198.7 33.8624C198.724 34.7844 198.736 35.6456 198.736 36.4462C198.76 37.2469 198.784 37.9747 198.809 38.6298L195.039 38.6662ZM214.446 39.0301C213.48 39.0301 212.719 38.7996 212.163 38.3386C211.631 37.8777 211.256 37.2226 211.039 36.3735C210.845 35.5 210.749 34.4689 210.749 33.2801C210.749 32.7464 210.749 32.1277 210.749 31.4241C210.773 30.6963 210.773 29.9199 210.749 29.095C210.749 28.2702 210.749 27.421 210.749 26.5476C210.749 25.6742 210.737 24.8129 210.713 23.9637C210.713 23.1145 210.713 22.2897 210.713 21.4891C210.737 20.6884 210.749 19.9606 210.749 19.3055L214.156 18.8688C214.132 19.5967 214.096 20.4822 214.047 21.5255C214.024 22.5687 213.999 23.6726 213.975 24.8371C213.951 26.0017 213.915 27.1298 213.866 28.2216C213.842 29.3134 213.817 30.3081 213.794 31.2058C213.794 32.0792 213.794 32.7464 213.794 33.2073C213.794 33.8624 213.83 34.4325 213.902 34.9178C213.999 35.403 214.144 35.779 214.337 36.0459C214.531 36.2885 214.821 36.4098 215.207 36.4098C215.811 36.4098 216.367 36.0945 216.874 35.4636C217.382 34.8328 217.793 33.8988 218.107 32.6615C218.421 31.3999 218.578 29.8593 218.578 28.0396C218.578 27.4332 218.565 26.8145 218.542 26.1836C218.542 25.5528 218.529 24.8978 218.505 24.2185C218.505 23.5392 218.493 22.8477 218.469 22.1441C218.469 21.4163 218.469 20.6763 218.469 19.9242L222.021 19.9606C221.972 21.4648 221.936 22.787 221.912 23.9273C221.889 25.0677 221.864 26.1594 221.84 27.2026C221.84 28.2458 221.828 29.3376 221.804 30.4779C221.804 31.6182 221.804 32.9404 221.804 34.4447C221.804 35.0269 221.828 35.5364 221.876 35.9731C221.949 36.4098 222.045 36.798 222.166 37.1377C222.311 37.4774 222.48 37.8049 222.674 38.1203L219.847 39.0301C219.58 38.6904 219.363 38.2658 219.194 37.7564C219.025 37.2226 218.904 36.519 218.832 35.6456C218.397 36.6888 217.829 37.5138 217.128 38.1203C216.427 38.7268 215.533 39.0301 214.446 39.0301ZM232.536 38.6662L228.657 38.6298C228.681 38.3386 228.705 37.8898 228.73 37.2833C228.777 36.6524 228.814 35.9004 228.839 35.0269C228.862 34.1535 228.886 33.1831 228.911 32.1156C228.935 31.048 228.947 29.9199 228.947 28.7311C228.947 27.1056 228.922 25.6378 228.875 24.3276C228.826 22.9933 228.777 21.9015 228.73 21.0524C228.681 20.2032 228.657 19.6573 228.657 19.4147H232.427C232.402 19.6088 232.378 20.1425 232.354 21.016C232.329 21.8894 232.306 22.9933 232.282 24.3276C232.257 25.662 232.246 27.142 232.246 28.7675C232.246 29.9078 232.257 30.9996 232.282 32.0428C232.306 33.086 232.329 34.0444 232.354 34.9178C232.402 35.7912 232.438 36.5554 232.463 37.2105C232.511 37.8413 232.536 38.3265 232.536 38.6662ZM232.354 16.3214L228.766 16.5397L228.694 12.9369L232.427 12.7186L232.354 16.3214ZM244.447 39.0301C243.48 39.0301 242.683 38.8967 242.054 38.6298C241.426 38.3386 240.931 37.9383 240.568 37.4288C240.206 36.9193 239.952 36.3128 239.807 35.6092C239.662 34.9056 239.59 34.1171 239.59 33.2437C239.59 32.807 239.59 32.3461 239.59 31.8608C239.614 31.3513 239.626 30.8176 239.626 30.2596C239.65 29.6773 239.675 29.0829 239.699 28.4764C239.699 27.7 239.711 26.9115 239.735 26.1109C239.759 25.3102 239.783 24.5096 239.807 23.709C239.856 22.9084 239.88 22.1077 239.88 21.3071C239.904 20.4822 239.928 19.6695 239.952 18.8688C239.976 18.044 239.988 17.2433 239.988 16.4669L243.794 15.9575C243.722 16.8794 243.649 17.8741 243.577 18.9416C243.504 20.0092 243.432 21.113 243.359 22.2533C243.311 23.3693 243.263 24.4854 243.214 25.6014C243.166 26.7174 243.118 27.8091 243.069 28.8767C243.046 29.7259 243.021 30.5143 242.997 31.2422C242.997 31.9458 242.997 32.5523 242.997 33.0618C242.997 33.7654 243.033 34.3719 243.106 34.8814C243.178 35.3909 243.335 35.7912 243.577 36.0823C243.818 36.3492 244.169 36.4826 244.628 36.4826C245.232 36.4826 245.666 36.3371 245.933 36.0459C246.223 35.7306 246.416 35.3059 246.513 34.7722C246.609 34.2385 246.658 33.6319 246.658 32.9526C246.658 32.71 246.645 32.4553 246.621 32.1884C246.621 31.9214 246.609 31.6546 246.585 31.3877C246.561 31.0966 246.525 30.8055 246.476 30.5143L249.63 29.7137C249.678 30.2232 249.715 30.7205 249.738 31.2058C249.787 31.6667 249.811 32.1156 249.811 32.5523C249.811 33.911 249.63 35.0755 249.267 36.0459C248.929 36.9921 248.361 37.7321 247.564 38.2658C246.79 38.7753 245.751 39.0301 244.447 39.0301ZM237.705 22.4716L237.959 19.4875C238.007 19.4875 238.236 19.4875 238.647 19.4875C239.059 19.4875 239.53 19.4997 240.061 19.5239C240.617 19.5239 241.136 19.5239 241.619 19.5239C242.103 19.5239 242.417 19.5239 242.562 19.5239C242.948 19.5239 243.432 19.5239 244.012 19.5239C244.592 19.4997 245.208 19.4875 245.86 19.4875C246.513 19.4633 247.153 19.4511 247.781 19.4511C248.434 19.4269 249.026 19.4147 249.557 19.4147L249.376 22.1441C249.037 22.1441 248.651 22.1563 248.216 22.1805C247.781 22.1805 247.334 22.1805 246.875 22.1805C246.44 22.1805 245.993 22.1927 245.534 22.2169C245.075 22.2169 244.64 22.2291 244.229 22.2533C243.843 22.2533 243.492 22.2533 243.178 22.2533C242.671 22.2533 242.078 22.2775 241.402 22.3261C240.726 22.3503 240.061 22.3746 239.409 22.3989C238.756 22.4231 238.189 22.4474 237.705 22.4716ZM261.082 39.1029C259.656 39.1029 258.532 38.7875 257.711 38.1567C256.889 37.5258 256.285 36.6404 255.899 35.5C255.609 34.6509 255.415 33.6683 255.319 32.5523C255.222 31.4119 255.174 30.1746 255.174 28.8403C255.174 27.7971 255.222 26.8145 255.319 25.8925C255.415 24.9463 255.584 24.0971 255.826 23.3451C256.091 22.4716 256.466 21.7196 256.95 21.0887C257.432 20.4579 258.037 19.9728 258.762 19.6331C259.487 19.2934 260.357 19.1236 261.372 19.1236C262.7 19.1236 263.739 19.3783 264.489 19.8878C265.261 20.3973 265.805 21.1251 266.12 22.0713C266.457 23.0175 266.627 24.1579 266.627 25.4922C266.627 26.0259 266.602 26.5718 266.555 27.1298C266.53 27.6879 266.47 28.2702 266.374 28.8767C266.301 29.4832 266.216 30.1262 266.12 30.8055L262.967 28.6947C263.039 28.2094 263.099 27.7485 263.148 27.3118C263.195 26.8509 263.232 26.4262 263.257 26.0381C263.304 25.6256 263.329 25.2496 263.329 24.9099C263.329 23.8667 263.172 23.0781 262.858 22.5444C262.543 21.9864 261.988 21.7074 261.191 21.7074C260.49 21.7074 259.958 21.9864 259.596 22.5444C259.233 23.0781 258.98 23.8182 258.835 24.7644C258.786 25.1283 258.737 25.5286 258.69 25.9653C258.641 26.3778 258.605 26.8145 258.581 27.2754C258.581 27.7121 258.581 28.161 258.581 28.6219C258.581 29.3498 258.581 30.0534 258.581 30.7327C258.605 31.3877 258.629 31.9942 258.653 32.5523C258.701 33.086 258.762 33.5713 258.835 34.008C258.98 34.7844 259.233 35.3787 259.596 35.7912C259.958 36.2037 260.49 36.4098 261.191 36.4098C261.963 36.4098 262.507 36.2279 262.822 35.864C263.135 35.5 263.293 35.0148 263.293 34.4083C263.293 34.2141 263.28 34.0201 263.257 33.826C263.232 33.6076 263.184 33.3771 263.112 33.1346L266.337 33.3893C266.385 33.5834 266.41 33.7896 266.41 34.008C266.434 34.2263 266.446 34.4447 266.446 34.663C266.446 35.5364 266.24 36.3128 265.83 36.9921C265.443 37.6472 264.851 38.1688 264.054 38.557C263.28 38.9209 262.289 39.1029 261.082 39.1029ZM256.298 31.0602L256.225 28.3308L265.685 28.258L266.12 30.8055C266.12 30.8055 265.902 30.8055 265.468 30.8055C265.033 30.8055 264.453 30.8176 263.728 30.8418C263.027 30.8418 262.242 30.854 261.372 30.8782C260.502 30.9025 259.62 30.9268 258.726 30.951C257.856 30.9752 257.046 31.0116 256.298 31.0602ZM279.44 30.114C279.73 28.9252 279.947 27.8213 280.092 26.8023C280.237 25.7591 280.31 24.8493 280.31 24.0729C280.31 23.2965 280.201 22.7022 279.984 22.2897C279.766 21.853 279.392 21.6346 278.86 21.6346C278.425 21.6346 278.003 21.853 277.591 22.2897C277.181 22.7022 276.843 23.3572 276.577 24.2549C276.335 25.1525 276.214 26.3292 276.214 27.7849L274.692 29.3134C274.692 28.3186 274.741 27.3118 274.837 26.2928C274.958 25.2738 275.127 24.3276 275.344 23.4542C275.587 22.5566 275.888 21.768 276.25 21.0887C276.638 20.3851 277.109 19.8392 277.664 19.4511C278.22 19.063 278.872 18.8688 279.621 18.8688C280.54 18.8688 281.265 19.0872 281.796 19.5239C282.328 19.9606 282.714 20.5793 282.956 21.3799C283.198 22.1805 283.318 23.0903 283.318 24.1093C283.318 24.9827 283.246 25.9411 283.101 26.9843C282.956 28.0033 282.763 29.0465 282.521 30.114H279.44ZM272.59 38.6662C272.638 37.9869 272.675 37.3196 272.698 36.6646C272.747 35.9853 272.783 35.2817 272.807 34.5538C272.832 33.8018 272.856 33.0011 272.88 32.152C272.905 31.2785 272.916 30.3081 272.916 29.2406C272.941 28.1003 272.941 27.0449 272.916 26.0745C272.916 25.0797 272.892 24.1699 272.843 23.3451C272.82 22.5202 272.783 21.7802 272.735 21.1251C272.711 20.4459 272.675 19.8514 272.626 19.3419L276.033 19.16C276.033 19.7908 276.033 20.5186 276.033 21.3435C276.033 22.1683 276.045 23.1145 276.069 24.1821C276.118 25.2253 276.167 26.4262 276.214 27.7849C276.214 28.8767 276.214 29.932 276.214 30.951C276.214 31.97 276.227 32.9404 276.25 33.8624C276.275 34.7844 276.287 35.6456 276.287 36.4462C276.312 37.2469 276.335 37.9747 276.359 38.6298L272.59 38.6662Z" fill="#060626"/>
<path d="M122.912 37.0574C121.993 37.1297 121.069 36.9855 120.216 36.6361C119.362 36.2869 118.602 35.7421 117.997 35.0458C116.917 33.6688 116.35 31.9576 116.395 30.2072C114.952 32.171 113.122 33.8178 111.018 35.0458C109.162 36.1577 107.045 36.758 104.882 36.7856C104.014 36.8781 103.136 36.7801 102.31 36.4982C101.484 36.2164 100.729 35.7575 100.098 35.1536C99.4676 34.5497 98.976 33.8154 98.6578 33.0018C98.3397 32.1882 98.2026 31.3149 98.2562 30.4427C98.2927 28.6538 98.7093 26.8931 99.4781 25.2779C100.316 23.4283 101.414 21.7076 102.737 20.1675C104.014 18.6418 105.527 17.3296 107.217 16.2803C108.657 15.3407 110.332 14.8229 112.05 14.7852C112.866 14.7801 113.666 15.0063 114.358 15.4376C115.064 15.8726 115.417 16.7605 115.417 18.1016C115.413 19.4914 114.987 20.8472 114.196 21.9887C113.332 23.2526 112.246 24.3486 110.991 25.2235C109.648 26.1775 108.188 26.9541 106.647 27.5342C105.138 28.1165 103.558 28.4914 101.949 28.6486C101.877 29.011 101.822 29.3554 101.786 29.6816C101.752 29.9825 101.734 30.2849 101.732 30.5877C101.734 31.3201 101.862 32.0467 102.112 32.7352C102.358 33.435 102.813 34.0423 103.415 34.475C104.19 34.9728 105.103 35.2108 106.022 35.1545C108.092 35.1025 110.09 34.388 111.724 33.1157C113.637 31.7419 115.31 30.0611 116.676 28.1413C117.032 26.5774 117.617 25.0751 118.413 23.6832C119.238 22.2079 120.251 20.8462 121.427 19.6329C122.546 18.4635 123.837 17.4733 125.256 16.6971C126.534 15.9799 127.973 15.5967 129.438 15.5826C130.253 15.5775 131.054 15.8037 131.746 16.235C132.452 16.6699 132.805 17.5579 132.805 18.8989C132.823 20.7007 132.153 22.4412 130.931 23.7648C129.596 25.2209 127.954 26.3628 126.125 27.1083C124.206 27.9325 122.174 28.464 120.097 28.6849C120.025 29.0473 119.97 29.3917 119.934 29.7179C119.9 30.0188 119.881 30.3212 119.88 30.624C119.885 31.3805 120.004 32.132 120.233 32.853C120.452 33.5894 120.887 34.2429 121.482 34.7287C122.231 35.2645 123.143 35.5239 124.061 35.4626C125.716 35.4364 127.331 34.957 128.732 34.0763C130.358 33.099 131.823 31.8765 133.076 30.4518C134.396 28.9761 135.527 27.3417 136.444 25.586L137.095 26.0753C136.163 28.183 134.887 30.1212 133.321 31.811C131.891 33.3767 130.2 34.6828 128.325 35.671C126.659 36.5638 124.802 37.0394 122.912 37.0574ZM102.194 27.6519C104.661 26.7829 106.978 25.5358 109.063 23.955C110.146 23.1444 111.098 22.1726 111.887 21.0736C112.599 20.1137 112.989 18.9527 113.001 17.7572C113.016 17.4406 112.941 17.1262 112.783 16.8512C112.67 16.7285 112.528 16.6349 112.37 16.5781C112.213 16.5214 112.044 16.5032 111.878 16.5249C110.875 16.5716 109.909 16.9224 109.109 17.5307C108.051 18.2757 107.101 19.163 106.285 20.1675C105.358 21.2957 104.539 22.5092 103.841 23.792C103.143 25.0097 102.59 26.3053 102.194 27.6519ZM120.296 27.6519C121.388 27.2792 122.458 26.8436 123.5 26.3471C124.659 25.8032 125.768 25.1573 126.813 24.4171C127.819 23.7176 128.7 22.8538 129.42 21.8619C130.095 20.9398 130.457 19.8249 130.452 18.6815C130.461 18.3269 130.367 17.9772 130.18 17.6757C130.065 17.5299 129.915 17.4158 129.744 17.3445C129.573 17.2731 129.387 17.2467 129.203 17.268C127.889 17.3342 126.645 17.875 125.7 18.7902C124.435 19.9105 123.354 21.2221 122.496 22.6774C121.568 24.2345 120.85 25.907 120.359 27.6519H120.296Z" fill="#E6952A"/>
</g>
<g clip-path="url(#clip1_851_8152)">
<path d="M153.072 227.689C156.462 224.475 156.574 219.102 153.443 215.636C152.766 214.887 152.173 214.183 151.831 213.671C150.605 211.834 144.882 187.55 140.385 193.06C135.888 198.569 139.489 224.177 144.552 228.888C147.215 231.365 150.48 230.147 153.072 227.689Z" fill="#FFE2BD"/>
<path d="M154.284 219.82C154.284 219.82 192.334 233.301 181.181 236.888C170.027 240.475 141.752 234.797 137.868 232.246C133.984 229.695 132.977 213.911 154.284 219.82Z" fill="#FFA982"/>
<path d="M114.48 286.17C114.48 286.17 122.189 364.312 124.507 363.637C125.227 363.428 126.658 363.501 127.003 361.719C129.84 347.045 120.264 284.486 120.264 284.486L114.48 286.17ZM100.742 285.635C100.742 285.635 82.1684 361.332 84.5368 361.712C85.2726 361.83 86.5737 362.519 87.4795 361.018C94.9343 348.661 106.651 286.585 106.651 286.585L100.742 285.635ZM160.965 286.17C160.965 286.17 168.674 364.312 170.992 363.637C171.712 363.428 173.143 363.501 173.488 361.719C176.325 347.045 166.749 284.486 166.749 284.486L160.965 286.17ZM147.227 285.635C147.227 285.635 128.653 361.332 131.022 361.712C131.758 361.83 133.059 362.519 133.964 361.018C141.419 348.661 153.136 286.585 153.136 286.585L147.227 285.635Z" fill="#CC8B70"/>
<path d="M85.2255 234.839C85.2255 234.839 84.637 196.453 106.239 190.683C127.84 184.913 144.078 231.342 149.209 235.163C154.341 238.985 179.456 238.916 183.046 250.226C186.635 261.536 187.382 281.254 168.755 286.753C150.128 292.253 103.645 294.947 92.1496 284.017C80.6542 273.087 85.2255 234.839 85.2255 234.839Z" fill="#84CECA"/>
<path d="M208.966 356.37C206.212 358.231 205.384 357.722 204.161 356.742C203.467 356.186 202.279 355.831 201.268 355.653C201.792 353.986 201.031 348.417 201.074 347.407C201.156 345.461 210.212 342.385 211.157 345.909C211.157 345.909 212.658 349.709 212.99 349.888C212.798 349.98 212.61 350.101 212.429 350.259C210.56 351.89 211.72 354.51 208.966 356.37Z" fill="white"/>
<path d="M235.156 358.364C232.924 359.374 218.741 362.052 216.753 362.342C214.766 362.632 209.712 362.246 209.002 362.158C208.292 362.07 207.435 362.51 206.157 362.888C205.163 363.182 201.711 364.038 200.227 364.403C200.182 362.085 200.147 359.248 200.233 358.872C200.304 358.56 200.782 357.199 201.268 355.654C202.279 355.831 203.467 356.186 204.161 356.742C205.384 357.722 206.212 358.231 208.966 356.371C211.72 354.51 210.56 351.89 212.429 350.259C212.61 350.102 212.798 349.98 212.99 349.889C214.331 350.615 217.757 352.475 218.248 352.796C218.837 353.181 228.94 353.854 235.323 355.382C234.494 356.109 237.093 357.488 235.156 358.364Z" fill="#2E2E47"/>
<path d="M200.227 364.403C201.711 364.038 205.163 363.182 206.157 362.888C207.435 362.51 208.292 362.07 209.002 362.158C209.712 362.246 214.765 362.632 216.753 362.342C218.741 362.052 232.923 359.374 235.156 358.364C237.092 357.488 234.494 356.109 235.323 355.383C235.567 355.441 235.806 355.501 236.039 355.562C238.369 356.173 240.956 359.113 230.495 361.334C220.035 363.555 209.19 365.661 209.19 365.661L208.586 363.819L207.85 366.094L200.297 367.49C200.296 367.489 200.259 366.082 200.227 364.403Z" fill="#2E2E47"/>
<path d="M152.298 358.944C149.053 359.669 148.469 358.893 147.691 357.534C147.249 356.763 146.273 355.998 145.397 355.463C146.497 354.104 147.83 348.643 148.24 347.719C149.031 345.937 158.586 346.386 158.173 350.01C158.173 350.01 158.177 354.094 158.42 354.383C158.207 354.398 157.987 354.442 157.761 354.523C155.425 355.358 155.544 358.22 152.298 358.944Z" fill="white"/>
<path d="M175.939 370.369C173.491 370.493 159.311 367.801 157.355 367.345C155.399 366.888 150.838 364.681 150.21 364.34C149.581 363.999 148.623 364.095 147.295 363.98C146.262 363.89 142.736 363.425 141.221 363.223C142.029 361.049 143.037 358.396 143.255 358.078C143.435 357.813 144.379 356.721 145.398 355.461C146.274 355.996 147.249 356.76 147.691 357.531C148.469 358.89 149.053 359.666 152.299 358.942C155.544 358.217 155.425 355.355 157.762 354.521C157.988 354.44 158.208 354.396 158.42 354.381C159.402 355.547 161.908 358.53 162.247 359.007C162.654 359.581 171.809 363.901 177.188 367.656C176.15 368.028 178.063 370.261 175.939 370.369Z" fill="#2E2E47"/>
<path d="M141.22 363.224C142.735 363.426 146.261 363.891 147.295 363.981C148.622 364.097 149.581 364 150.209 364.341C150.838 364.682 155.399 366.89 157.355 367.346C159.311 367.803 173.491 370.494 175.939 370.37C178.062 370.263 176.15 368.03 177.188 367.657C177.393 367.8 177.594 367.943 177.788 368.085C179.732 369.505 181.062 373.186 170.513 371.43C159.965 369.673 149.1 367.67 149.1 367.67L149.213 365.735L147.694 367.583L140.153 366.121C140.153 366.121 140.635 364.798 141.22 363.224ZM108.626 250.888C108.626 250.888 108.565 253.143 108.954 255.776C109.494 259.435 111.858 262.589 115.232 264.117C117.713 265.241 173.307 275.34 173.307 275.34C173.307 275.34 195.263 347.759 197.41 350.921C199.557 354.083 214.17 349.12 216.42 344.737C218.669 340.353 203.641 283.655 203.014 279.077C201.263 266.279 199.516 256.7 187.143 251.603C181.669 249.348 167.736 249.168 148.762 239.133C140.494 234.76 108.626 250.888 108.626 250.888Z" fill="#2E2E47"/>
<path d="M96.9678 247.984C96.9678 247.984 97.5835 253.915 97.5105 256.576C97.4088 260.273 99.3748 265.693 102.463 267.737C124.779 282.506 141.986 274.12 146.168 277.777C147.936 279.323 142.607 345.551 144.174 349.036C145.741 352.522 157.237 354.994 160.213 351.065C163.188 347.136 173.944 300.771 174.458 291.97C175.044 281.956 180.459 267.624 169.156 260.466C164.156 257.299 153.858 254.821 143.856 248.388C140.271 246.082 137.079 240.143 129.632 238.984C120.387 237.545 96.9678 247.984 96.9678 247.984Z" fill="#2E2E47"/>
<path d="M175.372 284.756C175.364 284.756 175.356 284.756 175.348 284.755C175.197 284.742 175.085 284.61 175.098 284.459C175.108 284.335 176.131 272.017 175.375 267.157C174.591 262.116 173.564 258.674 166.696 256.84C166.549 256.801 166.462 256.651 166.501 256.504C166.54 256.358 166.691 256.27 166.837 256.31C174.011 258.226 175.126 261.979 175.918 267.073C176.684 271.998 175.688 283.997 175.645 284.505C175.633 284.648 175.513 284.756 175.372 284.756Z" fill="white"/>
<path d="M111.702 164.073C111.702 164.073 112.304 160.673 115.824 160.688C119.344 160.702 122.419 161.923 125.877 165.924C129.335 169.926 130.793 172.279 129.014 172.971C127.235 173.664 124.186 171.768 124.186 171.768C124.186 171.768 118.271 174.557 115.888 173.228C113.506 171.898 111.702 164.073 111.702 164.073Z" fill="#FFE2BD"/>
<path d="M139.638 177.749C137.541 173.015 129.859 165.258 124.692 164.835C113.38 163.908 110.873 163.506 102.355 171.996C91.9031 182.413 90.2266 210.736 91.8761 231.473C93.5256 252.209 98.5086 265.78 98.5086 265.78C98.5086 265.78 130.678 262.664 145.549 255.976C151.557 253.273 163.197 244.112 163.197 244.112C163.197 244.112 150.978 221.698 148.959 212.21C147.197 203.926 145.93 191.947 139.638 177.749Z" fill="#FFE2BD"/>
<path d="M144.552 250.776C144.432 250.776 144.322 250.697 144.288 250.577C144.145 250.071 142.813 248.1 141.271 245.818C138.927 242.351 135.718 237.602 134.337 234.523C132.048 229.419 130.416 220.983 129.868 215.305C129.504 211.524 128.371 203.784 127.543 198.132C127.145 195.413 126.831 193.265 126.731 192.43C126.561 191.009 126.438 189.545 126.295 187.849C126.187 186.573 126.065 185.126 125.908 183.548C125.554 179.999 124.612 173.689 124.603 173.626C124.58 173.476 124.684 173.336 124.834 173.314C124.986 173.293 125.124 173.395 125.146 173.545C125.156 173.608 126.1 179.931 126.454 183.493C126.612 185.076 126.734 186.525 126.842 187.803C126.985 189.494 127.108 190.954 127.277 192.365C127.375 193.193 127.689 195.338 128.087 198.053C128.915 203.71 130.049 211.458 130.415 215.253C130.959 220.888 132.575 229.252 134.838 234.299C136.2 237.335 139.394 242.061 141.726 245.512C143.593 248.274 144.658 249.865 144.817 250.428C144.858 250.573 144.773 250.725 144.627 250.766C144.602 250.773 144.577 250.776 144.552 250.776ZM112.227 142.11C112.227 142.11 112.17 154.03 116.236 154.619C122.764 155.564 119.777 141.75 118.567 140.555C117.358 139.359 113.079 140.612 112.227 142.11Z" fill="#2E2E47"/>
<path d="M117.317 152.548C117.317 152.548 116.106 159.666 114.157 163.252C113.017 165.349 119.91 170.137 123.625 170.467C127.339 170.797 123.682 163.633 123.713 161.467C123.771 157.496 124.048 155.513 123.833 154.757C123.618 154.001 118.421 151.589 117.317 152.548Z" fill="#FFA982"/>
<path d="M118.775 157.348L123.762 159.518C123.741 160.107 123.724 160.753 123.713 161.465C123.705 162.021 123.941 162.909 124.232 163.914C123.527 163.692 122.692 163.373 121.839 162.919C119.647 161.75 118.775 157.348 118.775 157.348Z" fill="#2E2E47"/>
<path d="M132.755 137.826C132.755 137.826 134.476 143.818 135 145.641C135.524 147.465 136.396 149.189 136.821 151.98C137.247 154.772 136.742 159.897 131.673 161.255C126.603 162.613 121.226 161.598 119.62 158.957C118.014 156.315 117.408 153.216 117.408 153.216C117.408 153.216 115.843 153.665 114.635 151.755C113.427 149.845 112.027 147.28 113.829 146.67C115.631 146.06 116.184 146.988 116.594 146.777C117.004 146.566 117.918 141.229 120.142 140.122C122.365 139.016 130.851 135.458 132.755 137.826Z" fill="#FFA982"/>
<path d="M123.888 145.296C123.811 145.296 123.735 145.264 123.68 145.202C123.581 145.087 123.593 144.914 123.708 144.815C123.759 144.771 124.976 143.724 125.999 143.375C127.047 143.018 128.201 143.279 128.25 143.29C128.397 143.325 128.489 143.472 128.455 143.619C128.421 143.767 128.273 143.859 128.125 143.824C128.115 143.822 127.072 143.588 126.177 143.894C125.254 144.209 124.08 145.219 124.068 145.229C124.016 145.274 123.952 145.296 123.888 145.296Z" fill="#2E2E47"/>
<path d="M124.125 150.221C124.21 150.851 125.25 151.229 126.447 151.067C127.643 150.905 128.544 150.263 128.458 149.634C128.373 149.004 127.333 148.625 126.136 148.787C124.94 148.949 124.039 149.591 124.125 150.221ZM134.248 149.335C134.334 149.964 134.982 150.396 135.695 150.299C136.408 150.203 136.917 149.614 136.831 148.984C136.746 148.355 136.098 147.923 135.385 148.019C134.672 148.116 134.163 148.705 134.248 149.335Z" fill="#F2836D"/>
<path d="M124.875 147.006C124.796 147.006 124.717 146.972 124.663 146.907C124.567 146.79 124.583 146.618 124.699 146.521C125.477 145.877 127.317 144.995 128.71 146.266C128.822 146.368 128.83 146.542 128.727 146.653C128.625 146.765 128.452 146.773 128.34 146.671C126.952 145.406 125.126 146.88 125.049 146.943C124.998 146.985 124.936 147.006 124.875 147.006ZM132.125 146.1C132.038 146.1 131.953 146.058 131.899 145.982C131.813 145.858 131.843 145.687 131.967 145.601C132.03 145.557 133.53 144.534 135.066 145.372C135.199 145.445 135.248 145.611 135.176 145.744C135.103 145.877 134.936 145.926 134.803 145.853C133.568 145.18 132.333 146.015 132.281 146.051C132.234 146.084 132.179 146.1 132.125 146.1ZM115.014 145.854C115.014 145.854 117.065 149.189 118.712 149.232C120.358 149.274 119.321 143.654 119.351 142.555C119.38 141.456 120.141 140.123 120.141 140.123C120.141 140.123 112.314 141.461 115.014 145.854Z" fill="#2E2E47"/>
<path d="M131.148 152.761C130.223 152.761 129.442 152.266 129.015 151.827C128.91 151.718 128.913 151.545 129.022 151.439C129.13 151.334 129.304 151.336 129.41 151.445C129.968 152.021 131.272 152.712 132.613 151.656C132.955 151.387 133.129 151.108 133.145 150.804C133.169 150.341 132.83 149.775 132.108 149.073C130.955 147.952 130.623 144.973 131.259 143.723C131.945 142.373 134.211 142.771 134.307 142.789C134.456 142.816 134.555 142.959 134.528 143.108C134.501 143.257 134.357 143.354 134.208 143.328C134.189 143.324 132.25 142.985 131.748 143.971C131.213 145.024 131.518 147.734 132.491 148.68C133.345 149.51 133.726 150.194 133.693 150.833C133.668 151.297 133.42 151.719 132.953 152.086C132.329 152.577 131.712 152.761 131.148 152.761Z" fill="#2E2E47"/>
<path d="M135.2 150.176C134.028 150.176 132.971 149.385 132.508 148.682C132.03 147.955 131.575 146.328 131.762 145.677C131.825 145.171 132.279 144.222 133.583 144.066C134.784 143.923 137.284 143.625 137.891 144.985C138.22 145.723 138.283 147.16 137.751 148.367C137.38 149.208 136.774 149.789 136 150.047C135.731 150.137 135.462 150.176 135.2 150.176ZM135.352 144.484C134.708 144.484 134.062 144.561 133.648 144.611C132.433 144.756 132.31 145.721 132.305 145.762L132.292 145.82C132.161 146.212 132.506 147.68 132.968 148.381C133.337 148.943 134.522 149.961 135.826 149.527C136.458 149.316 136.937 148.852 137.248 148.147C137.694 147.136 137.668 145.834 137.389 145.208C137.132 144.633 136.244 144.484 135.352 144.484ZM125.684 151.461C125.153 151.462 124.591 151.343 124.024 151.097C123.334 150.797 122.798 150.122 122.474 149.142C122.042 147.84 122.06 146.139 122.514 145.352C123.181 144.194 125.394 144.292 127.687 144.571C129.5 144.792 129.769 145.99 129.804 146.22C129.955 146.727 129.492 147.803 128.648 149.476L128.549 149.672C127.967 150.832 126.907 151.461 125.684 151.461ZM125.28 144.937C124.266 144.937 123.301 145.086 122.99 145.625C122.659 146.2 122.58 147.715 122.995 148.97C123.186 149.547 123.558 150.296 124.243 150.594C125.854 151.293 127.352 150.834 128.058 149.426L128.157 149.229C128.991 147.578 129.368 146.618 129.278 146.377L129.262 146.308C129.255 146.257 129.121 145.298 127.62 145.115C127.06 145.047 126.151 144.937 125.28 144.937Z" fill="#2E2E47"/>
<path d="M132.053 147.543C132.019 147.543 131.984 147.536 131.95 147.523C130.616 146.987 129.551 147.476 129.54 147.481C129.403 147.546 129.24 147.488 129.175 147.352C129.109 147.216 129.167 147.053 129.303 146.987C129.354 146.962 130.588 146.384 132.155 147.014C132.296 147.071 132.364 147.23 132.308 147.371C132.264 147.478 132.161 147.543 132.053 147.543ZM116.262 146.563C116.119 146.563 115.998 146.452 115.988 146.308C115.978 146.157 116.092 146.026 116.243 146.015L122.582 145.572C122.734 145.562 122.864 145.675 122.875 145.826C122.886 145.977 122.772 146.108 122.62 146.119L116.281 146.562C116.275 146.562 116.268 146.563 116.262 146.563ZM130.664 129.568C123.195 126.267 119.565 129.433 118.918 132.362C118.918 132.362 112.692 134.19 112.275 135.374C112.065 135.972 111.972 136.855 112.425 137.505C110.364 140.803 112.227 142.11 112.227 142.11L113.264 143.189C113.816 143.763 118.308 144.38 119.058 142.187C119.807 139.995 121.415 140.147 123.928 139.348C126.441 138.548 129.012 139.666 130.256 139.336C131.501 139.007 131.812 138.925 132.859 138.538C133.906 138.15 134.061 131.07 130.664 129.568Z" fill="#2E2E47"/>
<path d="M130.738 127.132C130.742 127.049 130.786 126.97 130.862 126.925C130.982 126.855 131.135 126.895 131.205 127.014C131.323 127.215 134.073 131.992 132.62 136.889C132.581 137.021 132.441 137.097 132.308 137.057C132.176 137.018 132.1 136.88 132.139 136.746C133.529 132.06 130.8 127.315 130.773 127.267C130.748 127.225 130.737 127.178 130.738 127.132Z" fill="#2E2E47"/>
<path d="M130.655 154.624C129.709 154.624 128.999 154.567 128.936 154.562C128.785 154.549 128.672 154.416 128.685 154.266C128.698 154.115 128.831 154.001 128.981 154.015C129.014 154.018 132.266 154.279 134.174 153.671C134.318 153.625 134.473 153.705 134.519 153.849C134.565 153.993 134.486 154.148 134.341 154.194C133.246 154.543 131.783 154.624 130.655 154.624Z" fill="#2E2E47"/>
<path d="M116.075 176.936C116.062 176.936 116.049 176.936 116.037 176.935C115.687 176.92 114.868 176.886 113.09 170.809C112.236 167.891 111.564 164.943 111.558 164.913C111.524 164.766 111.617 164.619 111.765 164.585C111.912 164.551 112.06 164.644 112.093 164.792C113.713 171.919 115.413 176.36 116.06 176.387C116.069 176.387 116.078 176.388 116.087 176.388C117.209 176.388 121.788 173.612 124.615 171.731L124.77 171.628L124.923 171.734C126.02 172.49 129.152 174.22 130.449 173.151C130.622 173.008 130.704 172.83 130.706 172.59C130.721 171.186 128.029 168.561 126.99 167.668C126.875 167.569 126.862 167.396 126.961 167.281C127.06 167.166 127.234 167.153 127.349 167.252C127.509 167.39 131.276 170.65 131.255 172.595C131.251 172.998 131.097 173.327 130.798 173.574C129.099 174.975 125.562 172.809 124.766 172.289C123.548 173.094 117.653 176.936 116.075 176.936Z" fill="#2E2E47"/>
<path d="M129.116 183.534C129.116 184.042 128.854 184.453 128.532 184.453C128.21 184.453 127.949 184.041 127.949 183.534C127.949 183.027 128.21 182.616 128.532 182.616C128.854 182.616 129.116 183.027 129.116 183.534ZM137.164 225.125C137.164 225.632 136.903 226.043 136.581 226.043C136.258 226.043 135.997 225.632 135.997 225.125C135.997 224.618 136.258 224.207 136.581 224.207C136.903 224.207 137.164 224.618 137.164 225.125ZM128.02 146.731C128.02 147.212 127.685 147.601 127.272 147.601C126.86 147.601 126.525 147.212 126.525 146.731C126.525 146.25 126.859 145.86 127.272 145.86C127.685 145.86 128.02 146.25 128.02 146.731ZM134.629 146.189C134.629 146.67 134.295 147.059 133.882 147.059C133.469 147.059 133.134 146.67 133.134 146.189C133.134 145.708 133.469 145.318 133.882 145.318C134.294 145.318 134.629 145.708 134.629 146.189Z" fill="#2E2E47"/>
<path d="M150.707 279.35C150.589 279.35 150.48 279.273 150.444 279.155C150.401 279.01 150.482 278.857 150.627 278.813C160.554 275.806 164.663 273.681 165.003 272.986C165.011 272.968 165.017 272.954 165.02 272.944C164.175 272.38 154.946 275.255 153.292 276.393C153.175 276.474 152.956 276.625 152.793 276.409C152.631 276.194 152.811 276.044 153.039 275.854C153.173 275.741 153.371 275.58 153.618 275.377C161.317 269.069 162.804 266.908 162.695 266.206C162.686 266.145 162.66 266.082 162.534 266.032C162.085 265.852 160.313 266.033 153.589 271.593C149.851 274.683 146.391 277.943 146.356 277.976C146.246 278.08 146.072 278.075 145.968 277.965C145.864 277.855 145.868 277.681 145.979 277.577C146.013 277.545 149.487 274.272 153.238 271.17C160.94 264.803 162.292 265.345 162.738 265.523C163.097 265.666 163.208 265.928 163.238 266.122C163.426 267.343 160.824 270.123 154.828 275.091C158.099 273.778 164.433 271.714 165.398 272.544C165.49 272.622 165.682 272.846 165.496 273.227C164.572 275.116 152.195 278.911 150.787 279.338C150.76 279.346 150.733 279.35 150.707 279.35Z" fill="white"/>
<path d="M178.608 276.596C178.507 276.596 178.408 276.539 178.361 276.441C178.295 276.305 178.352 276.141 178.489 276.075L191.669 269.719L181.395 270.803C181.273 270.815 181.155 270.745 181.11 270.629C181.066 270.514 181.104 270.383 181.203 270.309C184.787 267.67 190.157 263.235 190.263 261.833C190.271 261.722 190.234 261.685 190.219 261.67C189.638 261.092 184.058 264.395 176.054 270.745C175.935 270.838 175.762 270.819 175.668 270.701C175.573 270.582 175.593 270.41 175.712 270.315C175.745 270.29 179.045 267.675 182.472 265.262C189.583 260.257 190.3 260.975 190.607 261.282C190.713 261.387 190.833 261.575 190.811 261.874C190.675 263.676 184.639 268.406 182.329 270.153L193.18 269.009C193.313 268.996 193.436 269.079 193.473 269.206C193.509 269.335 193.448 269.471 193.328 269.528L178.728 276.569C178.689 276.587 178.649 276.596 178.608 276.596Z" fill="white"/>
<path d="M72.3386 236.682H65.2502V363.529H72.3386V236.682Z" fill="#9C6F43"/>
<path d="M77.2677 360.869L72.3386 363.529V236.682H77.2677V360.869Z" fill="#82664B"/>
<path d="M24.1871 249.125H17.0989V380.202H24.1871V249.125Z" fill="#9C6F43"/>
<path d="M29.1163 377.396L24.187 380.202V249.125H29.1163V377.396Z" fill="#82664B"/>
<path d="M194.213 250.005L194.196 379.591L194.202 379.59C194.248 380.115 194.654 380.605 195.302 380.605H264.813C265.079 380.605 265.342 380.567 265.596 380.497V241.961L194.213 250.005Z" fill="#9C6F43"/>
<path d="M331.766 364.173V234.504L265.596 241.961V380.497C265.831 380.432 266.058 380.339 266.271 380.216L331.239 365.349C331.705 365.08 331.856 364.601 331.766 364.173Z" fill="#82664B"/>
<path d="M194.213 250.006L194.213 252.785H270.566L331.766 238.52V234.504L265.596 241.961L194.213 250.006Z" fill="#2E2E47"/>
<path d="M270.434 250.913H5.5673C4.43685 250.913 4.03629 249.418 5.01583 248.855L69.9832 233.987C70.4268 233.732 70.9298 233.598 71.442 233.598H336.309C337.44 233.598 337.84 235.092 336.861 235.656L271.893 250.523C271.45 250.778 270.947 250.913 270.434 250.913Z" fill="#9C6F43"/>
<path d="M220.988 216.621L298.447 213.123C299.134 213.123 299.696 212.562 299.696 211.876L306.241 167.62C306.241 166.934 305.678 166.373 304.991 166.373L227.532 169.871C226.845 169.871 226.283 170.432 226.283 171.118L219.739 215.374C219.739 216.06 220.301 216.621 220.988 216.621Z" fill="#2E2E47"/>
<path d="M267.422 242.724C277.92 242.724 286.43 240.992 286.43 238.856C286.43 236.72 277.92 234.988 267.422 234.988C256.924 234.988 248.414 236.72 248.414 238.856C248.414 240.992 256.924 242.724 267.422 242.724Z" fill="#464660"/>
<path d="M273.689 188.412L264.274 188.938C263.649 188.973 263.189 189.537 263.283 190.156L269.355 230.342L266.797 239.845L279.885 239.251L280.653 233.536C281.012 230.867 280.979 228.159 280.556 225.5L274.798 189.305C274.712 188.767 274.233 188.381 273.689 188.412Z" fill="#464660"/>
<path d="M97.6882 178.882C97.6882 178.882 88.3871 204.405 86.3823 221.078C84.3775 237.752 108.19 241.473 112.227 237.98C116.265 234.487 116.703 221.018 114.031 217.549C111.359 214.08 107.884 207.274 107.271 199.453C106.658 191.632 106.093 169.805 97.6882 178.882Z" fill="#FFE2BD"/>
<path d="M251.617 127.322C261.914 117.042 261.914 100.374 251.617 90.0935C241.319 79.8132 224.624 79.8135 214.327 90.0942C204.029 100.375 204.03 117.043 214.327 127.323C224.625 137.603 241.32 137.603 251.617 127.322Z" fill="#2E2E47"/>
<path d="M254.805 127.322C265.102 117.042 265.102 100.374 254.805 90.0935C244.507 79.8132 227.812 79.8135 217.515 90.0942C207.217 100.375 207.218 117.043 217.515 127.323C227.813 137.603 244.508 137.603 254.805 127.322Z" fill="#2E2E47"/>
<path d="M248.282 123.993C256.737 115.551 256.737 101.865 248.282 93.4235C239.826 84.9821 226.117 84.9824 217.662 93.424C209.207 101.866 209.207 115.552 217.663 123.993C226.118 132.435 239.827 132.435 248.282 123.993Z" fill="white"/>
<path d="M246.921 114.053C246.849 114.053 246.776 114.041 246.703 114.017L232.756 109.356C232.476 109.262 232.288 109 232.288 108.706V95.2674C232.288 94.8889 232.595 94.582 232.974 94.582C233.353 94.582 233.661 94.8889 233.661 95.2674V108.212L247.139 112.717C247.499 112.837 247.693 113.226 247.572 113.585C247.476 113.872 247.208 114.053 246.921 114.053Z" fill="#2E2E47"/>
<path d="M116.427 224.318C116.427 224.318 158.398 232.076 156.533 239.733C154.612 247.616 98.8482 240.773 94.9644 238.222C91.0807 235.672 95.1199 218.409 116.427 224.318Z" fill="#FFA982"/>
<path d="M39.0053 239.177L85.6139 245.519L110.76 238.033L110.222 230.079L109.391 229.21L109.979 227.589L109.692 224.656L84.6521 230.038L39.0319 225.208L38.9263 227.896L39.6774 229.033L38.8464 229.93L39.0053 239.177Z" fill="#EAE6E4"/>
<path d="M39.032 225.208L68.0858 219.818L109.692 224.656L84.6522 230.038L39.032 225.208Z" fill="white"/>
<path d="M58.1961 231.752C58.1821 231.752 58.1679 231.751 58.1538 231.749L41.3674 229.158C41.2175 229.135 41.1149 228.995 41.138 228.845C41.1611 228.696 41.3036 228.594 41.4513 228.616L58.2376 231.207C58.3875 231.23 58.4903 231.37 58.467 231.52C58.4461 231.655 58.3291 231.752 58.1961 231.752ZM83.3993 235.477L83.3524 235.472L64.2847 233.359C64.134 233.343 64.0254 233.207 64.042 233.057C64.0587 232.906 64.1949 232.798 64.3453 232.814L83.3659 234.922L95.9709 231.977C96.1179 231.943 96.2663 232.033 96.3009 232.181C96.3355 232.328 96.2439 232.476 96.0961 232.51L83.3993 235.477Z" fill="#2E2E47"/>
<path d="M116.427 224.591C116.357 224.591 116.287 224.564 116.234 224.511C116.111 224.39 113.226 221.535 112.011 219.986C110.168 217.64 110.42 214.588 110.604 212.361C110.695 211.256 110.774 210.303 110.532 209.947C110.124 209.345 109.565 204.505 108.612 196.002C107.734 188.163 106.738 179.278 105.985 176.739C105.942 176.594 106.025 176.441 106.171 176.398C106.316 176.355 106.469 176.438 106.512 176.583C107.279 179.169 108.277 188.079 109.158 195.941C109.883 202.406 110.632 209.092 110.987 209.639C111.338 210.155 111.26 211.099 111.152 212.406C110.975 214.543 110.734 217.471 112.443 219.648C113.637 221.169 116.59 224.092 116.62 224.122C116.728 224.228 116.729 224.402 116.622 224.509C116.568 224.564 116.498 224.591 116.427 224.591Z" fill="#2E2E47"/>
<path d="M151.594 236.991C151.594 236.991 157.239 235.141 161.58 235.334C162.847 235.391 169.93 238.997 169.807 239.633C169.685 240.27 166.733 239.57 166.733 239.57C166.733 239.57 170.297 241.472 170.238 241.828C170.178 242.184 168.874 242.155 168.874 242.155C168.874 242.155 169.876 242.915 169.526 243.257C169.176 243.598 162.429 241.883 162.084 241.964C161.738 242.044 163.574 242.613 164.022 242.826C164.47 243.04 165.95 243.348 165.862 243.995C165.774 244.643 160.218 243.002 158.969 242.915C157.72 242.828 156.685 244.34 153.006 243.95C150.531 243.687 146.932 241.394 147.024 238.911C147.116 236.429 151.594 236.991 151.594 236.991Z" fill="#FFA982"/>
<path d="M183.228 229.947C183.228 229.947 188.308 230.52 189.442 231.784C190.576 233.048 191.77 234.826 191.756 235.601C191.742 236.375 190.464 235.406 189.493 235.253C188.522 235.1 185.763 234.794 183.974 234.284C182.186 233.774 181.317 231.784 181.726 231.631C182.134 231.478 183.228 229.947 183.228 229.947Z" fill="#FFA982"/>
<path d="M172.214 227.876C172.214 227.876 183.884 229.418 185.276 230.056C186.668 230.694 193.773 234.537 193.173 235.559C192.572 236.582 184.866 232.813 183.788 233.095C182.711 233.376 186.223 233.969 187.756 235.406C188.688 236.28 187.654 237.294 185.558 236.376C184.397 235.867 179.484 236.392 176.526 236.106C173.567 235.819 172.319 234.658 170.221 233.344C168.123 232.031 171.351 227.787 172.214 227.876Z" fill="#FFA982"/>
<path d="M322.847 327.662C310.844 327.662 298.693 325.779 298.693 322.182C298.693 318.584 310.844 316.701 322.847 316.701C334.85 316.701 347 318.584 347 322.182C347 325.779 334.85 327.662 322.847 327.662ZM322.847 317.842C308.59 317.842 299.836 320.369 299.836 322.182C299.836 323.994 308.59 326.521 322.847 326.521C337.104 326.521 345.858 323.994 345.858 322.182C345.858 320.369 337.104 317.842 322.847 317.842ZM322.847 382.997C314.867 382.997 302.994 381.776 302.994 378.412C302.994 375.049 314.867 373.828 322.847 373.828C330.827 373.828 342.7 375.049 342.7 378.412C342.7 381.776 330.827 382.997 322.847 382.997ZM322.847 374.968C311.425 374.968 304.136 377.008 304.136 378.412C304.136 379.817 311.425 381.857 322.847 381.857C334.269 381.857 341.557 379.817 341.557 378.412C341.557 377.008 334.269 374.968 322.847 374.968Z" fill="#2E2E47"/>
<path d="M304.516 376.512C304.516 376.512 302.838 378.019 304.729 379.597C306.62 381.176 318.327 382.37 322.949 382.335C327.57 382.301 338.166 381.066 339.23 380.416C340.295 379.765 342.705 378.808 342.563 377.953C342.42 377.098 342.7 368.188 342.7 368.188L343.42 360.562C343.42 360.562 335.157 352.961 332.363 353.304C329.569 353.648 329.07 354.661 329.07 354.661C329.07 354.661 328.043 350.223 320.81 350.296C313.577 350.369 313.577 357.202 313.577 357.202C313.577 357.202 310.134 357.5 309 358.71C307.866 359.92 304.303 373.426 304.516 376.512Z" fill="white"/>
<path d="M303.565 378.983C303.269 378.983 303.019 378.755 302.996 378.456L298.695 322.225C298.671 321.911 298.907 321.637 299.221 321.613C299.536 321.588 299.81 321.824 299.834 322.138L304.135 378.369C304.159 378.683 303.923 378.957 303.609 378.981C303.594 378.982 303.579 378.983 303.565 378.983ZM342.129 378.983C342.115 378.983 342.1 378.982 342.085 378.981C341.771 378.957 341.535 378.683 341.559 378.369L345.86 322.138C345.884 321.824 346.156 321.589 346.473 321.613C346.787 321.637 347.023 321.911 346.999 322.225L342.698 378.456C342.675 378.755 342.425 378.983 342.129 378.983ZM314.605 382.613C314.341 382.613 314.105 382.43 314.047 382.163L301.676 324.688C301.61 324.38 301.806 324.077 302.114 324.011C302.423 323.945 302.726 324.14 302.793 324.448L315.164 381.923C315.23 382.231 315.034 382.534 314.726 382.6C314.685 382.609 314.645 382.613 314.605 382.613Z" fill="#2E2E47"/>
<path d="M307.888 381.517C307.615 381.517 307.374 381.322 307.326 381.044L299.919 338.189C299.865 337.879 300.073 337.584 300.384 337.53C300.695 337.475 300.99 337.685 301.044 337.995L308.451 380.85C308.505 381.16 308.297 381.455 307.986 381.509C307.953 381.515 307.92 381.517 307.888 381.517ZM322.384 382.999C322.108 382.999 321.866 382.799 321.821 382.519L312.894 326.99C312.844 326.679 313.056 326.386 313.367 326.336C313.679 326.285 313.972 326.498 314.022 326.809L322.948 382.338C322.998 382.649 322.787 382.942 322.475 382.992C322.445 382.997 322.414 382.999 322.384 382.999ZM331.086 382.614C330.8 382.614 330.553 382.4 330.519 382.11L324.129 327.159C324.093 326.846 324.318 326.563 324.631 326.527C324.946 326.488 325.228 326.714 325.264 327.027L331.654 381.978C331.691 382.291 331.466 382.574 331.153 382.61C331.13 382.613 331.108 382.614 331.086 382.614ZM339.249 381.095C338.963 381.095 338.716 380.882 338.682 380.591L332.367 326.688C332.33 326.376 332.554 326.092 332.868 326.056C333.182 326.018 333.465 326.243 333.501 326.556L339.817 380.459C339.853 380.771 339.629 381.055 339.316 381.091C339.293 381.094 339.271 381.095 339.249 381.095ZM343.573 360.09C343.286 360.09 343.039 359.874 343.006 359.583L339.234 325.659C339.199 325.346 339.425 325.064 339.738 325.029C340.053 324.992 340.334 325.22 340.369 325.533L344.142 359.457C344.177 359.77 343.95 360.052 343.637 360.087C343.616 360.089 343.594 360.09 343.573 360.09Z" fill="#2E2E47"/>
<path d="M302.235 361.582C302.2 361.582 302.164 361.579 302.129 361.572C301.819 361.513 301.615 361.215 301.673 360.906L308.255 326.023C308.314 325.713 308.613 325.51 308.922 325.568C309.232 325.627 309.436 325.925 309.378 326.234L302.796 361.117C302.744 361.391 302.504 361.582 302.235 361.582ZM304.185 379.997C304.127 379.997 304.069 379.988 304.011 379.969C303.711 379.873 303.545 379.553 303.641 379.253L320.361 326.919C320.456 326.619 320.778 326.453 321.078 326.549C321.379 326.645 321.545 326.965 321.449 327.265L304.729 379.599C304.652 379.842 304.427 379.997 304.185 379.997ZM310.731 382.106C310.67 382.106 310.607 382.096 310.546 382.075C310.248 381.974 310.088 381.65 310.19 381.351L328.874 326.714C328.976 326.416 329.301 326.256 329.599 326.359C329.898 326.461 330.057 326.785 329.955 327.083L311.271 381.72C311.19 381.957 310.968 382.106 310.731 382.106ZM318.495 382.614C318.435 382.614 318.373 382.604 318.312 382.583C318.013 382.483 317.853 382.159 317.954 381.861L336.904 325.856C337.005 325.558 337.329 325.396 337.628 325.498C337.927 325.599 338.087 325.923 337.986 326.221L319.036 382.226C318.955 382.463 318.733 382.614 318.495 382.614ZM326.55 382.924C326.495 382.924 326.439 382.916 326.383 382.899C326.082 382.807 325.912 382.488 326.003 382.187L343.733 324.066C343.825 323.765 344.144 323.595 344.445 323.687C344.747 323.779 344.917 324.098 344.825 324.399L327.096 382.52C327.021 382.765 326.794 382.924 326.55 382.924ZM334.965 382.106C334.924 382.106 334.883 382.102 334.842 382.093C334.534 382.025 334.339 381.722 334.406 381.414L345.054 332.751C345.121 332.443 345.427 332.249 345.734 332.315C346.042 332.383 346.237 332.686 346.17 332.994L335.522 381.657C335.463 381.924 335.227 382.106 334.965 382.106ZM340.86 380.417C340.834 380.417 340.806 380.415 340.779 380.412C340.467 380.367 340.25 380.079 340.294 379.767L342.79 362.29C342.835 361.978 343.123 361.762 343.436 361.806C343.748 361.85 343.966 362.139 343.921 362.451L341.425 379.928C341.385 380.212 341.14 380.417 340.86 380.417Z" fill="#2E2E47"/>
</g>
<defs>
<clipPath id="clip0_851_8152">
<rect width="222" height="58" fill="white" transform="translate(62)"/>
</clipPath>
<clipPath id="clip1_851_8152">
<rect width="347" height="311" fill="white" transform="translate(0 78)"/>
</clipPath>
</defs>
</svg>
