<svg width="400" height="429" viewBox="0 0 400 429" fill="none" xmlns="http://www.w3.org/2000/svg">
<g clip-path="url(#clip0_851_8075)">
<path d="M95.0696 33.394C92.72 33.9057 91.1876 35.5429 90.779 37.8964C90.6768 38.5104 90.779 39.5336 89.7574 39.2266C89.4509 39.1243 89.0423 38.1011 89.1445 37.4871C89.5531 34.4173 91.5962 32.6778 94.3545 31.4498C94.3545 30.1195 94.4567 28.7893 94.3545 27.459C94.3545 27.0497 93.7415 26.6404 93.3329 26.4357C91.1876 25.3102 89.7574 23.6729 89.1445 21.3194C89.0423 20.91 88.9402 20.5007 89.0423 20.0914C89.1445 19.6821 89.5531 19.3752 89.8596 18.9659C90.166 19.2728 90.6768 19.5798 90.779 19.9892C91.0854 22.3426 92.3114 23.8776 94.4567 24.7985C94.661 24.9009 94.8653 24.9009 95.1718 25.0032C97.0107 21.7287 99.8711 20.1938 103.651 20.1938C104.06 20.1938 104.775 19.4775 104.979 18.8635C107.226 13.8495 109.78 9.04011 113.356 4.94703C114.582 3.51444 116.216 2.18419 117.851 1.16092C121.324 -0.98795 125.104 -0.0670059 127.454 3.20746C131.847 9.24477 131.847 15.1797 127.045 20.9101C125.002 23.3659 122.244 25.4125 119.894 27.5614C119.383 28.073 118.77 28.38 118.055 28.994C119.383 30.0172 120.711 31.0405 121.937 31.9614C125.411 34.8266 128.577 37.9987 130.11 42.3988C132.051 47.8221 128.578 54.5757 125.411 56.7246C122.652 58.6688 118.975 58.4642 116.012 55.599C113.56 53.2455 111.313 50.4826 109.474 47.6174C107.635 44.9569 106.409 41.7848 104.877 38.9197C104.57 38.408 103.957 37.8964 103.549 37.8964C99.6667 38.1011 96.8063 36.5662 95.0696 33.394ZM111.926 29.0962C112.743 28.5847 113.458 28.073 114.071 27.6637C117.851 25.0031 121.733 22.445 124.593 18.6589C127.965 14.2588 127.965 9.65408 124.593 5.35634C122.959 3.3098 121.222 3.00281 119.077 4.33307C118.055 4.94703 117.136 5.76564 116.318 6.68659C111.824 11.7006 108.759 17.6356 106.613 23.9799C105.49 27.1521 105.388 30.3242 106.307 33.4964C108.248 39.8406 111.415 45.5709 115.501 50.6873C116.523 52.0176 117.953 53.1431 119.383 54.0641C121.222 55.2921 122.755 55.0874 124.083 53.4502C127.249 49.7664 128.271 45.4686 125.717 41.2732C123.878 38.3057 121.324 36.0545 118.566 33.9057C116.421 32.2683 114.173 30.7335 111.926 29.0962ZM103.038 34.4173C101.914 30.9381 101.914 27.3567 103.038 23.8776C99.4624 23.7752 97.4193 26.0264 97.5214 29.5056C97.7258 32.6778 99.871 34.6219 103.038 34.4173Z" fill="#060626"/>
<path d="M122.244 27.0508C122.244 28.4834 122.244 29.7113 122.244 31.1439C121.324 30.4275 120.507 29.9159 119.485 29.1996C120.507 28.381 121.222 27.8694 122.244 27.0508Z" fill="black"/>
<path d="M111.926 29.0957C114.275 30.7329 116.523 32.2678 118.668 33.905C121.426 35.9516 123.98 38.2028 125.819 41.2726C128.373 45.4681 127.352 49.8681 124.185 53.4496C122.754 55.0867 121.222 55.2915 119.485 54.0636C118.055 53.1426 116.727 52.017 115.603 50.6867C111.517 45.5703 108.35 39.7377 106.409 33.4957C105.388 30.3236 105.592 27.1514 106.716 23.9793C108.963 17.635 112.028 11.8024 116.421 6.68601C117.238 5.76506 118.157 5.04879 119.179 4.3325C121.324 2.89991 123.061 3.30922 124.695 5.35576C128.067 9.65351 128.067 14.2583 124.695 18.6583C121.835 22.3421 117.953 25.0026 114.173 27.6631C113.356 28.0724 112.641 28.584 111.926 29.0957Z" fill="white"/>
<path d="M103.038 34.4174C99.8712 34.7243 97.7259 32.6778 97.6238 29.4033C97.5216 26.0266 99.5648 23.7754 103.14 23.7754C102.017 27.3568 101.914 30.9383 103.038 34.4174Z" fill="#E6952A"/>
<path d="M171.756 30.6235L171.648 27.6029C172.759 27.6515 173.726 27.5908 174.547 27.421C175.393 27.2512 176.094 26.9479 176.649 26.5112C177.229 26.0502 177.664 25.4194 177.954 24.6188C178.244 23.8182 178.389 22.8356 178.389 21.671C178.389 20.094 178.244 18.8688 177.954 17.9954C177.688 17.0978 177.229 16.4669 176.577 16.103C175.949 15.7391 175.091 15.5571 174.004 15.5571C173.544 15.5571 173.025 15.5814 172.445 15.6299C171.865 15.6785 171.249 15.7513 170.597 15.8483L169.219 12.7913C169.703 12.7671 170.174 12.7428 170.633 12.7186C171.116 12.67 171.575 12.6458 172.01 12.6458C172.469 12.6215 172.892 12.6094 173.279 12.6094C175.284 12.6094 176.927 12.852 178.208 13.3372C179.489 13.7981 180.431 14.6837 181.035 15.9938C181.663 17.2797 181.977 19.1357 181.977 21.5618C181.977 23.8182 181.555 25.6135 180.709 26.9479C179.887 28.258 178.703 29.2042 177.157 29.7865C175.635 30.3445 173.834 30.6235 171.756 30.6235ZM169.255 38.8845C169.28 37.8655 169.304 36.6282 169.328 35.1725C169.352 33.6926 169.364 32.1277 169.364 30.4779C169.388 28.8281 169.4 27.2512 169.4 25.7469C169.4 24.2185 169.388 22.6414 169.364 21.016C169.364 19.3905 169.352 17.862 169.328 16.4306C169.304 14.9749 169.268 13.7618 169.219 12.7913L173.134 13.0825C173.11 13.689 173.085 14.3926 173.061 15.1932C173.061 15.9938 173.049 16.8551 173.025 17.7771C173.001 18.6747 172.989 19.5845 172.989 20.5065C172.989 21.4284 172.977 22.3382 172.952 23.2359C172.952 24.1093 172.965 24.9221 172.989 25.6742C172.989 26.4262 172.989 27.3482 172.989 28.44C173.013 29.5075 173.025 30.6477 173.025 31.8608C173.049 33.0739 173.061 34.2627 173.061 35.4273C173.085 36.5918 173.097 37.6593 173.097 38.6298L169.255 38.8845ZM179.078 38.8845C178.45 37.2347 177.773 35.585 177.048 33.9352C176.347 32.2611 175.574 30.5385 174.728 28.7675L178.208 27.6393C178.933 29.4347 179.718 31.2543 180.564 33.0982C181.434 34.9178 182.425 36.8102 183.536 38.7753L179.078 38.8845ZM193.619 39.1029C192.242 39.1029 191.142 38.7511 190.321 38.0475C189.523 37.3439 188.919 36.4098 188.509 35.2453C188.219 34.3477 188.013 33.3651 187.892 32.2975C187.772 31.2058 187.711 30.0534 187.711 28.8403C187.711 27.8213 187.76 26.8509 187.856 25.9289C187.977 25.0069 188.158 24.1579 188.4 23.3815C188.811 22.0956 189.451 21.0645 190.321 20.2881C191.215 19.5117 192.411 19.1236 193.909 19.1236C195.19 19.1236 196.192 19.4025 196.917 19.9606C197.667 20.4943 198.198 21.2465 198.512 22.2169C198.85 23.1873 199.02 24.3276 199.02 25.6378C199.02 26.2928 198.983 26.9843 198.911 27.7121C198.838 28.4157 198.742 29.1436 198.621 29.8956L195.504 27.6029C195.552 27.1177 195.588 26.6567 195.613 26.22C195.661 25.7833 195.685 25.3709 195.685 24.9827C195.685 24.3276 195.625 23.7575 195.504 23.2723C195.383 22.787 195.178 22.411 194.888 22.1441C194.622 21.853 194.223 21.7074 193.692 21.7074C193.063 21.7074 192.568 21.95 192.206 22.4353C191.867 22.9205 191.614 23.5756 191.444 24.4004C191.3 24.9827 191.203 25.6378 191.154 26.3656C191.13 27.0935 191.118 27.8455 191.118 28.6219C191.118 29.2528 191.118 29.8714 191.118 30.4779C191.142 31.0844 191.167 31.6546 191.191 32.1884C191.215 32.6978 191.275 33.1831 191.372 33.644C191.517 34.4932 191.771 35.1725 192.133 35.682C192.495 36.1673 193.027 36.4098 193.728 36.4098C194.259 36.4098 194.682 36.3007 194.996 36.0823C195.311 35.8397 195.528 35.5243 195.649 35.1361C195.794 34.7236 195.866 34.2749 195.866 33.7896C195.866 33.5713 195.854 33.3407 195.83 33.0982C195.806 32.8556 195.758 32.6129 195.685 32.3703H198.911C198.959 32.6372 198.995 32.892 199.02 33.1346C199.044 33.3771 199.056 33.6198 199.056 33.8624C199.056 34.9056 198.85 35.8276 198.44 36.6282C198.029 37.4046 197.425 38.0111 196.628 38.4478C195.83 38.8845 194.827 39.1029 193.619 39.1029ZM188.835 30.1868L188.726 27.421L198.222 27.3482L198.621 29.8956C198.621 29.8956 198.404 29.8956 197.969 29.8956C197.558 29.8956 196.99 29.9078 196.265 29.932C195.564 29.9563 194.779 29.9806 193.909 30.0048C193.039 30.0048 192.157 30.029 191.263 30.0776C190.393 30.1018 189.584 30.1382 188.835 30.1868ZM210.419 39.0665C209.018 39.0665 207.919 38.7025 207.121 37.9747C206.324 37.2469 205.733 36.2764 205.345 35.0633C205.104 34.2385 204.935 33.3407 204.838 32.3703C204.742 31.3756 204.693 30.3202 204.693 29.2042C204.693 28.0396 204.754 26.9479 204.874 25.9289C205.019 24.8857 205.249 23.9395 205.563 23.0903C205.853 22.2897 206.228 21.5982 206.686 21.016C207.17 20.4095 207.762 19.9484 208.462 19.6331C209.187 19.2934 210.021 19.1236 210.963 19.1236C212.293 19.1236 213.319 19.3905 214.044 19.9242C214.794 20.4579 215.313 21.2101 215.603 22.1805C215.917 23.1267 216.074 24.267 216.074 25.6014C216.074 26.0866 216.05 26.5961 216.001 27.1298C215.977 27.6393 215.929 28.173 215.856 28.7311L212.522 28.2216C212.57 27.6636 212.607 27.1298 212.63 26.6204C212.679 26.0866 212.703 25.6014 212.703 25.1647C212.703 24.461 212.643 23.8546 212.522 23.3451C212.425 22.8113 212.232 22.411 211.942 22.1441C211.652 21.853 211.242 21.7074 210.709 21.7074C210.082 21.7074 209.586 21.9622 209.223 22.4716C208.886 22.9569 208.632 23.612 208.462 24.4368C208.317 25.0677 208.221 25.7833 208.172 26.584C208.149 27.3604 208.136 28.173 208.136 29.0222C208.136 29.6045 208.136 30.1626 208.136 30.6963C208.161 31.23 208.185 31.7274 208.209 32.1884C208.233 32.6493 208.281 33.086 208.354 33.4985C208.475 34.3961 208.705 35.1119 209.042 35.6456C209.405 36.1551 209.948 36.4098 210.673 36.4098C211.471 36.4098 212.027 36.2279 212.34 35.864C212.679 35.5 212.848 35.0269 212.848 34.4447C212.848 34.2263 212.837 34.0201 212.812 33.826C212.788 33.6319 212.752 33.4257 212.703 33.2073L215.784 32.7342C215.832 32.9768 215.856 33.2195 215.856 33.4621C215.881 33.7047 215.892 33.9352 215.892 34.1535C215.892 35.1483 215.7 36.0217 215.313 36.7738C214.926 37.5016 214.334 38.0717 213.537 38.4842C212.739 38.8723 211.701 39.0665 210.419 39.0665ZM228.89 30.114C229.18 28.9252 229.397 27.8213 229.542 26.8023C229.687 25.7591 229.76 24.8493 229.76 24.0729C229.76 23.2965 229.651 22.7022 229.433 22.2897C229.216 21.853 228.841 21.6346 228.31 21.6346C227.875 21.6346 227.451 21.853 227.041 22.2897C226.63 22.7022 226.291 23.3572 226.026 24.2549C225.784 25.1525 225.664 26.3292 225.664 27.7849L224.142 29.3134C224.142 28.3186 224.189 27.3118 224.287 26.2928C224.407 25.2738 224.577 24.3276 224.794 23.4542C225.035 22.5566 225.338 21.768 225.7 21.0887C226.086 20.3851 226.558 19.8392 227.114 19.4511C227.669 19.063 228.321 18.8688 229.071 18.8688C229.988 18.8688 230.713 19.0872 231.246 19.5239C231.777 19.9606 232.163 20.5793 232.405 21.3799C232.647 22.1805 232.768 23.0903 232.768 24.1093C232.768 24.9827 232.695 25.9411 232.55 26.9843C232.405 28.0033 232.212 29.0465 231.97 30.114H228.89ZM222.039 38.6662C222.087 37.9869 222.123 37.3196 222.148 36.6646C222.196 35.9853 222.232 35.2817 222.257 34.5538C222.281 33.8018 222.304 33.0011 222.329 32.152C222.353 31.2785 222.366 30.3081 222.366 29.2406C222.389 28.1003 222.389 27.0449 222.366 26.0745C222.366 25.0797 222.341 24.1699 222.293 23.3451C222.268 22.5202 222.232 21.7802 222.184 21.1251C222.159 20.4459 222.123 19.8514 222.076 19.3419L225.483 19.16C225.483 19.7908 225.483 20.5186 225.483 21.3435C225.483 22.1683 225.494 23.1145 225.519 24.1821C225.566 25.2253 225.615 26.4262 225.664 27.7849C225.664 28.8767 225.664 29.932 225.664 30.951C225.664 31.97 225.675 32.9404 225.7 33.8624C225.724 34.7844 225.736 35.6456 225.736 36.4462C225.76 37.2469 225.784 37.9747 225.809 38.6298L222.039 38.6662ZM241.446 39.0301C240.48 39.0301 239.719 38.7996 239.163 38.3386C238.632 37.8777 238.257 37.2226 238.039 36.3735C237.846 35.5 237.749 34.4689 237.749 33.2801C237.749 32.7464 237.749 32.1277 237.749 31.4241C237.773 30.6963 237.773 29.9199 237.749 29.095C237.749 28.2702 237.749 27.421 237.749 26.5476C237.749 25.6742 237.737 24.8129 237.713 23.9637C237.713 23.1145 237.713 22.2897 237.713 21.4891C237.737 20.6884 237.749 19.9606 237.749 19.3055L241.156 18.8688C241.133 19.5967 241.096 20.4822 241.048 21.5255C241.024 22.5687 240.999 23.6726 240.975 24.8371C240.951 26.0017 240.915 27.1298 240.866 28.2216C240.843 29.3134 240.818 30.3081 240.794 31.2058C240.794 32.0792 240.794 32.7464 240.794 33.2073C240.794 33.8624 240.83 34.4325 240.903 34.9178C240.999 35.403 241.144 35.779 241.338 36.0459C241.531 36.2885 241.821 36.4098 242.207 36.4098C242.811 36.4098 243.367 36.0945 243.875 35.4636C244.382 34.8328 244.793 33.8988 245.107 32.6615C245.421 31.3999 245.578 29.8593 245.578 28.0396C245.578 27.4332 245.566 26.8145 245.542 26.1836C245.542 25.5528 245.529 24.8978 245.506 24.2185C245.506 23.5392 245.493 22.8477 245.469 22.1441C245.469 21.4163 245.469 20.6763 245.469 19.9242L249.021 19.9606C248.973 21.4648 248.937 22.787 248.913 23.9273C248.889 25.0677 248.864 26.1594 248.84 27.2026C248.84 28.2458 248.828 29.3376 248.804 30.4779C248.804 31.6182 248.804 32.9404 248.804 34.4447C248.804 35.0269 248.828 35.5364 248.876 35.9731C248.949 36.4098 249.045 36.798 249.166 37.1377C249.311 37.4774 249.48 37.8049 249.674 38.1203L246.847 39.0301C246.581 38.6904 246.363 38.2658 246.194 37.7564C246.026 37.2226 245.904 36.519 245.832 35.6456C245.397 36.6888 244.83 37.5138 244.128 38.1203C243.427 38.7268 242.534 39.0301 241.446 39.0301ZM259.536 38.6662L255.658 38.6298C255.681 38.3386 255.705 37.8898 255.73 37.2833C255.778 36.6524 255.814 35.9004 255.839 35.0269C255.863 34.1535 255.886 33.1831 255.911 32.1156C255.935 31.048 255.948 29.9199 255.948 28.7311C255.948 27.1056 255.923 25.6378 255.875 24.3276C255.826 22.9933 255.778 21.9015 255.73 21.0524C255.681 20.2032 255.658 19.6573 255.658 19.4147H259.427C259.402 19.6088 259.378 20.1425 259.355 21.016C259.33 21.8894 259.306 22.9933 259.282 24.3276C259.257 25.662 259.246 27.142 259.246 28.7675C259.246 29.9078 259.257 30.9996 259.282 32.0428C259.306 33.086 259.33 34.0444 259.355 34.9178C259.402 35.7912 259.438 36.5554 259.463 37.2105C259.511 37.8413 259.536 38.3265 259.536 38.6662ZM259.355 16.3214L255.766 16.5397L255.694 12.9369L259.427 12.7186L259.355 16.3214ZM271.447 39.0301C270.481 39.0301 269.683 38.8967 269.055 38.6298C268.426 38.3386 267.931 37.9383 267.569 37.4288C267.206 36.9193 266.952 36.3128 266.808 35.6092C266.663 34.9056 266.59 34.1171 266.59 33.2437C266.59 32.807 266.59 32.3461 266.59 31.8608C266.614 31.3513 266.626 30.8176 266.626 30.2596C266.65 29.6773 266.675 29.0829 266.699 28.4764C266.699 27.7 266.711 26.9115 266.735 26.1109C266.759 25.3102 266.784 24.5096 266.808 23.709C266.856 22.9084 266.88 22.1077 266.88 21.3071C266.904 20.4822 266.929 19.6695 266.952 18.8688C266.976 18.044 266.989 17.2433 266.989 16.4669L270.794 15.9575C270.722 16.8794 270.649 17.8741 270.577 18.9416C270.504 20.0092 270.432 21.113 270.36 22.2533C270.311 23.3693 270.263 24.4854 270.215 25.6014C270.166 26.7174 270.118 27.8091 270.07 28.8767C270.046 29.7259 270.021 30.5143 269.997 31.2422C269.997 31.9458 269.997 32.5523 269.997 33.0618C269.997 33.7654 270.033 34.3719 270.106 34.8814C270.178 35.3909 270.336 35.7912 270.577 36.0823C270.818 36.3492 271.169 36.4826 271.628 36.4826C272.232 36.4826 272.667 36.3371 272.933 36.0459C273.223 35.7306 273.417 35.3059 273.513 34.7722C273.609 34.2385 273.658 33.6319 273.658 32.9526C273.658 32.71 273.645 32.4553 273.622 32.1884C273.622 31.9214 273.609 31.6546 273.585 31.3877C273.562 31.0966 273.525 30.8055 273.477 30.5143L276.63 29.7137C276.679 30.2232 276.715 30.7205 276.739 31.2058C276.787 31.6667 276.811 32.1156 276.811 32.5523C276.811 33.911 276.63 35.0755 276.267 36.0459C275.929 36.9921 275.361 37.7321 274.564 38.2658C273.79 38.7753 272.752 39.0301 271.447 39.0301ZM264.705 22.4716L264.959 19.4875C265.008 19.4875 265.237 19.4875 265.648 19.4875C266.059 19.4875 266.53 19.4997 267.061 19.5239C267.617 19.5239 268.136 19.5239 268.62 19.5239C269.103 19.5239 269.417 19.5239 269.562 19.5239C269.948 19.5239 270.432 19.5239 271.012 19.5239C271.592 19.4997 272.208 19.4875 272.86 19.4875C273.513 19.4633 274.153 19.4511 274.781 19.4511C275.434 19.4269 276.026 19.4147 276.557 19.4147L276.376 22.1441C276.037 22.1441 275.651 22.1563 275.216 22.1805C274.781 22.1805 274.334 22.1805 273.875 22.1805C273.44 22.1805 272.993 22.1927 272.534 22.2169C272.075 22.2169 271.641 22.2291 271.229 22.2533C270.843 22.2533 270.492 22.2533 270.178 22.2533C269.671 22.2533 269.078 22.2775 268.402 22.3261C267.726 22.3503 267.061 22.3746 266.409 22.3989C265.756 22.4231 265.189 22.4474 264.705 22.4716ZM288.082 39.1029C286.656 39.1029 285.533 38.7875 284.711 38.1567C283.889 37.5258 283.285 36.6404 282.899 35.5C282.609 34.6509 282.415 33.6683 282.319 32.5523C282.222 31.4119 282.174 30.1746 282.174 28.8403C282.174 27.7971 282.222 26.8145 282.319 25.8925C282.415 24.9463 282.584 24.0971 282.827 23.3451C283.092 22.4716 283.467 21.7196 283.95 21.0887C284.433 20.4579 285.038 19.9728 285.762 19.6331C286.487 19.2934 287.357 19.1236 288.372 19.1236C289.701 19.1236 290.739 19.3783 291.489 19.8878C292.262 20.3973 292.805 21.1251 293.12 22.0713C293.458 23.0175 293.628 24.1579 293.628 25.4922C293.628 26.0259 293.603 26.5718 293.555 27.1298C293.53 27.6879 293.47 28.2702 293.374 28.8767C293.301 29.4832 293.216 30.1262 293.12 30.8055L289.967 28.6947C290.039 28.2094 290.099 27.7485 290.148 27.3118C290.196 26.8509 290.232 26.4262 290.257 26.0381C290.304 25.6256 290.329 25.2496 290.329 24.9099C290.329 23.8667 290.172 23.0781 289.858 22.5444C289.543 21.9864 288.988 21.7074 288.191 21.7074C287.49 21.7074 286.959 21.9864 286.596 22.5444C286.234 23.0781 285.98 23.8182 285.835 24.7644C285.786 25.1283 285.738 25.5286 285.69 25.9653C285.641 26.3778 285.605 26.8145 285.581 27.2754C285.581 27.7121 285.581 28.161 285.581 28.6219C285.581 29.3498 285.581 30.0534 285.581 30.7327C285.605 31.3877 285.629 31.9942 285.654 32.5523C285.701 33.086 285.762 33.5713 285.835 34.008C285.98 34.7844 286.234 35.3787 286.596 35.7912C286.959 36.2037 287.49 36.4098 288.191 36.4098C288.963 36.4098 289.507 36.2279 289.822 35.864C290.136 35.5 290.293 35.0148 290.293 34.4083C290.293 34.2141 290.281 34.0201 290.257 33.826C290.232 33.6076 290.184 33.3771 290.112 33.1346L293.338 33.3893C293.385 33.5834 293.41 33.7896 293.41 34.008C293.434 34.2263 293.446 34.4447 293.446 34.663C293.446 35.5364 293.24 36.3128 292.83 36.9921C292.443 37.6472 291.852 38.1688 291.054 38.557C290.281 38.9209 289.29 39.1029 288.082 39.1029ZM283.298 31.0602L283.225 28.3308L292.685 28.258L293.12 30.8055C293.12 30.8055 292.903 30.8055 292.468 30.8055C292.033 30.8055 291.453 30.8176 290.728 30.8418C290.027 30.8418 289.242 30.854 288.372 30.8782C287.502 30.9025 286.62 30.9268 285.726 30.951C284.856 30.9752 284.046 31.0116 283.298 31.0602ZM306.44 30.114C306.73 28.9252 306.948 27.8213 307.093 26.8023C307.238 25.7591 307.31 24.8493 307.31 24.0729C307.31 23.2965 307.201 22.7022 306.984 22.2897C306.766 21.853 306.393 21.6346 305.86 21.6346C305.425 21.6346 305.003 21.853 304.592 22.2897C304.182 22.7022 303.843 23.3572 303.577 24.2549C303.336 25.1525 303.214 26.3292 303.214 27.7849L301.692 29.3134C301.692 28.3186 301.741 27.3118 301.837 26.2928C301.958 25.2738 302.127 24.3276 302.344 23.4542C302.587 22.5566 302.888 21.768 303.251 21.0887C303.638 20.3851 304.109 19.8392 304.664 19.4511C305.22 19.063 305.873 18.8688 306.621 18.8688C307.54 18.8688 308.265 19.0872 308.796 19.5239C309.328 19.9606 309.715 20.5793 309.956 21.3799C310.198 22.1805 310.318 23.0903 310.318 24.1093C310.318 24.9827 310.246 25.9411 310.101 26.9843C309.956 28.0033 309.763 29.0465 309.521 30.114H306.44ZM299.59 38.6662C299.639 37.9869 299.675 37.3196 299.699 36.6646C299.747 35.9853 299.784 35.2817 299.807 34.5538C299.832 33.8018 299.856 33.0011 299.88 32.152C299.905 31.2785 299.916 30.3081 299.916 29.2406C299.941 28.1003 299.941 27.0449 299.916 26.0745C299.916 25.0797 299.892 24.1699 299.844 23.3451C299.82 22.5202 299.784 21.7802 299.735 21.1251C299.711 20.4459 299.675 19.8514 299.626 19.3419L303.033 19.16C303.033 19.7908 303.033 20.5186 303.033 21.3435C303.033 22.1683 303.046 23.1145 303.069 24.1821C303.118 25.2253 303.167 26.4262 303.214 27.7849C303.214 28.8767 303.214 29.932 303.214 30.951C303.214 31.97 303.227 32.9404 303.251 33.8624C303.276 34.7844 303.287 35.6456 303.287 36.4462C303.312 37.2469 303.336 37.9747 303.359 38.6298L299.59 38.6662Z" fill="#060626"/>
<path d="M149.912 37.0574C148.993 37.1297 148.069 36.9855 147.216 36.6361C146.362 36.2869 145.603 35.7421 144.997 35.0458C143.917 33.6688 143.35 31.9576 143.395 30.2072C141.952 32.171 140.123 33.8178 138.019 35.0458C136.162 36.1577 134.045 36.758 131.882 36.7856C131.014 36.8781 130.136 36.7801 129.31 36.4982C128.484 36.2164 127.729 35.7575 127.099 35.1536C126.468 34.5497 125.976 33.8154 125.658 33.0018C125.34 32.1882 125.203 31.3149 125.256 30.4427C125.293 28.6538 125.709 26.8931 126.478 25.2779C127.317 23.4283 128.414 21.7076 129.737 20.1675C131.015 18.6418 132.527 17.3296 134.217 16.2803C135.658 15.3407 137.332 14.8229 139.051 14.7852C139.866 14.7801 140.666 15.0063 141.359 15.4376C142.065 15.8726 142.418 16.7605 142.418 18.1016C142.414 19.4914 141.988 20.8472 141.196 21.9887C140.332 23.2526 139.247 24.3486 137.992 25.2235C136.649 26.1775 135.188 26.9541 133.647 27.5342C132.139 28.1165 130.558 28.4914 128.949 28.6486C128.877 29.011 128.823 29.3554 128.786 29.6816C128.752 29.9825 128.734 30.2849 128.732 30.5877C128.734 31.3201 128.863 32.0467 129.112 32.7352C129.359 33.435 129.814 34.0423 130.416 34.475C131.191 34.9728 132.104 35.2108 133.022 35.1545C135.092 35.1025 137.091 34.388 138.725 33.1157C140.638 31.7419 142.31 30.0611 143.676 28.1413C144.032 26.5774 144.617 25.0751 145.414 23.6832C146.238 22.2079 147.252 20.8462 148.428 19.6329C149.546 18.4635 150.837 17.4733 152.256 16.6971C153.535 15.9799 154.973 15.5967 156.438 15.5826C157.254 15.5775 158.054 15.8037 158.746 16.235C159.452 16.6699 159.805 17.5579 159.805 18.8989C159.823 20.7007 159.153 22.4412 157.932 23.7648C156.596 25.2209 154.954 26.3628 153.125 27.1083C151.206 27.9325 149.174 28.464 147.097 28.6849C147.025 29.0473 146.97 29.3917 146.934 29.7179C146.9 30.0188 146.882 30.3212 146.88 30.624C146.885 31.3805 147.004 32.132 147.233 32.853C147.452 33.5894 147.887 34.2429 148.482 34.7287C149.231 35.2645 150.143 35.5239 151.062 35.4626C152.716 35.4364 154.331 34.957 155.732 34.0763C157.358 33.099 158.823 31.8765 160.077 30.4518C161.397 28.9761 162.528 27.3417 163.444 25.586L164.095 26.0753C163.163 28.183 161.887 30.1212 160.321 31.811C158.891 33.3767 157.2 34.6828 155.325 35.671C153.659 36.5638 151.802 37.0394 149.912 37.0574ZM129.194 27.6519C131.661 26.7829 133.979 25.5358 136.064 23.955C137.146 23.1444 138.099 22.1726 138.888 21.0736C139.6 20.1137 139.989 18.9527 140.001 17.7572C140.017 17.4406 139.941 17.1262 139.784 16.8512C139.67 16.7285 139.528 16.6349 139.371 16.5781C139.213 16.5214 139.045 16.5032 138.879 16.5249C137.875 16.5716 136.909 16.9224 136.109 17.5307C135.051 18.2757 134.101 19.163 133.285 20.1675C132.358 21.2957 131.54 22.5092 130.841 23.792C130.143 25.0097 129.59 26.3053 129.194 27.6519ZM147.296 27.6519C148.389 27.2792 149.458 26.8436 150.5 26.3471C151.66 25.8032 152.768 25.1573 153.813 24.4171C154.819 23.7176 155.7 22.8538 156.42 21.8619C157.095 20.9398 157.457 19.8249 157.452 18.6815C157.462 18.3269 157.367 17.9772 157.18 17.6757C157.066 17.5299 156.916 17.4158 156.745 17.3445C156.573 17.2731 156.387 17.2467 156.203 17.268C154.89 17.3342 153.645 17.875 152.7 18.7902C151.436 19.9105 150.354 21.2221 149.496 22.6774C148.568 24.2345 147.85 25.907 147.36 27.6519H147.296Z" fill="#E6952A"/>
</g>
<path d="M223.369 142.955C216.826 140.201 189.298 195.24 184.941 225.19C180.584 255.141 209.515 251.863 208.557 246.645C207.598 241.427 214.037 225.19 214.037 225.19C214.037 225.19 233.479 147.21 223.369 142.955Z" fill="#FFA982"/>
<path d="M283.352 282.06C283.352 282.06 273.142 394.185 270.071 393.217C269.118 392.916 267.222 393.022 266.765 390.464C263.008 369.409 275.691 279.645 275.691 279.645L283.352 282.06ZM301.548 281.293C301.548 281.293 326.148 389.908 323.011 390.454C322.037 390.624 320.313 391.612 319.114 389.458C309.24 371.728 293.721 282.655 293.721 282.655L301.548 281.293ZM221.784 282.06C221.784 282.06 211.574 394.185 208.503 393.217C207.549 392.916 205.653 393.022 205.197 390.464C201.439 369.409 214.122 279.645 214.122 279.645L221.784 282.06ZM239.98 281.293C239.98 281.293 264.58 389.908 261.443 390.454C260.468 390.624 258.745 391.612 257.546 389.458C247.672 371.728 232.153 282.655 232.153 282.655L239.98 281.293Z" fill="#EAE6E4"/>
<path d="M322.1 213.735C322.1 213.735 322.879 162.776 294.268 155.115C265.658 147.455 244.151 209.092 237.355 214.166C230.558 219.24 197.293 219.148 192.539 234.163C187.785 249.177 186.795 275.354 211.466 282.655C236.137 289.956 297.704 293.533 312.929 279.023C328.154 264.512 322.1 213.735 322.1 213.735Z" fill="#EAE6E4"/>
<path d="M224.71 93.0086C224.71 93.0086 229.013 90.5804 234.407 92.48C239.801 94.3797 248.395 105.313 251.412 111.858C254.43 118.402 260.916 131.54 264.226 135.636C267.536 139.733 285.714 159.035 281.538 168.096C277.362 177.157 239.561 167.991 230.657 163.353C221.752 158.716 210.978 131.484 212.025 116.222C213.045 101.352 213.211 94.1006 224.71 93.0086Z" fill="#CC8B70"/>
<path d="M216.124 119.059C216.124 119.059 214.105 118.863 214.039 120.993C213.973 123.123 217.21 127.965 218.137 127.378C219.064 126.791 217.781 120.539 216.124 119.059Z" fill="#FFA982"/>
<path d="M294.829 253.218C295.109 247.025 297.278 182.211 265.718 144.197C250.132 125.424 221.421 137.035 215.994 148.058C204.823 170.745 212.7 199.301 213.646 208.844C215.68 229.368 202.314 259.505 202.776 264.159C203.031 266.738 294.548 259.411 294.829 253.218Z" fill="#2E2E47"/>
<path d="M239.274 125.972C239.274 125.972 240.372 129.605 242.433 132.515C244.085 134.847 246.828 136.479 246.601 137.179C244.876 142.494 239.213 148.817 231.03 146.542C227.773 145.637 230.885 140.761 231.091 133.2C231.181 129.891 232.915 125.105 239.274 125.972Z" fill="#FFA982"/>
<path d="M230.566 138.173C231.962 138.774 234.081 138.661 235.93 137.176C238.898 134.795 240.674 129.472 240.674 129.472C238.45 128.544 233.773 131.18 231.076 133.585C231.008 135.254 230.805 136.788 230.566 138.173Z" fill="#2E2E47"/>
<path d="M216.369 120.34C216.844 121.268 216.61 126.982 218.414 130.417C221.047 135.429 224.495 138.717 232.111 136.41C239.728 134.104 242.226 127.169 242.48 123.157C242.734 119.146 241.872 119.346 242.087 118.362C242.303 117.377 243.486 117.702 243.894 115.656C244.302 113.61 243.128 110.553 241.613 110.493C240.097 110.432 238.488 112.61 238.108 111.883C237.729 111.156 237.081 102.621 233.76 100.993C230.439 99.3649 222.707 100.7 217.284 104.21C211.861 107.72 212.55 109.613 212.949 111.843C213.213 113.317 215.493 118.631 216.369 120.34Z" fill="#FFA982"/>
<path d="M224.262 126.675C223.96 126.675 223.717 126.604 223.526 126.51C222.698 126.1 222.264 125.007 222.236 123.26C222.19 120.341 221.724 118.759 221.348 117.487L221.266 117.208C220.918 116.014 220.379 115.697 219.676 115.589C219.167 115.511 216.923 116.307 215.494 116.898C215.303 116.978 215.082 116.886 215.002 116.694C214.923 116.502 215.014 116.281 215.207 116.202C215.813 115.951 218.889 114.707 219.791 114.845C220.928 115.02 221.606 115.684 221.989 116.997L222.07 117.274C222.458 118.589 222.941 120.226 222.989 123.248C223.011 124.649 223.32 125.567 223.86 125.834C224.315 126.059 225.022 125.846 225.85 125.233C226.016 125.11 226.252 125.145 226.376 125.312C226.5 125.479 226.464 125.715 226.297 125.839C225.441 126.473 224.77 126.675 224.262 126.675ZM225.147 129.506C223.938 129.506 223.17 129.085 223.112 129.052C222.931 128.95 222.867 128.72 222.97 128.539C223.071 128.359 223.301 128.295 223.481 128.396C223.573 128.447 225.75 129.608 228.625 127.448C228.791 127.323 229.027 127.357 229.152 127.523C229.277 127.689 229.243 127.925 229.077 128.05C227.556 129.193 226.188 129.506 225.147 129.506Z" fill="#2E2E47"/>
<path d="M217.392 121.185C217.244 121.185 217.104 121.097 217.044 120.952C216.964 120.76 217.055 120.539 217.247 120.46C217.376 120.406 218.523 119.934 219.039 119.851C219.49 119.778 220.679 119.795 220.813 119.797C221.021 119.8 221.187 119.971 221.183 120.179C221.18 120.387 221.005 120.557 220.801 120.55C220.454 120.545 219.485 120.542 219.159 120.595C218.795 120.653 217.864 121.02 217.536 121.156C217.488 121.175 217.44 121.185 217.392 121.185ZM227.99 118.482C227.854 118.482 227.722 118.408 227.655 118.279C227.559 118.095 227.631 117.867 227.816 117.771C228.911 117.202 229.889 117.043 230.675 116.915C231.294 116.814 231.784 116.734 232.128 116.497C232.299 116.379 232.533 116.421 232.651 116.592C232.769 116.763 232.727 116.998 232.555 117.116C232.072 117.45 231.48 117.547 230.795 117.658C230.024 117.784 229.15 117.926 228.162 118.44C228.108 118.469 228.048 118.482 227.99 118.482ZM225.385 113.995C225.281 113.995 225.176 113.952 225.102 113.867C224.965 113.711 224.98 113.474 225.136 113.336C225.205 113.276 226.849 111.854 229.194 112.147C231.38 112.419 232.213 112.551 232.247 112.557C232.452 112.589 232.592 112.783 232.559 112.988C232.527 113.193 232.333 113.334 232.129 113.301C232.12 113.299 231.271 113.165 229.101 112.895C227.1 112.646 225.647 113.89 225.633 113.903C225.561 113.965 225.473 113.995 225.385 113.995Z" fill="#2E2E47"/>
<path d="M217.972 120.778C217.972 120.778 218.113 121.626 218.993 121.856C219.874 122.086 220.135 120.563 220.135 120.563C220.135 120.563 218.328 119.623 217.972 120.778ZM228.85 118.741C228.85 118.741 229.072 119.374 230.113 119.209C231.153 119.046 231.026 117.475 231.026 117.475C231.026 117.475 227.972 116.686 228.85 118.741Z" fill="#2E2E47"/>
<path d="M234.149 120.777C234.402 121.646 233.487 122.677 232.105 123.08C230.724 123.483 229.398 123.106 229.145 122.238C228.892 121.369 229.807 120.338 231.189 119.935C232.571 119.532 233.896 119.909 234.149 120.777ZM221.288 123.835C221.541 124.704 220.626 125.734 219.245 126.138C217.863 126.541 216.538 126.164 216.285 125.295C216.032 124.427 216.946 123.396 218.328 122.993C219.71 122.59 221.035 122.967 221.288 123.835Z" fill="#F2836D"/>
<path d="M173.115 391.485L129.106 247.447H123.638L79.6289 391.485H85.6075L126.372 258.068L167.137 391.485H173.115Z" fill="#CC8B70"/>
<path d="M159.557 354.078H92.5156V359.463H159.557V354.078Z" fill="#CC8B70"/>
<path d="M133.877 421.329L89.8678 277.291H84.4L40.3906 421.329H46.3693L87.1339 287.912L127.898 421.329H133.877Z" fill="#FFA982"/>
<path d="M120.318 383.92H53.2769V389.305H120.318V383.92Z" fill="#FFA982"/>
<path d="M275.863 269.359C275.863 269.359 275.765 272.519 275.007 276.172C273.953 281.249 270.397 285.469 265.562 287.333C262.006 288.703 188.73 301.477 188.73 301.477L207.964 379.099C207.964 379.099 196.69 389.686 193.908 383.368C191.125 377.051 155.396 301.948 153.026 295.92C149.951 288.098 146.804 272.413 164.493 266.288C172.319 263.579 226.432 250.233 236.941 251.05C249.986 252.063 275.863 269.359 275.863 269.359Z" fill="#FFA982"/>
<path d="M236.941 251.05C226.433 250.233 172.32 263.579 164.494 266.288C146.805 272.413 149.952 288.098 153.027 295.92C154.635 300.011 166.504 339.39 173.116 365.676C176.79 365.9 199.38 358.923 206.977 353.038L188.73 301.477C188.73 301.477 262.007 288.702 265.562 287.332C270.397 285.469 273.954 281.249 275.007 276.172C275.765 272.519 275.863 269.358 275.863 269.358C275.863 269.358 249.986 252.063 236.941 251.05Z" fill="#2E2E47"/>
<path d="M296.231 251.04C296.231 251.04 302.272 271.818 302.156 275.546C301.997 280.729 299.261 285.565 294.783 288.174C262.424 307.021 221.26 303.924 221.26 303.924C221.26 303.924 226.869 305.646 234.019 325.234C238.064 336.318 246.74 370.687 246.74 370.687C246.74 370.687 236.128 380.526 235.804 378.233C234.155 366.574 189.822 321.661 185.561 310.062C182.663 302.173 174.216 286.921 190.579 277.827C197.818 273.804 237.018 252.004 247.509 250.988C260.533 249.728 296.231 251.04 296.231 251.04Z" fill="#FFA982"/>
<path d="M296.231 251.04C296.231 251.04 260.533 249.728 247.509 250.988C237.018 252.004 197.818 273.804 190.579 277.827C174.216 286.921 182.663 302.173 185.561 310.062C188.573 318.261 211.841 343.811 219.165 365.674C223.328 364.105 239.797 355.436 245.728 350.285C243.094 340.481 235.994 330.647 234.019 325.234C226.869 305.646 221.26 303.924 221.26 303.924C221.26 303.924 262.424 307.021 294.783 288.174C299.261 285.565 301.997 280.729 302.156 275.546C302.272 271.818 296.231 251.04 296.231 251.04Z" fill="#2E2E47"/>
<path d="M394.444 391.485L350.434 247.447H344.967L300.957 391.485H306.936L347.701 258.068L388.465 391.485H394.444Z" fill="#CC8B70"/>
<path d="M380.885 354.078H313.844V359.463H380.885V354.078Z" fill="#CC8B70"/>
<path d="M355.206 421.329L311.196 277.291H305.729L261.719 421.329H267.698L308.462 287.912L349.227 421.329H355.206Z" fill="#FFA982"/>
<path d="M341.647 383.92H274.605V389.305H341.647V383.92Z" fill="#FFA982"/>
<path d="M310.263 288.337H6.55327C5.25709 288.337 4.79777 286.619 5.92085 285.971L80.4156 243.012C80.9242 242.719 81.501 242.564 82.0882 242.564H385.798C387.095 242.564 387.554 244.282 386.431 244.93L311.936 287.889C311.427 288.182 310.85 288.337 310.263 288.337Z" fill="#D6D5D4"/>
<path d="M233.838 267.11L280.098 247.548L205.371 245.264L154.079 262.323L233.838 267.11Z" fill="white"/>
<path d="M230.888 262.323L267.292 249.042L211.944 246.643L191.629 258.466L230.888 262.323Z" fill="#2E2E47"/>
<path d="M254.284 252.148L260.785 250.068L249.832 249.602L243.417 251.475L254.284 252.148Z" fill="#454560"/>
<path d="M241.717 251.246L248.218 249.166L238.331 248.822L231.916 250.695L241.717 251.246Z" fill="#454560"/>
<path d="M230.202 250.56L236.703 248.481L226.356 248.023L219.76 249.949L230.202 250.56Z" fill="#454560"/>
<path d="M217.844 249.96L224.345 247.88L213.392 247.414L206.977 249.287L217.844 249.96Z" fill="#454560"/>
<path d="M242.3 254.47L248.801 252.39L237.848 251.924L231.433 253.797L242.3 254.47Z" fill="#454560"/>
<path d="M229.734 253.571L236.235 251.491L226.349 251.146L219.933 253.02L229.734 253.571Z" fill="#454560"/>
<path d="M218.22 252.885L224.721 250.805L214.373 250.348L207.777 252.273L218.22 252.885Z" fill="#454560"/>
<path d="M205.861 252.283L212.362 250.203L201.409 249.736L194.994 251.609L205.861 252.283Z" fill="#454560"/>
<path d="M239.697 257.73L246.198 255.65L235.245 255.184L228.83 257.057L239.697 257.73Z" fill="#454560"/>
<path d="M227.131 256.83L233.632 254.751L223.745 254.406L217.33 256.279L227.131 256.83Z" fill="#454560"/>
<path d="M215.616 256.141L222.117 254.061L211.77 253.604L205.174 255.529L215.616 256.141Z" fill="#454560"/>
<path d="M203.257 255.54L209.758 253.46L198.806 252.994L192.39 254.867L203.257 255.54Z" fill="#454560"/>
<path d="M226.078 245.392C227.017 244.714 227.35 244.286 226.613 244.262C225.876 244.239 217.831 248.007 216.963 247.092C216.096 246.176 222.442 241.943 223.749 240.968C225.056 239.993 230.713 239.827 233.339 240.91C234.918 241.561 239.312 242.016 240.468 241.892C244.381 241.471 244.707 240.281 246.198 239.845C255.258 237.196 252.126 252.147 249.173 253.268C247.561 253.88 239.842 255.47 238.031 255.453C235.441 255.429 234.989 254.287 232.565 254.359C230.141 254.43 223.783 257.176 222.714 256.344C221.644 255.511 226.149 252.146 226.149 252.146C226.149 252.146 220.421 254.524 218.924 253.977C217.426 253.43 219.126 251.42 219.126 251.42C219.126 251.42 215.881 253.43 215.834 251.503C215.787 249.577 225.139 246.07 226.078 245.392Z" fill="#FFA982"/>
<path d="M234.018 267.112L142.171 261.665L125.353 195.127L221.32 200.646L234.018 267.112Z" fill="#EAE6E4"/>
<path d="M173.942 226.694C173.942 226.694 178.093 223.45 181.063 226.489C184.033 229.529 181.034 233.862 177.036 234.057C173.038 234.252 173.342 230.878 173.342 230.878C173.342 230.878 176.875 231.232 176.189 229.662C175.504 228.091 173.942 226.694 173.942 226.694Z" fill="#C7C3C1"/>
<path d="M223.622 108.303C226.485 108.813 232.745 109.872 235.743 113.453C238.74 117.033 240.03 126.965 240.709 127.188C241.388 127.412 240.504 117.327 238.783 112.501C237.061 107.675 233.138 100.574 228.614 99.5075C224.09 98.4411 219.905 99.68 219.641 101.187C219.377 102.695 215.458 106.849 223.622 108.303Z" fill="#CC8B70"/>
<path d="M220.566 103.277C220.566 103.277 216.211 112.915 215.78 114.732C215.35 116.548 214.946 119.208 214.946 119.208C214.946 119.208 212.994 117.446 212.305 113.676C211.617 109.906 211.466 105.428 215.207 103.619C218.949 101.81 220.46 100.906 220.566 103.277ZM233.838 108.892C233.838 108.892 238.319 115.89 240.422 114.409C242.525 112.929 241.959 100.522 236.583 98.4868C231.207 96.4513 218.538 98.1565 220.399 100.64C222.261 103.124 232.896 108.504 233.838 108.892Z" fill="#CC8B70"/>
<path d="M242.434 117.583C242.861 117.583 243.207 117.237 243.207 116.809C243.207 116.382 242.861 116.035 242.434 116.035C242.006 116.035 241.66 116.382 241.66 116.809C241.66 117.237 242.006 117.583 242.434 117.583Z" fill="white"/>
<path d="M257.683 138.39C264.226 135.636 301.062 185.844 305.419 215.794C309.776 245.745 236.307 257.895 234.565 252.884C231.916 245.265 279.278 213.267 279.278 213.267C279.278 213.267 247.573 142.645 257.683 138.39Z" fill="#FFA982"/>
<path d="M235.967 373.493C235.967 373.493 233.579 401.24 234.286 400.087C234.992 398.935 248.608 395.484 249.033 394.52C249.457 393.555 248.794 385.28 248.783 382.374C248.761 376.028 246.739 370.688 246.739 370.688L235.967 373.493Z" fill="#FFA982"/>
<path d="M237.954 391.196C237.954 391.196 232.099 392.572 230.491 399.547C230.082 401.322 231.78 402.863 233.514 402.309C238.924 400.582 248.954 397.293 250.095 396.29C250.838 395.637 249.984 388.411 249.997 383.967C250.011 379.004 250.817 376.743 250.219 375.345C249.085 372.696 246.926 371.223 246.926 371.223L245.689 390.752C245.689 390.752 242.069 389.7 237.954 391.196Z" fill="#2E2E47"/>
<path d="M249.854 375.418L255.834 392.51L254.331 393.079C254.331 393.079 249.372 382.316 249.317 382.173C249.263 382.029 249.854 375.418 249.854 375.418Z" fill="#2E2E47"/>
<path d="M177.214 403.429C177.736 401.913 178.835 399.877 181.095 398.908C184.345 397.514 186.662 395.724 188.463 394.291C192.764 395.21 194.153 402.027 195.319 401.658C196.625 401.246 202.191 395.882 202.329 394.232C202.466 392.581 200.748 387.424 202.329 384.192C203.909 380.96 207.964 379.098 207.964 379.098C207.964 379.098 211.124 384.742 211.537 388.593C211.949 392.444 212.361 404.271 212.361 404.271H207.963L206.589 394.232C206.589 394.232 200.066 404.405 194.738 405.301C190.636 405.99 182.2 405.619 178.532 405.411C177.543 405.355 176.891 404.367 177.214 403.429Z" fill="#2E2E47"/>
<path d="M202.329 384.192C200.748 387.424 202.466 392.581 202.329 394.232C202.191 395.882 196.625 401.246 195.32 401.658C194.153 402.027 192.764 395.209 188.463 394.291C188.795 394.028 189.111 393.775 189.41 393.54C191.334 392.031 194.738 379.098 194.738 379.098H207.964C207.964 379.098 203.909 380.96 202.329 384.192Z" fill="#FFA982"/>
<path d="M279.278 213.644C279.118 213.644 278.969 213.541 278.919 213.38C278.857 213.182 278.967 212.97 279.166 212.908C281.199 212.272 291.383 209.1 292.159 209.1C292.367 209.1 292.535 209.268 292.535 209.476C292.535 209.685 292.367 209.853 292.159 209.853C291.552 209.883 284.004 212.184 279.39 213.627C279.353 213.639 279.315 213.644 279.278 213.644Z" fill="#2E2E47"/>
<path d="M229.46 197.911C229.252 197.911 229.084 197.742 229.084 197.534C229.084 197.326 229.252 197.157 229.46 197.157C239.064 197.157 254.15 196.924 257.57 196.311C252.611 195.068 228.237 194.504 227.981 194.498C227.773 194.493 227.608 194.321 227.613 194.113C227.617 193.905 227.783 193.729 227.997 193.745C229.097 193.77 254.959 194.369 258.394 195.782C258.855 195.972 258.908 196.234 258.871 196.42C258.78 196.883 258.666 197.459 243.901 197.762C236.749 197.909 229.532 197.911 229.46 197.911Z" fill="white"/>
<path d="M199.149 331.362C199.022 331.362 198.899 331.298 198.828 331.182C198.224 330.2 196.338 327.556 194.884 327.115C193.769 326.777 193.027 325.008 192 322.559C191.063 320.326 189.898 317.547 188.174 315.479C182.937 309.194 180.041 304.811 179.322 302.078C178.428 298.687 176.827 288.815 176.759 288.396C176.726 288.191 176.866 287.997 177.071 287.964C177.276 287.931 177.469 288.07 177.503 288.276C177.519 288.378 179.166 298.53 180.049 301.886C180.731 304.473 183.659 308.884 188.752 314.996C190.548 317.151 191.738 319.988 192.694 322.267C193.533 324.269 194.326 326.159 195.103 326.394C197.126 327.007 199.374 330.633 199.469 330.787C199.578 330.964 199.523 331.196 199.346 331.305C199.284 331.343 199.216 331.362 199.149 331.362Z" fill="white"/>
<path d="M215.661 306.718C215.629 306.718 215.596 306.714 215.563 306.705C215.526 306.695 211.805 305.691 207.923 304.368C202.644 302.569 199.584 301.049 198.83 299.849C198.474 299.283 198.592 298.913 198.754 298.702C199.47 297.769 203.107 298.496 206.08 299.284C202.761 297.203 197.545 293.474 197.84 290.756C197.877 290.41 198.065 290.146 198.367 290.014C198.886 289.784 200.268 289.179 211.125 296.376C216.414 299.882 221.433 303.584 221.483 303.621C221.65 303.744 221.686 303.98 221.562 304.147C221.439 304.315 221.203 304.351 221.036 304.227C213.371 298.567 200.521 289.897 198.67 290.703C198.635 290.718 198.599 290.734 198.588 290.838C198.289 293.587 205.996 298.481 208.991 300.134C209.16 300.228 209.231 300.434 209.156 300.612C209.08 300.79 208.883 300.881 208.698 300.824C204.06 299.386 199.692 298.609 199.35 299.162C199.346 299.179 199.357 299.273 199.467 299.449C200.801 301.57 211.679 304.881 215.758 305.977C215.959 306.032 216.078 306.238 216.024 306.439C215.979 306.607 215.827 306.718 215.661 306.718Z" fill="white"/>
<path d="M65.4741 238.433C65.4741 238.433 51.3214 215.921 58.5855 206.184C65.8499 196.446 77.2472 205.001 77.2472 205.001C77.2472 205.001 83.1338 198.962 92.7777 202.467C102.422 205.972 92.2768 236.427 84.0104 240.062C75.7443 243.697 65.4741 238.433 65.4741 238.433Z" fill="#515032"/>
<path d="M57.6052 236.973H93.0127C93.0127 236.973 96.8717 256.125 86.5021 266.756H66.0395C66.0395 266.756 54.5962 259.621 57.6052 236.973Z" fill="#9C6F43"/>
<path d="M86.1397 218.568C86.042 218.568 85.9448 218.53 85.8709 218.455L82.6771 215.197C82.5314 215.048 82.5337 214.81 82.6823 214.664C82.8308 214.518 83.0689 214.521 83.2145 214.67L86.4082 217.928C86.5538 218.077 86.5515 218.315 86.4029 218.461C86.33 218.533 86.2351 218.568 86.1397 218.568Z" fill="white"/>
<path d="M82.9456 218.192C82.8488 218.192 82.752 218.155 82.6786 218.081C82.5321 217.933 82.5328 217.695 82.6805 217.548L85.2029 215.041C85.3503 214.895 85.5888 214.896 85.7351 215.043C85.8816 215.191 85.8809 215.429 85.7333 215.576L83.2109 218.083C83.1375 218.156 83.0417 218.192 82.9456 218.192ZM75.8057 209.819C75.708 209.819 75.6108 209.781 75.5369 209.706L72.3431 206.447C72.1975 206.298 72.1997 206.06 72.3483 205.914C72.4969 205.768 72.7349 205.771 72.8805 205.92L76.0742 209.178C76.2198 209.327 76.2175 209.565 76.069 209.711C75.9958 209.783 75.9009 209.819 75.8057 209.819Z" fill="white"/>
<path d="M72.6123 209.443C72.5155 209.443 72.4188 209.406 72.3452 209.332C72.1986 209.184 72.1996 208.946 72.347 208.799L74.8694 206.292C75.0168 206.146 75.2553 206.147 75.4016 206.294C75.5481 206.442 75.5474 206.68 75.3998 206.827L72.8774 209.333C72.804 209.407 72.7082 209.443 72.6123 209.443ZM96.1684 208.19C96.0709 208.19 95.9735 208.152 95.8997 208.077L92.7058 204.818C92.5602 204.669 92.5624 204.431 92.711 204.285C92.8596 204.14 93.0976 204.142 93.2432 204.291L96.4369 207.55C96.5825 207.698 96.5802 207.936 96.4317 208.082C96.3587 208.154 96.2638 208.19 96.1684 208.19Z" fill="white"/>
<path d="M92.975 207.813C92.8784 207.813 92.7814 207.776 92.708 207.702C92.5615 207.554 92.5622 207.316 92.7099 207.169L95.232 204.662C95.3792 204.516 95.6177 204.516 95.7643 204.664C95.9108 204.812 95.9101 205.05 95.7624 205.197L93.2403 207.704C93.1669 207.777 93.071 207.813 92.975 207.813Z" fill="white"/>
<path d="M69.8194 221.451C69.7217 221.451 69.6244 221.413 69.5506 221.338L66.3567 218.08C66.2111 217.931 66.2134 217.693 66.362 217.547C66.5105 217.401 66.7484 217.404 66.8942 217.552L70.0881 220.811C70.2337 220.96 70.2314 221.198 70.0829 221.344C70.0095 221.415 69.9145 221.451 69.8194 221.451Z" fill="white"/>
<path d="M66.6251 221.076C66.5283 221.076 66.4315 221.039 66.3579 220.965C66.2114 220.817 66.2121 220.579 66.3598 220.432L68.8822 217.926C69.0296 217.779 69.2681 217.78 69.4144 217.927C69.5609 218.075 69.5602 218.314 69.4126 218.46L66.8902 220.967C66.8168 221.04 66.721 221.076 66.6251 221.076Z" fill="white"/>
<path d="M82.3286 231.272C82.2309 231.272 82.1337 231.234 82.0599 231.159L78.866 227.9C78.7204 227.751 78.7227 227.513 78.8712 227.367C79.0198 227.222 79.2579 227.224 79.4035 227.373L82.5971 230.632C82.7427 230.78 82.7405 231.018 82.5919 231.164C82.519 231.236 82.4238 231.272 82.3286 231.272Z" fill="white"/>
<path d="M79.1348 230.897C79.038 230.897 78.9412 230.86 78.8676 230.786C78.7211 230.638 78.722 230.399 78.8694 230.253L81.3918 227.746C81.539 227.599 81.7776 227.601 81.9241 227.748C82.0706 227.895 82.0697 228.134 81.9223 228.281L79.3999 230.787C79.3267 230.86 79.2306 230.897 79.1348 230.897Z" fill="white"/>
<path d="M62.5166 212.125C62.4189 212.125 62.3217 212.087 62.2479 212.012L59.054 208.754C58.9084 208.605 58.9107 208.367 59.0592 208.221C59.2078 208.075 59.4459 208.078 59.5915 208.226L62.7853 211.485C62.931 211.633 62.9287 211.871 62.7801 212.017C62.7067 212.089 62.6118 212.125 62.5166 212.125Z" fill="white"/>
<path d="M59.3223 211.75C59.2254 211.75 59.1288 211.713 59.0552 211.639C58.9087 211.491 58.9094 211.253 59.057 211.106L61.5794 208.599C61.7268 208.453 61.9654 208.454 62.1117 208.601C62.2582 208.749 62.2575 208.987 62.1098 209.134L59.5874 211.641C59.5141 211.714 59.4182 211.75 59.3223 211.75Z" fill="white"/>
<path d="M284.221 236.271L288.603 271.883C288.603 271.883 298.022 274.866 308.532 271.883L313.688 236.271H284.221Z" fill="#9C6F43"/>
<path d="M290.024 228.028C292.457 227.398 297.483 226.81 306.801 228.29C308.464 228.554 309.788 229.829 310.118 231.481C310.118 231.481 313.55 233.108 313.731 234.012C313.912 234.916 313.821 237.898 313.821 237.898C313.821 237.898 311.417 241.075 298.376 241.073C285.538 241.071 283.202 237.808 283.202 237.808L283.674 234.636C283.776 233.948 284.162 233.336 284.737 232.946L286.746 231.586L287.401 230.203C287.911 229.125 288.87 228.326 290.024 228.028Z" fill="white"/>
<path d="M299.748 232.118C296.8 232.118 294.023 231.816 292.716 231.435C289.938 230.628 288.509 230.123 288.495 230.118C288.3 230.049 288.197 229.833 288.267 229.638C288.336 229.442 288.552 229.339 288.747 229.408C288.761 229.413 290.172 229.912 292.926 230.712C295.846 231.56 304.646 231.805 307.957 230.085C308.142 229.989 308.369 230.061 308.465 230.245C308.56 230.43 308.489 230.657 308.304 230.753C306.367 231.76 302.956 232.118 299.748 232.118ZM300.318 237.95C298.139 237.95 295.775 237.793 293.216 237.481C284.898 236.466 283.949 234.565 283.869 234.352C283.795 234.157 283.893 233.94 284.087 233.866C284.276 233.795 284.486 233.885 284.566 234.068C284.603 234.134 285.634 235.797 293.307 236.734C302.061 237.801 308.464 237.031 312.882 234.378C313.061 234.27 313.292 234.328 313.399 234.507C313.506 234.685 313.448 234.917 313.27 235.024C310.011 236.98 305.739 237.95 300.318 237.95Z" fill="#2E2E47"/>
<path d="M295.954 267.712C292.666 267.547 289.968 267.166 287.977 266.791L288.603 271.882C288.603 271.882 298.022 274.865 308.532 271.882L309.257 266.876C305.845 267.493 300.833 267.957 295.954 267.712Z" fill="white"/>
<path d="M277.461 113.12V114.907H281.152V116.95H277.461V120.026H275V111.079H281.436V113.12H277.461ZM290.89 115.545C290.89 118.174 288.974 120.139 286.375 120.139C283.776 120.139 281.859 118.187 281.859 115.545C281.859 112.902 283.776 111 286.375 111C288.974 111 290.89 112.928 290.89 115.545ZM284.371 115.557C284.371 116.91 285.322 117.917 286.406 117.917C287.489 117.917 288.37 116.91 288.37 115.557C288.37 114.205 287.494 113.222 286.406 113.222C285.317 113.222 284.371 114.204 284.371 115.556V115.557ZM295.576 117.607H294.269V120.019H291.809V111.072H295.677C297.901 111.072 299.179 112.226 299.179 114.25C299.179 115.577 298.682 116.547 297.783 117.096L299.463 120.019H296.672L295.576 117.607ZM295.682 115.565C296.416 115.565 296.841 115.13 296.841 114.327C296.841 113.547 296.416 113.114 295.682 113.114H294.273V115.565H295.682ZM307.927 115.391V118.99C307.029 119.655 305.561 120.144 304.378 120.144C301.811 120.144 299.918 118.192 299.918 115.563C299.918 112.933 301.87 111.005 304.544 111.005C305.81 111.005 307.17 111.528 308.046 112.358L306.65 114.183C306.082 113.596 305.254 113.214 304.532 113.214C303.337 113.214 302.438 114.222 302.438 115.563C302.438 116.928 303.349 117.923 304.556 117.923C304.991 117.898 305.417 117.781 305.81 117.579V115.4L307.927 115.391ZM317.713 115.545C317.713 118.174 315.796 120.139 313.198 120.139C310.599 120.139 308.682 118.187 308.682 115.545C308.682 112.902 310.599 111 313.198 111C315.796 111 317.713 112.928 317.713 115.545ZM311.194 115.557C311.194 116.91 312.145 117.917 313.229 117.917C314.312 117.917 315.193 116.91 315.193 115.557C315.193 114.205 314.317 113.222 313.229 113.222C312.14 113.222 311.2 114.204 311.2 115.556L311.194 115.557ZM322.564 113.196V120.024H320.091V113.196H317.689V111.077H324.977V113.196H322.564ZM325.073 114.102C325.084 112.149 326.125 111 327.9 111C329.544 111 330.539 111.817 330.539 113.272C330.539 115.161 328.756 115.468 328.756 116.897H326.974C326.974 114.957 328.346 114.804 328.346 113.692C328.346 113.233 328.109 113.028 327.683 113.028C327.175 113.028 326.914 113.373 326.914 114.101L325.073 114.102ZM328.942 118.914C328.95 119.075 328.926 119.237 328.872 119.388C328.819 119.538 328.736 119.676 328.63 119.79C328.524 119.904 328.397 119.993 328.257 120.051C328.117 120.109 327.967 120.135 327.818 120.126C327.166 120.126 326.717 119.629 326.717 118.914C326.71 118.756 326.733 118.598 326.786 118.45C326.839 118.302 326.92 118.168 327.023 118.057C327.127 117.945 327.251 117.858 327.388 117.801C327.525 117.744 327.671 117.719 327.818 117.726C328.48 117.726 328.942 118.211 328.942 118.914Z" fill="#9C6F43"/>
<defs>
<clipPath id="clip0_851_8075">
<rect width="222" height="58" fill="white" transform="translate(89)"/>
</clipPath>
</defs>
</svg>
