<svg width="15" height="18" viewBox="0 0 15 18" fill="none" xmlns="http://www.w3.org/2000/svg">
<path d="M3.21429 6.41912V4.27941C3.21429 1.91604 5.13281 0 7.5 0C9.86719 0 11.7857 1.91604 11.7857 4.27941V6.41912H12.8571C14.0391 6.41912 15 7.37864 15 8.55882V14.9779C15 16.1581 14.0391 17.1176 12.8571 17.1176H2.14286C0.959263 17.1176 0 16.1581 0 14.9779V8.55882C0 7.37864 0.959263 6.41912 2.14286 6.41912H3.21429ZM4.82143 6.41912H10.1786V4.27941C10.1786 2.80235 8.97991 1.60478 7.5 1.60478C6.02009 1.60478 4.82143 2.80235 4.82143 4.27941V6.41912ZM1.60714 14.9779C1.60714 15.2722 1.84687 15.5129 2.14286 15.5129H12.8571C13.1518 15.5129 13.3929 15.2722 13.3929 14.9779V8.55882C13.3929 8.26461 13.1518 8.0239 12.8571 8.0239H2.14286C1.84687 8.0239 1.60714 8.26461 1.60714 8.55882V14.9779Z" fill="#888888"/>
</svg>
