<svg width="14" height="15" viewBox="0 0 14 15" fill="none" xmlns="http://www.w3.org/2000/svg">
<path d="M11.1562 0H1.96875C0.883312 0 0 0.877816 0 1.9565V14.3477C3.75871e-05 14.4697 0.0345515 14.5893 0.0996151 14.6929C0.164679 14.7964 0.25768 14.8797 0.368038 14.9334C0.478396 14.987 0.601681 15.0087 0.723865 14.9961C0.84605 14.9836 0.96223 14.9372 1.05919 14.8622L6.5625 10.6088L12.0658 14.8622C12.1626 14.9374 12.2788 14.984 12.401 14.9965C12.5233 15.0091 12.6466 14.9872 12.7568 14.9333C12.8672 14.8797 12.9602 14.7964 13.0253 14.6929C13.0904 14.5893 13.1249 14.4697 13.125 14.3477V1.9565C13.125 0.877816 12.2417 0 11.1562 0ZM11.8125 13.0146L6.96544 9.26793C6.85036 9.17868 6.70859 9.13014 6.56261 9.13002C6.41663 9.12991 6.27479 9.17821 6.15956 9.26728L1.3125 13.0146V1.9565C1.3125 1.59715 1.60716 1.30433 1.96875 1.30433H11.1562C11.5178 1.30433 11.8125 1.59715 11.8125 1.9565V13.0146Z" fill="#888888"/>
</svg>
