<svg width="14" height="18" viewBox="0 0 14 18" fill="none" xmlns="http://www.w3.org/2000/svg">
<path d="M7.59375 12.027V8.4375C7.59375 7.97168 7.21582 7.59375 6.75 7.59375C6.28418 7.59375 5.90625 7.97344 5.90625 8.4375V12.027L4.50352 10.6523C4.36992 10.4871 4.15547 10.4062 3.9375 10.4062C3.71953 10.4062 3.50578 10.4871 3.3409 10.6523C3.01131 10.9819 3.01131 11.5158 3.3409 11.8455L6.1534 14.658C6.48299 14.9876 7.01684 14.9876 7.3466 14.658L10.1591 11.8455C10.4887 11.516 10.4887 10.9821 10.1591 10.6523C9.82951 10.3226 9.29566 10.3228 8.9659 10.6523L7.59375 12.027ZM12.8426 3.28289L10.2189 0.658828C9.79453 0.237023 9.22148 0 8.62734 0H2.25C1.00723 0 0 1.00723 0 2.25L0.000228516 15.75C0.000228516 16.9924 1.00746 18 2.25023 18H11.25C12.4875 18 13.5 16.9875 13.5 15.75V4.87266C13.5 4.27852 13.2645 3.70547 12.8426 3.28289ZM11.8125 15.75C11.8125 16.0606 11.5606 16.3125 11.25 16.3125H2.2507C1.93999 16.3125 1.6882 16.0606 1.6882 15.75L1.6875 2.25457C1.6875 1.94393 1.93936 1.69207 2.25 1.69207H7.875V4.5C7.875 5.12121 8.37879 5.625 9 5.625H11.7809V15.75H11.8125Z" fill="#2294B1"/>
</svg>
