<svg width="381" height="274" viewBox="0 0 381 274" fill="none" xmlns="http://www.w3.org/2000/svg">
<path d="M343.329 253.412C342.678 254.366 341.999 255.322 341.294 256.282C340.411 257.484 339.464 258.64 338.459 259.742H25.9937C24.0445 257.835 22.3207 255.711 20.856 253.412C18.1945 249.251 16.4911 244.696 15.5191 239.954C1.40048 171.455 60.4227 201.723 24.5277 112.385C2.02433 56.3825 58.4937 -7.71577 112.768 23.4884C204.217 76.0646 216.45 0.78334 279.366 7.90384C388.934 20.306 327.946 114.382 334.613 146.435C341.13 177.771 371.702 211.904 343.329 253.412Z" fill="#F5F5F7"/>
<path d="M63.3334 224.271C63.4952 228.196 63.5931 232.076 64.4533 235.904C64.6013 236.062 64.7727 236.755 64.6109 236.597C64.7557 237.212 63.8209 237.361 63.6527 236.761C63.5548 236.366 63.4568 235.971 63.3717 235.587C60.5207 233.504 56.9841 232.682 53.8606 231.057C51.3364 229.742 49.2828 227.9 47.7839 225.414C43.7384 218.739 43.5596 210.486 39.1 203.95C35.2557 198.316 29.9444 193.98 25.1538 189.247C20.0959 184.241 15.8503 178.674 13.6785 171.734C12.0071 166.419 10.6753 159.085 13.572 153.917C16.6381 148.433 22.7616 150.127 27.0477 153.003C39.4694 161.352 47.638 174.063 53.3017 187.831C56.4327 195.452 59.6147 203.11 61.564 211.151C62.5956 215.474 63.1407 219.836 63.3334 224.271Z" fill="#6EC88D"/>
<path d="M68.8809 260.641H67.7099C67.1084 256.731 66.5473 252.812 65.9096 248.907C65.4263 245.949 64.8983 242.998 64.2744 240.062C63.9508 238.537 63.6083 237.017 63.2471 235.5C62.7276 233.319 62.1669 231.149 61.565 228.989C56.6083 225.087 52.3254 219.59 48.8261 214.35C48.7367 214.216 48.9176 214.055 49.0177 214.187C52.7949 219.113 57.032 223.334 61.2265 227.813C59.7435 222.658 58.0018 217.584 55.9035 212.648C54.3737 209.052 52.6757 205.526 50.8371 202.084C43.5712 194.422 34.075 189.345 27.0146 181.477C26.9784 181.438 27.0391 181.371 27.0785 181.408C34.3987 188.193 43.1539 193.287 50.0216 200.564C43.6458 188.988 35.558 178.39 26.0512 169.356C25.8755 169.189 26.1576 168.881 26.3354 169.037C39.348 180.891 49.9045 195.28 56.9458 211.62C56.9456 211.623 56.9456 211.626 56.9458 211.629C56.7126 210.488 56.5061 209.34 56.2591 208.213C55.5025 204.747 54.5941 201.321 53.5337 197.937C51.5733 191.624 49.1469 185.464 46.2742 179.509C46.2699 179.495 46.2706 179.48 46.2763 179.467C46.282 179.454 46.2923 179.443 46.3052 179.437C46.3182 179.431 46.333 179.43 46.3469 179.433C46.3607 179.437 46.3727 179.446 46.3807 179.458C49.5457 185.472 52.2519 191.651 54.3045 198.158C56.1941 204.147 57.3727 210.307 58.9099 216.39C58.9184 216.427 58.9003 216.451 58.8961 216.483C60.8756 221.717 62.5352 227.066 63.8656 232.501C64.3795 234.586 64.8521 236.684 65.2837 238.793C65.9661 242.129 66.6059 245.508 67.1808 248.908C67.8419 252.8 68.4189 256.724 68.8809 260.641Z" fill="#21473B"/>
<path d="M34.5328 166.359C34.4849 166.296 34.3954 166.374 34.4401 166.438C37.5339 170.872 39.8866 175.59 42.5311 180.287C42.5528 180.332 42.5917 180.367 42.6392 180.384C42.6868 180.4 42.739 180.398 42.7844 180.376C42.8299 180.354 42.8649 180.315 42.8816 180.268C42.8984 180.22 42.8956 180.168 42.8739 180.123C40.9565 175.134 37.7659 170.528 34.5328 166.359Z" fill="#21473B"/>
<path d="M71.2912 164.278C71.4733 167.513 71.3583 170.782 71.1401 174.008C70.6929 180.903 69.9083 187.401 72.2696 194.072C73.3235 197.048 74.5446 199.97 74.9513 203.128C75.3037 205.861 75.1142 208.626 74.6798 211.331C73.6568 217.623 71.5329 223.63 70.8271 229.991C70.0988 236.63 70.3859 243.341 71.6788 249.894C71.7522 250.25 71.2178 250.396 71.1465 250.04C71.1457 250.012 71.141 249.985 71.1326 249.958C71.1066 249.948 71.0851 249.929 71.0719 249.904C64.3426 236.375 59.1027 222.015 57.1917 206.924C56.3604 200.286 55.9493 193.602 55.9611 186.912C55.9749 181.108 56.6126 175.234 58.8355 169.861C60.2791 166.385 63.6975 159.476 68.2997 160.12C70.5088 160.433 71.1816 162.247 71.2912 164.278Z" fill="#40947E"/>
<path d="M72.1631 201.776C71.9396 206.254 71.2859 210.665 70.3778 215.042C69.8913 217.394 69.3547 219.733 68.8192 222.072C68.3306 224.205 67.481 226.617 67.5023 228.874C68.2121 232.609 68.9363 236.342 69.6752 240.073C70.0605 242.013 70.4509 243.952 70.8462 245.889C71.118 247.212 71.3934 248.536 71.6723 249.859C71.7916 250.433 71.9126 251.005 72.0354 251.577L71.3487 251.689C71.1901 250.96 71.0293 250.231 70.8728 249.507C70.7813 249.094 70.6887 248.681 70.596 248.269C69.9914 245.587 69.3977 242.9 68.815 240.21C68.6894 239.631 68.5644 239.051 68.4402 238.47C65.4785 233.334 63.5335 227.563 62.3955 221.744C62.372 221.619 62.5541 221.566 62.585 221.692C63.9519 227.219 65.9384 232.428 68.2539 237.589C66.4207 228.979 64.7344 220.34 63.343 211.654C63.0151 209.603 62.7265 207.551 62.4913 205.489C62.4811 205.482 62.473 205.473 62.4679 205.462C60.0044 198.732 58.712 191.154 58.4501 184C58.4501 183.933 58.5416 183.937 58.5491 184C59.3092 191.063 60.6783 197.779 62.4008 204.638C62.0274 201.228 61.8571 197.8 61.8908 194.371C61.9781 188.216 62.6786 182.095 63.3334 175.982C63.3547 175.786 63.6581 175.783 63.64 175.982C62.9586 183.651 62.4029 191.355 62.8586 199.066C63.3249 206.956 64.8536 214.744 66.2887 222.503C66.5868 224.116 66.9008 225.726 67.2053 227.338C67.365 226.191 67.678 225.051 67.9154 223.937C68.4179 221.588 68.948 219.246 69.4537 216.899C70.5322 211.898 71.5478 206.868 72.0088 201.757C72.0269 201.682 72.1695 201.679 72.1631 201.776Z" fill="#21473B"/>
<path d="M69.9125 195.627C68.75 200.819 68.042 206.294 67.9515 211.63C67.9515 211.698 68.058 211.717 68.0708 211.647C68.7574 206.318 69.3866 200.979 70.0658 195.648C70.0775 195.559 69.9338 195.54 69.9125 195.627Z" fill="#21473B"/>
<path d="M13.9638 209.459C16.6977 212.183 19.8713 215.484 20.1481 219.616C20.3226 222.23 19.1048 224.744 19.4752 227.357C20.2843 233.128 26.707 235.25 31.3465 236.755C42.9123 240.516 57.9135 242.524 63.3589 255.418C63.5559 255.874 64.3245 255.524 64.1393 255.077C64.1296 255.047 64.1152 255.019 64.0967 254.994C64.1074 254.959 64.134 254.941 64.1223 254.9C63.5293 247.747 61.6066 240.835 58.3372 234.481C54.988 227.989 50.3453 222.626 45.2086 217.554C36.5183 208.969 27.4129 200.239 16.3677 194.921C13.3112 193.452 7.20045 190.988 6.58511 196.459C5.98894 201.779 10.6199 206.144 13.9638 209.459Z" fill="#2E6857"/>
<path d="M63.9572 253.212C64.987 255.654 65.9451 258.13 66.8316 260.641H65.4625C64.8237 258.929 64.1516 257.228 63.4462 255.539C62.5107 253.297 61.5121 251.085 60.4504 248.903C59.6413 247.243 58.7896 245.603 57.8954 243.984C57.7367 243.697 57.576 243.416 57.411 243.133C48.9762 236.215 37.6244 235.143 28.7797 228.815C28.6946 228.753 28.7691 228.608 28.8606 228.667C37.3029 233.99 48.7036 235.059 56.4805 241.503C49.8023 230.124 41.3004 220.607 30.2595 213.391C29.9763 213.205 30.2159 212.753 30.5161 212.922C38.3291 217.213 44.8242 222.986 50.2516 229.716C47.2579 224.66 43.7447 220.072 39.8803 215.62C39.7344 215.451 39.958 215.206 40.1198 215.366C42.4581 217.692 44.5834 220.223 46.4701 222.927C47.5954 224.522 48.6483 226.179 49.6298 227.868C50.2856 228.994 50.9105 230.135 51.5046 231.29C55.6299 236.679 59.1058 242.633 62.0441 248.907C62.7084 250.326 63.3461 251.761 63.9572 253.212Z" fill="#21473B"/>
<path d="M25.6765 222.933C29.9509 225.152 34.1933 227.459 38.4729 229.674C38.5155 229.696 38.4878 229.771 38.441 229.755C34.0304 228.251 29.3366 225.937 25.5307 223.199C25.3763 223.088 25.5019 222.843 25.6765 222.933ZM21.3521 209.247C25.8234 213.429 30.3671 217.254 35.4474 220.658C35.5144 220.703 35.4569 220.809 35.3856 220.77C30.1414 217.882 25.125 214.009 21.1988 209.408C21.1073 209.301 21.2457 209.148 21.3521 209.247Z" fill="#21473B"/>
<path d="M304.431 228.683C303.114 232.031 301.876 235.36 299.872 238.388C299.674 238.474 299.298 239.016 299.506 238.936C299.177 239.419 300.094 239.864 300.439 239.399C300.652 239.09 300.872 238.782 301.072 238.476C304.61 237.633 308.483 238.113 312.164 237.757C315.145 237.469 317.79 236.564 320.058 234.916C326.17 230.495 328.771 223.401 335.266 219.24C340.866 215.65 347.594 213.687 353.897 211.201C360.557 208.567 366.548 205.173 370.812 199.89C374.086 195.851 377.603 189.941 376.148 184.487C374.607 178.7 367.824 178.103 362.579 179.151C347.378 182.198 335.265 190.46 325.414 200.483C319.966 206.033 314.449 211.598 310.096 217.91C307.764 221.311 305.925 224.903 304.431 228.683Z" fill="#6EC88D"/>
<path d="M325.043 212.623C334.226 208.631 344.71 207.17 354.213 203.757C354.265 203.738 354.308 203.816 354.259 203.839C344.704 208.277 333.464 209.473 323.759 213.667C320.861 216.032 318.086 218.513 315.46 221.113C311.899 224.664 308.587 228.456 305.547 232.462C311.166 229.994 316.754 227.765 322.076 224.768C322.219 224.688 322.356 224.888 322.226 224.975C317.097 228.336 311.087 231.656 304.855 233.372C303.603 235.038 302.391 236.73 301.218 238.447C300.403 239.64 299.605 240.843 298.826 242.056C297.805 243.643 296.829 245.25 295.879 246.872C293.857 250.333 291.953 253.855 290.024 257.363L288.758 256.98C290.582 253.426 292.539 249.918 294.577 246.479C295.751 244.5 296.947 242.545 298.166 240.614C299.231 238.933 300.331 237.275 301.466 235.64C304.447 231.352 307.719 227.274 311.261 223.434C311.261 223.407 311.252 223.379 311.273 223.35C314.634 218.597 317.65 213.656 321.345 209.107C325.36 204.158 329.95 199.715 334.963 195.57C335.02 195.522 335.116 195.602 335.06 195.652C330.408 199.798 326.108 204.321 322.204 209.175C320.128 211.753 318.192 214.416 316.394 217.162C315.81 218.057 315.261 218.983 314.691 219.893C314.691 219.893 314.696 219.893 314.697 219.885C326.716 208.098 341.772 199.185 358.609 193.298C358.837 193.219 359.034 193.581 358.808 193.666C346.392 198.281 334.982 204.741 325.043 212.623Z" fill="#21473B"/>
<path d="M350.974 188.196C351.042 188.158 351.111 188.255 351.046 188.295C346.574 191.096 342.772 194.391 338.68 197.571C338.494 197.716 338.215 197.487 338.376 197.314C341.805 193.639 346.431 190.723 350.974 188.196Z" fill="#21473B"/>
<path d="M302.941 228.817C300.053 231.49 297.029 234.039 293.909 236.482C293.802 236.567 293.696 236.652 293.583 236.736C293.56 236.751 293.533 236.759 293.505 236.756C293.488 236.775 293.474 236.797 293.464 236.821C293.451 236.838 293.437 236.854 293.42 236.867C293.246 237.017 292.934 236.81 292.941 236.59C292.943 236.544 292.958 236.5 292.985 236.462C295.174 233.253 296.993 229.807 298.408 226.19C299.222 224.105 299.898 221.968 300.43 219.794C301.844 214.041 301.741 207.978 302.819 202.149C303.288 199.645 304.018 197.197 305.268 195.01C306.716 192.482 308.888 190.512 310.918 188.419C315.464 183.727 316.843 177.827 318.689 171.732C319.541 168.875 320.516 166.025 321.769 163.335C322.552 161.643 323.818 160.381 326.102 161.072C330.857 162.515 331.938 169.912 332.21 173.508C332.616 179.07 331.297 184.375 329.385 189.352C327.184 195.072 324.558 200.621 321.531 205.952C316.652 214.53 310.231 222.066 302.941 228.817Z" fill="#40947E"/>
<path d="M311.491 216.383C308.616 220.619 305.036 224.506 300.754 227.544C300.498 227.728 300.239 227.907 299.976 228.083C298.202 230.581 296.409 233.066 294.598 235.538C294.369 235.851 294.141 236.163 293.914 236.479C293.801 236.635 293.687 236.792 293.575 236.951L293.426 236.865C293.251 237.015 292.939 236.807 292.946 236.587L292.915 236.568L292.99 236.462C293.71 235.442 294.427 234.419 295.141 233.395C296.647 231.235 298.141 229.066 299.622 226.889C301.12 224.693 302.611 222.488 304.093 220.277C304.863 218.352 304.825 215.919 305.051 213.882C305.299 211.65 305.546 209.411 305.844 207.186C306.402 203.041 307.221 198.984 308.485 195.054C308.512 194.97 308.65 195.033 308.628 195.117C307.389 199.687 306.721 204.44 306.125 209.189C305.846 211.421 305.593 213.653 305.31 215.885C305.177 216.938 305.106 218.051 304.884 219.101C305.721 217.853 306.565 216.611 307.393 215.359C311.383 209.338 315.477 203.332 318.554 196.779C321.563 190.374 323.572 183.538 325.443 176.676C325.492 176.495 325.79 176.628 325.746 176.807C324.362 182.32 323.026 187.861 321.07 193.176C319.968 196.12 318.662 198.983 317.16 201.745C321.131 196.616 324.718 191.462 327.806 185.744C327.834 185.693 327.927 185.731 327.904 185.785C325.267 191.792 321.477 197.715 316.814 202.413C316.805 202.421 316.794 202.426 316.782 202.427C315.869 204.089 314.904 205.722 313.9 207.336C309.651 214.158 305.127 220.818 300.47 227.384L300.449 227.412L300.477 227.388C304.464 223.977 308.143 220.387 311.317 216.257C311.384 216.162 311.552 216.287 311.491 216.383Z" fill="#21473B"/>
<path d="M312.738 190.764C312.163 195.714 311.046 200.709 309.365 205.317C309.343 205.375 309.227 205.344 309.241 205.279C310.332 200.419 311.483 195.575 312.581 190.717C312.599 190.634 312.749 190.681 312.738 190.764Z" fill="#21473B"/>
<path d="M359.46 232.49C355.854 233.93 351.629 235.721 350.134 239.208C349.189 241.416 349.702 244.005 348.556 246.145C346.034 250.873 338.817 250.547 333.613 250.29C320.634 249.652 304.642 246.331 295.273 255.672C294.937 255.999 294.25 255.438 294.571 255.111C294.591 255.089 294.614 255.069 294.64 255.054C294.64 255.02 294.618 254.996 294.64 254.965C297.38 248.889 301.456 243.506 306.564 239.218C311.905 234.72 318.244 231.638 325.005 228.973C336.444 224.463 348.352 219.966 361.251 219.081C364.82 218.839 371.818 218.762 370.845 223.713C369.9 228.523 363.869 230.744 359.46 232.49Z" fill="#2E6857"/>
<path d="M338.569 244.271C327.632 246.776 315.663 243.876 304.973 247.027C304.725 247.221 304.474 247.407 304.228 247.604C303.687 248.029 303.152 248.463 302.623 248.904C300.002 251.077 297.513 253.368 295.146 255.748C294.345 256.552 293.558 257.367 292.784 258.193L291.318 257.75C292.61 256.321 293.94 254.922 295.308 253.553C297.101 251.764 298.96 250.04 300.887 248.381C305.092 244.767 309.628 241.512 314.514 238.755C315.461 237.957 316.436 237.18 317.439 236.423C318.943 235.29 320.509 234.212 322.132 233.207C324.906 231.476 327.831 229.999 330.871 228.792C331.083 228.709 331.242 228.997 331.043 229.093C325.765 231.644 320.814 234.44 316.257 237.809C323.803 233.809 332.164 230.996 341.442 229.911C341.799 229.869 341.915 230.336 341.569 230.404C328.116 232.935 316.598 238.316 306.405 245.923C316.279 242.96 328.3 245.877 338.527 244.116C338.537 244.113 338.548 244.112 338.558 244.114C338.569 244.115 338.579 244.118 338.588 244.124C338.597 244.129 338.605 244.136 338.612 244.144C338.618 244.153 338.623 244.162 338.626 244.172C338.628 244.183 338.629 244.193 338.628 244.204C338.626 244.214 338.623 244.224 338.618 244.233C338.612 244.242 338.605 244.251 338.597 244.257C338.588 244.263 338.579 244.268 338.569 244.271Z" fill="#21473B"/>
<path d="M343.485 240.221C338.445 240.701 333.414 241.271 328.368 241.748C328.318 241.748 328.324 241.827 328.377 241.829C333.347 242.012 338.844 241.589 343.554 240.501C343.748 240.456 343.69 240.201 343.485 240.221ZM351.937 229.815C346.116 231.931 340.333 233.715 334.12 234.953C334.038 234.969 334.064 235.081 334.149 235.07C340.381 234.336 346.666 232.67 352.045 230.006C352.172 229.946 352.074 229.766 351.937 229.815Z" fill="#21473B"/>
<path d="M339.544 258.791H19.8329V262.022H339.544V258.791Z" fill="#7A8DB0"/>
<path d="M122.16 85.9764C119.146 89.9093 110.217 91.3771 102.425 91.8778C98.053 92.1501 93.6693 92.1916 89.2925 92.0021L90.4859 88.3627L88.542 90.7351L86.8269 89.364C86.8269 89.364 90.5668 85.7777 89.5618 80.3292C88.5569 74.8806 90.9458 73.1417 93.0037 69.9944C95.0615 66.8471 93.9618 67.9982 92.8695 58.0759C92.0093 50.2889 94.6261 48.0058 95.7929 47.3829C96.2557 47.1208 96.6611 46.7688 96.9853 46.3476C98.1414 45.4548 99.3199 44.5332 100.818 44.5332C102.147 44.5332 103.729 45.2613 105.772 47.3808C107.188 48.8616 108.212 50.6708 108.753 52.6454C108.937 53.2927 109.039 53.9605 109.058 54.6331C109.058 54.6331 113.922 64.7436 111.104 72.2446C109.59 76.2677 122.16 85.9764 122.16 85.9764Z" fill="#333333"/>
<path d="M122.16 85.977C119.146 89.9098 110.217 91.3777 102.425 91.8783C105.786 88.0933 108.864 82.8531 103.773 78.4186C94.873 70.6593 101.725 58.1795 101.725 58.1795C102.546 55.2512 105.207 53.5569 108.751 52.6523C108.935 53.2997 109.037 53.9674 109.056 54.64C109.056 54.64 113.92 64.7505 111.102 72.2515C109.59 76.2683 122.16 85.977 122.16 85.977Z" fill="#272727"/>
<path d="M103.149 43.7819C98.9068 45.27 94.1236 54.8362 101.731 61.691C108.619 67.8953 122.704 61.7973 122.15 61.0065C121.597 60.2157 114.977 45.4528 113.156 44.5387C111.336 43.6246 105.512 42.9539 103.149 43.7819Z" fill="#6C6C6C"/>
<path d="M182.568 121.653C182.568 121.653 155.343 163.233 147.949 158.025C147.949 158.025 136.047 151.966 140.312 127.558C140.321 125.188 140.332 123.545 140.248 123.173C140.248 123.173 138.415 99.0784 134.448 94.0891C134.013 93.5406 132.698 92.5224 132.873 92.4788C144.988 89.4548 149.842 115.225 153.182 129.289C153.32 129.872 176.227 112.029 176.227 112.029C176.227 112.029 188.341 96.0374 189.187 96.9515C190.411 98.2759 185.717 105.407 185.717 105.407C185.959 105.952 186.395 106.388 186.941 106.629C187.86 107.037 188.37 107.649 188.676 108.871C188.981 110.093 190.206 110.807 190.411 111.52C190.615 112.233 185.152 119.785 182.568 121.653Z" fill="#F4AEA2"/>
<path d="M176.635 111.928C176.635 111.928 179.084 105.001 180.103 105.204C181.123 105.407 185.614 107.343 185.512 109.075C185.409 110.806 181.532 109.381 181.532 109.381C181.532 109.381 182.246 113.252 180.308 113.761C178.369 114.27 176.635 111.928 176.635 111.928Z" fill="#F4AEA2"/>
<path d="M182.654 109.074C182.654 109.074 182.553 110.807 183.981 111.112C183.981 111.112 184.287 112.945 186.124 112.538C186.124 112.538 185.614 113.354 186.736 113.557C186.736 113.557 181.941 118.753 182.654 109.074Z" fill="#F4AEA2"/>
<path d="M181.19 105.697C182.18 105.987 183.145 106.354 184.077 106.794L184.427 106.957L184.772 107.129L184.944 107.215L185.122 107.308C185.249 107.376 185.372 107.452 185.489 107.536C185.617 107.628 185.733 107.735 185.834 107.855C185.956 107.994 186.046 108.157 186.1 108.333C186.16 108.533 186.16 108.746 186.1 108.946C186.039 109.129 185.936 109.295 185.798 109.43C185.681 109.542 185.55 109.639 185.409 109.719L185.217 109.826L185.021 109.916C184.76 110.026 184.487 110.106 184.209 110.155C183.678 110.24 183.139 110.262 182.603 110.22L182.228 110.194C182.122 110.185 182.045 110.208 182.046 110.194C182.047 110.181 182.046 110.174 182.036 110.188C182.028 110.226 182.028 110.264 182.036 110.302L182.074 110.681C182.117 111.193 182.161 111.703 182.172 112.22L182.126 112.229L181.823 110.726L181.75 110.351C181.736 110.285 181.732 110.218 181.738 110.151C181.745 110.08 181.779 110.014 181.831 109.965C181.942 109.885 182.076 109.845 182.212 109.852H182.597C183.105 109.862 183.613 109.819 184.113 109.725C184.36 109.674 184.602 109.598 184.835 109.498C185.067 109.404 185.28 109.27 185.465 109.102C185.553 109.019 185.62 108.915 185.66 108.801C185.697 108.687 185.699 108.565 185.667 108.45C185.582 108.218 185.426 108.017 185.222 107.876C185.017 107.728 184.801 107.595 184.576 107.479L183.904 107.112C183.004 106.629 182.092 106.171 181.168 105.737L181.19 105.697Z" fill="#F18D98"/>
<path d="M185.282 105.218C185.273 105.435 185.214 105.647 185.109 105.837C185.02 106.005 184.905 106.158 184.769 106.291C184.634 106.423 184.48 106.535 184.313 106.624C184.125 106.723 183.919 106.785 183.707 106.807L183.673 106.777C183.793 106.633 183.922 106.497 184.053 106.364L184.445 105.965L185.248 105.188L185.282 105.218ZM187.359 107.792C187.129 108.293 186.826 108.759 186.461 109.173C186.106 109.592 185.707 109.972 185.271 110.307C185.165 110.39 185.051 110.47 184.939 110.55C184.827 110.63 184.712 110.705 184.594 110.776C184.476 110.848 184.36 110.919 184.239 110.989C184.114 111.06 183.985 111.123 183.852 111.178C183.565 111.314 183.246 111.367 182.931 111.33C182.774 111.305 182.624 111.246 182.491 111.157C182.427 111.113 182.369 111.061 182.32 111.002C182.274 110.943 182.238 110.878 182.214 110.808L182.251 110.781C182.335 110.88 182.44 110.959 182.559 111.011C182.678 111.063 182.807 111.088 182.937 111.082C183.201 111.072 183.457 110.995 183.683 110.858C183.913 110.73 184.132 110.574 184.351 110.422C184.571 110.27 184.785 110.111 184.99 109.946C185.414 109.622 185.821 109.276 186.21 108.911C186.598 108.545 186.969 108.162 187.325 107.762L187.359 107.792Z" fill="#F18D98"/>
<path d="M183.369 111.107C183.492 111.386 183.632 111.657 183.789 111.918C183.911 112.138 184.1 112.313 184.328 112.419C184.377 112.438 184.429 112.452 184.481 112.461C184.507 112.463 184.532 112.467 184.558 112.472H184.635C184.747 112.469 184.858 112.447 184.962 112.408C185.207 112.317 185.436 112.191 185.644 112.033C185.875 111.862 186.096 111.678 186.307 111.482C186.535 111.286 186.749 111.07 186.981 110.869C187.437 110.445 187.914 110.044 188.411 109.668L188.446 109.697C188.067 110.185 187.666 110.653 187.251 111.115C187.044 111.344 186.833 111.571 186.612 111.79C186.396 112.013 186.162 112.219 185.913 112.405C185.661 112.595 185.377 112.739 185.075 112.83C184.921 112.873 184.762 112.889 184.602 112.878C184.442 112.865 184.287 112.817 184.147 112.738C183.875 112.569 183.669 112.314 183.559 112.014C183.448 111.723 183.369 111.422 183.322 111.115L183.369 111.107Z" fill="#F18D98"/>
<path d="M185.492 112.232C185.559 112.409 185.637 112.58 185.726 112.746C185.808 112.905 185.899 113.06 185.998 113.209C186.042 113.279 186.091 113.345 186.143 113.409C186.184 113.461 186.231 113.507 186.285 113.546C186.304 113.56 186.321 113.567 186.324 113.562H186.335L186.385 113.571C186.455 113.58 186.526 113.584 186.598 113.586C186.748 113.587 186.898 113.576 187.047 113.553C187.126 113.542 187.204 113.525 187.286 113.511L187.348 113.498L187.422 113.482L187.572 113.456C187.671 113.442 187.769 113.431 187.859 113.426C187.95 113.421 188.027 113.426 188.102 113.409C188.281 113.373 188.456 113.316 188.622 113.24L188.656 113.27C188.539 113.422 188.395 113.55 188.231 113.649C188.056 113.726 187.874 113.788 187.689 113.833C187.337 113.953 186.955 114.076 186.566 114.033C186.469 114.025 186.373 114.007 186.279 113.981C186.231 113.968 186.184 113.95 186.139 113.928C186.094 113.902 186.054 113.871 186.018 113.834C185.887 113.691 185.784 113.525 185.713 113.344C185.637 113.169 185.577 112.988 185.533 112.802C185.484 112.617 185.459 112.427 185.458 112.236L185.492 112.232Z" fill="#F18D98"/>
<path d="M155.904 122.946L145.5 133.699L132.872 92.4796C132.872 92.4796 140.166 90.46 144.389 97.4158C148.611 104.372 155.904 122.946 155.904 122.946Z" fill="#49A380"/>
<path d="M132.169 95.693C132.373 106.863 109.676 95.7228 109.676 95.7228C109.676 95.7228 116.482 91.7655 114.234 83.1134C113.64 80.8196 113.169 78.7968 112.627 77.2227H130.619C131.02 82.5404 132.169 95.693 132.169 95.693Z" fill="#F4AEA2"/>
<path d="M131.1 81.9823C131.1 81.9823 119.579 81.6635 116.302 81.4509C113.025 81.2383 134.456 101.579 131.1 81.9823Z" fill="#F18D98"/>
<path d="M154.718 251.931C154.687 254.173 154.645 256.417 154.594 258.666H117.095C117.095 258.62 117.105 258.574 117.108 258.53C117.315 256.277 117.517 254.078 117.713 251.931C119.509 232.179 120.75 217.395 120.982 214.596C121.01 214.277 121.023 214.117 121.023 214.117C121.023 214.117 120.982 214.309 120.906 214.68C120.847 214.961 120.766 215.342 120.666 215.821C119.687 220.477 116.778 234.255 112.931 251.93C112.455 254.118 111.965 256.362 111.46 258.665H65.4348C66.031 256.397 66.6233 254.152 67.2116 251.93C75.673 219.97 83.1806 192.82 84.9095 186.058C88.6025 171.633 92.0007 163.323 98.4298 151.977C111.351 151.594 126.899 149.301 139.64 151.056C152.057 171.548 155.274 211.081 154.718 251.931Z" fill="#2E4EA4"/>
<path d="M147.862 259.41L147.367 259.373C148.5 244.474 149.07 232.862 149.07 224.859C149.07 204.443 145.719 186.318 142.907 174.709C139.861 162.128 136.773 154.275 136.742 154.195L137.204 154.012C137.235 154.089 140.332 161.968 143.388 174.579C146.207 186.217 149.562 204.387 149.562 224.855C149.573 232.874 148.998 244.499 147.862 259.41Z" fill="white"/>
<path d="M104.466 155.868L77.4186 259.395L77.8986 259.52L104.946 155.993L104.466 155.868Z" fill="white"/>
<path d="M97.7539 190.857C97.1431 190.855 96.5336 190.8 95.9324 190.693L96.0175 190.205C98.7674 190.687 101.234 190.042 103.344 188.292C105.848 186.215 109.239 181.35 111.171 169.967C111.883 165.696 112.298 161.381 112.411 157.053H112.907C112.797 161.406 112.382 165.747 111.666 170.043C110.98 174.082 110.057 177.619 108.924 180.547C107.497 184.228 105.73 186.962 103.666 188.672C101.909 190.125 99.9289 190.857 97.7539 190.857ZM144.813 192.507C142.755 192.507 140.919 191.799 139.335 190.391C137.34 188.616 135.725 185.707 134.536 181.741C133.589 178.589 132.907 174.762 132.505 170.368C132.093 165.657 131.992 160.925 132.203 156.201L132.698 156.23C132.489 160.931 132.59 165.641 133.001 170.328C133.896 180.131 136.201 186.94 139.666 190.021C141.556 191.702 143.833 192.323 146.434 191.866L146.519 192.355C145.956 192.455 145.385 192.506 144.813 192.507Z" fill="white"/>
<path opacity="0.21" d="M139.898 154.407L86.993 197.417C86.993 197.417 86.7013 169.866 96.0165 152.398L139.898 154.407Z" fill="#282828"/>
<path d="M136.833 94.0801C136.462 94.9772 146.918 116.548 146.476 125.358C146.031 134.232 141.907 144.553 147.534 170.521C147.534 170.521 141.689 179.823 94.8954 169.711C83.1998 159.495 94.0374 109.377 97.9658 98.3817C97.9658 98.3817 105.453 94.6413 108.678 94.4043C108.678 94.399 122.451 100.04 136.833 94.0801Z" fill="#6EC88D"/>
<path d="M108.579 94.3616L113.967 87.3262C113.967 87.3262 120.386 91.8818 130.025 95.2439L129.907 107.657C129.899 107.738 129.871 107.815 129.826 107.883C129.781 107.951 129.72 108.007 129.649 108.045C129.577 108.084 129.497 108.104 129.416 108.105C129.334 108.105 129.254 108.086 129.182 108.048C126.123 106.477 112.638 100.352 108.579 94.3616Z" fill="white"/>
<path d="M131.323 86.9414C131.323 86.9414 132.927 92.6302 129.896 94.958L134.118 107.142C134.421 108.082 135.1 108.036 135.203 107.548C135.863 104.443 137.087 97.696 136.26 93.6484L131.323 86.9414ZM133.793 115.196C133.793 116.107 133.398 116.846 132.911 116.846C132.425 116.846 132.031 116.102 132.031 115.196C132.031 114.29 132.425 113.547 132.911 113.547C133.398 113.547 133.793 114.285 133.793 115.196ZM134.129 122.947C134.129 123.857 133.735 124.595 133.249 124.595C132.762 124.595 132.367 123.857 132.367 122.947C132.367 122.037 132.762 121.297 133.249 121.297C133.735 121.297 134.129 122.036 134.129 122.947Z" fill="white"/>
<path d="M104.207 233.749L55.0519 202.303L75.4485 170.521L117.913 197.688C121.609 200.052 124.571 201.86 124.571 201.86L104.207 233.749Z" fill="#99B1DA"/>
<path d="M96.5924 201.86C96.5922 203.196 96.1953 204.502 95.4518 205.612C94.7084 206.723 93.6519 207.588 92.4158 208.099C91.1798 208.61 89.8197 208.744 88.5076 208.483C87.1955 208.222 85.9903 207.579 85.0444 206.635C84.0984 205.69 83.4543 204.487 83.1934 203.176C82.9325 201.866 83.0665 200.508 83.5785 199.274C84.0905 198.04 84.9575 196.986 86.0699 196.244C87.1823 195.502 88.4901 195.105 89.8279 195.105C90.7163 195.105 91.596 195.28 92.4168 195.62C93.2376 195.959 93.9833 196.457 94.6115 197.084C95.2396 197.711 95.7379 198.456 96.0778 199.275C96.4176 200.095 96.5925 200.973 96.5924 201.86Z" fill="white"/>
<path opacity="0.6" d="M86.7778 176.775C86.7778 176.775 78.854 180.448 84.9776 202.879C85.297 204.066 85.5801 205.418 85.3406 206.624L83.9641 216.264C83.7586 217.297 83.6181 218.682 84.4964 219.266C85.5951 219.996 91.8517 225.736 92.6118 225.989C94.1576 226.503 92.4713 218.883 92.7183 214.869C92.764 214.154 92.9312 217.41 93.0291 218.834L93.2197 221.969C95.0902 221.118 95.0529 217.515 95.3489 216.302C95.7396 214.677 95.4213 213.635 95.2318 213.242C94.3801 211.466 92.7502 207.935 92.4968 204.767C92.3478 202.901 93.6562 195.976 94.7389 183.079L86.7778 176.775Z" fill="#282828"/>
<path d="M85.7686 122.182C71.0772 204.105 80.6202 219.663 81.5815 220.301C82.7856 221.102 89.6427 227.393 90.4762 227.671C92.17 228.234 90.3229 219.883 90.5987 215.483C90.6487 214.699 90.8361 218.268 90.9404 219.829L91.1533 223.265C93.2027 222.327 93.1612 218.383 93.4805 217.054C93.9064 215.273 93.5604 214.131 93.3538 213.7C92.4181 211.753 90.6338 207.883 90.3559 204.411C90.192 202.366 104.115 135.833 106.563 126.056C109.889 112.77 105.703 97.5128 101.019 96.9963C95.202 96.3553 86.9854 115.396 85.7686 122.182Z" fill="#F4AEA2"/>
<path opacity="0.21" d="M129.764 205.086L129.348 258.666H117.693C117.492 258.62 117.299 258.575 117.112 258.53C117.32 256.277 117.521 254.077 117.717 251.931C119.513 232.179 120.754 217.395 120.986 214.596L129.764 205.086Z" fill="#2D4179"/>
<path d="M108.394 61.399L108.326 60.8144C114.333 60.1192 119.505 56.8422 121.823 52.2621C124.548 46.888 122.227 42.0719 121.452 40.7231L121.963 40.4297C122.775 41.8412 125.204 46.8859 122.35 52.5257C119.943 57.2823 114.596 60.6815 108.394 61.399Z" fill="#333333"/>
<path d="M112.862 41.4423C123.814 38.4246 131.311 44.242 134.082 54.2696C134.082 54.2696 135.106 61.3157 135.226 61.844C135.242 61.9141 140.541 72.7782 131.984 83.7975C131.501 84.4204 130.722 84.6787 129.935 84.887C113.54 89.2301 111.178 72.9036 111.178 72.9036C110.826 72.1139 103.117 64.6841 102.881 63.8284C100.11 53.8008 101.908 44.4588 112.862 41.4423Z" fill="#F4AEA2"/>
<path d="M127.588 47.7262L128.178 54.8414C128.178 54.8414 114.62 57.4104 108.936 59.6723C108.936 59.6723 113.371 69.684 110.533 71.0169C110.533 71.0169 99.0175 71.5483 100.091 56.9353C101.164 42.3223 112.411 39.8914 120.34 40.426C128.269 40.9607 136.752 46.1169 137.528 53.9474L131.108 54.8658C131.108 54.8658 129.621 49.8244 127.588 47.7262Z" fill="#333333"/>
<path d="M127.094 75.1845C128.372 75.0633 129.153 74.6636 129.223 74.6264L128.943 74.095C128.802 74.1683 125.441 75.8573 121.049 72.7578L120.702 73.2478C123.282 75.0686 125.548 75.3322 127.094 75.1845Z" fill="#2B2B2B"/>
<path d="M121.025 58.3234C120.173 57.6229 116.54 59.7052 116.393 59.8178C115.283 60.6512 115.797 61.4122 116.001 61.6546C116.119 61.798 116.533 61.5089 117.598 61.1072C119.868 60.2568 120.91 60.4694 121.262 59.6935C121.471 59.2375 121.363 58.6029 121.025 58.3234ZM128.927 57.337C129.353 56.5387 132.568 57.1084 132.714 57.1467C133.818 57.439 133.871 58.0725 133.791 58.3244C133.746 58.47 133.34 58.3776 132.408 58.401C130.41 58.4499 129.682 58.9324 129.174 58.4541C128.87 58.1714 128.755 57.6537 128.927 57.337Z" fill="#333333"/>
<path d="M128.785 69.9098C128.843 69.8822 130.224 69.2232 130.36 67.936C130.467 66.9485 129.809 65.9164 128.409 64.8535L128.046 65.3318C129.247 66.2406 129.841 67.1175 129.763 67.8701C129.664 68.8193 128.541 69.3582 128.529 69.3656L128.785 69.9098Z" fill="#2B2B2B"/>
<path d="M102.812 73.0678C103.848 76.2905 107.051 78.1464 109.967 77.2131C112.883 76.2799 114.407 72.9083 113.374 69.6855C112.34 66.4628 109.134 64.6069 106.218 65.5402C103.303 66.4734 101.776 69.8471 102.812 73.0678Z" fill="#F4AEA2"/>
<path d="M107.668 73.2386C107.978 72.3777 109.544 71.9535 110.117 71.8632L110.497 71.8037L110.347 71.4497C109.761 70.0679 108.963 69.2112 107.979 68.8987C106.734 68.4991 105.667 69.1379 105.622 69.1644L105.935 69.6778C105.944 69.6778 106.821 69.1549 107.804 69.4727C108.533 69.7097 109.15 70.3411 109.641 71.3519C108.935 71.5199 107.476 71.9897 107.098 73.0388L107.668 73.2386Z" fill="#F18D98"/>
<path d="M110.514 72.9296C109.992 70.3499 110 67.5501 110 67.5501C111.613 67.3943 113.231 67.8056 114.573 68.713C115.915 69.6205 116.898 70.9672 117.353 72.5209C117.807 74.0746 117.704 75.7378 117.061 77.2237C116.418 78.7096 115.277 79.925 113.832 80.6602C111.119 77.1005 110.514 72.9296 110.514 72.9296ZM136.022 64.0723C137.078 67.7703 137.133 71.6819 136.183 75.4083C135.265 74.7799 134.513 73.941 133.987 72.9619C133.462 71.9829 133.18 70.8924 133.164 69.7818C133.148 68.6713 133.399 67.5732 133.897 66.5797C134.394 65.5862 135.123 64.7263 136.022 64.0723Z" fill="#F18D98"/>
<path d="M118.93 64.9289C119.143 65.6443 119.654 66.1237 120.071 66.0004C120.488 65.8771 120.655 65.1968 120.443 64.4804C120.23 63.764 119.719 63.2857 119.301 63.409C118.884 63.5323 118.718 64.2136 118.93 64.9289ZM131.248 62.8701C131.442 63.5216 131.907 63.9596 132.288 63.8469C132.669 63.7342 132.821 63.1135 132.626 62.4651C132.431 61.8167 131.967 61.3756 131.587 61.4883C131.207 61.6009 131.054 62.2174 131.248 62.8701Z" fill="#2B2B2B"/>
<path d="M120.72 42.8107C121.12 42.6842 116.122 42.917 111.778 45.1852C106.221 48.0944 103.415 53.5111 103.807 53.8852C104.108 54.1722 106.652 51.804 107.175 52.2908C107.536 52.6257 106.605 53.999 106.872 54.1988C107.356 54.5591 110.804 50.3967 111.47 50.8517C111.763 51.0515 111.245 51.9603 111.536 52.1782C112.083 52.5895 114.32 49.6729 117.817 47.395C121.011 45.316 123.693 44.7951 123.615 44.539C123.473 44.0681 114.594 46.4799 114.474 46.077C114.372 45.7305 116.86 44.0266 120.72 42.8107Z" fill="#474747"/>
<path d="M120.91 214.682C120.851 214.962 120.77 215.344 120.67 215.822C120.777 215.145 120.826 214.772 120.826 214.772L120.91 214.682Z" fill="white"/>
<path d="M103.773 95.8035C103.773 95.8035 93.1155 95.3783 89.8269 105.199C86.5384 115.019 80.2136 135.217 80.2136 135.217L106.947 142.781C106.947 142.781 120.043 103.026 103.773 95.8035Z" fill="#49A380"/>
<path d="M271.023 51.8635L277.562 52.734C277.805 57.7991 279.123 62.7547 281.43 67.2727L276.188 71.2714C276.031 71.3909 275.899 71.5402 275.8 71.7106C275.7 71.8811 275.636 72.0694 275.61 72.2647C275.584 72.4601 275.596 72.6587 275.647 72.8492C275.698 73.0397 275.785 73.2183 275.905 73.3749L282.111 81.4871C282.231 81.6438 282.38 81.7755 282.551 81.8745C282.722 81.9735 282.911 82.0379 283.106 82.064C283.302 82.0902 283.501 82.0776 283.692 82.0269C283.883 81.9762 284.062 81.8885 284.219 81.7688L289.462 77.7701C293.221 81.179 297.663 83.7514 302.493 85.3168L301.618 91.8452C301.565 92.2399 301.671 92.6392 301.913 92.9555C302.156 93.2719 302.514 93.4792 302.909 93.5321L313.042 94.8862C313.437 94.9391 313.837 94.8331 314.154 94.5916C314.471 94.35 314.679 93.9926 314.732 93.598L315.607 87.0695C320.68 86.8267 325.644 85.5105 330.169 83.2079L334.174 88.4418C334.294 88.5985 334.443 88.7301 334.614 88.8291C334.785 88.9281 334.973 88.9925 335.169 89.0186C335.365 89.0448 335.563 89.0322 335.754 88.9815C335.945 88.9309 336.124 88.8432 336.281 88.7234L344.406 82.5277C344.563 82.408 344.695 82.2587 344.794 82.0881C344.893 81.9176 344.957 81.7292 344.984 81.5338C345.01 81.3383 344.997 81.1396 344.946 80.9491C344.896 80.7585 344.808 80.5798 344.688 80.4231L340.684 75.1882C344.098 71.4349 346.674 67.0003 348.243 62.1781L354.781 63.0518C355.176 63.1057 355.576 63.0008 355.894 62.7602C356.211 62.5196 356.42 62.163 356.474 61.7689L357.83 51.652C357.882 51.2583 357.775 50.8601 357.533 50.5449C357.291 50.2297 356.934 50.0231 356.54 49.9704L350.001 49.0957C349.758 44.031 348.44 39.0757 346.134 34.5581L351.376 30.5594C351.533 30.4399 351.664 30.2906 351.764 30.1201C351.863 29.9497 351.927 29.7614 351.953 29.566C351.98 29.3707 351.967 29.1721 351.916 28.9816C351.866 28.7911 351.778 28.6125 351.658 28.4559L345.451 20.3394C345.331 20.1827 345.182 20.0511 345.011 19.9521C344.84 19.8531 344.651 19.7886 344.456 19.7625C344.26 19.7363 344.061 19.7489 343.87 19.7996C343.679 19.8503 343.5 19.938 343.343 20.0578L338.105 24.0554C334.346 20.647 329.904 18.0747 325.074 16.5087L325.949 9.98022C325.975 9.78487 325.962 9.58628 325.912 9.39578C325.861 9.20529 325.773 9.02662 325.654 8.86998C325.534 8.71334 325.384 8.5818 325.214 8.48287C325.043 8.38393 324.854 8.31954 324.659 8.29336L314.525 6.93921C314.329 6.91289 314.13 6.92535 313.939 6.97587C313.748 7.02639 313.569 7.11397 313.412 7.23362C313.256 7.35327 313.124 7.50263 313.025 7.67317C312.926 7.8437 312.861 8.03206 312.835 8.22746L311.959 14.7559C306.885 14.9973 301.921 16.3125 297.394 18.6143L293.392 13.3805C293.273 13.2238 293.123 13.0922 292.953 12.9932C292.782 12.8942 292.593 12.8298 292.398 12.8036C292.202 12.7775 292.003 12.7901 291.812 12.8407C291.621 12.8914 291.442 12.9791 291.286 13.0988L283.161 19.2946C283.004 19.4142 282.872 19.5636 282.773 19.7341C282.673 19.9047 282.609 20.0931 282.583 20.2885C282.557 20.484 282.569 20.6826 282.62 20.8732C282.671 21.0638 282.759 21.2425 282.879 21.3992L286.884 26.633C283.469 30.3863 280.893 34.8213 279.325 39.6442L272.785 38.7705C272.39 38.7179 271.99 38.8242 271.673 39.066C271.356 39.3077 271.149 39.6652 271.096 40.0598L269.739 50.1767C269.686 50.5703 269.791 50.9689 270.032 51.2851C270.273 51.6014 270.629 51.8094 271.023 51.8635ZM316.995 26.9519C330.227 28.7206 339.554 40.9101 337.786 54.1233C336.018 67.3364 323.803 76.6497 310.569 74.8789C297.335 73.1081 288.009 60.9185 289.78 47.7075C291.552 34.4965 303.761 25.1832 316.995 26.9519Z" fill="#7FA2D6"/>
<path d="M173.899 251.988L179.821 258.738L185.552 258.163L178.832 251.369L173.899 251.988Z" fill="#1E1E1E"/>
<path d="M328.272 38.3685L322.364 31.6816L325.319 41.9813L328.272 38.3685Z" fill="#1E1E1E"/>
<path d="M283.551 261.474H185.922C180.196 261.474 176.322 256.841 177.269 251.125L211.363 45.2032C212.311 39.4878 217.719 34.8535 223.443 34.8535H321.072C326.797 34.8535 330.671 39.4878 329.725 45.2032L295.628 251.125C294.685 256.841 289.277 261.474 283.551 261.474Z" fill="#1D2F59"/>
<path d="M179.095 258.446C179.048 258.386 174.969 253.715 174.969 253.715L180.654 252.439L180.114 254.778L179.095 258.446Z" fill="#1E1E1E"/>
<path d="M278.814 256.092H181.184C175.46 256.092 171.586 251.458 172.532 245.742L206.628 39.8204C207.574 34.105 212.983 29.4707 218.708 29.4707H316.339C322.063 29.4707 325.937 34.105 324.991 39.8204L290.894 245.742C289.948 251.458 284.539 256.092 278.814 256.092Z" fill="#3D5891"/>
<path d="M274.515 248.907H187.857C182.623 248.907 179.082 244.672 179.947 239.447L211.962 46.1182C212.827 40.8939 217.771 36.6582 223.005 36.6582H309.663C314.896 36.6582 318.437 40.895 317.573 46.1182L285.558 239.446C284.693 244.672 279.749 248.907 274.515 248.907Z" fill="white"/>
<mask id="mask0_1002_5996" style="mask-type:luminance" maskUnits="userSpaceOnUse" x="179" y="36" width="139" height="213">
<path d="M274.515 248.907H187.857C182.623 248.907 179.082 244.672 179.947 239.447L211.962 46.1182C212.827 40.8939 217.771 36.6582 223.005 36.6582H309.663C314.896 36.6582 318.437 40.895 317.573 46.1182L285.558 239.446C284.693 244.672 279.749 248.907 274.515 248.907Z" fill="white"/>
</mask>
<g mask="url(#mask0_1002_5996)">
<mask id="mask1_1002_5996" style="mask-type:luminance" maskUnits="userSpaceOnUse" x="178" y="36" width="141" height="217">
<path d="M274.641 252.156H186.66C181.347 252.156 177.751 247.854 178.629 242.549L211.129 46.2629C212.007 40.9568 217.027 36.6562 222.341 36.6562H310.32C315.633 36.6562 319.228 40.9568 318.35 46.2629L285.852 242.549C284.974 247.854 279.954 252.156 274.641 252.156Z" fill="white"/>
</mask>
<g mask="url(#mask1_1002_5996)">
<path d="M284.543 252.156H177.039L212.72 36.6562H320.224L284.543 252.156Z" fill="#B5CAE8"/>
</g>
</g>
<g opacity="0.33">
<path d="M251.718 36.6562L202.972 100.415L211.962 46.1184C212.827 40.892 217.77 36.6584 223.005 36.6584L251.718 36.6562ZM317.567 46.1184L303.231 132.703L212.924 248.908H187.861C182.628 248.908 179.086 244.671 179.952 239.448L191.349 170.611L298.629 36.6562H309.658C314.897 36.6562 318.434 40.892 317.567 46.1184Z" fill="white"/>
</g>
<path d="M357.682 156.139L354.723 173.189L350.829 195.617C350.184 199.337 346.794 202.356 343.259 202.361L283.887 202.417C280.352 202.417 278.01 199.407 278.656 195.687L280.988 182.264L285.508 156.214C286.154 152.493 289.545 149.475 293.08 149.469L352.45 149.414C355.984 149.406 358.326 152.42 357.682 156.139Z" fill="#EFAE52"/>
<path d="M354.278 156.138L351.318 173.189L347.424 195.616C346.78 199.337 343.389 202.355 339.855 202.361L280.482 202.416C276.948 202.416 274.606 199.407 275.253 195.686L277.583 182.263L282.108 156.21C282.755 152.489 286.145 149.471 289.68 149.465L349.049 149.41C352.584 149.405 354.926 152.419 354.278 156.138Z" fill="#F3CE90"/>
<path opacity="0.56" d="M351.318 173.188L347.424 195.616C346.78 199.336 343.389 202.355 339.855 202.36L280.482 202.415C276.948 202.415 274.606 199.406 275.253 195.686L277.583 182.263L294.457 171.325L305.386 183.853L339.497 160.713L351.318 173.188Z" fill="white"/>
<path d="M315.013 163.589C314.714 167.449 311.102 170.677 307.497 170.306C304.829 170.032 303.026 167.728 303.251 164.872C303.55 161.011 307.162 157.783 310.767 158.154C313.434 158.428 315.235 160.733 315.013 163.589Z" fill="white"/>
<path d="M259.136 232.949H202.063C201.303 232.949 200.553 232.783 199.865 232.463C199.176 232.143 198.566 231.676 198.078 231.095C197.589 230.515 197.233 229.834 197.036 229.102C196.839 228.37 196.804 227.603 196.935 226.856L199.383 212.913C199.594 211.708 200.224 210.616 201.162 209.83C202.1 209.043 203.286 208.611 204.51 208.611H261.583C262.343 208.611 263.093 208.778 263.782 209.098C264.47 209.418 265.08 209.885 265.569 210.466C266.058 211.046 266.413 211.727 266.61 212.459C266.808 213.191 266.842 213.958 266.712 214.705L264.263 228.647C264.052 229.852 263.422 230.944 262.484 231.731C261.547 232.518 260.361 232.949 259.136 232.949Z" fill="#7FA2D6"/>
<path d="M207.123 224.305L206.597 225.706H203.916L207.662 216.94H210.342L213.962 225.706H211.182L210.668 224.305H207.123ZM208.926 219.541L207.849 222.404H209.978L208.926 219.541ZM222.202 218.415L220.699 220.191C220.148 219.491 219.334 219.028 218.608 219.028C217.418 219.028 216.516 219.991 216.516 221.278C216.516 222.566 217.418 223.543 218.608 223.543C219.284 223.543 220.098 223.142 220.699 222.53L222.202 224.13C221.25 225.155 219.81 225.818 218.482 225.818C215.814 225.818 213.848 223.892 213.848 221.304C213.848 218.753 215.853 216.865 218.571 216.865C219.898 216.865 221.313 217.465 222.202 218.415ZM230.706 218.415L229.203 220.191C228.652 219.491 227.838 219.028 227.112 219.028C225.922 219.028 225.02 219.991 225.02 221.278C225.02 222.566 225.922 223.543 227.112 223.543C227.788 223.543 228.602 223.142 229.203 222.53L230.706 224.13C229.754 225.155 228.314 225.818 226.986 225.818C224.318 225.818 222.352 223.892 222.352 221.304C222.352 218.753 224.356 216.865 227.073 216.865C228.401 216.865 229.817 217.465 230.706 218.415ZM234.1 218.94V220.315H238.246V222.317H234.101V223.705H238.798V225.706H231.496V216.94H238.672V218.94H234.1ZM244.031 216.94C246.298 216.94 247.601 218.065 247.601 220.053C247.601 222.142 246.298 223.342 244.031 223.342H242.654V225.706H240.049V216.94H244.031ZM242.654 221.341H243.906C244.683 221.341 245.133 220.916 245.133 220.128C245.133 219.365 244.683 218.94 243.906 218.94H242.654V221.341ZM253.099 219.016V225.706H250.481V219.016H247.934V216.94H255.649V219.016H253.099Z" fill="white"/>
<path d="M63.5601 112H39.6642C34.9128 112 31.0612 115.846 31.0612 120.589C31.0612 125.333 34.9128 129.179 39.6642 129.179H63.5601C68.3114 129.179 72.1631 125.333 72.1631 120.589C72.1631 115.846 68.3114 112 63.5601 112Z" fill="#B5CAE8"/>
<path d="M63.56 129.178C61.2784 129.178 59.0902 128.273 57.4768 126.662C55.8634 125.051 54.957 122.866 54.957 120.588C54.9573 118.311 55.8638 116.126 57.4772 114.515C59.0905 112.905 61.2786 112 63.56 112C65.8415 112 68.0296 112.905 69.6429 114.515C71.2562 116.126 72.1627 118.311 72.163 120.588C72.163 122.866 71.2566 125.051 69.6433 126.662C68.0299 128.273 65.8417 129.178 63.56 129.178Z" fill="#7FA2D6"/>
<path d="M43.3389 120.219C43.3389 122.11 41.8645 123.5 39.8353 123.5C37.8062 123.5 36.3307 122.118 36.3307 120.219C36.3307 118.319 37.8052 116.975 39.8353 116.975C41.8655 116.975 43.3389 118.338 43.3389 120.219ZM38.4971 120.228C38.4971 121.101 39.1359 121.746 39.862 121.746C40.588 121.746 41.1735 121.101 41.1735 120.228C41.1735 119.356 40.5901 118.728 39.862 118.728C39.1338 118.728 38.4971 119.356 38.4971 120.228ZM48.3638 123.408L45.8514 120.156V123.408H43.9351V117.039H45.7013L48.2158 120.31V117.039H50.1321V123.41L48.3638 123.408Z" fill="white"/>
<path d="M179.62 51.4051H154.967L146.108 61.0234V41.7899C146.108 40.5271 146.357 39.2766 146.841 38.11C147.325 36.9434 148.035 35.8834 148.929 34.9906C149.824 34.0978 150.886 33.3897 152.054 32.9067C153.223 32.4237 154.475 32.1754 155.74 32.1758H179.622C180.887 32.1756 182.139 32.4242 183.308 32.9073C184.476 33.3904 185.538 34.0986 186.432 34.9913C187.326 35.8841 188.036 36.944 188.52 38.1105C189.004 39.277 189.253 40.5273 189.253 41.7899C189.253 43.0528 189.003 44.3033 188.519 45.47C188.035 46.6367 187.326 47.6967 186.431 48.5896C185.537 49.4825 184.475 50.1907 183.306 50.6738C182.138 51.1568 180.885 51.4053 179.62 51.4051Z" fill="#7FA2D6"/>
<path d="M160.863 41.0236C160.863 40.681 160.762 40.3461 160.571 40.0612C160.381 39.7763 160.11 39.5542 159.793 39.423C159.476 39.2918 159.127 39.2575 158.791 39.3242C158.454 39.391 158.145 39.5559 157.903 39.7982C157.66 40.0404 157.495 40.349 157.428 40.685C157.361 41.0209 157.395 41.3692 157.527 41.6856C157.658 42.0021 157.881 42.2725 158.166 42.4626C158.451 42.6528 158.787 42.7542 159.13 42.754C159.59 42.754 160.03 42.5717 160.355 42.2472C160.681 41.9227 160.863 41.4825 160.863 41.0236ZM170.112 41.0236C170.113 40.681 170.011 40.3461 169.82 40.0612C169.63 39.7763 169.359 39.5542 169.042 39.423C168.725 39.2918 168.377 39.2575 168.04 39.3242C167.704 39.391 167.394 39.5559 167.152 39.7982C166.909 40.0404 166.744 40.349 166.677 40.685C166.61 41.0209 166.645 41.3692 166.776 41.6856C166.907 42.0021 167.13 42.2725 167.415 42.4626C167.701 42.6528 168.036 42.7542 168.379 42.754C168.839 42.754 169.28 42.5717 169.605 42.2472C169.93 41.9227 170.112 41.4825 170.112 41.0236ZM179.353 41.0236C179.353 40.6811 179.252 40.3462 179.061 40.0613C178.871 39.7764 178.6 39.5543 178.283 39.4231C177.966 39.2919 177.618 39.2575 177.281 39.3242C176.945 39.3908 176.636 39.5557 176.393 39.7978C176.15 40.0399 175.985 40.3484 175.918 40.6843C175.851 41.0202 175.885 41.3684 176.016 41.6849C176.148 42.0013 176.37 42.2718 176.655 42.4621C176.94 42.6524 177.276 42.754 177.619 42.754C177.846 42.7541 178.072 42.7095 178.282 42.6226C178.493 42.5357 178.684 42.4082 178.845 42.2476C179.006 42.0869 179.134 41.896 179.221 41.686C179.308 41.476 179.353 41.2509 179.353 41.0236Z" fill="white"/>
<path d="M269.971 89.6237L243.715 89.4505C241.721 89.4377 240.777 86.8835 241.999 84.8119L258.664 56.5829C259.929 54.4411 262.522 54.457 263.251 56.6137L272.843 85.016C273.541 87.0993 271.96 89.6376 269.971 89.6237Z" fill="#EDF6FC"/>
<path d="M269.819 90.8041L243.562 90.6309C242.271 90.6224 241.207 89.8241 240.715 88.4965C240.223 87.1689 240.404 85.5745 241.196 84.2331L257.86 56.0041C258.68 54.6223 259.966 53.7943 261.301 53.8028C262.636 53.8113 263.715 54.6531 264.186 56.0466L273.777 84.4489C274.234 85.7988 274.015 87.3921 273.193 88.7112C272.371 90.0303 271.11 90.8126 269.819 90.8041ZM261.005 56.1678C260.405 56.1678 259.826 56.5334 259.457 57.1584L242.792 85.3875C242.619 85.6714 242.51 85.9899 242.473 86.3205C242.436 86.6511 242.472 86.9857 242.579 87.3007C242.801 87.8981 243.28 88.2573 243.857 88.2573L270.113 88.4306C270.694 88.4306 271.262 88.082 271.632 87.4889C271.812 87.208 271.929 86.8915 271.974 86.5611C272.02 86.2307 271.993 85.8945 271.895 85.5756L262.306 57.1776C262.093 56.5483 261.607 56.171 261.005 56.1678Z" fill="#7FA2D6"/>
<path d="M255.055 83.4151C255.101 83.0283 255.209 82.6514 255.375 82.299C255.529 81.9704 255.74 81.6711 255.997 81.4147C256.247 81.1672 256.542 80.9701 256.866 80.8343C257.206 80.6936 257.572 80.6242 257.94 80.6302C258.295 80.6243 258.647 80.6969 258.97 80.8428C259.258 80.9776 259.508 81.1805 259.7 81.4338C259.896 81.6992 260.033 82.0033 260.101 82.3256C260.181 82.693 260.195 83.0715 260.143 83.4438C260.098 83.8277 259.991 84.2016 259.824 84.5503C259.668 84.8752 259.458 85.1711 259.202 85.4251C258.95 85.6739 258.652 85.8711 258.325 86.0054C257.982 86.1457 257.614 86.2151 257.243 86.2095C256.891 86.216 256.541 86.1433 256.221 85.9969C255.936 85.8608 255.689 85.6581 255.499 85.4059C255.304 85.1435 255.167 84.8429 255.097 84.5237C255.017 84.1596 255.003 83.7842 255.055 83.4151ZM260.135 78.2344L256.352 78.21L257.736 62.8242L262.589 62.8572L260.135 78.2344Z" fill="#7FA2D6"/>
<path d="M82.3662 53.6157C82.3662 53.6157 78.8765 81.9627 73.134 88.3402C66.244 95.9932 61.2436 94.874 58.4618 98.8185V98.8248C55.6789 94.874 50.6785 95.9985 43.7831 88.3402C38.0428 81.9627 34.5563 53.6146 34.5563 53.6146C49.681 46.1742 58.4618 37.8281 58.4618 37.8281V37.8345C58.7322 38.0907 67.4768 46.2911 82.3662 53.6157Z" fill="#C3C3C3"/>
<path d="M58.4618 37.8365V98.8204V98.8268C55.6789 94.8759 50.6785 96.0005 43.7831 88.3422C38.0428 81.9646 34.5563 53.6166 34.5563 53.6166C49.681 46.1761 58.4618 37.8301 58.4618 37.8301V37.8365Z" fill="#EFAE52"/>
<path d="M82.3661 53.616C82.3661 53.616 78.8764 81.9631 73.1339 88.3406C66.2439 95.9936 61.2435 94.8743 58.4617 98.8188V37.8359C58.7321 38.091 67.4767 46.2915 82.3661 53.616Z" fill="#F3CE90"/>
<path d="M78.6571 55.899C78.6571 55.899 75.7071 79.8455 70.8589 85.2355C65.0334 91.7087 60.807 90.7627 58.4564 94.0918C56.1057 90.7574 51.8782 91.7087 46.0528 85.2355C41.2046 79.8444 38.261 55.899 38.261 55.899C51.0361 49.6086 58.4564 42.5625 58.4564 42.5625C58.4564 42.5625 65.8808 49.6086 78.6571 55.899Z" fill="#F9E7CD"/>
<path d="M49.0933 65.7341L52.5968 63.6348L56.3464 71.8671L68.6957 56.0859L72.097 58.4297L55.8609 79.9251L49.0933 65.7341Z" fill="#F19A6D"/>
</svg>
