<svg width="466" height="307" viewBox="0 0 466 307" fill="none" xmlns="http://www.w3.org/2000/svg">
<g clip-path="url(#clip0_1002_5725)">
<path d="M436.077 129.57C434.072 107.004 424.997 83.7383 407.772 68.2484C382.183 45.235 342.672 37.7648 308.036 42.5526C293.548 44.5567 279.299 49.3074 264.525 47.9483C242.977 45.9678 223.997 32.3816 204.374 22.4221C177.673 8.8718 147.061 1.56872 118.67 7.46936C86.4779 14.1573 60.0877 39.421 56.9373 72.9409C55.5112 88.1301 70.0115 114.888 65.435 129.282C60.7983 143.889 26.9054 188.601 27.7413 222.613C28.5734 256.501 36.378 267.041 47.407 284.256H407.564C414.433 266.803 419.812 252.848 411.772 229.932C405.347 211.623 422.8 196.544 429.554 179.499C435.565 164.341 437.543 146.097 436.077 129.57Z" fill="#EFEFEF"/>
<path d="M381.531 170.118C380.114 154.139 373.685 137.664 361.487 126.695C343.366 110.399 315.387 105.107 290.86 108.499C280.602 109.917 270.51 113.282 260.049 112.32C244.79 110.916 231.352 101.296 217.457 94.2479C198.546 84.6474 176.868 79.4808 156.764 83.6584C133.969 88.3943 115.284 106.284 113.049 130.022C112.039 140.777 122.306 159.729 119.064 169.919C115.777 180.257 91.7789 211.924 92.3716 236.011C92.9619 260.008 98.4883 267.471 106.299 279.667H361.34C366.204 267.31 370.013 257.426 364.319 241.198C359.77 228.232 372.13 217.556 376.912 205.485C381.168 194.74 382.569 181.822 381.531 170.118Z" fill="#DDDDDD"/>
<path d="M459.335 230.761C457.195 235.941 453.796 239.443 449.742 242.136C444.937 245.329 441.252 245.343 436.076 246.691C430.29 248.198 424.662 252.262 420.599 256.484C416.135 261.121 412.893 266.814 408.31 271.337C407.946 271.696 407.574 272.048 407.198 272.387C404.278 275.035 400.989 277.155 397.464 278.905H382.432C383.827 277.732 385.2 276.52 386.517 275.263C387.495 274.329 388.44 273.371 389.336 272.388C392.343 269.095 394.795 265.51 396.103 261.569C397.639 256.927 400.387 253.181 403.839 250.13C404.229 249.788 404.627 249.453 405.033 249.125C407.983 246.755 411.368 244.836 414.91 243.256C418.516 241.647 422.282 240.393 425.924 239.375C437.854 236.033 441.282 221.222 453.011 218.115C454.049 217.84 455.169 217.697 456.185 218.045C457.202 218.393 457.977 219.172 458.578 220.035C460.719 223.111 460.762 227.301 459.335 230.761Z" fill="#40947E"/>
<path d="M452.506 227.067C449.815 230.941 447.007 233.942 443.916 236.243C439.949 239.195 435.291 241.123 430.788 242.987C426.402 244.806 421.855 246.685 418.015 249.503C414.923 251.775 412.303 254.64 409.845 257.591C409.058 258.538 408.286 259.492 407.52 260.438C405.03 263.523 402.454 266.714 399.46 269.42C398.29 270.474 397.063 271.463 395.783 272.384C392.318 274.898 388.537 276.964 384.755 278.903H382.643C383.344 278.546 384.045 278.187 384.748 277.824C387.945 276.171 391.131 274.424 394.105 272.378C395.752 271.259 397.32 270.032 398.8 268.704C401.737 266.049 404.288 262.886 406.756 259.834C408.204 258.039 409.676 256.22 411.241 254.478C413.121 252.384 415.146 250.404 417.43 248.727C421.364 245.838 425.962 243.936 430.408 242.094C434.854 240.252 439.456 238.348 443.327 235.468C446.334 233.231 449.07 230.302 451.698 226.517C451.734 226.465 451.78 226.421 451.834 226.386C451.887 226.352 451.947 226.328 452.01 226.317C452.073 226.305 452.137 226.306 452.2 226.319C452.262 226.332 452.322 226.358 452.374 226.393C452.429 226.428 452.476 226.473 452.512 226.526C452.549 226.579 452.574 226.639 452.586 226.702C452.598 226.765 452.598 226.83 452.584 226.893C452.57 226.955 452.544 227.014 452.506 227.067Z" fill="#65C38C"/>
<path d="M433.953 186.04C433 181.876 429.363 178.133 425.041 178.066C421.407 178.009 418.31 179.476 415.631 181.704C411.063 185.504 407.716 191.521 405.007 195.978C399.756 204.623 395.649 214.105 394.511 224.201C393.733 231.109 394.351 238.12 393.483 245.017C392.784 250.561 391.159 255.841 388.852 260.861C388.851 260.863 388.851 260.866 388.852 260.868C387.076 264.689 384.97 268.352 382.559 271.817C382.427 272.009 382.294 272.2 382.16 272.39C381.27 273.659 380.344 274.909 379.384 276.139C378.659 277.072 377.915 277.995 377.151 278.906H388.317C391.135 277.066 393.956 275.245 396.845 273.498C397.409 273.156 397.963 272.785 398.505 272.384C403.201 268.939 406.991 263.497 409.849 257.588C410.345 256.565 410.812 255.53 411.25 254.484C412.775 250.844 414.001 247.088 414.913 243.253C415.178 242.124 415.414 241.025 415.599 239.97C417.562 229.128 418.655 218.783 424.675 209.156C426.946 205.524 429.664 202.161 431.661 198.375C433.659 194.588 434.907 190.204 433.953 186.04Z" fill="#76E2A1"/>
<path d="M393.538 203.126C393.478 205.132 392.711 207.041 392.048 208.944C389.223 217.037 388.122 225.62 388.815 234.154C389.238 239.318 390.318 244.428 390.434 249.612C390.52 253.438 389.941 257.203 388.852 260.856C388.852 260.859 388.852 260.861 388.852 260.864C387.658 264.863 385.853 268.727 383.64 272.385C382.269 274.645 380.763 276.821 379.129 278.903H375.056C375.723 276.888 376.283 274.957 376.773 273.457C376.898 273.086 377.012 272.733 377.131 272.38C378.742 267.611 380.173 263.988 379.089 258.709C377.868 252.767 375.298 247.182 373.7 241.328C371.483 233.187 371.167 224.654 372.777 216.374C374.299 208.576 378.401 200.304 386.06 197.884C387.678 197.372 389.523 197.176 391.014 197.978C392.788 198.945 393.599 201.119 393.538 203.126Z" fill="#65C38C"/>
<path d="M419.787 203.521C418.331 206.646 416.455 209.587 414.642 212.445C413.765 213.822 412.86 215.245 412.017 216.666C409.049 221.659 407.023 227.015 406.154 232.154C405.694 234.878 405.653 237.69 405.623 240.414C405.587 243.271 405.548 246.213 405.031 249.122C404.961 249.515 404.884 249.908 404.795 250.298C403.057 257.997 398.414 265.619 391.352 272.386C391.139 272.591 390.923 272.793 390.707 272.996C388.898 274.679 386.915 276.186 384.995 277.643L384.753 277.826C384.285 278.181 383.813 278.541 383.342 278.904H381.775C382.653 278.213 383.53 277.542 384.407 276.881C385.108 276.349 385.817 275.811 386.521 275.261C387.694 274.345 388.854 273.397 389.946 272.387L390.041 272.299C397.31 265.525 402.084 257.86 403.84 250.129C403.843 250.116 403.846 250.102 403.848 250.089C404.57 246.899 404.613 243.597 404.653 240.403C404.689 237.643 404.727 234.788 405.199 231.998C406.087 226.744 408.154 221.275 411.179 216.18C412.032 214.747 412.934 213.317 413.821 211.936C415.619 209.11 417.479 206.188 418.908 203.122C421.79 196.946 424.38 190.248 423.906 183.131C423.902 183.006 423.947 182.884 424.031 182.791C424.116 182.699 424.234 182.642 424.36 182.634C424.487 182.626 424.611 182.666 424.708 182.747C424.804 182.828 424.864 182.943 424.876 183.068C425.363 190.398 422.719 197.231 419.787 203.521Z" fill="#40947E"/>
<path d="M386.07 203.59C381.52 212.255 379.472 222.244 380.305 231.739C380.668 235.867 381.566 240.048 382.436 244.094C383.92 250.997 385.452 258.133 384.361 265.219C384.007 267.476 383.403 269.688 382.56 271.814C382.484 272.007 382.406 272.198 382.327 272.388C381.371 274.672 380.184 276.856 378.784 278.906H377.607C378.247 277.998 378.838 277.076 379.383 276.139C380.088 274.928 380.718 273.676 381.272 272.39C382.288 270.05 383.004 267.593 383.402 265.077C384.467 258.164 382.952 251.113 381.487 244.295C380.61 240.222 379.706 236.011 379.341 231.823C378.492 222.151 380.577 211.967 385.21 203.151C385.27 203.038 385.372 202.953 385.495 202.915C385.618 202.877 385.751 202.888 385.865 202.946C385.979 203.005 386.065 203.106 386.105 203.227C386.144 203.348 386.133 203.479 386.074 203.592L386.07 203.59Z" fill="#76E2A1"/>
<path d="M6.43899 239.151C8.20468 243.428 11.0105 246.317 14.3564 248.54C18.3227 251.175 21.3653 251.188 25.6348 252.301C30.4106 253.545 35.056 256.902 38.4095 260.384C42.095 264.211 44.7705 268.911 48.5525 272.638C48.8533 272.935 49.1595 273.224 49.4711 273.504C51.8809 275.689 54.5965 277.439 57.5051 278.885H69.9113C68.7597 277.916 67.6256 276.916 66.5391 275.877C65.732 275.107 64.9526 274.318 64.2132 273.506C61.7345 270.782 59.7019 267.828 58.6292 264.575C57.361 260.738 55.0928 257.652 52.2381 255.133C51.9173 254.85 51.5889 254.573 51.2531 254.303C48.8182 252.346 46.0249 250.763 43.1001 249.459C40.1251 248.132 37.0147 247.097 34.0084 246.255C24.1699 243.504 21.3415 231.276 11.6646 228.708C10.8087 228.481 9.88391 228.363 9.0443 228.649C8.20469 228.934 7.56558 229.579 7.06933 230.292C5.29611 232.837 5.26102 236.296 6.43899 239.151Z" fill="#40947E"/>
<path d="M12.0756 236.104C14.2962 239.301 16.6145 241.778 19.166 243.676C22.4392 246.114 26.2839 247.706 30.002 249.247C33.6274 250.748 37.3756 252.299 40.5448 254.626C43.0975 256.5 45.2592 258.866 47.288 261.302C47.9384 262.083 48.575 262.87 49.2079 263.654C51.263 266.2 53.3896 268.833 55.8609 271.067C56.8264 271.938 57.8396 272.756 58.896 273.518C61.7557 275.592 64.8761 277.294 67.9939 278.898H69.7383C69.1594 278.604 68.58 278.307 68.0002 278.008C65.3685 276.647 62.7369 275.201 60.277 273.518C58.9176 272.592 57.6231 271.578 56.4022 270.48C53.9774 268.288 51.8708 265.679 49.8344 263.157C48.6389 261.672 47.4246 260.174 46.1326 258.736C44.5774 257.003 42.9095 255.374 41.0235 253.989C37.7766 251.603 33.982 250.034 30.3115 248.514C26.641 246.994 22.8427 245.419 19.6472 243.044C17.1684 241.197 14.9077 238.781 12.7373 235.657C12.7084 235.612 12.6708 235.573 12.6265 235.543C12.5822 235.513 12.5322 235.492 12.4794 235.481C12.4267 235.47 12.3723 235.47 12.3196 235.48C12.2668 235.491 12.2167 235.512 12.1722 235.542C12.1278 235.572 12.0899 235.61 12.0609 235.655C12.0319 235.7 12.0122 235.75 12.0032 235.802C11.9942 235.855 11.996 235.909 12.0084 235.96C12.0208 236.012 12.0437 236.061 12.0756 236.104Z" fill="#65C38C"/>
<path d="M29.2842 212.421C30.9333 215.546 33.1765 218.323 35.0487 221.321C40.0175 229.266 40.9198 237.806 42.5401 246.754C42.698 247.627 42.8872 248.533 43.1065 249.464C43.8591 252.63 44.8704 255.73 46.1304 258.735C46.4913 259.601 46.8823 260.453 47.2858 261.298C49.648 266.176 52.7759 270.67 56.6531 273.517C57.1005 273.845 57.5579 274.152 58.0241 274.433C60.4113 275.876 62.7359 277.379 65.063 278.897H74.2788C73.6505 278.146 73.0365 277.384 72.4366 276.614C71.6455 275.6 70.8819 274.569 70.1459 273.519C70.0343 273.362 69.9253 273.203 69.8163 273.046C67.8254 270.187 66.0875 267.164 64.6219 264.01C62.7184 259.867 61.3763 255.509 60.7998 250.932C60.083 245.238 60.593 239.452 59.9514 233.751C59.0116 225.42 55.6218 217.594 51.2871 210.458C49.0515 206.779 46.2883 201.813 42.515 198.675C40.3045 196.837 37.753 195.626 34.7455 195.673C31.1777 195.728 28.1764 198.818 27.3894 202.255C26.6024 205.691 27.6363 209.295 29.2842 212.421Z" fill="#76E2A1"/>
<path d="M60.7482 216.341C60.7996 217.997 61.4324 219.573 61.9788 221.139C64.3113 227.821 65.22 234.907 64.648 241.952C64.2984 246.215 63.4074 250.435 63.3109 254.712C63.2575 257.854 63.698 260.986 64.6167 263.995C65.6017 267.297 67.0917 270.486 68.9188 273.505C70.0506 275.37 71.2938 277.167 72.6419 278.886H76.0041C75.454 277.223 74.9903 275.628 74.5868 274.394C74.4882 274.092 74.3897 273.796 74.2911 273.505C72.9615 269.569 71.7848 266.574 72.6758 262.22C73.6783 257.316 75.8086 252.707 77.1257 247.875C78.9564 241.155 79.2174 234.112 77.8889 227.277C76.6357 220.84 73.2522 214.013 66.9288 212.015C65.5929 211.593 64.0703 211.43 62.8397 212.093C61.3685 212.89 60.6981 214.685 60.7482 216.341Z" fill="#65C38C"/>
<path d="M39.0824 216.669C40.2829 219.247 41.8319 221.681 43.3294 224.034C44.0524 225.17 44.8006 226.345 45.4961 227.518C47.9447 231.64 49.6177 236.059 50.3358 240.302C50.7117 242.547 50.7443 244.872 50.7731 247.12C50.8032 249.478 50.8358 251.907 51.2618 254.308C51.3195 254.633 51.3872 254.957 51.4573 255.279C52.8922 261.634 56.7206 267.925 62.554 273.51C62.7295 273.68 62.9062 273.847 63.0854 274.014C64.5779 275.403 66.2183 276.647 67.801 277.851L68.0002 278.004C68.3862 278.297 68.7759 278.594 69.1644 278.894H70.4577C69.7371 278.323 69.0065 277.769 68.2885 277.224C67.7108 276.784 67.1255 276.34 66.5441 275.886C65.5766 275.131 64.618 274.347 63.717 273.514L63.638 273.441C57.6354 267.85 53.698 261.523 52.2481 255.141C52.2481 255.131 52.2481 255.12 52.2418 255.109C51.6453 252.475 51.6152 249.749 51.5776 247.114C51.5476 244.835 51.5162 242.48 51.1265 240.176C50.3947 235.844 48.6879 231.326 46.1903 227.121C45.4873 225.936 44.7367 224.757 44.0098 223.617C42.5261 221.283 40.991 218.872 39.8118 216.341C37.4308 211.244 35.2941 205.716 35.6851 199.84C35.6885 199.788 35.6815 199.736 35.6645 199.686C35.6475 199.637 35.6208 199.592 35.586 199.553C35.5512 199.513 35.509 199.482 35.4617 199.459C35.4144 199.436 35.363 199.422 35.3104 199.419C35.2579 199.415 35.2051 199.422 35.1553 199.439C35.1054 199.456 35.0594 199.482 35.0198 199.517C34.9802 199.551 34.9479 199.593 34.9247 199.639C34.9014 199.686 34.8877 199.737 34.8844 199.789C34.4808 205.836 36.6626 211.476 39.0824 216.669Z" fill="#7E7E7E"/>
<path d="M66.9135 216.724C70.673 223.871 72.3585 232.121 71.6755 239.959C71.3773 243.367 70.6354 246.818 69.9211 250.157C68.6968 255.851 67.4311 261.745 68.3321 267.594C68.6232 269.458 69.1216 271.285 69.8184 273.041C69.881 273.198 69.9437 273.356 70.0113 273.514C70.7998 275.4 71.7794 277.203 72.9349 278.894H73.9061C73.3781 278.147 72.8898 277.386 72.4412 276.611C71.859 275.611 71.3384 274.578 70.8823 273.516C70.0444 271.584 69.455 269.556 69.1279 267.479C68.2507 261.773 69.5038 255.954 70.7093 250.326C71.4312 246.964 72.178 243.488 72.4813 240.031C73.1806 232.048 71.46 223.642 67.6353 216.364C67.5863 216.271 67.5018 216.201 67.4004 216.169C67.299 216.137 67.189 216.147 67.0946 216.195C67.0002 216.243 66.9292 216.327 66.8971 216.427C66.865 216.527 66.8745 216.636 66.9236 216.729L66.9135 216.724Z" fill="#76E2A1"/>
<path d="M360.268 21.4266V190.312C360.267 192.572 359.358 194.74 357.74 196.338C356.122 197.936 353.928 198.833 351.64 198.833H112.625C110.337 198.833 108.143 197.936 106.525 196.338C104.907 194.74 103.999 192.572 103.999 190.312V21.4266C103.998 20.3075 104.221 19.1993 104.655 18.1654C105.088 17.1314 105.724 16.1919 106.525 15.4005C107.326 14.6091 108.277 13.9813 109.324 13.553C110.37 13.1247 111.492 12.9043 112.625 12.9043H351.646C353.933 12.9059 356.126 13.8045 357.743 15.4026C359.359 17.0007 360.268 19.1674 360.268 21.4266Z" fill="#D1DBED"/>
<g opacity="0.44">
<path d="M284.684 12.9043C248.669 51.6639 153.629 154.146 113.959 198.833H112.625C110.337 198.833 108.143 197.936 106.525 196.338C104.907 194.74 103.999 192.572 103.999 190.312V81.0904L175.535 12.9043H284.684ZM360.268 94.3907V190.312C360.267 192.572 359.358 194.74 357.74 196.338C356.122 197.936 353.928 198.833 351.64 198.833H250.693L360.268 94.3907Z" fill="white"/>
</g>
<path d="M360.267 21.4266V30.1334H103.997V21.4266C103.997 20.3075 104.22 19.1993 104.653 18.1654C105.087 17.1314 105.722 16.1919 106.523 15.4005C107.324 14.6091 108.275 13.9813 109.322 13.553C110.369 13.1247 111.491 12.9043 112.624 12.9043H351.646C353.933 12.9059 356.126 13.8045 357.743 15.4026C359.359 17.0007 360.267 19.1674 360.267 21.4266Z" fill="#99B1DA"/>
<path d="M319.394 22.64C319.62 21.2628 318.674 19.9651 317.279 19.7415C315.885 19.518 314.571 20.4532 314.345 21.8305C314.119 23.2077 315.065 24.5054 316.46 24.729C317.854 24.9526 319.168 24.0173 319.394 22.64Z" fill="white"/>
<path d="M330.119 24.5646C331.424 24.0307 332.044 22.5528 331.503 21.2637C330.963 19.9747 329.466 19.3625 328.161 19.8965C326.856 20.4304 326.237 21.9083 326.777 23.1973C327.318 24.4864 328.814 25.0986 330.119 24.5646Z" fill="white"/>
<path d="M343.352 22.8034C343.676 21.4454 342.825 20.0848 341.45 19.7643C340.075 19.4437 338.698 20.2848 338.373 21.6427C338.049 23.0007 338.9 24.3614 340.275 24.6819C341.65 25.0024 343.027 24.1614 343.352 22.8034Z" fill="white"/>
<path d="M225.347 296.829C330.661 296.829 416.035 290.193 416.035 282.006C416.035 273.82 330.661 267.184 225.347 267.184C120.033 267.184 34.6597 273.82 34.6597 282.006C34.6597 290.193 120.033 296.829 225.347 296.829Z" fill="#A7C3DF"/>
<path d="M405.837 273.27C402.788 275.675 365.943 283.792 340.977 284.696C316.01 285.601 280.85 278.683 275.979 272.972C272.619 269.029 273.168 262.229 275.632 258.29C276.735 256.518 278.231 255.319 279.93 255.229C285.409 254.926 311.025 255.468 311.025 255.468L311.784 248.143L314.435 248.224L367.827 249.656L369.032 255.227C369.032 255.227 396.915 255.078 399.748 256.728C403.882 259.137 408.881 270.866 405.837 273.27Z" fill="#2D4E9F"/>
<g style="mix-blend-mode:multiply" opacity="0.3">
<path d="M348.576 272.264C315.232 280.212 297.288 275.623 297.288 275.623L275.632 258.294C276.735 256.522 278.231 255.323 279.93 255.233C285.409 254.93 311.025 255.472 311.025 255.472L311.784 248.146L314.435 248.228C318.083 256.731 325.345 269.103 348.576 272.264Z" fill="#575757"/>
</g>
<g style="mix-blend-mode:multiply" opacity="0.3">
<path d="M302.861 260.498C305.552 263.377 309.42 264.954 313.321 265.67C317.223 266.385 322.248 267.87 326.214 267.969C333.906 268.161 338.214 268.489 345.888 267.977C352.975 267.503 362.291 264.843 369.211 263.26L377.231 261.423C375.226 264.517 371.968 266.587 368.65 268.249C358.281 273.448 346.594 275.524 335.025 276.647C323.031 277.811 310.294 277.884 299.711 272.19L302.861 260.498Z" fill="#575757"/>
</g>
<path d="M404.454 277.742C401.149 281.002 338.663 285.7 338.663 285.7L334.415 280.541L331.737 277.28C331.737 277.28 369.457 256.929 399.742 256.733C403.024 256.71 406.956 260.581 408.15 265.545C409.082 269.382 408.372 273.88 404.454 277.742Z" fill="#2D4E9F"/>
<g style="mix-blend-mode:multiply" opacity="0.3">
<path d="M404.454 277.743C401.149 281.003 338.663 285.701 338.663 285.701L334.415 280.541L338.676 274.564C341.487 276.354 345.121 276.187 348.403 275.554C351.685 274.922 354.967 273.909 358.295 274.203C361.348 274.474 364.177 275.83 367.111 276.699C374.619 278.919 382.744 277.897 390.278 275.767C395.634 274.252 400.93 272.132 405.174 268.556C406.255 267.642 407.25 266.632 408.144 265.539C409.082 269.382 408.373 273.881 404.454 277.743Z" fill="#575757"/>
</g>
<path d="M369.19 300.762C369.19 300.795 369.19 300.827 369.181 300.856C368.863 303.692 366.789 301.957 366.789 301.957C366.789 301.957 364.397 301.957 364.553 300.696C363.278 301.17 363.278 300.069 362.959 298.807C362.641 297.546 359.96 294.284 358.271 291.978C356.582 289.672 345.895 289.667 345.895 289.667L347.351 284.815L348.923 279.584C348.923 279.584 354.665 280.691 357.695 279.903C360.725 279.116 365.511 277.382 366.467 282.265C367.413 287.099 369.453 297.79 369.19 300.762Z" fill="#F5B0A7"/>
<path d="M369.19 300.762C369.19 300.795 369.19 300.827 369.181 300.856C368.863 303.691 366.789 301.957 366.789 301.957C366.789 301.957 364.397 301.957 364.553 300.696C363.278 301.17 363.278 300.068 362.959 298.807C362.641 297.546 359.96 294.284 358.271 291.978C356.582 289.672 345.895 289.667 345.895 289.667L347.351 284.815C350.137 284.773 352.97 284.384 355.438 285.57C356.797 286.235 357.898 287.322 358.571 288.664C359.155 289.85 359.402 291.229 360.255 292.245C361.257 293.431 362.96 293.971 363.686 295.34C364.156 296.226 364.108 297.29 364.455 298.228C364.803 299.166 365.888 300.023 366.761 299.521C367.122 300.088 367.582 300.726 368.265 300.773C368.516 300.796 368.781 300.721 369.038 300.739C369.089 300.742 369.14 300.75 369.19 300.762Z" fill="#EF7586"/>
<path d="M342.188 277.134C342.188 277.134 336.453 275.997 333.954 274.13C331.455 272.263 327.697 268.862 324.931 273.016C322.165 277.17 316.06 286.447 315.263 289.189C314.466 291.931 317.051 291.108 317.051 291.108C317.051 291.108 319.263 292.008 319.601 290.782C320.604 291.698 321.024 290.678 321.804 289.632C322.585 288.586 326.316 286.575 328.772 285.077C331.228 283.579 341.107 287.596 341.107 287.596L342.188 277.134Z" fill="#F5B0A7"/>
<path d="M349.806 278.683L349.423 280.197L346.762 290.718C346.762 290.718 289.524 284.7 277.956 278.085C269.625 273.319 271.003 263.715 274.816 258.605C276.295 256.625 278.144 255.314 279.93 255.232C279.93 255.232 290.943 255.843 305.494 260.093C320.046 264.344 349.806 278.683 349.806 278.683Z" fill="#2D4E9F"/>
<g style="mix-blend-mode:multiply" opacity="0.3">
<path d="M283.064 269.754C283.064 269.754 291.461 279.232 319.531 277.465C301.443 276.379 283.064 269.754 283.064 269.754Z" fill="#575757"/>
</g>
<g style="mix-blend-mode:multiply" opacity="0.3">
<path d="M349.423 280.201L346.762 290.722C346.762 290.722 289.524 284.704 277.956 278.089C269.625 273.323 271.003 263.719 274.816 258.609C274.574 262.48 275.727 266.45 278.167 269.502C282.443 274.861 289.638 276.891 296.409 278.252C313.818 281.739 331.9 282.8 349.423 280.201Z" fill="#575757"/>
</g>
<path d="M321.806 158.524C322.82 161.433 331.766 161.11 331.766 161.11L332.543 169.47L332.638 170.486L346.714 167.47V158.739C346.714 158.739 353.481 146.022 354.024 140.526C354.4 136.766 347.007 132.224 339.405 130.252C334.505 128.979 329.48 131.628 327.667 136.299C327.399 137.025 327.054 137.721 326.638 138.375C324.892 140.962 322.6 139.884 321.946 140.639C321.292 141.394 323.147 144.303 323.147 144.303C323.147 144.303 320.794 155.619 321.806 158.524Z" fill="#F5B0A7"/>
<path d="M333.725 131.343C333.725 131.343 334.737 134.01 337.791 136.193C340.845 138.375 341.908 138.456 341.908 138.456C341.908 138.456 337.981 141.285 337.817 143.71C337.719 145.168 337.943 146.629 338.472 147.994C338.472 147.994 340.845 145.246 343.137 145.407C345.429 145.568 345.919 148.964 343.627 152.358C341.335 155.752 338.144 155.026 338.144 155.026C338.144 155.026 341.199 159.633 346.709 158.739C346.709 158.739 355.41 147.423 356.638 144.352C357.866 141.281 355.901 139.663 355.901 139.663C355.901 139.663 358.994 140.607 359.159 139.636C359.325 138.666 355.003 137.724 355.003 137.724C355.003 137.724 356.045 133.749 354.818 132.375C353.592 131.001 353.039 135.299 353.039 135.299C353.039 135.299 348.947 126.973 341.746 124.791C334.544 122.609 334.709 125.196 334.709 125.196C334.709 125.196 330.448 124.064 328.735 126.489C327.022 128.914 328.735 130.854 328.735 130.854C328.735 130.854 327.858 131.823 327.972 132.874C328.029 133.481 328.211 134.071 328.506 134.607C328.506 134.607 330.866 131.505 333.725 131.343Z" fill="#373737"/>
<path d="M331.052 136.49C331.052 136.49 330.953 137.688 331.996 138.253C332.605 138.59 333.31 138.721 334.001 138.624L331.052 136.49Z" stroke="#373737" stroke-width="6.05291" stroke-linecap="round" stroke-linejoin="round"/>
<path d="M330.538 141.152C330.272 141.864 329.772 142.338 329.422 142.21C329.073 142.083 329.005 141.402 329.271 140.69C329.536 139.979 330.036 139.505 330.386 139.632C330.736 139.76 330.803 140.44 330.538 141.152Z" fill="#373737"/>
<path d="M343.549 147.227C343.549 147.227 339.335 148.722 338.762 152.399L343.549 147.227Z" stroke="#373737" stroke-width="6.05291" stroke-linecap="round" stroke-linejoin="round"/>
<path d="M341.155 151.914C341.155 151.914 341.494 150.045 340.414 149.262L341.155 151.914Z" stroke="#373737" stroke-width="6.05291" stroke-linecap="round" stroke-linejoin="round"/>
<path d="M351.609 166.555L368.575 171.997V237.367L318.366 239.094L314.53 173.295L332.838 167.348L351.609 166.555Z" fill="white"/>
<path d="M297.783 195.416L300.829 200.384L306.24 209.207L312.14 205.209L318.485 200.909C318.485 200.909 317.482 176.098 314.531 173.293L297.783 195.416Z" fill="#F4A471"/>
<path d="M310.027 158.667C310.027 158.667 311.802 154.169 313.102 153.001C314.403 151.832 317.658 152.877 318.491 153.935C319.324 154.993 318.314 155.584 317.427 155.578C316.54 155.571 314.706 155.338 314.706 155.338L313.704 158.667C313.704 158.667 316.07 157.849 317.607 158.667C319.145 159.485 318.495 161.18 318.495 161.18C318.495 161.18 319.915 161.18 320.565 162.231C321.215 163.282 320.565 164.452 320.565 164.452C320.565 164.452 322.104 164.802 322.163 166.672C322.222 168.542 320.98 170.996 319.797 171.521C318.614 172.045 317.785 172.511 317.016 172.105C316.247 171.699 316.957 169.944 318.081 169.768L318.495 168.191L315.833 169.476C315.833 169.476 315.508 172.251 312.669 175.232L304.595 169.125C304.595 169.125 307.187 162.173 310.027 158.667Z" fill="#F5B0A7"/>
<path d="M304.585 169.125C304.585 169.125 291.365 192.847 290.034 199.328C288.704 205.809 291.72 210.283 297.309 208.611C302.898 206.94 312.659 175.234 312.659 175.234C312.659 175.234 308.134 169.593 304.585 169.125ZM332.838 167.348L326.961 169.476C326.961 169.476 327.892 174.384 338.627 174.734C349.361 175.084 354.082 167.348 354.082 167.348L346.171 164.492L332.838 167.348Z" fill="#F5B0A7"/>
<path d="M292.848 208.496C292.848 208.496 297.428 212.42 306.241 209.207L299.976 199.158L292.848 208.496Z" fill="#AFAFAF"/>
<path d="M368.575 171.998C368.575 171.998 384.615 186.421 391.477 195.764L380.026 209.202L364.737 200.204C364.737 200.204 361.762 179.072 368.575 171.998Z" fill="#373737"/>
<path d="M390.211 214.72C390.211 214.72 394.138 213.072 397.219 212.945L390.211 214.72Z" stroke="#373737" stroke-width="6.05291" stroke-linecap="round" stroke-linejoin="round"/>
<path d="M318.485 161.18C318.485 161.18 315.755 160.889 314.214 161.649L318.485 161.18ZM320.555 164.451C320.555 164.451 317.809 164.249 315.883 165.058L320.555 164.451Z" fill="#EF7586"/>
<path d="M321.469 242.819L356.904 241.678" stroke="#525252" stroke-width="6.05291" stroke-linecap="round" stroke-linejoin="round"/>
<path d="M321.469 234.888L325.064 237.043M358.316 233.112L356.39 235.965M364.636 181.891C364.636 181.891 364.416 194.686 367.882 201.154L364.636 181.891ZM318.219 180.418C318.219 180.418 317.667 191.453 318.219 199.157V180.418ZM389.259 195.3C389.259 195.3 381.941 203.816 378.475 206.734L389.259 195.3Z" stroke="#4B4B4B" stroke-width="8.06691" stroke-linecap="round" stroke-linejoin="round"/>
<path d="M323.843 149.261C323.843 149.261 327.118 149.137 328.401 149.812L323.843 149.261Z" stroke="#373737" stroke-width="6.05291" stroke-linecap="round" stroke-linejoin="round"/>
<path d="M333.281 129.312C333.281 129.312 333.084 135.176 341.912 138.459C341.912 138.459 345.028 137.468 346.183 137.574L333.281 129.312ZM338.476 147.995C338.476 147.995 335.523 142.53 341.912 138.464L338.476 147.995Z" stroke="#4B4B4B" stroke-width="8.06691" stroke-linecap="round" stroke-linejoin="round"/>
<path d="M332.428 149.404C334.471 149.404 336.128 148.269 336.128 146.87C336.128 145.47 334.471 144.336 332.428 144.336C330.384 144.336 328.727 145.47 328.727 146.87C328.727 148.269 330.384 149.404 332.428 149.404Z" fill="#EF7586"/>
<path d="M368.746 202.451L386.04 214.818L373.848 228.163L374.77 229.128L384.892 239.724C384.892 239.724 408.946 224.589 409.935 216.941C410.924 209.292 368.581 172.002 368.581 172.002C368.581 172.002 365.45 195.454 368.746 202.451Z" fill="#FACD87"/>
<path d="M368.745 202.452C368.745 202.452 371.02 243.486 375.521 256.603C375.521 256.603 356.615 258.603 349.188 254.824L341.621 221.979L346.884 164.729C346.884 164.729 364.105 168.54 368.575 171.998L368.745 202.452Z" fill="#FACD87"/>
<path d="M354.646 166.649L350.423 190.301L344.691 191.899L347.91 194.768L341.621 221.979C341.621 221.979 341.649 198.361 343.433 184.721C344.836 173.986 346.791 161.762 346.791 161.762L354.646 166.649Z" fill="#F19A6D"/>
<path d="M337.423 223.619C337.423 223.619 334.371 253.783 332.366 255.021C330.361 256.259 310.06 258.487 310.06 258.487L314.446 202.793L314.527 173.294L324.143 168.416L334.995 193.015L337.423 223.619Z" fill="#FACD87"/>
<path d="M300.829 200.384L306.24 209.207L314.287 203.82L310.572 182.959C310.572 182.959 305.948 191.361 300.829 200.384Z" fill="#F4A471"/>
<path d="M287.21 203.157C287.404 205.715 289.507 208.389 292.707 209.931C296.242 211.635 301.117 211.954 306.241 209.207L309.468 194.005L313.023 177.254L298.729 172.074C298.729 172.074 286.797 197.774 287.21 203.157Z" fill="#FACD87"/>
<path d="M330.236 233.012C331.199 233.012 331.98 232.053 331.98 230.869C331.98 229.686 331.199 228.727 330.236 228.727C329.272 228.727 328.491 229.686 328.491 230.869C328.491 232.053 329.272 233.012 330.236 233.012Z" fill="#949494"/>
<path d="M328.663 243.565C329.626 243.565 330.407 242.605 330.407 241.422C330.407 240.239 329.626 239.279 328.663 239.279C327.699 239.279 326.918 240.239 326.918 241.422C326.918 242.605 327.699 243.565 328.663 243.565Z" fill="#949494"/>
<path d="M367.702 191.279L368.746 202.452L386.04 214.819L373.848 228.164L374.77 229.129L393.191 216.36L367.702 191.279Z" fill="#F4A471"/>
<path d="M331.766 161.115L332.543 169.475C335.876 166.711 340.4 160.139 340.4 160.139C340.4 160.139 331.957 161.141 331.766 161.115Z" fill="#EF7586"/>
<path d="M324.145 168.417L328.624 191.945L334.354 193.543L331.135 196.411L337.423 223.622C337.423 223.622 337.396 200.006 335.613 186.364C334.209 175.63 331.853 163.045 331.853 163.045L324.145 168.417Z" fill="#F19A6D"/>
<path d="M359.415 240.435C360.243 240.697 361.514 239.266 362.284 238.36L365.77 237.539L365.805 237.585C365.1 237.88 363.383 238.66 362.254 239.706C360.805 241.05 360.362 242.861 361.189 243.123C362.016 243.386 363.29 241.956 364.058 241.05L367.214 240.307C366.505 240.608 365.472 241.133 364.62 241.922C363.171 243.267 362.728 245.076 363.555 245.34C364.382 245.604 365.656 244.172 366.423 243.267L368.659 242.739C368.241 242.996 367.849 243.291 367.488 243.621C366.04 244.965 365.596 246.776 366.423 247.04C367.25 247.303 368.525 245.871 369.294 244.965L371.087 244.543C372.097 244.406 373.094 244.188 374.069 243.892C375.621 243.414 377.294 242.629 377.782 241.405C377.782 241.405 379.932 239.972 383.032 237.776L375.109 229.482C373.338 231.27 371.812 232.843 370.739 233.999L363.911 235.088C363.911 235.088 361.929 235.673 360.479 237.017C359.029 238.361 358.59 240.172 359.415 240.435Z" fill="#F5B0A7"/>
<path d="M375.985 222.44L373.436 258.436H310.941L310.67 254.598L308.391 222.436C308.302 221.185 309.235 220.119 310.416 220.119H373.959C375.141 220.123 376.075 221.189 375.985 222.44Z" fill="#7FA2D6"/>
<path d="M375.984 222.44L373.435 258.436H310.941L310.67 254.598C323.996 253.932 351.305 251.911 358.373 246.35C366.666 239.824 364.598 223.919 363.967 220.119H373.959C375.141 220.123 376.075 221.189 375.984 222.44Z" fill="#99B1DA"/>
<path d="M349.954 242.506C349.954 244.287 346.477 245.732 342.185 245.732C337.893 245.732 334.415 244.287 334.415 242.506C334.415 240.725 337.893 239.279 342.185 239.279C346.477 239.279 349.954 240.724 349.954 242.506Z" fill="white"/>
<path d="M310.417 222.157H373.959C374.882 222.157 375.645 222.81 375.897 223.69L375.986 222.44C376.074 221.19 375.141 220.123 373.959 220.123H310.417C309.235 220.123 308.302 221.19 308.391 222.44L308.48 223.69C308.731 222.81 309.495 222.157 310.417 222.157Z" fill="#7A8DB0"/>
<path d="M184.112 257.797C185.523 259.265 187.467 260.119 189.516 260.172C191.565 260.224 193.551 259.471 195.037 258.077C196.523 256.683 197.388 254.764 197.441 252.74C197.494 250.716 196.732 248.755 195.321 247.287C193.9 245.807 193.338 245.518 194.673 246.559L215.678 226.852L230.162 241.918C230.358 241.684 230.567 241.46 230.789 241.25C232.276 239.863 234.26 239.115 236.305 239.17C238.35 239.226 240.289 240.079 241.698 241.545C243.106 243.01 243.869 244.967 243.819 246.987C243.77 249.007 242.911 250.925 241.432 252.321C241.208 252.529 240.971 252.723 240.724 252.903L251.557 264.167C238.636 272.809 222.697 275.012 208.254 270.892L191.494 286.612L172.748 267.114L183.485 257.043C183.677 257.307 183.887 257.559 184.112 257.797Z" fill="#F19A6D"/>
<path d="M238.591 95.9902L238.039 124.715C239.131 124.569 240.242 124.656 241.298 124.969C242.353 125.283 243.329 125.816 244.159 126.532C244.989 127.249 245.654 128.132 246.11 129.123C246.566 130.115 246.801 131.191 246.801 132.28C246.801 133.369 246.566 134.445 246.11 135.436C245.654 136.427 244.989 137.311 244.159 138.027C243.329 138.744 242.353 139.277 241.298 139.59C240.242 139.904 239.131 139.99 238.039 139.845V154.469H214.103V132.204C200.614 124.79 190.84 111.585 188.221 95.9902H238.591Z" fill="#F7BA6B"/>
<path d="M215.854 152.945H262.502C264.098 152.945 265.628 153.571 266.756 154.686C267.884 155.8 268.518 157.311 268.518 158.887V178.209C268.518 179.785 267.884 181.296 266.756 182.41C265.628 183.525 264.098 184.151 262.502 184.151H215.855C214.26 184.151 212.73 183.525 211.602 182.41C210.474 181.296 209.84 179.785 209.84 178.209V158.895C209.84 157.32 210.474 155.808 211.602 154.694C212.73 153.58 214.26 152.954 215.855 152.954L215.854 152.945Z" fill="#99B1DA"/>
<path d="M262.501 184.159H252.881C246.284 180.869 239.552 177.856 232.631 175.28H268.521V178.214C268.522 178.995 268.366 179.768 268.064 180.49C267.762 181.211 267.318 181.867 266.759 182.419C266.2 182.971 265.536 183.409 264.805 183.708C264.075 184.006 263.292 184.159 262.501 184.159ZM250.966 162.87C244.081 161.612 237.14 160.556 230.365 158.774C226.355 157.718 222.406 156.492 218.501 155.131H267.163C268.043 156.191 268.523 157.52 268.521 158.891V164.875H261.689C258.117 164.19 254.543 163.522 250.966 162.87ZM267.901 165.209C268.202 166.081 268.355 166.997 268.355 167.919V175.112H261.521C257.95 174.286 254.376 173.482 250.799 172.699C243.914 171.185 236.973 169.915 230.2 167.77C227.74 166.992 225.305 166.126 222.886 165.203L267.901 165.209Z" fill="#7FA2D6"/>
<path d="M203.229 154.944C203.229 156.141 203.901 157.111 204.732 157.111H273.622C274.453 157.111 275.126 156.141 275.126 154.944C275.126 153.746 274.452 152.775 273.622 152.775H204.734C203.901 152.775 203.23 153.746 203.23 154.944H203.229Z" fill="#6F6F6F"/>
<path d="M203.229 154.944C203.229 156.141 203.901 157.111 204.732 157.111H273.622C274.453 157.111 275.126 156.141 275.126 154.944C275.126 153.746 274.452 152.775 273.622 152.775H204.734C203.901 152.775 203.23 153.746 203.23 154.944H203.229ZM203.229 165.102C203.229 166.298 203.901 167.269 204.732 167.269H273.622C274.453 167.269 275.126 166.298 275.126 165.102C275.126 163.903 274.452 162.933 273.622 162.933H204.734C203.901 162.933 203.23 163.903 203.23 165.102H203.229ZM203.229 175.258C203.229 176.456 203.901 177.425 204.732 177.425H273.622C274.453 177.425 275.126 176.456 275.126 175.258C275.126 174.061 274.452 173.09 273.622 173.09H204.734C203.901 173.09 203.23 174.061 203.23 175.258H203.229Z" fill="#2D4E9F"/>
<path d="M203.251 154.634C203.355 153.586 203.975 152.777 204.733 152.777H233.325L203.251 154.634ZM203.257 164.714C203.383 163.705 203.997 162.939 204.733 162.939H233.325L203.257 164.714ZM203.251 174.949C203.355 173.901 203.975 173.092 204.733 173.092H233.325L203.251 174.949Z" fill="#25427C"/>
<path d="M187.511 87.579C187.511 59.5872 210.326 36.8634 238.591 36.5527V60.747C237.599 59.4976 236.237 58.585 234.695 58.1362C233.152 57.6875 231.507 57.725 229.987 58.2435C228.468 58.762 227.15 59.7357 226.217 61.029C225.284 62.3223 224.783 63.8707 224.783 65.4587C224.783 67.0467 225.284 68.5952 226.217 69.8885C227.15 71.1817 228.468 72.1554 229.987 72.6739C231.507 73.1924 233.152 73.2299 234.695 72.7812C236.237 72.3325 237.599 71.4198 238.591 70.1704V95.99H216.188C217.186 97.0871 217.841 98.4462 218.073 99.903C218.305 101.36 218.105 102.852 217.497 104.199C216.889 105.546 215.899 106.69 214.647 107.493C213.394 108.295 211.933 108.723 210.44 108.723C208.947 108.723 207.486 108.295 206.234 107.493C204.981 106.69 203.991 105.546 203.383 104.199C202.775 102.852 202.575 101.36 202.807 99.903C203.04 98.4462 203.694 97.0871 204.692 95.99H188.214C187.747 93.2101 187.512 90.3969 187.511 87.579Z" fill="#EF8E59"/>
<path d="M232.519 57.8254C233.69 57.8251 234.844 58.088 235.896 58.5941C236.948 59.1002 237.87 59.8364 238.591 60.7466V36.5523C238.786 36.5523 238.982 36.5449 239.179 36.5449C267.713 36.5449 290.844 59.3937 290.844 87.5786C290.845 90.3966 290.61 93.2098 290.142 95.9896H274.41C274.448 95.6881 274.468 95.3848 274.47 95.081C274.47 93.0565 273.656 91.1148 272.207 89.6833C270.757 88.2517 268.792 87.4474 266.742 87.4474C264.692 87.4474 262.727 88.2517 261.277 89.6833C259.828 91.1148 259.014 93.0565 259.014 95.081C259.016 95.3848 259.036 95.6881 259.074 95.9896H238.591V70.1701C237.782 71.1875 236.724 71.9851 235.517 72.4878C234.311 72.9906 232.994 73.182 231.692 73.0441C230.39 72.9062 229.144 72.4436 228.073 71.6996C227.001 70.9556 226.139 69.9548 225.566 68.7911C224.994 67.6274 224.73 66.3391 224.801 65.0472C224.871 63.7553 225.273 62.5023 225.968 61.4058C226.663 60.3094 227.629 59.4055 228.775 58.7792C229.921 58.1529 231.21 57.8247 232.519 57.8254Z" fill="#F9D19D"/>
<path d="M237.087 125.123C237.023 125.133 236.957 125.124 236.899 125.096C236.84 125.069 236.791 125.024 236.759 124.968L236.624 124.789L236.718 124.584C236.813 124.376 237.002 124.362 237.155 124.349L237.438 124.327L237.667 124.3L237.689 123.161L238.461 123.175L238.427 124.972L238.097 125.015C237.56 125.085 237.264 125.123 237.087 125.123ZM238.486 121.901L237.715 121.886L237.768 119.089L238.54 119.102L238.486 121.901ZM238.563 117.828L237.791 117.814L237.845 115.016L238.616 115.03L238.563 117.828ZM238.641 113.756L237.869 113.741L237.923 110.944L238.694 110.957L238.641 113.756ZM238.719 109.684L237.947 109.669L238 106.871L238.771 106.885L238.719 109.684ZM238.795 105.611L238.025 105.596L238.077 102.799L238.849 102.813L238.795 105.611ZM238.873 101.539L238.102 101.525L238.155 98.7266L238.927 98.7414L238.873 101.539Z" fill="#7FA2D6"/>
<path d="M238.95 97.4669L238.178 97.4533L238.213 95.6115L240.078 95.6016L240.083 96.3628L238.971 96.369L238.95 97.4669Z" fill="#7FA2D6"/>
<path d="M241.333 96.3574V95.5949L244.128 95.5788V96.3413L241.333 96.3574ZM245.378 96.3338V95.5726L248.171 95.5565V96.319L245.378 96.3338ZM249.423 96.3116V95.5503L252.217 95.5342V96.2955L249.423 96.3116ZM253.469 96.2893V95.5268L256.262 95.5119V96.2732L253.469 96.2893ZM257.514 96.2633V95.5008H258.584C258.573 95.3164 258.568 95.1394 258.57 94.9673C258.57 94.9029 258.57 94.8435 258.57 94.7791L258.584 94.3979L259.355 94.4251L259.342 94.8064C259.342 94.8621 259.342 94.919 259.342 94.9747C259.34 95.2642 259.356 95.5535 259.388 95.8412L259.434 96.2608L257.514 96.2633ZM273.825 93.3247L273.713 92.9534C273.514 92.3017 273.222 91.6812 272.846 91.1103L272.636 90.7909L273.283 90.3762L273.493 90.6956C273.908 91.3265 274.231 92.0125 274.451 92.733L274.563 93.1044L273.825 93.3247ZM259.58 93.1688L258.847 92.9323L258.972 92.5697C259.208 91.8545 259.546 91.176 259.975 90.5545L260.192 90.2389L260.83 90.6696L260.612 90.984C260.223 91.5463 259.916 92.1601 259.702 92.8073L259.58 93.1688ZM271.781 89.8378L271.49 89.5902C270.97 89.1433 270.388 88.7712 269.762 88.4849L269.412 88.324L269.737 87.6333L270.087 87.7929C270.778 88.1092 271.421 88.5205 271.995 89.0147L272.287 89.2622L271.781 89.8378ZM261.701 89.7239L261.208 89.1372L261.505 88.8896C262.091 88.4096 262.743 88.0134 263.441 87.7125L263.796 87.5602L264.104 88.2596L263.749 88.4106C263.117 88.6828 262.526 89.0416 261.995 89.4764L261.701 89.7239ZM268.173 87.9551L267.797 87.8969C267.458 87.8467 267.115 87.8194 266.772 87.8152H266.682C266.366 87.8151 266.051 87.835 265.738 87.8746L265.362 87.9229L265.263 87.1666L265.639 87.1183C265.985 87.0748 266.333 87.0528 266.682 87.0527H266.78C267.159 87.0577 267.538 87.0883 267.914 87.1443L268.29 87.2013L268.173 87.9551ZM275.819 96.4589L273.896 96.4366L273.953 96.0108C273.992 95.7235 274.015 95.4342 274.02 95.1443C274.02 95.0874 274.02 95.0317 274.02 94.9747V94.5935L274.791 94.586V94.9673V95.1542C274.791 95.3238 274.78 95.4971 274.763 95.6803L275.826 95.6927L275.819 96.4589ZM287.413 96.5975L284.71 96.5653L284.719 95.8028L287.423 95.835L287.413 96.5975ZM283.548 96.5517L280.844 96.5195L280.854 95.757L283.558 95.7892L283.548 96.5517ZM279.683 96.5047L276.979 96.4725L276.989 95.7112L279.692 95.7434L279.683 96.5047ZM290.165 97.766L289.413 97.6162L289.488 97.2449C289.531 97.0406 289.571 96.8327 289.613 96.626L288.583 96.6136L288.592 95.8523L290.536 95.8746L290.455 96.3177C290.39 96.6755 290.321 97.0382 290.249 97.3946L290.165 97.766ZM267.511 130.384L267.087 129.747L267.409 129.537C268.035 129.132 268.653 128.706 269.258 128.274L269.57 128.05L270.023 128.669L269.711 128.892C269.097 129.331 268.465 129.758 267.831 130.174L267.511 130.384ZM271.228 127.766L270.748 127.169L271.05 126.931C271.636 126.473 272.218 125.996 272.782 125.514L273.073 125.266L273.574 125.842L273.282 126.09C272.711 126.585 272.119 127.064 271.528 127.529L271.228 127.766ZM274.7 124.837L274.168 124.284L274.449 124.022C274.992 123.515 275.53 122.989 276.049 122.46L276.317 122.187L276.871 122.717L276.603 122.99C276.077 123.527 275.53 124.061 274.974 124.576L274.7 124.837ZM277.899 121.619L277.322 121.114L277.573 120.829C278.074 120.276 278.559 119.706 279.029 119.134L279.272 118.838L279.871 119.319L279.628 119.615C279.151 120.195 278.653 120.773 278.151 121.334L277.899 121.619ZM280.804 118.14L280.177 117.686L280.408 117.38C280.853 116.786 281.291 116.177 281.708 115.567L281.924 115.251L282.563 115.678L282.348 115.994C281.924 116.613 281.479 117.232 281.027 117.835L280.804 118.14ZM283.389 114.427L282.732 114.028L282.934 113.704C283.325 113.075 283.706 112.43 284.062 111.785L284.25 111.452L284.924 111.824L284.737 112.157C284.369 112.81 283.985 113.466 283.584 114.104L283.389 114.427ZM285.636 110.501L284.945 110.16L285.117 109.82C285.45 109.159 285.774 108.483 286.077 107.81L286.234 107.462L286.939 107.771L286.782 108.12C286.474 108.804 286.146 109.489 285.808 110.16L285.636 110.501ZM287.523 106.394L286.805 106.115L286.947 105.761C287.22 105.074 287.48 104.372 287.724 103.675L287.849 103.315L288.579 103.563L288.454 103.924C288.204 104.631 287.943 105.344 287.666 106.041L287.523 106.394ZM289.037 102.138L288.296 101.924L288.405 101.552C288.616 100.846 288.814 100.124 288.993 99.4073L289.086 99.036L289.838 99.2192L289.746 99.5905C289.564 100.317 289.364 101.05 289.15 101.768L289.037 102.138ZM265.118 133.071L264.346 133.061L264.369 131.373L264.56 131.265C264.877 131.087 265.196 130.902 265.505 130.72L265.836 130.523L266.232 131.178L265.901 131.374C265.65 131.522 265.392 131.672 265.134 131.818L265.118 133.071ZM264.894 150.258L264.123 150.248L264.16 147.338L264.932 147.348L264.894 150.258ZM264.95 145.961L264.178 145.951L264.217 143.04L264.988 143.05L264.95 145.961ZM265.006 141.664L264.234 141.654L264.272 138.744L265.044 138.754L265.006 141.664ZM265.062 137.367L264.291 137.357L264.328 134.447L265.099 134.457L265.062 137.367Z" fill="#7FA2D6"/>
<path d="M264.852 153.493L262.979 153.471L262.987 152.708L264.09 152.722L264.104 151.633L264.876 151.643L264.852 153.493Z" fill="#7FA2D6"/>
<path d="M261.476 153.448L258.43 153.412L258.44 152.65L261.485 152.687L261.476 153.448ZM256.927 153.394L253.882 153.358L253.891 152.595L256.937 152.633L256.927 153.394ZM252.38 153.339L249.333 153.303L249.343 152.541L252.388 152.578L252.38 153.339ZM247.831 153.286L244.785 153.249L244.794 152.488L247.841 152.524L247.831 153.286ZM243.283 153.232L240.24 153.201L240.25 152.439L243.295 152.475L243.283 153.232Z" fill="#7FA2D6"/>
<path d="M238.734 153.183L236.86 153.16L236.884 151.309L237.656 151.32L237.641 152.408L238.744 152.42L238.734 153.183Z" fill="#7FA2D6"/>
<path d="M237.676 149.86L236.904 149.85L236.944 146.862L237.716 146.872L237.676 149.86ZM237.736 145.404L236.964 145.394L237.005 142.406L237.777 142.415L237.736 145.404ZM237.795 140.947L237.025 140.937L237.05 139.036L237.483 139.096C237.791 139.141 238.101 139.166 238.412 139.171H238.913V139.932H238.401C238.211 139.932 238.017 139.92 237.807 139.9L237.795 140.947ZM240.554 139.687L240.323 138.961L240.691 138.847C241.392 138.631 242.056 138.312 242.66 137.901L242.977 137.685L243.414 138.312L243.097 138.529C242.429 138.983 241.695 139.336 240.921 139.575L240.554 139.687ZM244.624 137.196L244.02 136.723L244.259 136.424C244.715 135.857 245.082 135.225 245.348 134.549L245.488 134.194L246.207 134.47L246.067 134.825C245.774 135.572 245.368 136.27 244.864 136.897L244.624 137.196ZM246.569 132.873L245.798 132.82L245.826 132.439C245.836 132.298 245.842 132.153 245.843 132.01C245.843 131.976 245.843 131.941 245.843 131.906C245.844 131.358 245.787 130.811 245.673 130.274L245.592 129.902L246.344 129.744L246.425 130.115C246.549 130.704 246.611 131.305 246.61 131.906V132.02C246.61 132.176 246.601 132.336 246.59 132.493L246.569 132.873ZM245.09 128.592L244.896 128.262C244.53 127.641 244.059 127.086 243.502 126.622L243.206 126.375L243.708 125.792L244.003 126.039C244.628 126.559 245.157 127.181 245.567 127.879L245.762 128.208L245.09 128.592ZM241.987 125.674L241.626 125.539C240.939 125.284 240.218 125.131 239.486 125.085L239.101 125.059L239.152 124.299L239.537 124.325C240.345 124.374 241.142 124.54 241.901 124.82L242.262 124.956L241.987 125.674Z" fill="#7FA2D6"/>
<path d="M260.214 131.211C260.231 130.889 260.214 130.567 260.161 130.248C260.033 129.456 259.688 128.714 259.165 128.1C258.641 127.487 257.959 127.026 257.19 126.766C256.786 126.629 256.364 126.549 255.937 126.529C255.864 126.529 255.794 126.529 255.722 126.529C254.993 126.53 254.276 126.706 253.632 127.042C252.988 127.378 252.436 127.863 252.024 128.456C251.612 129.049 251.352 129.733 251.266 130.447C251.181 131.161 251.273 131.886 251.534 132.557C251.794 133.229 252.217 133.828 252.764 134.303C253.311 134.777 253.967 135.114 254.675 135.282C255.383 135.451 256.122 135.447 256.828 135.272C257.534 135.096 258.187 134.753 258.729 134.272C259.17 133.885 259.529 133.415 259.784 132.89C260.039 132.364 260.185 131.794 260.214 131.211ZM267.974 112.123C268.062 110.524 267.672 108.934 266.852 107.552C266.197 106.453 265.325 105.494 264.288 104.733C262.398 103.316 259.945 102.437 257.329 102.304C256.745 102.273 256.159 102.277 255.575 102.316C254.412 102.389 253.268 102.639 252.183 103.059C250.739 103.624 249.456 104.528 248.444 105.693C247.877 106.339 247.594 107.181 247.655 108.034C247.717 108.887 248.119 109.681 248.773 110.241C249.428 110.801 250.28 111.081 251.144 111.021C252.007 110.96 252.811 110.562 253.378 109.916C253.986 109.201 254.811 108.699 255.73 108.484C256.138 108.394 256.556 108.361 256.973 108.384C258.738 108.473 260.079 109.862 259.981 111.72C259.844 114.345 257.796 114.464 255.461 115.681C255.351 115.739 255.239 115.797 255.128 115.86C253.305 116.892 253.154 118.281 253.066 119.984L253.011 121.001C252.968 121.836 253.256 122.654 253.814 123.283C254.373 123.911 255.157 124.299 256.001 124.365H256.087C256.713 124.399 257.335 124.253 257.879 123.946C258.422 123.638 258.864 123.182 259.151 122.632C259.294 122.357 259.394 122.062 259.447 121.758C259.56 121.124 259.748 120.513 260.06 120.083C260.159 119.93 260.29 119.799 260.443 119.699C260.596 119.598 260.769 119.53 260.95 119.498C262.704 118.862 264.282 118.062 265.495 117.022C266.932 115.768 267.866 114.185 267.974 112.123Z" fill="#2D4E9F"/>
<path d="M351.066 102.14C353.041 91.9418 368.146 86.2268 384.807 89.3745C401.468 92.5223 413.371 103.34 411.396 113.537C409.422 123.734 394.316 129.45 377.657 126.302C374.054 125.63 370.542 124.55 367.19 123.084C365.15 124.392 362.591 126.027 360.423 127.416C358.715 128.507 356.518 127.045 356.899 125.064L358.328 117.692C352.899 113.167 350.017 107.565 351.066 102.14Z" fill="white"/>
<path d="M399.241 111.082C400.272 109.988 400.979 108.592 401.06 107.084C401.174 104.956 399.823 103.334 398.247 102.051C396.443 100.59 394.478 99.3344 392.39 98.307C388.241 96.2548 383.693 95.1123 379.056 94.9574C376.859 94.8869 374.634 95.0391 372.508 95.6184C372.431 95.6395 372.352 95.6642 372.273 95.6877C371.734 95.7397 371.198 95.8066 370.665 95.8883C368.645 96.2014 366.655 96.7634 364.859 97.745C364.318 98.0427 363.8 98.3786 363.308 98.7501C362.538 99.2435 361.839 99.8377 361.231 100.516C359.841 102.108 359.435 104.164 360.177 106.14C360.953 108.206 362.666 109.682 364.546 110.774C366.171 111.699 367.869 112.491 369.624 113.145C370.604 113.593 371.602 113.988 372.589 114.342C373.232 114.573 373.88 114.796 374.532 115.01C373.53 117.541 373.23 120.399 372.951 123.056C372.943 123.123 373.049 123.145 373.056 123.076C373.358 120.397 373.735 117.575 374.844 115.107C378.165 116.183 381.601 117.008 385.09 117.161C387.205 117.27 389.325 117.05 391.371 116.508C393.107 116.032 395.1 115.111 395.91 113.413C396.775 113.095 397.582 112.639 398.298 112.063C398.65 111.773 398.966 111.444 399.241 111.082ZM370.436 112.601C367.679 111.397 364.671 109.607 362.942 107.031C364.403 108.338 365.996 109.493 367.696 110.48C369.601 111.58 371.617 112.482 373.711 113.171C373.932 113.277 374.153 113.377 374.371 113.464C374.621 113.562 374.864 113.652 375.115 113.739C375.05 113.863 374.99 113.986 374.928 114.11C373.778 113.794 372.641 113.437 371.527 113.041C371.161 112.903 370.797 112.756 370.436 112.601ZM389.807 100.19C391.462 101.22 393.099 102.496 394.29 104.043C395.366 105.44 396.118 107.284 395.209 108.96C395.169 109.033 395.115 109.093 395.071 109.163C394.647 108.663 394.164 108.216 393.63 107.832C393.489 107.729 393.34 107.638 393.193 107.544C392.734 106.828 392.184 106.173 391.556 105.596C391.274 103.913 390.35 102.378 389.187 101.14C388.1 100.008 386.838 99.0537 385.447 98.3144C386.049 98.4712 386.647 98.6395 387.241 98.8194C388.124 99.2213 388.982 99.6782 389.807 100.187V100.19ZM392.509 112.737C392.466 112.482 392.393 112.233 392.291 111.995C392.578 111.894 392.86 111.774 393.138 111.646C392.987 112.039 392.775 112.406 392.509 112.735V112.737ZM377.294 114.415C378.268 114.704 379.248 114.974 380.235 115.214C378.569 114.981 376.92 114.647 375.295 114.214C375.359 114.09 375.421 113.979 375.488 113.865C376.082 114.057 376.694 114.233 377.294 114.412V114.415ZM377.511 111.393L377.59 111.33C377.603 111.393 377.635 111.45 377.682 111.494C377.729 111.539 377.789 111.568 377.853 111.578C380.16 112.012 382.468 112.454 384.813 112.636C386.992 112.805 389.271 112.81 391.402 112.265C391.574 112.644 391.632 113.064 391.568 113.475C391.006 113.521 390.44 113.546 389.888 113.556C385.593 113.629 381.255 112.954 377.138 111.755C377.26 111.631 377.381 111.508 377.511 111.391V111.393ZM378.115 110.908C379.459 109.929 381.082 109.395 382.752 109.382C384.749 109.348 386.837 109.809 388.743 110.372C389.559 110.619 390.43 110.98 390.999 111.626C390.755 111.681 390.514 111.728 390.277 111.766C386.22 112.409 382.098 111.654 378.115 110.905V110.908ZM377.925 112.81C380.267 113.448 382.658 113.896 385.074 114.15C382.806 114.151 380.543 113.941 378.316 113.522C377.881 113.439 377.448 113.346 377.019 113.247C376.72 113.158 376.421 113.078 376.123 112.987L376.084 112.975C376.227 112.781 376.378 112.589 376.536 112.402C376.997 112.541 377.461 112.68 377.925 112.808V112.81ZM375.644 112.838C374.997 112.642 374.371 112.386 373.773 112.073C373.247 111.787 372.725 111.407 372.382 110.907C373.584 111.402 374.807 111.857 376.049 112.253C375.906 112.442 375.773 112.637 375.644 112.835V112.838ZM389.786 114.667C389.688 114.708 389.589 114.754 389.491 114.791C389.331 114.85 389.168 114.9 389.006 114.951C388.694 114.98 388.38 114.999 388.098 115.021C387.109 115.094 386.116 115.088 385.128 115.004C385.016 114.994 384.907 114.977 384.796 114.965C386.464 114.975 388.131 114.875 389.786 114.665V114.667ZM391.932 111.36C391.916 111.337 391.902 111.313 391.886 111.29C391.17 110.342 390.019 109.866 388.898 109.557C386.876 109.009 384.669 108.588 382.565 108.691C380.517 108.779 378.575 109.614 377.114 111.033C376.93 111.212 376.755 111.404 376.587 111.587C375.034 111.12 373.509 110.565 372.02 109.926C372 109.302 372.224 108.695 372.646 108.23C373.257 107.516 374.087 106.993 374.988 106.598C378.716 107.959 382.685 108.556 386.654 108.352C387.74 108.298 388.821 108.174 389.891 107.98C390.422 107.883 390.865 107.691 391.173 107.392C391.751 107.642 392.305 107.941 392.83 108.286C393.241 109.033 393.422 109.883 393.35 110.731C392.899 110.987 392.425 111.199 391.932 111.363V111.36ZM369.777 97.5519C369.828 97.5197 369.884 97.4925 369.936 97.4615C373.391 96.7931 376.968 96.8067 380.445 97.2957C380.529 97.3068 380.61 97.3229 380.695 97.334C383.862 98.2005 387.08 99.7552 389.129 102.313C389.669 102.972 390.101 103.71 390.412 104.5C390.432 104.554 390.456 104.615 390.48 104.678C389.067 103.551 387.508 102.616 385.843 101.899C382.148 100.317 378.074 99.8025 374.095 100.414C372.179 100.718 370.112 101.231 368.463 102.289C368.138 102.027 367.882 101.69 367.718 101.309C367.119 99.7936 368.606 98.2859 369.777 97.5494V97.5519ZM390.821 106.354C389.595 105.904 388.335 105.552 387.053 105.302C383.076 104.477 378.728 104.092 374.879 105.662L374.784 105.703C374.043 105.418 373.313 105.112 372.6 104.768C371.663 104.315 370.753 103.81 369.874 103.256C369.624 103.099 369.35 102.933 369.08 102.752C369.587 102.457 370.12 102.209 370.673 102.009C372.425 101.375 374.261 100.997 376.124 100.885C379.825 100.66 383.519 101.422 386.819 103.092C388.267 103.823 389.609 104.743 390.808 105.827C390.835 106 390.84 106.177 390.821 106.351V106.354ZM390.303 107.056C389.886 107.238 389.372 107.274 388.931 107.336C388.392 107.412 387.85 107.473 387.302 107.518C383.526 107.826 379.725 107.372 376.133 106.183C376.642 106.026 377.159 105.894 377.681 105.788C379.561 105.408 381.52 105.401 383.425 105.59C385.42 105.783 387.393 106.165 389.314 106.73C389.652 106.824 389.977 106.936 390.303 107.053V107.056ZM368.406 103.204C370.023 104.432 371.941 105.386 373.804 106.156H373.814C372.465 106.878 371.183 107.966 371.028 109.476C370.835 109.385 370.64 109.301 370.448 109.207C369.131 108.562 367.527 107.582 367.152 106.066C366.853 104.852 367.491 103.906 368.406 103.201V103.204ZM394.009 109.587C393.982 109.441 393.939 109.3 393.9 109.158C394.125 109.373 394.335 109.604 394.526 109.85C394.383 109.995 394.231 110.132 394.07 110.258C394.068 110.032 394.047 109.807 394.009 109.585V109.587ZM361.803 104.663C361.535 103.82 361.507 102.921 361.721 102.064C361.996 101.065 362.724 100.279 363.573 99.7119C364.927 98.8033 366.571 98.2661 368.172 97.8551C367.967 98.0555 367.778 98.2711 367.606 98.5C367.137 99.1375 366.798 99.8777 366.804 100.679C366.81 101.479 367.244 102.191 367.832 102.735C367.211 103.242 366.704 103.876 366.468 104.652C366.352 105.069 366.322 105.505 366.377 105.934C366.433 106.364 366.575 106.778 366.794 107.152C367.671 108.714 369.439 109.606 371.015 110.322L371.077 110.351C371.161 110.765 371.331 111.157 371.579 111.502C370.161 110.91 368.792 110.211 367.482 109.413C365.839 108.406 364.307 107.232 362.913 105.91C362.532 105.571 362.179 105.204 361.855 104.812C361.842 104.756 361.821 104.71 361.808 104.661L361.803 104.663ZM392.919 113.319C393.442 112.706 393.805 111.976 393.975 111.191C394.323 110.977 394.648 110.728 394.945 110.449C395.33 111.123 395.515 111.894 395.291 112.654C394.649 112.891 393.993 113.089 393.327 113.246C393.196 113.27 393.06 113.296 392.924 113.317L392.919 113.319ZM396.228 112.262C396.306 111.381 396.015 110.537 395.526 109.786C395.776 109.455 395.976 109.089 396.118 108.701C396.761 106.878 395.965 104.997 394.825 103.552C393.799 102.27 392.588 101.144 391.232 100.209C391.337 100.25 391.444 100.289 391.549 100.333C393.554 101.137 395.638 102.003 397.251 103.472C398.572 104.675 399.545 106.4 399.459 108.218C399.404 109.393 398.84 110.369 398.034 111.138C397.482 111.583 396.877 111.959 396.233 112.26L396.228 112.262ZM381.552 95.8907C385.808 96.3803 389.918 97.7186 393.634 99.8245C395.456 100.857 397.317 102.061 398.787 103.558C399.471 104.253 400.04 105.094 400.226 106.063C400.295 106.464 400.306 106.873 400.258 107.277C400.241 107.131 400.229 106.985 400.199 106.838C399.283 102.366 394.391 100.471 390.543 99.0534C389.407 98.6362 388.248 98.2562 387.074 97.9121C386.047 97.4724 384.994 97.0942 383.921 96.7795C382.058 96.2391 380.146 95.876 378.213 95.6952C379.329 95.6983 380.444 95.7636 381.552 95.8907ZM360.645 104.723C360.624 104.542 360.615 104.36 360.617 104.178C360.635 104.239 360.64 104.302 360.661 104.36C360.777 104.662 360.934 104.946 361.128 105.205C361.326 105.788 361.583 106.349 361.897 106.88C362.501 107.886 363.246 108.803 364.11 109.603C364.012 109.536 363.911 109.479 363.814 109.404C362.239 108.279 360.883 106.697 360.645 104.725V104.723ZM387.811 116.28C386.608 116.369 385.4 116.362 384.198 116.26C384.722 116.26 385.245 116.26 385.768 116.23C386.199 116.204 386.631 116.16 387.061 116.107C388.174 116.108 389.283 115.977 390.363 115.714C391.203 115.496 391.967 115.035 392.332 114.264L392.365 114.257C392.414 114.249 392.462 114.238 392.51 114.228C393.211 114.144 393.907 114.017 394.592 113.846C394.235 114.22 393.826 114.542 393.377 114.801C391.736 115.772 389.695 116.13 387.811 116.282V116.28Z" fill="#2F4171"/>
<path d="M94.438 18.7608C94.2827 17.5434 94.4963 16.3079 95.0519 15.2105C95.6074 14.1131 96.48 13.203 97.5591 12.5954C98.6383 11.9878 99.8757 11.7099 101.115 11.7969C102.354 11.8838 103.539 12.3318 104.52 13.084C105.502 13.8363 106.235 14.8591 106.628 16.0231C107.021 17.1871 107.055 18.44 106.727 19.6234C106.399 20.8069 105.723 21.8676 104.785 22.6716C103.847 23.4756 102.688 23.9867 101.456 24.1403C100.637 24.2423 99.8065 24.184 99.0109 23.9689C98.2153 23.7537 97.4704 23.3858 96.8187 22.8863C96.1671 22.3867 95.6214 21.7653 95.2129 21.0574C94.8044 20.3496 94.5411 19.5692 94.438 18.7608Z" fill="#333333"/>
<path d="M97.0832 47.9876C99.3389 46.2373 103.244 46.2212 105.402 47.9517C106.25 46.4218 107.097 44.891 107.944 43.3594C107.566 44.9471 107.708 46.6125 108.35 48.1151C111.056 48.1272 113.741 47.645 116.269 46.6928C116.684 46.5344 117.114 46.3463 117.347 46.0244C117.634 45.6258 117.541 45.132 117.441 44.6826C117.107 43.1882 116.772 41.6937 116.438 40.1993C116.751 40.2686 117.065 40.3367 117.382 40.4035C118.503 41.3091 119.482 42.3741 120.287 43.5637C121.065 43.0561 121.844 42.5474 122.609 42.0213C122.93 42.1054 123.262 42.1425 123.595 42.1315C126.301 42.1442 128.986 41.6629 131.515 40.7117C131.409 39.0636 130.788 37.4883 129.739 36.2024L134.15 39.5445C135.352 37.21 138.947 35.8806 141.811 36.7099C142.821 34.7641 140.586 32.7662 138.279 31.9134C135.972 31.0605 133.23 30.61 131.729 28.9501C130.321 27.3904 130.648 23.9778 130.754 23.1323C130.754 23.1323 131.938 19.0649 129.376 16.2452L131.057 15.6993L128.872 11.6219C126.859 7.86765 121.206 6.5271 116.879 8.77497L111.867 11.3806L107.23 12.1393C97.4817 15.6411 100.373 24.4122 100.373 24.4122C99.2198 26.7381 99.2988 29.5058 100.999 31.5259C100.999 31.5259 103.521 35.1824 102.844 37.3833C102.217 39.4269 99.8965 40.7848 98.1621 42.363C96.4278 43.9412 95.2749 46.5406 97.0832 47.9876Z" fill="#333333"/>
<path d="M112.636 37.2305C112.636 37.2305 112.15 50.9108 111.298 51.677C111.105 51.8503 108.917 52.2278 108.165 52.5954C110.438 56.8362 120.288 66.782 120.288 66.782L131.667 51.6745L127.004 51.3031L125.174 37.7182L112.636 37.2305Z" fill="#F5B0A7"/>
<path d="M113.593 37.8242H123.842C123.842 37.8242 122.84 43.3411 118.04 42.9809C113.241 42.6207 113.593 37.8242 113.593 37.8242Z" fill="#EF7586"/>
<path d="M116.153 254.426L118.421 277.056C118.421 277.056 125.024 277.262 126.831 276.643C128.36 276.438 132.613 272.837 133.292 271.828C131.748 270.98 128.06 268.523 128.06 268.523L128.917 254.041L116.153 254.426Z" fill="#F5B0A7"/>
<path d="M123.559 254.926L123.342 259.037C123.342 259.037 118.705 277.273 118.282 275.409L116.463 255.893L123.559 254.926Z" fill="#EF7586"/>
<path d="M128.231 268.186L141.792 276.919C142.37 277.342 143.088 283.435 142.262 283.442C142.262 283.442 128.049 284.166 120.992 283.991C120.55 283.979 120.272 277.793 119.881 277.78C119.49 277.768 119.088 284.278 118.768 284.265C117.428 284.215 116.606 284.158 116.599 284.093C116.381 281.906 117.447 268.68 117.447 268.68C117.447 268.68 122.382 273.755 123.356 275.271C124.641 274.832 127.845 267.903 128.231 268.186Z" fill="#CBCBCB"/>
<path d="M128.231 268.186L141.792 276.919C142.37 277.342 143.088 283.435 142.262 283.442C142.262 283.442 128.049 284.166 120.992 283.991C120.55 283.979 120.272 277.793 119.881 277.78C119.49 277.768 119.088 284.278 118.768 284.265C117.428 284.215 116.606 284.158 116.599 284.093C116.381 281.906 117.447 268.68 117.447 268.68C117.447 268.68 122.382 273.755 123.356 275.271C124.641 274.832 127.845 267.903 128.231 268.186Z" fill="#070707"/>
<path d="M89.8527 254.803L87.8802 272.256C87.8802 272.256 82.2184 279.913 79.3888 276.492C77.974 274.781 73.4626 272.841 72.7847 271.833C74.3273 270.985 78.0166 268.528 78.0166 268.528L79.4314 254.553L89.8527 254.803Z" fill="#F5B0A7"/>
<path d="M85.8652 254.549L86.1221 256.074C86.1221 256.074 87.6259 274.879 88.052 273.014L91.7826 254.549H85.8652Z" fill="#EF7586"/>
<path d="M77.3601 268.186L63.796 276.919C63.2183 277.342 62.5002 283.435 63.3273 283.442C63.3273 283.442 77.5406 284.166 84.5971 283.991C85.0382 283.979 85.3164 277.793 85.7074 277.78C86.0984 277.768 86.5019 284.278 86.8202 284.265C88.1611 284.215 88.9831 284.158 88.9894 284.093C89.2087 281.906 89.0621 269.23 89.0621 269.23C89.0621 269.23 85.3553 273.074 82.5745 275.271C81.2913 274.832 77.7461 267.903 77.3601 268.186Z" fill="#070707"/>
<path d="M99.5608 100.26C94.3815 109.306 91.6434 115.932 88.6659 127.433C85.2147 140.77 62.1479 238.561 60.52 262.821C64.7745 263.835 87.6734 262.968 90.3614 262.821C95.5081 238.833 109.013 167.439 112.68 152.185C113.244 149.841 116.525 150.341 116.626 152.748C117.725 178.975 115.822 237.12 113.763 263.554C120.71 263.935 145.844 265.52 148.425 265.201C151.227 235.325 155.81 137.263 133.353 100.602C123.085 99.2032 109.973 99.9546 99.5608 100.26Z" fill="#2D4E9F"/>
<path d="M67.748 263.367L104.539 100.595M130.646 100.316C130.646 100.316 141.916 126.814 144.231 158.287C146.585 190.285 144.717 265.018 144.717 265.018L130.646 100.316Z" stroke="white" stroke-width="3.4728" stroke-miterlimit="10"/>
<g style="mix-blend-mode:multiply" opacity="0.21">
<path d="M132.774 99.5527L90.3467 135.532C90.3467 135.532 92.2916 114.34 99.8017 100.412L132.774 99.5527Z" fill="black"/>
</g>
<path d="M134.997 94.7773L133.353 100.604L99.8013 100.412L99.899 94.8727L134.997 94.7773Z" fill="#212121"/>
<path d="M127.842 51.3209C127.95 51.061 140.057 40.375 142.927 68.8979C145.251 92.0127 145.066 94.4847 145.066 94.4847C145.066 94.4847 134.338 96.2745 133.801 95.0701C119.95 63.8971 127.842 51.3209 127.842 51.3209Z" fill="#E5E5E5"/>
<path d="M126.875 50.0329C128.275 51.4143 139.316 74.4277 139.606 81.4535C139.928 89.222 137.317 95.4408 137.317 95.4408C137.317 95.4408 100.701 95.983 99.8993 96.2998C97.5835 75.4588 94.2739 60.7462 99.9357 57.4425C99.9357 57.4425 110.183 48.9895 111.792 48.0215C111.792 48.0264 122.669 66.221 126.875 50.0329Z" fill="#6AC589"/>
<path d="M109.014 49.8093L111.934 44.1797L122.36 56.6754L119.163 63.5403L109.014 49.8093Z" fill="#FDFDFD"/>
<path d="M126.391 46.1016L122.36 56.6749L126.113 63.4025L129.866 52.2807L126.391 46.1016Z" fill="#FDFDFD"/>
<path d="M102.319 60.605C102.21 60.6018 102.104 60.572 102.009 60.5184C99.7061 59.3103 97.2787 60.8513 96.9792 63.4099C96.1935 70.1126 98.2862 81.5117 99.8991 96.0188C100.699 95.7019 137.028 96.0188 137.028 96.0188C137.028 96.0188 137.57 96.6823 137.947 93.5308C137.988 93.1967 137.955 92.8578 137.851 92.5373C137.747 92.2168 137.574 91.9223 137.345 91.6738C137.115 91.4254 136.833 91.2289 136.519 91.0978C136.206 90.9667 135.867 90.904 135.526 90.9141C115.624 91.4909 101.971 96.587 103.524 61.365C103.548 60.8303 102.862 60.6063 102.319 60.605Z" fill="#CBCBCB"/>
<path d="M65.9865 96.2514C65.1122 94.7415 64.7137 93.0083 64.8418 91.2734C64.97 89.5386 65.619 87.8809 66.7058 86.5123C70.5016 81.6972 78.1722 74.9351 88.0458 63.9841C94.0058 57.3742 100.047 54.552 103.42 54.8157C108.782 55.2353 108.844 63.1573 105.45 67.2792C98.1575 76.1308 80.661 92.8041 80.0996 93.4713C84.1999 101.605 88.423 107.003 91.9043 111.979C92.0911 112.244 92.3039 112.49 92.5396 112.714C93.8229 113.93 94.8392 115.39 95.3104 117.084C96.4382 121.13 98.026 127.504 96.8355 127.307C95.0961 127.021 92.7752 121.433 92.7752 121.433C92.7752 121.433 94.0798 136.475 91.3241 136.762C91.0346 136.475 88.8591 127.021 89.1486 125.302C89.1486 125.302 90.0258 136.343 89.1486 137.048C86.829 138.905 87.2689 135.76 87.2689 135.76L86.1022 120.578C86.1022 120.578 72.5029 107.388 65.9865 96.2514Z" fill="#F5B0A7"/>
<path d="M103.419 54.8197C100.047 54.5548 94.0055 57.3783 88.0455 63.9882C82.8862 69.7081 78.3373 74.2781 74.6191 78.0324C74.8213 78.2073 75.0218 78.3827 75.2207 78.5585L75.2633 78.5944C75.6195 78.7845 75.949 79.0201 76.2432 79.295C79.6585 82.4778 83.022 85.7109 86.3336 88.9944C91.7886 82.9713 100.572 73.2037 105.449 67.2832C108.844 63.1613 108.784 55.2393 103.419 54.8197Z" fill="#6AC589"/>
<path d="M122.359 69.4559C123.028 69.4559 123.57 68.9206 123.57 68.2602C123.57 67.5998 123.028 67.0645 122.359 67.0645C121.691 67.0645 121.149 67.5998 121.149 68.2602C121.149 68.9206 121.691 69.4559 122.359 69.4559Z" fill="white"/>
<path d="M123.259 75.6141C123.928 75.6141 124.47 75.0788 124.47 74.4184C124.47 73.758 123.928 73.2227 123.259 73.2227C122.591 73.2227 122.049 73.758 122.049 74.4184C122.049 75.0788 122.591 75.6141 123.259 75.6141Z" fill="white"/>
<path d="M108.777 23.3553L108.747 22.9245C113.218 22.6113 117.157 20.3796 119.022 17.1068C121.215 13.2572 119.659 9.65394 119.129 8.64141L119.517 8.44336C120.073 9.5054 121.704 13.2807 119.403 17.3185C117.466 20.7163 113.393 23.0322 108.777 23.3553Z" fill="#333333"/>
<path d="M112.747 8.88226C120.958 7.02554 126.317 11.5361 128.035 18.9741C128.035 18.9741 128.56 24.1729 128.631 24.5604C128.641 24.6124 132.205 32.7448 125.498 40.538C125.122 40.9787 124.534 41.1421 123.944 41.2683C111.654 43.9148 110.452 31.8758 110.452 31.8758C110.217 31.2866 104.754 25.5902 104.608 24.9565C102.895 17.5185 104.536 10.7303 112.747 8.88226Z" fill="#F5B0A7"/>
<path d="M123.446 13.9665L123.646 19.1987C123.646 19.1987 113.521 20.6371 109.235 22.1076C109.235 22.1076 112.186 29.5877 110.041 30.4715C110.041 30.4715 101.496 30.4839 102.773 19.8139C104.05 9.144 112.462 7.73042 118.312 8.38151C124.162 9.03259 130.277 13.0852 130.593 18.8497L125.807 19.3114C125.807 19.3114 124.881 15.5695 123.446 13.9665Z" fill="#333333"/>
<path d="M122.168 34.0673C122.716 34.0513 123.256 33.9364 123.762 33.7282L123.573 33.3296C123.466 33.3791 120.921 34.5055 117.771 32.0918L117.498 32.4396C119.348 33.8582 121.019 34.1243 122.168 34.0673Z" fill="#2B2B2B"/>
<path d="M118.233 21.5156C117.626 20.9734 114.864 22.3821 114.753 22.4588C113.904 23.0332 114.259 23.6038 114.402 23.7907C114.485 23.9009 114.802 23.7016 115.604 23.4429C117.313 22.8896 118.077 23.0802 118.361 22.5256C118.532 22.1989 118.473 21.731 118.233 21.5156ZM124.116 21.0502C124.462 20.4795 126.821 21.0031 126.927 21.0353C127.735 21.2829 127.754 21.752 127.687 21.9327C127.648 22.0392 127.351 21.9575 126.655 21.9439C125.175 21.9142 124.62 22.2459 124.259 21.877C124.047 21.6604 123.98 21.2779 124.116 21.0502Z" fill="#333333"/>
<path d="M123.595 30.2582C123.639 30.2396 124.683 29.8026 124.827 28.8632C124.937 28.144 124.486 27.3617 123.484 26.541L123.199 26.8802C124.059 27.5845 124.47 28.2418 124.387 28.7951C124.282 29.4882 123.432 29.8472 123.424 29.8509L123.595 30.2582Z" fill="#2B2B2B"/>
<path d="M104.257 31.7209C104.917 34.116 107.228 35.5804 109.418 34.9912C111.609 34.402 112.848 31.9833 112.188 29.5881C111.527 27.1929 109.218 25.7286 107.027 26.3178C104.837 26.907 103.596 29.3269 104.257 31.7209Z" fill="#F5B0A7"/>
<path d="M107.847 32.0058C108.105 31.3869 109.279 31.1257 109.709 31.0786L109.992 31.0477L109.893 30.7828C109.505 29.7529 108.943 29.0969 108.225 28.8345C107.939 28.738 107.637 28.6992 107.335 28.7205C107.034 28.7418 106.74 28.8226 106.471 28.9583L106.686 29.3445C107.12 29.1352 107.619 29.1032 108.076 29.2553C108.609 29.4522 109.045 29.9349 109.374 30.6912C108.847 30.7927 107.745 31.0873 107.436 31.8448L107.847 32.0058Z" fill="#2B2B2B"/>
<path d="M110.374 31.8959C110.19 30.5839 110.122 29.2585 110.171 27.9349C111.371 27.8748 112.554 28.2299 113.516 28.9387C114.479 29.6476 115.162 30.666 115.446 31.8185C115.731 32.9709 115.599 34.1852 115.075 35.2523C114.55 36.3193 113.665 37.1722 112.572 37.6641C110.684 34.9656 110.374 31.8959 110.374 31.8959ZM129.148 26.2168C129.809 28.9602 129.723 31.8278 128.897 34.5275C128.238 34.0376 127.708 33.3988 127.351 32.6646C126.994 31.9304 126.82 31.1223 126.845 30.308C126.869 29.4938 127.091 28.6973 127.492 27.9854C127.893 27.2735 128.461 26.667 129.148 26.2168Z" fill="#EF7586"/>
<path d="M116.462 26.2853C116.596 26.8164 116.963 27.1852 117.272 27.1085C117.58 27.0317 117.73 26.5378 117.597 26.0068C117.465 25.4758 117.096 25.1069 116.788 25.1849C116.48 25.2629 116.328 25.7543 116.462 26.2853ZM125.653 25.18C125.778 25.6639 126.104 25.9994 126.39 25.9301C126.675 25.8608 126.808 25.4102 126.687 24.9262C126.565 24.4422 126.234 24.1068 125.948 24.1773C125.663 24.2479 125.53 24.696 125.653 25.18Z" fill="#2B2B2B"/>
<path d="M116.701 9.3956C117.002 9.31638 113.294 9.31886 110.003 10.8426C105.791 12.7922 103.534 16.669 103.811 16.9562C104.026 17.1765 105.987 15.524 106.359 15.8978C106.61 16.1553 105.879 17.1356 106.072 17.2867C106.418 17.5664 109.108 14.6291 109.587 14.9843C109.798 15.1403 109.384 15.7889 109.587 15.9585C109.978 16.2766 111.731 14.2132 114.397 12.6609C116.834 11.2424 118.834 10.9478 118.783 10.7584C118.693 10.4094 112.037 11.8848 111.962 11.5865C111.904 11.3278 113.803 10.1606 116.701 9.3956Z" fill="#545454"/>
<path d="M128.506 46.1231C128.506 46.1231 125.149 89.6433 134.171 95.1194C142.998 100.478 146.587 93.4954 146.215 88.2792C145.722 81.3822 138.753 52.8778 134.538 41.9591C133.24 37.5649 130.182 32.3463 129.162 33.1706C128.421 34.5434 128.884 37.8397 128.884 37.8397C128.884 37.8397 115.956 37.2666 115.029 37.9078C114.601 38.2036 116.002 39.0292 121.841 40.3103C121.192 41.4095 122.217 44.7046 122.217 44.7046L128.506 46.1231Z" fill="#F5B0A7"/>
<path d="M123.094 40.4424H123.07C120.52 40.2085 117.347 39.9164 114.977 38.197C114.955 38.1808 114.937 38.1604 114.923 38.1371C114.908 38.1137 114.899 38.0878 114.895 38.0609C114.891 38.034 114.893 38.0066 114.899 37.9803C114.906 37.954 114.918 37.9292 114.935 37.9074C114.951 37.8856 114.972 37.8672 114.995 37.8533C115.019 37.8394 115.045 37.8303 115.072 37.8264C115.1 37.8225 115.127 37.8239 115.154 37.8306C115.181 37.8373 115.206 37.8491 115.228 37.8653C117.505 39.5153 120.616 39.8013 123.113 40.0315C123.166 40.0372 123.214 40.0625 123.249 40.1024C123.284 40.1423 123.302 40.1938 123.299 40.2463C123.297 40.2988 123.274 40.3485 123.236 40.3851C123.198 40.4218 123.147 40.4427 123.094 40.4437V40.4424Z" fill="#EF7586"/>
<path d="M124.484 42.8385H124.452C123.537 42.6989 122.678 42.3164 121.966 41.7319C121.753 41.5813 121.595 41.3669 121.515 41.1204C121.489 40.9984 121.48 40.8734 121.49 40.7491C121.506 40.6402 121.492 40.5291 121.45 40.4272C121.424 40.3804 121.417 40.3255 121.431 40.2739C121.445 40.2223 121.479 40.1782 121.525 40.1507C121.572 40.1231 121.627 40.1144 121.68 40.1263C121.732 40.1381 121.778 40.1697 121.808 40.2143C121.895 40.3833 121.93 40.5742 121.907 40.7627C121.9 40.8511 121.904 40.9401 121.92 41.0276C121.982 41.1861 122.091 41.3227 122.233 41.42C122.886 41.9575 123.676 42.3088 124.516 42.4362C124.568 42.4442 124.615 42.4714 124.648 42.5123C124.681 42.5531 124.697 42.6046 124.692 42.6566C124.688 42.7085 124.665 42.757 124.626 42.7923C124.587 42.8276 124.536 42.8472 124.484 42.8471V42.8385Z" fill="#EF7586"/>
<path d="M124.762 45.016H124.727C124.236 44.9527 123.754 44.8352 123.289 44.6657C122.914 44.511 122.396 44.2164 122.099 43.6891C121.821 43.1939 121.808 42.6369 121.794 42.0985C121.794 41.898 121.786 41.69 121.766 41.4944C121.76 41.4398 121.777 41.3853 121.813 41.3429C121.848 41.3005 121.899 41.2738 121.954 41.2685C122.01 41.2633 122.065 41.28 122.108 41.3149C122.151 41.3498 122.178 41.4002 122.183 41.4548C122.203 41.6652 122.208 41.8806 122.213 42.0886C122.226 42.5998 122.237 43.0788 122.464 43.4885C122.69 43.8983 123.13 44.1545 123.449 44.2832C123.884 44.4404 124.336 44.5496 124.796 44.6088C124.846 44.6183 124.892 44.646 124.923 44.6866C124.954 44.7272 124.969 44.7778 124.965 44.8286C124.961 44.8795 124.938 44.927 124.9 44.962C124.863 44.9971 124.814 45.0172 124.762 45.0185V45.016Z" fill="#EF7586"/>
<path d="M184.569 38.4217H162.863C162.52 38.4216 162.181 38.4898 161.865 38.6224C161.55 38.7549 161.265 38.9489 161.027 39.1928L155.627 44.7295C155.489 44.8749 155.309 44.9757 155.112 45.0186C154.915 45.0615 154.709 45.0446 154.522 44.9701C154.335 44.8955 154.175 44.7669 154.063 44.601C153.95 44.435 153.892 44.2395 153.894 44.0401V14.5802C153.894 13.8739 154.035 13.1746 154.309 12.5222C154.582 11.8697 154.983 11.2769 155.489 10.7776C155.995 10.2783 156.595 9.88222 157.255 9.61207C157.916 9.34192 158.624 9.20296 159.339 9.20313H185.432C186.607 9.2028 187.734 9.66331 188.565 10.4834C189.396 11.3035 189.863 12.416 189.863 13.5763V33.1931C189.863 33.8799 189.726 34.5599 189.46 35.1943C189.194 35.8287 188.804 36.4052 188.313 36.8907C187.821 37.3762 187.237 37.7613 186.595 38.024C185.953 38.2867 185.264 38.4218 184.569 38.4217Z" fill="#2D4E9F"/>
<path d="M165.345 24.4587C165.345 24.8218 165.236 25.1767 165.032 25.4786C164.828 25.7804 164.538 26.0157 164.198 26.1547C163.858 26.2936 163.485 26.33 163.124 26.2591C162.764 26.1883 162.433 26.0135 162.173 25.7567C161.913 25.5 161.736 25.1729 161.664 24.8168C161.592 24.4608 161.629 24.0917 161.77 23.7562C161.911 23.4208 162.149 23.1341 162.454 22.9324C162.76 22.7307 163.119 22.6231 163.487 22.6231C163.98 22.6231 164.452 22.8165 164.801 23.1607C165.149 23.505 165.345 23.9719 165.345 24.4587ZM174.056 24.4587C174.056 24.8216 173.947 25.1764 173.743 25.4782C173.539 25.78 173.249 26.0153 172.91 26.1543C172.57 26.2934 172.197 26.3299 171.836 26.2594C171.476 26.1889 171.145 26.0144 170.885 25.758C170.625 25.5017 170.447 25.175 170.375 24.8191C170.303 24.4633 170.339 24.0943 170.479 23.7588C170.62 23.4233 170.857 23.1364 171.162 22.9342C171.467 22.7321 171.826 22.6238 172.194 22.6231C172.438 22.6226 172.68 22.6697 172.906 22.7617C173.132 22.8537 173.337 22.9889 173.51 23.1594C173.683 23.3299 173.821 23.5324 173.914 23.7554C174.008 23.9783 174.056 24.2173 174.056 24.4587ZM182.971 24.4587C182.971 24.8218 182.862 25.1767 182.658 25.4786C182.454 25.7804 182.163 26.0157 181.824 26.1547C181.484 26.2936 181.11 26.33 180.75 26.2591C180.389 26.1883 180.058 26.0135 179.798 25.7567C179.538 25.5 179.361 25.1729 179.29 24.8168C179.218 24.4608 179.255 24.0917 179.396 23.7562C179.536 23.4208 179.774 23.1341 180.08 22.9324C180.386 22.7307 180.745 22.6231 181.112 22.6231C181.605 22.6231 182.078 22.8165 182.427 23.1607C182.775 23.505 182.971 23.9719 182.971 24.4587Z" fill="white"/>
<path d="M404.054 170.681C403.003 171.68 402.143 171.319 402.143 169.878V165.232C402.141 164.538 401.86 163.873 401.363 163.382C400.866 162.891 400.193 162.614 399.49 162.612H390.787C390.084 162.61 389.411 162.333 388.914 161.842C388.418 161.351 388.138 160.687 388.135 159.993V141.631C388.138 140.937 388.418 140.272 388.914 139.781C389.411 139.291 390.084 139.014 390.787 139.012H441.289C441.992 139.014 442.665 139.29 443.162 139.781C443.659 140.272 443.939 140.937 443.941 141.631V159.993C443.938 160.687 443.657 161.352 443.159 161.842C442.661 162.332 441.987 162.607 441.284 162.608H415.198C413.74 162.608 411.69 163.426 410.636 164.425L404.054 170.681Z" fill="#99B1DA"/>
<path d="M438.171 146.449H393.9C393.646 146.449 393.402 146.349 393.223 146.172C393.043 145.994 392.942 145.754 392.942 145.503C392.943 145.252 393.044 145.012 393.223 144.835C393.403 144.658 393.646 144.559 393.9 144.559H438.171C438.425 144.559 438.668 144.658 438.848 144.835C439.027 145.012 439.128 145.252 439.129 145.503C439.129 145.754 439.028 145.994 438.848 146.172C438.669 146.349 438.425 146.449 438.171 146.449ZM438.171 151.164H393.9C393.646 151.164 393.403 151.064 393.223 150.887C393.044 150.71 392.943 150.47 392.942 150.219C392.942 149.968 393.043 149.728 393.223 149.55C393.402 149.373 393.646 149.273 393.9 149.273H438.171C438.425 149.273 438.669 149.373 438.848 149.55C439.028 149.728 439.129 149.968 439.129 150.219C439.128 150.47 439.027 150.71 438.848 150.887C438.668 151.064 438.425 151.164 438.171 151.164ZM425.331 155.878H394.063C393.937 155.879 393.813 155.854 393.696 155.807C393.58 155.759 393.475 155.69 393.386 155.602C393.297 155.514 393.226 155.41 393.178 155.296C393.13 155.181 393.105 155.058 393.105 154.934C393.105 154.683 393.206 154.443 393.386 154.265C393.565 154.088 393.809 153.988 394.063 153.988H425.331C425.585 153.988 425.829 154.088 426.008 154.265C426.188 154.443 426.289 154.683 426.289 154.934C426.289 155.058 426.264 155.181 426.216 155.296C426.168 155.41 426.097 155.514 426.008 155.602C425.919 155.69 425.814 155.759 425.698 155.807C425.582 155.854 425.457 155.879 425.331 155.878Z" fill="white"/>
<path d="M377.723 40.9688H322.184C320.322 40.9688 318.813 42.4595 318.813 44.2985V75.8998C318.813 77.7387 320.322 79.2295 322.184 79.2295H377.723C379.584 79.2295 381.094 77.7387 381.094 75.8998V44.2985C381.094 42.4595 379.584 40.9688 377.723 40.9688Z" fill="#7FA2D6"/>
<path d="M363.024 53.2598H356.346V70.3626H363.024V53.2598Z" fill="#D1DBED"/>
<path d="M351.826 57.4785H345.149V70.3617H351.826V57.4785Z" fill="#D1DBED"/>
<path d="M340.629 61.1738H333.953V70.3633H340.629V61.1738Z" fill="#D1DBED"/>
<path d="M363.023 62.9648V70.3632H356.346V64.2027C358.499 63.6357 360.746 63.1666 363.023 62.9648Z" fill="#2D4E9F"/>
<path d="M373.87 50.6035H367.192V70.3627H373.87V50.6035Z" fill="#D1DBED"/>
<path d="M373.869 62.1074V70.3624H367.193V63.042C369.346 62.4763 371.592 62.3104 373.869 62.1074ZM351.826 65.525V70.3624H345.15V67.404C347.069 67.0389 349.338 66.3073 351.826 65.525ZM340.629 67.3916V70.3624H333.953V67.3471C336.175 67.1636 338.41 67.1786 340.629 67.3916Z" fill="#2D4E9F"/>
<path d="M373.748 72.3955V73.7757H326.159V54.5723H328.029V72.3955H373.748Z" fill="white"/>
<path d="M181.923 172.891L175.774 172.426L174.333 178.068L174.369 178.078C172.993 178.328 171.657 178.759 170.397 179.36L170.417 179.334L165.878 175.621L163.537 177.601L161.198 179.582L164.216 184.577L164.245 184.561C163.455 185.701 162.823 186.94 162.365 188.245V188.207L156.501 188.756L156.031 194.83L161.743 196.254L161.753 196.217C162.006 197.576 162.442 198.896 163.05 200.142L163.023 200.122L159.264 204.605L163.274 209.228L168.332 206.246L168.317 206.218C169.47 206.998 170.724 207.623 172.045 208.075H172.007L172.562 213.866L178.71 214.349L180.153 208.707L180.115 208.697C181.491 208.447 182.827 208.016 184.088 207.416L184.068 207.441L188.608 211.154L190.947 209.174L193.288 207.193L190.268 202.198L190.239 202.212C191.03 201.076 191.665 199.842 192.128 198.541V198.567L197.991 198.018L198.461 191.944L192.751 190.52L192.743 190.546C192.486 189.191 192.048 187.875 191.442 186.633L191.469 186.653L195.228 182.169L193.223 179.858L191.218 177.545L186.16 180.528L186.177 180.557C185.024 179.773 183.769 179.146 182.447 178.693H182.485L181.923 172.891ZM177.833 185.793C179.354 185.908 180.807 186.466 182.007 187.396C183.207 188.327 184.1 189.587 184.575 191.019C185.049 192.451 185.083 193.99 184.672 195.441C184.262 196.893 183.424 198.191 182.266 199.172C181.109 200.153 179.682 200.773 178.168 200.953C176.653 201.134 175.119 200.866 173.758 200.185C172.397 199.504 171.271 198.44 170.523 197.127C169.775 195.814 169.437 194.311 169.554 192.809C169.631 191.811 169.906 190.838 170.364 189.946C170.822 189.053 171.453 188.258 172.222 187.607C172.991 186.955 173.882 186.46 174.845 186.149C175.808 185.837 176.823 185.717 177.833 185.793Z" fill="#7FA2D6"/>
<path d="M187.188 212.706L184.655 214.731L186.174 217.414L186.191 217.406C185.755 217.995 185.4 218.639 185.136 219.321V219.301L182.031 219.504L181.86 221.104L181.69 222.705L184.685 223.542V223.526C184.799 224.247 185.009 224.95 185.312 225.616L185.297 225.604L183.246 227.916L185.297 230.418L188.013 228.917L188.003 228.899C188.6 229.331 189.252 229.681 189.943 229.941H189.926L190.131 233.008L193.372 233.345L194.219 230.387H194.203C194.933 230.274 195.645 230.066 196.319 229.768L196.305 229.783L198.648 231.809L201.179 229.784L199.665 227.099L199.648 227.108C200.084 226.519 200.439 225.875 200.703 225.193V225.209L203.808 225.006L203.979 223.405L204.149 221.805L201.154 220.969V220.986C201.04 220.266 200.829 219.564 200.527 218.899L200.539 218.907L202.589 216.595L200.539 214.093L197.822 215.587V215.6C197.225 215.172 196.573 214.824 195.884 214.564H195.902L195.703 211.503L194.082 211.334L192.462 211.166L191.615 214.124H191.632C190.902 214.236 190.189 214.445 189.515 214.743L189.528 214.727L187.188 212.706ZM190.356 219.128C190.982 218.627 191.745 218.32 192.547 218.248C193.35 218.175 194.156 218.339 194.865 218.719C195.573 219.099 196.151 219.678 196.527 220.382C196.902 221.087 197.057 221.885 196.973 222.677C196.888 223.469 196.568 224.218 196.053 224.83C195.538 225.442 194.85 225.89 194.077 226.116C193.304 226.342 192.481 226.337 191.711 226.1C190.942 225.864 190.26 225.408 189.753 224.789C189.416 224.379 189.164 223.906 189.012 223.399C188.86 222.892 188.81 222.361 188.866 221.835C188.922 221.309 189.083 220.8 189.338 220.335C189.594 219.87 189.939 219.46 190.356 219.128Z" fill="#2D4E9F"/>
</g>
<defs>
<clipPath id="clip0_1002_5725">
<rect width="465.943" height="307" fill="white"/>
</clipPath>
</defs>
</svg>
