<svg width="463" height="346" viewBox="0 0 463 346" fill="none" xmlns="http://www.w3.org/2000/svg">
<path d="M416.828 182.38C410.437 198.399 393.916 212.576 399.997 229.787C403.204 238.868 402.471 261.82 388.442 281.182C372.493 303.193 339.359 320.563 275.3 307.631C239.304 300.363 202.607 298.423 166.173 302.075L140.615 304.635L139.887 304.709L139.478 304.749L138.78 304.82L137.821 304.917L136.862 305.012L135.938 305.105L135.207 305.177L135.05 305.192L133.987 305.299L132.791 305.426L132.128 305.492L130.075 305.698L129.489 305.757L128.725 305.835L128.133 305.894L125.416 306.158L125.175 306.183L124.461 306.254L124.348 306.265L121.572 306.544C97.4979 308.957 74.9246 298.915 59.092 281.18C46.6411 267.246 38.3541 248.562 36.7505 227.443C36.6359 225.912 36.5594 224.4 36.5212 222.907C35.7302 190.932 67.8044 148.895 72.1963 135.177C76.527 121.645 62.8062 96.4932 64.1551 82.214C67.1357 50.7036 92.1164 26.9557 122.584 20.6686C149.46 15.1255 178.428 21.9826 203.704 34.7257C222.271 44.0877 240.238 56.8587 260.63 58.7212C274.613 59.9908 288.158 55.9408 301.815 53.6428C334.423 48.1733 371.617 54.1354 396.211 77.797C411.996 92.9815 421.107 114.235 423.001 135.437C424.389 150.972 422.514 168.121 416.828 182.38Z" fill="#F5F5F7"/>
<path d="M130.287 232.54C125.906 242.029 125.933 262.707 127.126 278.919C127.763 287.537 128.721 294.896 129.526 298.64L121.178 302.113C121.168 302.158 121.159 302.204 121.15 302.247C121.131 302.215 121.113 302.181 121.094 302.148C116.984 294.728 98.0901 259.828 96.7349 242.794C96.6102 241.466 96.6311 240.128 96.7973 238.805C99.1155 222.353 108.093 205.86 122.707 202.283C137.32 198.707 137.625 216.641 130.287 232.54Z" fill="#419786"/>
<path d="M118.32 279.916C118.005 280.043 117.654 279.98 117.501 279.748C117.26 279.384 111.611 270.721 110.718 263.478C110.234 259.551 110.434 257.602 110.628 255.718C110.791 254.127 110.945 252.623 110.662 249.975C110.491 248.388 110.005 246.821 109.489 245.163C108.171 240.927 106.678 236.127 110.568 229.87C113.115 225.77 114.574 222.155 115.743 219.251C116.994 216.146 117.981 213.694 119.73 211.917C122.866 208.73 124.37 205.486 124.385 205.455C124.467 205.298 124.597 205.17 124.756 205.092C124.916 205.013 125.096 204.987 125.271 205.017C125.618 205.084 125.787 205.389 125.645 205.697C125.58 205.838 124.026 209.186 120.716 212.553C119.167 214.127 118.221 216.474 117.022 219.444C115.835 222.392 114.357 226.062 111.749 230.258C108.125 236.085 109.488 240.465 110.806 244.702C111.335 246.403 111.834 248.009 112.014 249.683C112.308 252.427 112.149 253.979 111.98 255.621C111.792 257.453 111.598 259.347 112.068 263.171C112.936 270.211 118.657 278.984 118.715 279.071C118.883 279.325 118.745 279.685 118.41 279.871C118.381 279.888 118.351 279.903 118.32 279.916Z" fill="#6FC183"/>
<path d="M158.634 269.086C150.538 272.777 138.424 287.921 131.63 297.759L121.186 302.108C121.337 301.386 121.543 300.435 121.797 299.3C122.848 294.586 124.727 286.702 127.134 278.914C130.027 269.54 133.681 260.309 137.561 256.912C146.515 249.076 159.097 244.31 168.69 249.167C178.282 254.025 170.049 263.881 158.634 269.086Z" fill="#5F5F5F"/>
<path d="M126.24 298.999C125.976 298.933 125.783 298.724 125.797 298.504C125.817 298.156 126.348 289.941 129.236 284.889C130.804 282.15 131.863 281 132.888 279.889C133.752 278.95 134.569 278.062 135.654 276.235C136.304 275.141 136.742 273.909 137.204 272.604C138.386 269.273 139.728 265.494 145.202 263.349C148.792 261.939 151.45 260.322 153.585 259.022C155.867 257.632 157.671 256.535 159.637 256.229C161.746 255.907 163.791 255.26 165.699 254.31C165.827 254.249 165.971 254.229 166.11 254.254C166.25 254.28 166.377 254.349 166.475 254.451C166.519 254.493 166.552 254.545 166.572 254.602C166.591 254.659 166.597 254.72 166.589 254.779C166.58 254.839 166.558 254.896 166.523 254.945C166.488 254.995 166.442 255.035 166.388 255.063C166.28 255.123 163.687 256.524 159.964 257.101C158.221 257.371 156.495 258.421 154.312 259.752C152.129 261.082 149.446 262.713 145.778 264.155C140.683 266.157 139.455 269.603 138.272 272.935C137.797 274.272 137.348 275.536 136.663 276.69C135.539 278.583 134.696 279.498 133.803 280.468C132.803 281.55 131.784 282.671 130.256 285.337C127.445 290.246 126.907 298.567 126.902 298.65C126.887 298.893 126.628 299.056 126.324 299.017L126.24 298.999Z" fill="#787878"/>
<path d="M121.789 299.303C122.044 300.132 122.271 300.89 122.475 301.571L121.178 302.111C121.168 302.155 121.159 302.201 121.15 302.244C121.131 302.213 121.113 302.178 121.094 302.145L109.816 306.843C109.107 305.757 108.074 304.183 106.808 302.272C105.309 300.012 103.479 297.284 101.472 294.336C93.4652 282.591 82.5747 267.396 78.123 264.743C70.6945 260.316 61.6917 267.005 52.2329 254.6C42.774 242.194 14.1415 240.366 16.9858 227.586C19.8301 214.807 52.2914 210.114 79.2108 225.062C85.6228 228.625 91.4998 235.059 96.7349 242.794C109.3 261.372 118.156 287.458 121.789 299.303Z" fill="#6FC183"/>
<path d="M115.239 301.969C115.189 301.989 115.137 302.003 115.084 302.012C114.901 302.043 114.713 302 114.562 301.893C114.411 301.786 114.308 301.623 114.277 301.441C114.254 301.305 111.957 287.823 109.344 281.915C108.08 279.061 104.603 274.242 100.576 268.661C96.1579 262.537 91.1508 255.598 87.4009 248.997C82.9428 241.143 79.9571 240.371 74.5437 238.967C71.4026 238.153 67.4922 237.141 62.1272 234.496C47.753 227.404 26.8954 227.801 26.6866 227.806C26.5008 227.81 26.3208 227.741 26.1863 227.613C26.0518 227.485 25.9738 227.309 25.9694 227.124C25.965 226.939 26.0346 226.76 26.1629 226.626C26.2912 226.492 26.4676 226.414 26.6534 226.409C26.8661 226.409 48.0689 226.001 62.7475 233.242C67.9839 235.826 71.8166 236.818 74.8952 237.615C80.4883 239.062 83.8649 239.936 88.6186 248.304C92.3315 254.84 97.3157 261.746 101.713 267.841C105.789 273.485 109.302 278.359 110.629 281.348C113.314 287.414 115.567 300.646 115.661 301.203C115.689 301.36 115.662 301.521 115.585 301.66C115.508 301.799 115.386 301.908 115.239 301.969ZM112.097 305.892L107.343 307.87C107.18 307.725 107.032 307.566 106.901 307.393C105.214 305.177 102.483 301.868 100.487 300.844C97.3947 299.257 93.497 299.367 90.8782 298.187C88.2594 297.006 84 296.969 80.8156 295.52C77.6312 294.072 78.5993 290.594 75.2493 290.93C71.8994 291.265 66.8923 291.986 66.8923 291.986C66.8923 291.986 55.7993 290.856 55.1484 284.593C54.4975 278.33 71.9618 276.568 82.581 279.815C87.7511 281.396 95.1911 287.985 101.476 294.332C106.119 299.031 110.131 303.593 112.097 305.892ZM338.737 261.885C344.469 267.948 349.708 283.582 352.933 296.136C354.649 302.811 355.795 308.615 356.139 311.648L363.333 312.162L363.389 312.256C363.389 312.227 363.4 312.197 363.406 312.168C364.624 305.52 370.018 274.365 366.706 261.147C366.462 260.112 366.105 259.107 365.643 258.148C359.702 246.302 348.719 236.105 336.763 237.1C324.808 238.094 329.144 251.724 338.737 261.885Z" fill="#419786"/>
<path d="M359.842 294.662C360.115 294.681 360.363 294.543 360.419 294.33C360.508 293.993 362.573 286.017 361.402 280.317C360.766 277.227 360.121 275.805 359.492 274.43C358.963 273.268 358.464 272.171 358.004 270.097C357.729 268.855 357.698 267.547 357.667 266.161C357.584 262.626 357.491 258.621 352.954 254.877C349.982 252.422 347.962 250.058 346.338 248.159C344.603 246.128 343.231 244.525 341.458 243.624C339.554 242.664 337.812 241.414 336.294 239.918C336.192 239.82 336.062 239.757 335.922 239.737C335.781 239.718 335.638 239.743 335.514 239.81C335.459 239.836 335.411 239.875 335.374 239.923C335.337 239.971 335.312 240.027 335.302 240.087C335.291 240.146 335.295 240.208 335.313 240.266C335.33 240.323 335.362 240.376 335.404 240.42C335.489 240.51 337.516 242.648 340.875 244.355C342.447 245.154 343.758 246.689 345.418 248.631C347.078 250.574 349.112 252.958 352.158 255.469C356.38 258.957 356.465 262.612 356.547 266.148C356.58 267.568 356.612 268.908 356.902 270.211C357.379 272.36 357.894 273.493 358.44 274.691C359.047 276.028 359.676 277.411 360.294 280.42C361.432 285.96 359.34 294.038 359.319 294.119C359.257 294.352 359.446 294.589 359.754 294.646C359.783 294.653 359.812 294.659 359.842 294.662ZM326.619 296.678C333.677 297.42 346.687 305.802 354.328 311.519L363.333 312.162C363.035 311.655 362.637 310.988 362.156 310.195C360.162 306.894 356.734 301.415 352.933 296.136C348.361 289.788 343.253 283.732 339.451 282.145C330.689 278.487 319.962 278.067 313.952 284.164C307.941 290.26 316.665 295.631 326.619 296.678Z" fill="#6FC183"/>
<path d="M358.715 311.088C358.8 311.043 358.867 310.97 358.905 310.882C358.943 310.793 358.95 310.695 358.924 310.602C358.819 310.348 356.327 304.269 352.856 301.183C350.973 299.511 349.88 298.909 348.823 298.328C347.737 297.764 346.722 297.072 345.802 296.267C345.038 295.604 344.388 294.783 343.705 293.914C341.964 291.695 339.99 289.181 335.299 288.941C332.226 288.785 329.806 288.234 327.862 287.799C325.782 287.325 324.141 286.952 322.576 287.219C320.901 287.509 319.191 287.537 317.507 287.302C317.395 287.288 317.281 287.31 317.182 287.364C317.083 287.419 317.004 287.503 316.957 287.606C316.933 287.648 316.92 287.696 316.919 287.744C316.918 287.793 316.929 287.841 316.951 287.884C316.973 287.928 317.005 287.965 317.044 287.993C317.084 288.022 317.13 288.04 317.178 288.046C318.963 288.302 320.777 288.273 322.552 287.961C323.938 287.725 325.51 288.088 327.498 288.535C329.486 288.982 331.929 289.542 335.072 289.703C339.436 289.927 341.238 292.221 342.98 294.441C343.68 295.33 344.341 296.173 345.152 296.871C346.103 297.705 347.152 298.42 348.275 299.003C349.302 299.569 350.366 300.153 352.199 301.782C355.573 304.782 358.097 310.935 358.123 310.997C358.195 311.176 358.432 311.234 358.651 311.124C358.674 311.114 358.695 311.102 358.715 311.088Z" fill="#419786"/>
<path d="M362.156 310.195C362.175 310.885 362.196 311.516 362.216 312.082L363.333 312.162L363.389 312.256C363.389 312.227 363.399 312.197 363.406 312.168L373.123 312.862C373.378 311.862 373.76 310.41 374.234 308.646C374.792 306.558 375.48 304.033 376.246 301.298C379.303 290.396 383.67 276.16 386.36 273.027C390.846 267.802 399.352 270.58 403.344 258.807C407.336 247.034 428.511 238.416 423.106 229.479C417.702 220.543 391.975 225.203 375.436 243.31C371.497 247.627 368.693 253.975 366.706 261.143C361.939 278.367 361.886 300.318 362.156 310.195Z" fill="#6FC183"/>
<path d="M367.786 310.553C367.828 310.558 367.871 310.558 367.913 310.553C368.059 310.529 368.19 310.45 368.277 310.331C368.364 310.212 368.4 310.063 368.377 309.918C368.359 309.81 366.663 299.038 367.135 293.913C367.363 291.436 368.764 286.914 370.387 281.678C372.17 275.933 374.185 269.421 375.339 263.483C376.711 256.419 378.768 255.082 382.503 252.653C384.668 251.245 387.367 249.491 390.749 246.134C399.808 237.139 415.673 232.168 415.832 232.115C415.973 232.071 416.091 231.973 416.16 231.843C416.229 231.712 416.243 231.56 416.199 231.419C416.155 231.278 416.057 231.16 415.926 231.091C415.795 231.023 415.642 231.009 415.501 231.052C415.339 231.102 399.212 236.16 389.962 245.346C386.662 248.622 384.017 250.341 381.894 251.722C378.035 254.23 375.706 255.745 374.243 263.275C373.096 269.153 371.093 275.633 369.321 281.352C367.679 286.648 366.264 291.221 366.023 293.814C365.539 299.078 367.203 309.647 367.274 310.094C367.296 310.217 367.358 310.328 367.451 310.411C367.544 310.494 367.662 310.544 367.786 310.553ZM371.158 312.721L375.255 313.014C375.341 312.863 375.412 312.705 375.468 312.541C376.177 310.44 377.4 307.249 378.652 305.969C380.586 303.987 383.56 303.085 385.239 301.526C386.918 299.967 390.13 298.859 392.169 296.965C394.209 295.071 392.59 292.682 395.206 292.087C397.822 291.493 401.793 290.773 401.793 290.773C401.793 290.773 409.888 287.112 408.785 282.214C407.682 277.315 394.032 280.403 386.835 285.543C383.331 288.045 379.381 294.908 376.251 301.293C373.931 306.023 372.063 310.485 371.158 312.721Z" fill="#419786"/>
<path d="M233.722 323.425C316.287 323.425 383.219 318.121 383.219 311.578C383.219 305.036 316.287 299.732 233.722 299.732C151.158 299.732 84.2256 305.036 84.2256 311.578C84.2256 318.121 151.158 323.425 233.722 323.425Z" fill="#7A8DB0"/>
<path d="M121.065 58.1194V301.128C121.065 302.939 121.423 304.733 122.118 306.406C122.813 308.079 123.832 309.6 125.117 310.88C126.402 312.161 127.928 313.177 129.606 313.87C131.285 314.563 133.085 314.919 134.902 314.919H256.309C258.126 314.919 259.925 314.563 261.604 313.87C263.283 313.177 264.808 312.161 266.093 310.881C267.378 309.6 268.397 308.08 269.093 306.406C269.788 304.733 270.146 302.939 270.145 301.128V58.1258C270.145 56.3146 269.788 54.5212 269.092 52.8479C268.397 51.1746 267.378 49.6542 266.093 48.3736C264.808 47.093 263.283 46.0772 261.604 45.3843C259.925 44.6914 258.126 44.335 256.309 44.3353H134.902C133.084 44.334 131.285 44.6898 129.605 45.3823C127.926 46.0749 126.4 47.0906 125.115 48.3714C123.83 49.6522 122.811 51.173 122.116 52.8467C121.421 54.5205 121.064 56.3143 121.065 58.1258V58.1194Z" fill="#2F4171"/>
<path d="M126.22 58.1194V301.128C126.22 302.939 126.577 304.733 127.273 306.406C127.968 308.079 128.987 309.599 130.272 310.88C131.556 312.161 133.082 313.176 134.76 313.869C136.439 314.562 138.238 314.919 140.055 314.919H261.463C263.28 314.919 265.08 314.563 266.759 313.87C268.437 313.177 269.963 312.161 271.248 310.881C272.532 309.6 273.552 308.08 274.247 306.406C274.942 304.733 275.299 302.939 275.299 301.128V58.1258C275.299 56.3147 274.941 54.5214 274.246 52.8482C273.551 51.175 272.532 49.6547 271.247 48.3741C269.962 47.0935 268.437 46.0777 266.758 45.3847C265.08 44.6917 263.28 44.3351 261.463 44.3353H140.055C138.238 44.3341 136.438 44.69 134.759 45.3827C133.08 46.0753 131.554 47.091 130.269 48.3718C128.984 49.6526 127.965 51.1733 127.27 52.847C126.576 54.5207 126.219 56.3145 126.22 58.1258V58.1194Z" fill="#3D5891"/>
<path d="M123.596 104.094H121.685C121.261 104.095 120.84 104.011 120.448 103.849C120.055 103.688 119.699 103.45 119.398 103.151C119.098 102.852 118.86 102.497 118.697 102.106C118.535 101.714 118.451 101.295 118.451 100.872V85.374C118.451 84.9507 118.535 84.5316 118.697 84.1405C118.86 83.7494 119.098 83.394 119.398 83.0947C119.699 82.7953 120.055 82.5579 120.448 82.3959C120.84 82.2339 121.261 82.1505 121.685 82.1505H123.596V104.094ZM275.299 104.094H276.799C277.132 104.095 277.462 104.029 277.769 103.902C278.076 103.776 278.356 103.59 278.591 103.355C278.826 103.121 279.013 102.842 279.14 102.536C279.268 102.229 279.333 101.901 279.333 101.569V84.6732C279.333 84.0035 279.066 83.3612 278.591 82.8876C278.116 82.414 277.471 82.148 276.799 82.148H275.299V104.094ZM275.299 132.886H276.799C277.132 132.887 277.462 132.821 277.769 132.695C278.076 132.568 278.356 132.382 278.591 132.147C278.826 131.913 279.013 131.634 279.14 131.328C279.268 131.021 279.333 130.693 279.333 130.361V113.465C279.333 113.134 279.268 112.805 279.14 112.499C279.013 112.192 278.826 111.914 278.591 111.679C278.356 111.445 278.076 111.259 277.769 111.132C277.462 111.005 277.132 110.94 276.799 110.94H275.299V132.886Z" fill="#292929"/>
<path d="M268.396 57.284V282.141C268.397 282.94 268.24 283.73 267.934 284.468C267.628 285.206 267.179 285.876 266.613 286.44C266.047 287.005 265.374 287.452 264.634 287.757C263.894 288.062 263.101 288.219 262.3 288.218H139.218C138.418 288.218 137.625 288.061 136.885 287.756C136.145 287.451 135.473 287.003 134.907 286.439C134.341 285.874 133.892 285.204 133.585 284.467C133.279 283.73 133.122 282.939 133.122 282.141V57.284C133.122 56.9496 133.15 56.6158 133.206 56.2861C133.377 55.2804 133.797 54.3333 134.429 53.531C135.061 52.7287 135.884 52.0968 136.824 51.6927C137.218 51.5218 137.63 51.394 138.051 51.3118C138.436 51.2381 138.827 51.2011 139.218 51.2013H262.3C263.101 51.2017 263.894 51.3593 264.634 51.6652C265.374 51.971 266.046 52.4192 266.612 52.984C267.178 53.5489 267.627 54.2194 267.933 54.9572C268.24 55.695 268.397 56.4856 268.396 57.284Z" fill="#D1DBED"/>
<path d="M213.471 295.837H190.207C186.792 295.837 184.023 298.596 184.023 302.001V302.002C184.023 305.406 186.792 308.166 190.207 308.166H213.471C216.886 308.166 219.655 305.406 219.655 302.002V302.001C219.655 298.596 216.886 295.837 213.471 295.837Z" fill="#2F4171"/>
<g opacity="0.48">
<path d="M205.042 51.2077C188.799 70.2238 157.011 105.493 133.122 131.821V57.284C133.122 56.9496 133.15 56.6158 133.206 56.2861C133.377 55.2804 133.797 54.3333 134.429 53.531C135.061 52.7287 135.884 52.0968 136.824 51.6927C137.218 51.5218 137.63 51.394 138.051 51.3118C138.436 51.2381 138.827 51.2011 139.218 51.2013L205.042 51.2077ZM268.396 69.9229V172.817L172.728 288.224H139.218C138.418 288.224 137.625 288.067 136.885 287.762C136.145 287.457 135.473 287.009 134.907 286.445C134.341 285.881 133.892 285.211 133.585 284.473C133.279 283.736 133.122 282.946 133.122 282.148V216.905C168.586 178.403 239.271 101.64 268.396 69.9229Z" fill="white"/>
</g>
<path d="M338.717 81.423L337.213 70.4244C337.763 68.4502 337.178 64.5995 333.929 60.9875C330.227 56.8714 327.099 55.7414 324.231 55.7414C322.427 55.7414 320.728 56.1871 319.052 56.6187C318.294 56.9973 317.479 57.2486 316.639 57.3627C314.413 57.6484 304.707 61.4966 303.613 70.6619C302.22 82.3422 304.513 81.4345 299.893 84.2606C295.273 87.0867 294.978 86.0025 294.914 92.5562C294.85 99.1099 287.179 101.824 287.179 101.824L289.693 104.006L293.851 102.016L290.575 105.721C290.575 105.721 323.274 117.22 335.697 110.789L338.207 98.1971C339.311 92.6727 339.483 87.0038 338.717 81.423ZM327.451 111.539L324.755 111.25C324.755 111.25 330.08 98.7646 330.498 93.3548C330.915 87.945 332.144 103.839 327.451 111.539Z" fill="#333333"/>
<path d="M320.978 267.962L334.785 266.389L332.909 296.022H332.956C332.956 296.022 339.41 306.052 341.299 308.377C343.188 310.701 342.631 312.915 340.855 313.248C339.078 313.581 336.388 313.691 332.957 313.248C330.546 312.937 326.043 310.602 323.581 309.241C323.064 308.956 322.636 308.534 322.344 308.023C322.052 307.511 321.907 306.929 321.925 306.34L322.153 296.601L320.978 267.962ZM285.076 302.77C287.241 301.191 293.558 294.703 293.558 294.703V267.182H307.569L304.074 293.484C304.074 293.484 303.032 306.307 302.44 307.686C301.847 309.065 292.971 310.438 290.999 311.422C289.027 312.406 278.966 312.405 277.585 310.438C276.204 308.472 282.906 304.348 285.076 302.77Z" fill="#F5B0A6"/>
<path d="M337.464 157.401C337.464 157.401 343.614 174.083 342.292 205.222C340.97 236.362 336.381 287.677 336.381 287.677L320.951 289.668L315.768 185.827L306.899 289.963L290.815 289.054C290.815 289.054 284.364 192.564 298.253 157.396L337.464 157.401Z" fill="#2C4DA2"/>
<path d="M308.537 160.954C308.421 160.952 308.31 160.905 308.228 160.824C308.145 160.743 308.097 160.633 308.094 160.517C308.091 160.401 308.132 160.289 308.21 160.203C308.288 160.117 308.396 160.065 308.512 160.056L324.396 159.129C324.456 159.126 324.515 159.134 324.571 159.153C324.627 159.173 324.678 159.203 324.723 159.242C324.767 159.281 324.803 159.329 324.829 159.382C324.855 159.435 324.87 159.492 324.874 159.551C324.877 159.61 324.869 159.669 324.849 159.725C324.83 159.781 324.8 159.832 324.761 159.877C324.721 159.921 324.674 159.957 324.62 159.982C324.567 160.008 324.509 160.023 324.45 160.027L308.564 160.954H308.537Z" fill="#4B4B4B"/>
<path d="M315.515 185.574C315.395 185.573 315.281 185.525 315.197 185.441C315.112 185.357 315.065 185.242 315.065 185.123C315.04 183.19 314.867 181.262 314.547 179.355C313.883 175.566 312.691 173.222 311.097 172.578C310.989 172.532 310.903 172.445 310.858 172.336C310.813 172.227 310.812 172.105 310.857 171.996C310.901 171.887 310.987 171.799 311.095 171.753C311.203 171.706 311.326 171.703 311.436 171.745C315.939 173.563 315.967 184.653 315.967 185.126C315.967 185.185 315.955 185.243 315.932 185.298C315.909 185.352 315.876 185.402 315.834 185.443C315.792 185.485 315.742 185.518 315.687 185.54C315.633 185.563 315.574 185.574 315.515 185.574ZM322.974 285.629C322.858 285.629 322.747 285.585 322.663 285.506C322.579 285.427 322.529 285.319 322.523 285.204C322.517 285.089 322.555 284.976 322.63 284.888C322.705 284.801 322.81 284.745 322.925 284.733L335.165 283.405C335.226 283.391 335.29 283.391 335.352 283.404C335.414 283.417 335.473 283.443 335.524 283.479C335.575 283.516 335.618 283.563 335.65 283.618C335.681 283.672 335.701 283.733 335.708 283.795C335.715 283.858 335.709 283.921 335.689 283.981C335.67 284.041 335.638 284.097 335.596 284.144C335.554 284.19 335.502 284.228 335.445 284.254C335.387 284.28 335.325 284.293 335.261 284.293L323.023 285.623L322.974 285.629ZM305.439 284.965L293.558 284.838C293.443 284.832 293.334 284.782 293.255 284.698C293.175 284.615 293.131 284.504 293.131 284.389C293.131 284.274 293.175 284.163 293.255 284.08C293.334 283.996 293.443 283.946 293.558 283.94L305.438 284.067C305.558 284.067 305.672 284.115 305.757 284.199C305.841 284.283 305.889 284.398 305.889 284.517C305.889 284.636 305.841 284.75 305.757 284.835C305.672 284.919 305.558 284.966 305.438 284.966L305.439 284.965ZM334.674 214.638H334.658C334.538 214.633 334.425 214.581 334.344 214.494C334.263 214.407 334.219 214.291 334.223 214.172C334.69 201.377 331.782 179.131 331.752 178.914C331.746 178.8 331.782 178.688 331.855 178.601C331.927 178.513 332.03 178.456 332.143 178.441C332.256 178.426 332.37 178.454 332.463 178.52C332.556 178.586 332.621 178.684 332.644 178.795C332.673 179.02 335.591 201.333 335.121 214.205C335.117 214.32 335.068 214.43 334.985 214.511C334.902 214.591 334.79 214.637 334.674 214.638ZM333.492 280.987C333.433 280.987 333.375 280.974 333.32 280.951C333.266 280.928 333.216 280.894 333.175 280.852C333.133 280.81 333.101 280.76 333.079 280.705C333.057 280.65 333.046 280.592 333.046 280.533C333.053 280.058 333.694 232.994 334.342 225.648C334.345 225.588 334.361 225.529 334.388 225.475C334.415 225.421 334.452 225.373 334.497 225.334C334.543 225.295 334.596 225.265 334.654 225.247C334.711 225.228 334.771 225.222 334.831 225.227C334.891 225.232 334.95 225.249 335.003 225.277C335.056 225.306 335.103 225.344 335.142 225.391C335.18 225.437 335.208 225.491 335.225 225.549C335.242 225.606 335.247 225.667 335.24 225.726C334.594 233.039 333.955 280.066 333.948 280.544C333.948 280.603 333.935 280.661 333.912 280.716C333.889 280.77 333.855 280.819 333.813 280.86C333.77 280.901 333.72 280.934 333.665 280.955C333.61 280.977 333.551 280.988 333.492 280.987ZM294.937 280.987C294.818 280.987 294.704 280.94 294.619 280.857C294.535 280.773 294.487 280.659 294.486 280.54C294.486 280.247 294.34 250.889 295.567 229.986C296.793 209.083 299.755 182.896 299.784 182.63C299.785 182.567 299.799 182.505 299.825 182.448C299.851 182.391 299.889 182.34 299.936 182.298C299.984 182.257 300.039 182.225 300.099 182.206C300.159 182.188 300.223 182.181 300.285 182.188C300.348 182.196 300.408 182.216 300.463 182.247C300.517 182.279 300.564 182.322 300.601 182.373C300.638 182.424 300.663 182.482 300.676 182.544C300.689 182.605 300.689 182.669 300.675 182.73C300.646 182.993 297.687 209.157 296.463 230.033C295.239 250.909 295.382 280.237 295.384 280.531C295.385 280.65 295.338 280.765 295.254 280.849C295.17 280.934 295.055 280.982 294.936 280.982L294.937 280.987Z" fill="#D1DBED"/>
<path d="M303.796 302.577L303.526 299.53C303.526 299.53 300.263 301.884 293.475 303.459C286.687 305.035 285.723 303.958 285.076 302.771C285.076 302.771 276.603 308.279 275.623 309.9C274.379 311.959 279.887 314.774 287.153 313.7C294.467 312.618 303.284 309.206 303.796 309.02C304.308 308.835 303.796 302.577 303.796 302.577ZM336.348 301.22C336.348 301.22 337.668 303.721 335.498 304.833C333.329 305.945 329.052 304.494 326.262 303.026C323.473 301.559 322.077 299.529 322.077 299.529C322.077 299.529 321.365 306.624 321.551 307.922C321.737 309.219 325.643 310.45 327.665 311.35C329.686 312.25 332.767 313.978 336.301 314.596C339.834 315.215 342.314 314.905 343.925 314.04C345.537 313.176 345.041 311.628 342.81 309.098C340.578 306.567 337.389 301.808 336.348 301.22Z" fill="#2F4171"/>
<path d="M293.364 82.1467C293.364 82.1467 295.083 81.3849 293.344 72.5866L288.408 78.442L293.364 82.1467Z" fill="#419786"/>
<path d="M297.92 70.8739L301.637 62.6671C304.592 61.1512 307.546 60.2803 310.497 60.0543L309.243 61.6324L311.918 62.0133L309.891 63.0518C309.891 63.0518 306.525 63.7184 305.804 65.7878C305.083 67.8573 304.363 73.9984 302.631 75.9371L299.746 76.3319L297.92 70.8739Z" fill="#F5B0A6"/>
<path d="M297.92 70.8739L293.344 72.6069L291.224 82.6609L299.74 76.3256L301.753 72.7338L297.92 70.8739Z" fill="#F5B0A6"/>
<path d="M342.161 79.5186C342.161 79.5186 340.043 77.2473 342.161 70.9132L346.438 75.8139L342.161 79.5186Z" fill="#419786"/>
<path d="M339.004 69.8379L333.369 61.9663L325.622 60.02L326.995 61.4889L324.363 62.0768L326.464 62.9553C326.464 62.9553 329.172 63.9405 330.052 65.9491C330.932 67.9576 335.478 73.0068 335.813 75.32L337.614 75.4089L339.004 69.8379Z" fill="#F5B0A6"/>
<path d="M339.004 69.8379L343.001 71.1126L346.598 81.0714L337.614 75.414L335.328 71.9886L339.004 69.8379Z" fill="#F5B0A6"/>
<path d="M311.797 95.1728L294.951 101C293.568 114.401 295.62 127.289 295.843 140.008C295.996 148.809 293.251 160.032 293.587 166.172H342.309C342.398 159.522 339.507 150.897 339.929 141.181C340.514 127.604 344.222 112.098 342.039 98.6782L322.916 95.5309L311.797 95.1728Z" fill="#6FC183"/>
<path d="M293.364 82.1467L278.902 89.1181L303.041 101.866L295.206 123.377C295.206 123.377 252.84 98.5195 260.672 86.2501C268.504 73.9806 293.344 72.5866 293.344 72.5866C292.373 76.676 292.228 80.0036 293.364 82.1467ZM342.161 79.5186L358.821 89.7554L331.125 100.79L340.958 122.261C340.958 122.261 381.362 99.9529 375.768 87.0474C369.985 73.6937 342.161 70.9132 342.161 70.9132C343.56 72.3872 342.985 77.1787 342.161 79.5186Z" fill="#6FC183"/>
<path d="M305.791 104.807C306.698 105.146 307.623 105.436 308.561 105.678C309.496 105.931 310.44 106.146 311.393 106.312C313.296 106.646 315.228 106.849 317.154 106.775C318.115 106.742 319.072 106.644 320.02 106.481C320.963 106.305 321.889 106.05 322.789 105.719C324.593 105.034 326.229 103.971 327.586 102.603L327.723 102.73C326.421 104.217 324.782 105.375 322.943 106.108C322.025 106.47 321.075 106.747 320.105 106.936C319.136 107.115 318.154 107.222 317.169 107.253C315.204 107.298 313.24 107.117 311.316 106.715C309.394 106.328 307.516 105.748 305.712 104.983L305.791 104.807ZM342.95 111.731C342.901 112.635 342.822 113.535 342.741 114.437C342.659 115.338 342.551 116.234 342.458 117.133C342.365 118.032 342.236 118.927 342.113 119.822C341.989 120.717 341.849 121.612 341.681 122.502L341.495 122.481C341.537 121.576 341.622 120.674 341.698 119.774C341.773 118.874 341.882 117.976 341.987 117.077C342.091 116.178 342.205 115.283 342.338 114.388C342.472 113.493 342.601 112.599 342.764 111.708L342.95 111.731ZM294.871 122.904C294.84 121.852 294.815 120.802 294.798 119.751C294.798 118.7 294.775 117.649 294.788 116.597C294.801 115.546 294.81 114.495 294.853 113.442H295.04C295.113 114.494 295.156 115.544 295.193 116.595C295.23 117.646 295.245 118.696 295.273 119.747C295.301 120.799 295.293 121.849 295.29 122.9C295.287 123.951 295.267 125.004 295.219 126.055L294.871 122.904ZM357.198 88.6407C358.354 89.2273 359.479 89.8634 360.606 90.4905L362.289 91.4415C362.849 91.7597 363.412 92.0721 363.978 92.3785L363.907 92.5511C363.286 92.3479 362.681 92.101 362.095 91.8122C361.507 91.5329 360.935 91.2257 360.371 90.9044C359.806 90.5832 359.249 90.2531 358.706 89.8976C358.163 89.5422 357.619 89.1892 357.098 88.7994L357.198 88.6407ZM273.745 91.1038C274.374 90.7724 275.018 90.469 275.655 90.1681C276.292 89.8672 276.948 89.5802 277.599 89.2984C278.25 89.0165 278.906 88.7448 279.568 88.4884C280.231 88.2319 280.894 87.9805 281.572 87.7571L281.646 87.9298C281.019 88.2662 280.372 88.5646 279.735 88.8718C279.098 89.179 278.441 89.4571 277.787 89.7351C277.134 90.0132 276.479 90.2849 275.816 90.5388C275.152 90.7927 274.49 91.0466 273.815 91.2752L273.745 91.1038ZM290.436 74.6332C289.98 75.7461 289.74 76.9352 289.729 78.1373C289.725 78.7332 289.777 79.3282 289.883 79.9147C289.992 80.5066 290.153 81.0877 290.364 81.6516L290.195 81.7328C289.87 81.1959 289.627 80.6135 289.474 80.0049C289.317 79.3936 289.242 78.7643 289.251 78.1335C289.257 76.8702 289.607 75.6322 290.264 74.5519L290.436 74.6332ZM344.576 79.0679C344.911 78.1764 345.181 77.262 345.384 76.3319C345.574 75.3994 345.704 74.4559 345.774 73.507L345.961 73.4994C346.109 74.4752 346.071 75.47 345.851 76.4322C345.648 77.3974 345.273 78.3185 344.743 79.1517L344.576 79.0679ZM303.036 153.133C302.888 153.151 322.397 155.141 332.204 137.866C332.199 137.866 321.853 150.836 303.036 153.133Z" fill="#419786"/>
<path d="M323.579 101.725C323.579 101.725 321.058 103.537 316.597 103.537C312.315 103.537 309.858 101.922 309.858 101.922L309.876 97.1052L309.909 87.7571L322.123 85.8248L323.356 85.628L323.579 101.725Z" fill="#F5B0A6"/>
<path d="M322.123 85.8247C322.082 86.2615 322.021 86.7168 321.942 87.1908C320.33 96.7129 312.412 97.1636 309.875 97.1052L309.909 87.7571L322.123 85.8247Z" fill="#F18A8B"/>
<path d="M330.172 67.9453C331.592 64.7039 328.828 60.3733 324 58.2727C319.172 56.172 314.107 57.0969 312.687 60.3383C311.268 63.5798 314.031 67.9104 318.86 70.011C323.688 72.1117 328.753 71.1868 330.172 67.9453Z" fill="#7A7A7A"/>
<path d="M325.139 74.6738L325.166 74.2383C320.684 73.9679 316.716 71.7512 314.81 68.4553C312.575 64.5868 314.097 60.9291 314.618 59.9007L314.227 59.7039C313.682 60.7818 312.086 64.6147 314.431 68.6724C316.403 72.094 320.505 74.3945 325.139 74.6738Z" fill="#333333"/>
<path d="M321.009 60.0848C312.766 58.2946 307.444 62.9033 305.797 70.4384C305.797 70.4384 305.324 75.6946 305.257 76.0907C305.248 76.1427 301.762 84.3977 308.553 92.2147C308.936 92.6565 309.525 92.8152 310.118 92.9384C322.453 95.489 323.535 83.3097 323.535 83.3097C323.764 82.7104 329.178 76.8994 329.318 76.257C330.965 68.7155 329.252 61.8749 321.009 60.0848Z" fill="#F5B0A6"/>
<path d="M310.346 65.332L310.198 70.6212C310.198 70.6212 320.354 71.9746 324.66 73.4143C324.66 73.4143 321.779 81.0041 323.938 81.8763C323.938 81.8763 332.498 81.8026 331.107 71.0313C329.716 60.26 321.278 58.9142 315.423 59.6315C309.568 60.3488 303.487 64.5068 303.229 70.3343L308.028 70.7545C308.028 70.7545 308.924 66.9648 310.346 65.332Z" fill="#333333"/>
<path d="M315.643 72.9103C316.244 72.3568 319.025 73.7533 319.137 73.8282C319.994 74.3996 319.646 74.981 319.504 75.1715C319.421 75.2832 319.101 75.0852 318.296 74.8312C316.578 74.2904 315.815 74.4897 315.522 73.9324C315.349 73.6035 315.404 73.13 315.643 72.9103ZM309.744 72.499C309.391 71.9264 307.035 72.4774 306.929 72.5117C306.122 72.7732 306.109 73.2442 306.178 73.427C306.217 73.5337 306.515 73.4486 307.211 73.427C308.692 73.3826 309.249 73.7127 309.609 73.3356C309.821 73.1147 309.884 72.7275 309.744 72.499Z" fill="#333333"/>
<path d="M310.364 81.7988C310.319 81.781 309.268 81.3494 309.115 80.4023C308.997 79.676 309.441 78.8787 310.436 78.0421L310.725 78.381C309.872 79.1022 309.467 79.7776 309.555 80.3299C309.667 81.0294 310.523 81.3837 310.531 81.3875L310.364 81.7988Z" fill="#2B2B2B"/>
<path d="M329.745 83.0888C329.108 85.5162 326.815 87.0245 324.609 86.4456C322.403 85.8667 321.142 83.4392 321.779 81.0117C322.416 78.5842 324.716 77.0759 326.916 77.6548C329.116 78.2338 330.382 80.6575 329.745 83.0888Z" fill="#F5B0A6"/>
<path d="M326.158 83.4087C325.895 82.7841 324.716 82.5339 324.285 82.4908L323.999 82.4616L324.097 82.1937C324.479 81.1488 325.031 80.481 325.753 80.2067C326.038 80.1057 326.341 80.0626 326.643 80.08C326.945 80.0975 327.241 80.1751 327.512 80.3083L327.301 80.7006C326.864 80.4947 326.364 80.4674 325.907 80.6245C325.375 80.8301 324.944 81.3215 324.621 82.0896C325.151 82.1861 326.253 82.4705 326.575 83.2322L326.158 83.4087ZM323.62 83.3198C323.791 81.9931 323.845 80.6541 323.783 79.318C322.581 79.2695 321.4 79.6402 320.443 80.3663C319.486 81.0925 318.813 82.1286 318.54 83.2961C318.266 84.4637 318.41 85.6896 318.947 86.7628C319.483 87.8359 320.378 88.6891 321.477 89.1752C323.341 86.4278 323.62 83.3198 323.62 83.3198ZM304.759 77.7716C304.127 80.5512 304.244 83.4482 305.101 86.1675C305.755 85.6656 306.28 85.0144 306.63 84.2685C306.979 83.5227 307.144 82.7041 307.111 81.8815C307.078 81.0589 306.847 80.2563 306.437 79.5411C306.028 78.826 305.453 78.2191 304.759 77.7716Z" fill="#F18A8B"/>
<path d="M317.465 77.7132C317.337 78.2516 316.977 78.6274 316.662 78.5525C316.348 78.4776 316.196 77.9811 316.325 77.4428C316.453 76.9045 316.813 76.5287 317.127 76.6036C317.442 76.6785 317.593 77.1749 317.465 77.7132ZM308.248 76.6874C308.132 77.1787 307.803 77.5215 307.517 77.4492C307.23 77.3768 307.093 76.9286 307.21 76.4335C307.327 75.9383 307.654 75.6006 307.941 75.6717C308.228 75.7428 308.366 76.1973 308.248 76.6874Z" fill="#2B2B2B"/>
<path d="M317.052 60.6459C316.751 60.5685 320.466 60.5342 323.777 62.0425C328.015 63.971 330.316 67.8662 330.04 68.1595C329.829 68.3842 327.847 66.7337 327.478 67.1158C327.223 67.3787 327.971 68.3562 327.781 68.5124C327.437 68.7993 324.711 65.8577 324.236 66.2208C324.027 66.3807 324.447 67.0333 324.236 67.206C323.846 67.5323 322.071 65.4641 319.384 63.9215C316.93 62.5123 314.926 62.2355 314.969 62.0425C315.056 61.6883 321.737 63.1128 321.809 62.8043C321.877 62.5503 319.964 61.3899 317.052 60.6459Z" fill="#545454"/>
<path d="M313.891 87.0169C312.547 85.8743 311.314 85.3474 310.225 85.468C309.595 85.533 309.014 85.8355 308.601 86.3136L308.205 86.0228C308.694 85.4345 309.395 85.0608 310.157 84.9817C311.39 84.8408 312.754 85.3994 314.212 86.6437L313.891 87.0169Z" fill="#2B2B2B"/>
<path d="M346.814 39.1528C346.446 38.8639 346.147 38.4967 345.94 38.078C345.732 37.6594 345.621 37.1997 345.614 36.7327C345.608 36.2658 345.706 35.8032 345.902 35.3789C346.097 34.9545 346.386 34.5791 346.746 34.28C348.544 32.7806 351.458 31.4602 355.789 32.4074C361.359 33.6249 365.538 38.3415 364.389 43.5608C363.591 47.1881 360.391 48.817 356.492 49.5547C355.108 49.834 354.843 50.8623 354.574 52.0837C354.453 52.6335 354.118 53.1129 353.642 53.4165C353.167 53.7201 352.59 53.8229 352.038 53.7024L350.07 53.2721C349.519 53.1509 349.038 52.8166 348.734 52.3426C348.43 51.8686 348.328 51.2938 348.449 50.7443L348.88 48.7827C349.238 47.1538 349.606 45.8372 351.513 45.1288C354.096 44.1804 356.237 44.5321 356.816 41.904C357.207 40.1266 356.147 38.5764 354.476 38.212C352.916 37.8705 351.657 38.3872 350.73 39.1756C349.665 40.0796 348.144 40.1913 347.045 39.3356L346.814 39.1528ZM353.926 60.7437C353.738 61.5793 353.306 62.3409 352.685 62.9324C352.063 63.5238 351.28 63.9188 350.434 64.0675C349.588 64.2162 348.717 64.1119 347.93 63.7678C347.143 63.4238 346.476 62.8553 346.013 62.1341C345.55 61.4128 345.311 60.5711 345.327 59.7149C345.343 58.8586 345.613 58.0262 346.102 57.3226C346.592 56.6189 347.28 56.0754 348.079 55.7606C348.878 55.4458 349.752 55.3738 350.592 55.5535C351.155 55.6723 351.689 55.9013 352.162 56.2275C352.635 56.5536 353.039 56.9703 353.349 57.4532C353.659 57.9362 353.87 58.4758 353.969 59.0407C354.068 59.6056 354.053 60.1845 353.926 60.7437Z" fill="#F19A6D"/>
<path d="M368.329 50.8331C368.185 50.508 368.116 50.1548 368.126 49.7994C368.136 49.4441 368.226 49.0955 368.389 48.7791C368.551 48.4627 368.783 48.1866 369.066 47.9709C369.35 47.7551 369.678 47.6052 370.027 47.5322C371.775 47.164 374.208 47.3138 376.778 49.495C380.09 52.297 381.207 56.9552 378.561 60.0543C376.725 62.2126 373.99 62.1656 371.105 61.2744C370.073 60.9684 369.527 61.5651 368.908 62.2901C368.77 62.4518 368.602 62.585 368.412 62.6819C368.223 62.7788 368.016 62.8375 367.804 62.8547C367.592 62.872 367.379 62.8473 367.176 62.7822C366.974 62.7171 366.786 62.6129 366.624 62.4754L365.454 61.4864C365.127 61.2089 364.923 60.8131 364.888 60.3859C364.854 59.9588 364.99 59.5354 365.269 59.2087L366.261 58.0432C367.086 57.0758 367.805 56.3216 369.341 56.5197C371.417 56.8016 372.73 57.8007 374.061 56.2391C374.96 55.1841 374.804 53.7647 373.806 52.9242C373.419 52.5893 372.957 52.3522 372.459 52.2329C371.96 52.1136 371.44 52.1155 370.943 52.2386C369.904 52.4671 368.839 52.0037 368.408 51.0337L368.329 50.8331ZM365.369 67.8801C364.944 68.3746 364.381 68.7324 363.751 68.9086C363.122 69.0849 362.455 69.0715 361.833 68.8704C361.211 68.6692 360.663 68.2892 360.258 67.7782C359.853 67.2672 359.608 66.648 359.555 65.9987C359.502 65.3494 359.643 64.6989 359.96 64.1293C360.277 63.5596 360.756 63.0962 361.337 62.7974C361.918 62.4986 362.574 62.3778 363.224 62.4502C363.873 62.5226 364.487 62.7849 364.987 63.2042C365.322 63.4849 365.598 63.8291 365.799 64.2168C365.999 64.6044 366.121 65.0279 366.156 65.4627C366.192 65.8975 366.141 66.335 366.006 66.75C365.87 67.1649 365.654 67.549 365.369 67.8801Z" fill="#F3CE90"/>
<path d="M242.033 119.011H162.067C159.439 119.011 157.309 121.134 157.309 123.753C157.309 126.372 159.439 128.495 162.067 128.495H242.033C244.661 128.495 246.791 126.372 246.791 123.753C246.791 121.134 244.661 119.011 242.033 119.011Z" fill="white"/>
<path d="M242.033 143.776H162.068C160.807 143.772 159.599 143.271 158.707 142.383C157.816 141.495 157.313 140.291 157.309 139.034C157.313 137.777 157.816 136.573 158.707 135.685C159.599 134.796 160.807 134.296 162.068 134.292H242.033C243.294 134.296 244.502 134.796 245.393 135.685C246.285 136.573 246.787 137.777 246.791 139.034C246.787 140.29 246.285 141.494 245.393 142.383C244.502 143.271 243.294 143.772 242.033 143.776Z" fill="white"/>
<path d="M177.002 139.448C177.002 139.778 176.904 140.101 176.72 140.375C176.536 140.65 176.274 140.864 175.968 140.99C175.662 141.117 175.325 141.15 175.001 141.085C174.676 141.021 174.377 140.862 174.143 140.628C173.909 140.395 173.749 140.097 173.685 139.774C173.62 139.45 173.653 139.114 173.78 138.809C173.907 138.504 174.121 138.243 174.397 138.06C174.672 137.876 174.996 137.778 175.327 137.778C175.772 137.778 176.198 137.954 176.512 138.267C176.826 138.58 177.002 139.005 177.002 139.448ZM182.742 139.448C182.742 139.778 182.644 140.101 182.46 140.375C182.275 140.65 182.014 140.864 181.708 140.99C181.402 141.117 181.065 141.15 180.74 141.085C180.415 141.021 180.117 140.862 179.882 140.628C179.648 140.395 179.489 140.097 179.424 139.774C179.359 139.45 179.393 139.114 179.519 138.809C179.646 138.504 179.861 138.243 180.136 138.06C180.412 137.876 180.736 137.778 181.067 137.778C181.511 137.778 181.937 137.954 182.251 138.267C182.565 138.58 182.742 139.005 182.742 139.448ZM188.485 139.448C188.485 139.778 188.387 140.101 188.203 140.375C188.019 140.65 187.757 140.864 187.451 140.99C187.145 141.117 186.808 141.15 186.483 141.085C186.158 141.021 185.86 140.862 185.626 140.628C185.391 140.395 185.232 140.097 185.167 139.774C185.103 139.45 185.136 139.114 185.263 138.809C185.389 138.504 185.604 138.243 185.88 138.06C186.155 137.876 186.479 137.778 186.81 137.778C187.254 137.778 187.68 137.954 187.995 138.267C188.309 138.58 188.485 139.005 188.485 139.448ZM194.228 139.448C194.228 139.778 194.13 140.101 193.946 140.375C193.762 140.65 193.5 140.864 193.194 140.99C192.888 141.117 192.552 141.15 192.227 141.085C191.902 141.021 191.603 140.862 191.369 140.628C191.135 140.395 190.975 140.097 190.911 139.774C190.846 139.45 190.879 139.114 191.006 138.809C191.133 138.504 191.347 138.243 191.623 138.06C191.898 137.876 192.222 137.778 192.553 137.778C192.998 137.778 193.424 137.954 193.738 138.267C194.052 138.58 194.228 139.005 194.228 139.448ZM199.97 139.448C199.97 139.778 199.872 140.101 199.688 140.375C199.504 140.65 199.243 140.864 198.936 140.99C198.63 141.117 198.294 141.15 197.969 141.085C197.644 141.021 197.345 140.862 197.111 140.628C196.877 140.395 196.717 140.097 196.653 139.774C196.588 139.45 196.621 139.114 196.748 138.809C196.875 138.504 197.089 138.243 197.365 138.06C197.64 137.876 197.964 137.778 198.295 137.778C198.74 137.778 199.166 137.954 199.48 138.267C199.794 138.58 199.97 139.005 199.97 139.448ZM205.714 139.448C205.714 139.778 205.616 140.101 205.431 140.375C205.247 140.65 204.986 140.864 204.68 140.99C204.374 141.117 204.037 141.15 203.712 141.085C203.387 141.021 203.089 140.862 202.854 140.628C202.62 140.395 202.461 140.097 202.396 139.774C202.331 139.45 202.365 139.114 202.491 138.809C202.618 138.504 202.833 138.243 203.108 138.06C203.384 137.876 203.708 137.778 204.039 137.778C204.483 137.778 204.909 137.954 205.223 138.267C205.537 138.58 205.714 139.005 205.714 139.448ZM211.457 139.448C211.457 139.778 211.359 140.101 211.175 140.375C210.991 140.65 210.729 140.864 210.423 140.99C210.117 141.117 209.78 141.15 209.455 141.085C209.13 141.021 208.832 140.862 208.598 140.628C208.363 140.395 208.204 140.097 208.139 139.774C208.075 139.45 208.108 139.114 208.235 138.809C208.361 138.504 208.576 138.243 208.852 138.06C209.127 137.876 209.451 137.778 209.782 137.778C210.226 137.778 210.652 137.954 210.967 138.267C211.281 138.58 211.457 139.005 211.457 139.448ZM217.2 139.448C217.2 139.778 217.102 140.101 216.918 140.375C216.734 140.65 216.472 140.864 216.166 140.99C215.86 141.117 215.524 141.15 215.199 141.085C214.874 141.021 214.575 140.862 214.341 140.628C214.107 140.395 213.947 140.097 213.883 139.774C213.818 139.45 213.851 139.114 213.978 138.809C214.105 138.504 214.319 138.243 214.595 138.06C214.87 137.876 215.194 137.778 215.525 137.778C215.745 137.778 215.963 137.821 216.166 137.905C216.37 137.989 216.554 138.112 216.71 138.267C216.865 138.422 216.989 138.606 217.073 138.809C217.157 139.011 217.2 139.229 217.2 139.448ZM222.942 139.448C222.942 139.778 222.844 140.101 222.66 140.375C222.476 140.65 222.215 140.864 221.908 140.99C221.602 141.117 221.266 141.15 220.941 141.085C220.616 141.021 220.317 140.862 220.083 140.628C219.849 140.395 219.689 140.097 219.625 139.774C219.56 139.45 219.593 139.114 219.72 138.809C219.847 138.504 220.061 138.243 220.337 138.06C220.612 137.876 220.936 137.778 221.267 137.778C221.712 137.778 222.138 137.954 222.452 138.267C222.766 138.58 222.942 139.005 222.942 139.448Z" fill="#99B1DA"/>
<path d="M215.076 100.375C222.255 93.219 222.255 81.6176 215.076 74.462C207.897 67.3065 196.257 67.3064 189.079 74.462C181.9 81.6176 181.9 93.219 189.079 100.375C196.257 107.53 207.897 107.53 215.076 100.375Z" fill="white"/>
<path d="M202.103 86.6817C202.972 86.6752 203.828 86.4745 204.609 86.0944C205.389 85.7143 206.074 85.1644 206.613 84.4853C207.429 83.4712 207.868 82.2073 207.857 80.9076C207.857 77.7437 205.279 75.1283 202.103 75.1283C200.566 75.13 199.092 75.7394 198.005 76.8229C196.918 77.9063 196.307 79.3753 196.305 80.9076C196.293 82.2074 196.732 83.4715 197.548 84.4853C198.093 85.1691 198.785 85.7217 199.574 86.102C200.363 86.4823 201.227 86.6804 202.103 86.6817ZM212.292 96.9795C212.292 100.627 191.858 100.627 191.858 96.9795V92.7301C192.666 86.9192 210.626 86.6754 212.291 92.7301L212.292 96.9795Z" fill="#99B1DA"/>
<path d="M166.033 138.153V137.899C166.039 137.65 165.996 137.402 165.905 137.17C165.813 136.938 165.677 136.726 165.502 136.548C165.328 136.369 165.119 136.228 164.889 136.131C164.659 136.034 164.411 135.984 164.161 135.984C163.911 135.984 163.664 136.034 163.433 136.131C163.203 136.228 162.994 136.369 162.82 136.548C162.645 136.726 162.509 136.938 162.418 137.17C162.326 137.402 162.283 137.65 162.289 137.899V138.153H162.005V141.516C162.005 142.097 166.336 142.097 166.336 141.516V138.153H166.033ZM162.957 137.899C162.957 137.253 163.355 136.667 164.162 136.667C164.968 136.667 165.378 137.216 165.378 137.899V138.153H162.958L162.957 137.899ZM164.485 139.848V140.819C164.484 140.86 164.474 140.9 164.457 140.938C164.44 140.975 164.415 141.008 164.385 141.036C164.354 141.064 164.319 141.085 164.28 141.099C164.241 141.113 164.2 141.119 164.159 141.117C164.119 141.119 164.08 141.112 164.043 141.098C164.006 141.083 163.972 141.062 163.944 141.034C163.916 141.005 163.894 140.972 163.879 140.935C163.865 140.898 163.858 140.859 163.86 140.819V139.848C163.769 139.799 163.694 139.727 163.641 139.639C163.588 139.551 163.56 139.451 163.559 139.349C163.559 139.245 163.585 139.143 163.636 139.052C163.687 138.962 163.761 138.886 163.851 138.833C163.94 138.78 164.042 138.75 164.146 138.748C164.25 138.746 164.353 138.77 164.444 138.82C164.536 138.869 164.613 138.941 164.668 139.029C164.723 139.118 164.754 139.218 164.759 139.322C164.763 139.426 164.74 139.529 164.692 139.621C164.644 139.713 164.573 139.791 164.485 139.848ZM164.166 123.409C164.349 123.408 164.53 123.365 164.694 123.285C164.859 123.204 165.004 123.088 165.117 122.944C165.289 122.731 165.382 122.464 165.379 122.19C165.385 122.027 165.357 121.865 165.298 121.713C165.239 121.561 165.15 121.423 165.037 121.306C164.923 121.189 164.787 121.096 164.637 121.032C164.486 120.969 164.324 120.936 164.161 120.936C163.998 120.936 163.836 120.969 163.685 121.032C163.535 121.096 163.399 121.189 163.285 121.306C163.172 121.423 163.083 121.561 163.024 121.713C162.965 121.865 162.937 122.027 162.943 122.19C162.94 122.464 163.032 122.73 163.204 122.944C163.319 123.089 163.465 123.206 163.631 123.286C163.798 123.367 163.98 123.409 164.166 123.409ZM166.316 125.582C166.316 126.352 161.985 126.352 161.985 125.582L162.009 124.686C162.18 123.46 165.969 123.408 166.321 124.686L166.316 125.582Z" fill="#3D5891"/>
<path d="M192.177 125.144H174.653C174.281 125.144 173.925 124.997 173.662 124.735C173.399 124.473 173.251 124.118 173.251 123.748C173.251 123.377 173.399 123.022 173.662 122.76C173.925 122.498 174.281 122.351 174.653 122.351H192.177C192.548 122.351 192.905 122.498 193.167 122.76C193.43 123.022 193.578 123.377 193.578 123.748C193.578 124.118 193.43 124.473 193.167 124.735C192.905 124.997 192.548 125.144 192.177 125.144ZM215.289 125.144H197.765C197.393 125.144 197.037 124.997 196.774 124.735C196.511 124.473 196.364 124.118 196.364 123.748C196.364 123.377 196.511 123.022 196.774 122.76C197.037 122.498 197.393 122.351 197.765 122.351H215.289C215.66 122.351 216.017 122.498 216.28 122.76C216.542 123.022 216.69 123.377 216.69 123.748C216.69 124.118 216.542 124.473 216.28 124.735C216.017 124.997 215.66 125.144 215.289 125.144Z" fill="#99B1DA"/>
<path d="M236.558 156.685H167.541C165.051 156.685 163.032 158.697 163.032 161.18V171.745C163.032 174.227 165.051 176.24 167.541 176.24H236.558C239.048 176.24 241.067 174.227 241.067 171.745V161.18C241.067 158.697 239.048 156.685 236.558 156.685Z" fill="#496DAD"/>
<path d="M173.192 163.836V165.605H177.148V167.628H173.192V170.675H170.554V161.814H177.452V163.836H173.192ZM187.586 166.236C187.586 168.84 185.532 170.787 182.746 170.787C179.96 170.787 177.906 168.853 177.906 166.236C177.906 163.62 179.96 161.736 182.746 161.736C185.532 161.736 187.586 163.645 187.586 166.236ZM180.598 166.249C180.598 167.589 181.617 168.587 182.779 168.587C183.941 168.587 184.885 167.589 184.885 166.249C184.885 164.91 183.946 163.936 182.779 163.936C181.612 163.936 180.598 164.908 180.598 166.248V166.249ZM192.609 168.279H191.207V170.667H188.571V161.807H192.717C195.101 161.807 196.471 162.949 196.471 164.954C196.471 166.268 195.938 167.229 194.974 167.773L196.775 170.667H193.783L192.609 168.279ZM192.722 166.257C193.509 166.257 193.965 165.826 193.965 165.03C193.965 164.258 193.509 163.829 192.722 163.829H191.213V166.257H192.722ZM205.848 166.084V169.649C204.885 170.307 203.312 170.792 202.043 170.792C199.292 170.792 197.263 168.858 197.263 166.254C197.263 163.65 199.356 161.741 202.222 161.741C203.578 161.741 205.037 162.259 205.975 163.08L204.479 164.888C203.87 164.307 202.982 163.928 202.209 163.928C200.927 163.928 199.964 164.926 199.964 166.254C199.964 167.606 200.94 168.592 202.234 168.592C202.7 168.567 203.157 168.452 203.578 168.251V166.093L205.848 166.084ZM216.337 166.236C216.337 168.84 214.283 170.787 211.497 170.787C208.711 170.787 206.657 168.853 206.657 166.236C206.657 163.62 208.711 161.736 211.497 161.736C214.283 161.736 216.337 163.645 216.337 166.236ZM209.349 166.249C209.349 167.589 210.368 168.587 211.53 168.587C212.692 168.587 213.636 167.589 213.636 166.249C213.636 164.91 212.697 163.936 211.53 163.936C210.363 163.936 209.356 164.908 209.356 166.248L209.349 166.249ZM221.537 163.911V170.672H218.886V163.911H216.312V161.812H224.124V163.911H221.537ZM224.225 164.808C224.238 162.873 225.354 161.736 227.256 161.736C229.019 161.736 230.085 162.544 230.085 163.985C230.085 165.857 228.174 166.16 228.174 167.576H226.263C226.263 165.655 227.735 165.503 227.735 164.402C227.735 163.947 227.48 163.744 227.024 163.744C226.479 163.744 226.2 164.086 226.2 164.807L224.225 164.808ZM228.373 169.573C228.381 169.733 228.356 169.893 228.298 170.042C228.241 170.192 228.152 170.328 228.039 170.441C227.925 170.554 227.789 170.642 227.639 170.7C227.489 170.757 227.328 170.782 227.168 170.774C226.47 170.774 225.988 170.281 225.988 169.573C225.981 169.417 226.006 169.26 226.062 169.114C226.119 168.968 226.205 168.835 226.316 168.724C226.428 168.614 226.561 168.527 226.707 168.471C226.854 168.415 227.011 168.39 227.168 168.397C227.877 168.397 228.373 168.877 228.373 169.573Z" fill="white"/>
<path d="M236.14 225.471V275.448C236.14 281.004 167.961 281.004 167.961 275.448V225.471H236.14Z" fill="#7A8DB0"/>
<path d="M209.826 247.558C211.605 243.278 209.566 238.37 205.271 236.597C200.976 234.824 196.053 236.857 194.274 241.137C192.495 245.418 194.534 250.326 198.829 252.099C203.124 253.872 208.047 251.839 209.826 247.558Z" fill="#5F6E87"/>
<path d="M198.6 246.933H205.5V266.176C205.5 266.628 205.411 267.075 205.237 267.492C205.064 267.91 204.81 268.289 204.489 268.608C204.169 268.927 203.788 269.181 203.37 269.354C202.951 269.526 202.502 269.615 202.049 269.615C201.596 269.615 201.148 269.526 200.729 269.354C200.31 269.181 199.93 268.927 199.609 268.608C199.289 268.289 199.035 267.91 198.861 267.492C198.688 267.075 198.599 266.628 198.599 266.176V246.933H198.6ZM230.163 225.471H223.264V218.544C223.264 206.885 213.747 197.399 202.052 197.399C190.356 197.399 180.836 206.885 180.836 218.544V225.471H173.937V218.544C173.937 203.092 186.547 190.521 202.052 190.521C217.557 190.521 230.163 203.091 230.163 218.544V225.471Z" fill="#5F6E87"/>
<path opacity="0.48" d="M236.14 225.471V275.448C236.14 281.004 167.961 281.004 167.961 275.448V273.621C181.124 275.553 220.266 274.077 223.264 266.384C226.801 257.315 224.001 225.467 224.001 225.467L236.14 225.471Z" fill="#5F6E87"/>
<path d="M222.828 206.009C222.686 206.01 222.546 205.973 222.423 205.904C222.299 205.835 222.195 205.735 222.121 205.615C217.167 197.545 209.968 195.148 204.798 194.556C204.688 194.547 204.58 194.516 204.482 194.464C204.384 194.413 204.298 194.342 204.228 194.257C204.158 194.171 204.105 194.073 204.074 193.967C204.043 193.861 204.033 193.75 204.046 193.64C204.059 193.53 204.093 193.424 204.148 193.328C204.202 193.232 204.275 193.148 204.363 193.081C204.451 193.013 204.551 192.964 204.658 192.936C204.765 192.908 204.877 192.902 204.987 192.917C210.518 193.552 218.227 196.117 223.53 204.753C223.586 204.845 223.624 204.948 223.641 205.055C223.658 205.162 223.654 205.271 223.628 205.377C223.603 205.482 223.556 205.582 223.492 205.669C223.428 205.757 223.347 205.831 223.255 205.888C223.126 205.967 222.979 206.009 222.828 206.009Z" fill="white"/>
<path d="M361.95 137.545H441.423C442.398 137.545 443.333 137.931 444.023 138.618C444.712 139.305 445.099 140.237 445.099 141.209V179.589C445.099 180.56 444.712 181.492 444.023 182.179C443.334 182.866 442.399 183.252 441.424 183.252H361.95C360.976 183.252 360.041 182.866 359.351 182.179C358.662 181.491 358.274 180.559 358.274 179.588V141.207C358.275 140.236 358.662 139.304 359.352 138.617C360.041 137.931 360.976 137.545 361.95 137.545Z" fill="#F3CE90"/>
<path d="M366.401 193.205V181.796H378.845L366.401 193.205Z" fill="#F3CE90"/>
<path d="M373.353 152.885L369.955 144.03H372.77L374.799 150.16L376.828 144.03H379.528L376.089 152.89L373.353 152.885ZM382.865 146.047V147.437H387.069V149.46H382.865V150.857H387.62V152.879H380.232V144.03H387.499V146.052L382.865 146.047ZM392.921 150.496H391.52V152.885H388.882V144.03H393.03C395.414 144.03 396.783 145.173 396.783 147.177C396.783 148.491 396.251 149.452 395.287 149.996L397.088 152.89H394.095L392.921 150.496ZM393.036 148.473C393.822 148.473 394.279 148.044 394.279 147.248C394.279 146.476 393.822 146.047 393.036 146.047H391.527V148.473H393.036ZM398.084 152.885V144.03H400.722V152.89L398.084 152.885ZM404.856 146.047V147.817H408.813V149.84H404.856V152.887H402.219V144.03H409.117V146.052L404.856 146.047ZM410.069 152.885V144.03H412.707V152.89L410.069 152.885ZM416.841 146.047V147.437H421.038V149.46H416.841V150.857H421.596V152.879H414.208V144.03H421.475V146.052L416.841 146.047ZM426.759 144.03C429.637 144.03 431.539 145.787 431.539 148.453C431.539 151.119 429.599 152.897 426.669 152.897H422.865V144.03H426.759ZM425.503 150.83H426.834C428.039 150.83 428.85 149.894 428.85 148.479C428.85 147.063 427.976 146.102 426.708 146.102H425.503V150.83Z" fill="white"/>
<path d="M434.478 161.359H370.53C369.423 161.359 368.526 162.253 368.526 163.356V172.461C368.526 173.564 369.423 174.458 370.53 174.458H434.478C435.585 174.458 436.482 173.564 436.482 172.461V163.356C436.482 162.253 435.585 161.359 434.478 161.359Z" fill="white"/>
<path d="M384.113 168.293L385.564 169.074L384.738 170.438L383.243 169.549L383.286 171.18H381.664L381.707 169.549L380.213 170.438L379.402 169.077L380.854 168.296L379.402 167.502L380.213 166.141L381.707 167.049L381.664 165.399H383.286L383.243 167.049L384.738 166.141L385.562 167.502L384.113 168.293ZM397.46 168.293L398.911 169.074L398.085 170.435L396.591 169.546L396.634 171.178H395.013L395.055 169.546L393.561 170.435L392.751 169.074L394.201 168.293L392.751 167.5L393.561 166.139L395.055 167.047L395.013 165.396H396.634L396.591 167.047L398.085 166.139L398.911 167.5L397.46 168.293ZM410.807 168.293L412.258 169.074L411.433 170.435L409.94 169.546L409.982 171.178H408.36L408.402 169.546L406.91 170.435L406.098 169.074L407.549 168.293L406.098 167.5L406.91 166.139L408.402 167.047L408.36 165.396H409.982L409.94 167.047L411.433 166.139L412.258 167.5L410.807 168.293ZM424.155 168.293L425.607 169.074L424.782 170.435L423.287 169.546L423.331 171.178H421.708L421.751 169.546L420.257 170.435L419.446 169.074L420.898 168.293L419.446 167.5L420.257 166.139L421.751 167.047L421.708 165.396H423.331L423.287 167.047L424.782 166.139L425.607 167.5L424.155 168.293Z" fill="#F19A6D"/>
<path d="M166.592 54.873C166.592 54.873 161.704 93.8893 153.668 102.669C144.022 113.206 137.021 111.661 133.127 117.09C133.125 117.09 133.123 117.091 133.121 117.093C133.119 117.094 133.118 117.097 133.118 117.099C129.225 111.661 122.224 113.209 112.569 102.669C104.533 93.8893 99.6533 54.873 99.6533 54.873C120.827 44.6273 133.118 33.145 133.118 33.145L133.127 33.1526C133.504 33.5056 145.748 44.7911 166.592 54.873Z" fill="#C3C3C3"/>
<path d="M133.127 33.1526V117.09C133.125 117.09 133.123 117.091 133.121 117.093C133.119 117.094 133.118 117.097 133.118 117.099C129.225 111.661 122.224 113.209 112.569 102.669C104.533 93.8893 99.6533 54.873 99.6533 54.873C120.827 44.6273 133.118 33.145 133.118 33.145L133.127 33.1526ZM166.592 54.873C166.592 54.873 161.704 93.8893 153.668 102.669C144.022 113.206 137.021 111.661 133.127 117.09V33.1526C133.504 33.5056 145.748 44.7911 166.592 54.873Z" fill="#F4B558"/>
<path d="M161.399 58.0153C161.399 58.0153 157.269 90.9743 150.481 98.3888C142.329 107.299 136.409 105.99 133.118 110.577C129.828 105.987 123.91 107.296 115.754 98.3888C108.968 90.9692 104.846 58.0153 104.846 58.0153C122.732 49.3579 133.123 39.6593 133.123 39.6593C133.123 39.6593 143.513 49.3579 161.399 58.0153Z" fill="#FCE8CD"/>
<path d="M127.279 75.2299L137.009 99.2851L142.408 101.32L145.07 95.8242L144.555 95.023L144.844 91.9049L142.167 89.1448L142.18 85.4794L139.388 83.4696L139.972 80.048L137.516 78.0268L135.238 71.5252L127.279 75.2299Z" fill="#F3CE90"/>
<path opacity="0.43" d="M129.027 74.3742L127.244 75.2058L136.974 99.2623L140.094 100.453C135.784 92.0433 132.137 83.297 129.027 74.3742Z" fill="#F19A6D"/>
<path opacity="0.53" d="M137.474 78.0103L135.197 71.5087L132.177 72.9141C135.262 81.955 138.935 90.7991 143.318 99.2889L144.974 95.8407L144.465 95.0396L144.779 91.9049L142.116 89.1359L142.135 85.4667L139.345 83.4544L139.931 80.0265L137.474 78.0103Z" fill="#D18C66"/>
<path d="M136.297 71.2575L125.997 76.0013L127.147 78.4815L137.447 73.7377L136.297 71.2575Z" fill="#C5C5C5"/>
<path d="M136.297 71.2575L125.997 76.0013L127.147 78.4815L137.447 73.7377L136.297 71.2575Z" fill="#F3CE90"/>
<path d="M120.743 54.2395C118.732 55.4478 117.125 57.2232 116.127 59.3414C115.128 61.4595 114.782 63.8252 115.132 66.1395C115.482 68.4538 116.512 70.6127 118.093 72.3432C119.674 74.0738 121.734 75.2984 124.013 75.8622C126.291 76.426 128.687 76.3037 130.896 75.5107C133.105 74.7177 135.029 73.2897 136.424 71.4071C137.819 69.5246 138.623 67.272 138.733 64.9342C138.844 62.5964 138.257 60.2783 137.047 58.273C136.242 56.9407 135.182 55.7794 133.927 54.8555C132.673 53.9317 131.247 53.2633 129.733 52.8888C128.219 52.5142 126.646 52.4407 125.103 52.6724C123.56 52.9042 122.079 53.4367 120.743 54.2395ZM125.988 60.6167C125.502 60.9088 124.94 61.0506 124.373 61.0242C123.806 60.9978 123.259 60.8044 122.803 60.4684C122.346 60.1325 121.999 59.669 121.807 59.1368C121.614 58.6045 121.585 58.0273 121.721 57.4782C121.858 56.9291 122.155 56.4326 122.575 56.0518C122.994 55.6709 123.518 55.4226 124.079 55.3383C124.641 55.2541 125.214 55.3377 125.728 55.5784C126.242 55.8192 126.672 56.2065 126.965 56.6911C127.358 57.3408 127.475 58.1194 127.292 58.8556C127.109 59.5917 126.64 60.2252 125.988 60.6167Z" fill="#F3CE90"/>
<path opacity="0.43" d="M117.477 66.6334C116.391 64.9436 115.692 63.0364 115.43 61.0471C114.639 63.7543 114.843 66.6541 116.007 69.2243C117.171 71.7944 119.217 73.8659 121.777 75.0658C124.337 76.2656 127.242 76.5149 129.97 75.7687C132.699 75.0225 135.07 73.3299 136.657 70.9957C130.233 74.9328 121.56 72.9852 117.477 66.6334Z" fill="#F19A6D"/>
<path d="M256.124 144.751C259.295 144.751 261.866 142.189 261.866 139.028C261.866 135.867 259.295 133.304 256.124 133.304C252.953 133.304 250.382 135.867 250.382 139.028C250.382 142.189 252.953 144.751 256.124 144.751Z" fill="#3D5891"/>
<path d="M255.405 141.633C255.399 141.535 255.413 141.436 255.447 141.343C255.48 141.251 255.532 141.166 255.599 141.093C255.666 141.021 255.747 140.963 255.837 140.923C255.927 140.883 256.025 140.861 256.123 140.86C256.535 140.86 256.841 141.166 256.841 141.633C256.841 142.072 256.563 142.395 256.132 142.395C256.034 142.394 255.936 142.374 255.846 142.335C255.755 142.296 255.673 142.24 255.605 142.169C255.537 142.097 255.485 142.013 255.45 141.921C255.416 141.829 255.4 141.731 255.405 141.633ZM255.587 140.236L255.443 135.895H256.813L256.658 140.236H255.587Z" fill="white"/>
<path d="M96.3908 154.797H45.2856C42.0251 154.797 39.3818 157.432 39.3818 160.682V191.558C39.3818 194.807 42.0251 197.442 45.2856 197.442H96.3908C99.6514 197.442 102.295 194.807 102.295 191.558V160.682C102.295 157.432 99.6514 154.797 96.3908 154.797Z" fill="#99B1DA"/>
<path d="M77.0977 194.516L82.7225 209.181C83.4345 211.037 86.0699 211.037 86.7819 209.181L92.4081 194.516H77.0977Z" fill="#99B1DA"/>
<path d="M67.8428 185.785C67.8428 183.831 69.2439 182.555 70.8424 182.555C72.562 182.555 73.8421 183.824 73.8421 185.785C73.8421 187.618 72.6817 188.973 70.8819 188.973C69.1585 188.974 67.8428 187.618 67.8428 185.785ZM68.607 179.924L68.0058 161.785H73.7262L73.0893 179.924H68.607Z" fill="white"/>
<path d="M395.917 122.708C403.371 122.708 409.414 116.685 409.414 109.255C409.414 101.826 403.371 95.8026 395.917 95.8026C388.463 95.8026 382.42 101.826 382.42 109.255C382.42 116.685 388.463 122.708 395.917 122.708Z" fill="#99B1DA"/>
<path d="M398.634 114.829L396.101 111.596L393.605 114.829H389.657L394.115 109.556L389.845 104.407H393.742L396.187 107.416L398.598 104.407H402.337L398.075 109.441L402.621 114.829H398.634Z" fill="white"/>
</svg>
