<svg width="60" height="60" viewBox="0 0 60 60" fill="none" xmlns="http://www.w3.org/2000/svg">
<path d="M45.6958 59.9895H14.1839C14.1365 59.9597 14.0832 59.9405 14.0277 59.9332C11.2568 59.788 9.4981 58.1651 8.20951 55.8971C7.64423 54.9091 7.34902 53.7896 7.35357 52.6513C7.35357 37.5523 7.35357 22.4532 7.35357 7.35416C7.35357 4.45514 9.52934 1.37962 12.244 0.375276C12.9094 0.128484 13.6216 0.167527 14.3026 0.0175781H35.3887C35.712 0.417443 35.662 0.898528 35.6636 1.36243C35.6636 6.18059 35.6636 10.9998 35.6636 15.82C35.6636 17.3117 35.6636 17.3117 37.1536 17.3117C41.5031 17.3117 45.8536 17.3117 50.2051 17.3117C50.8878 17.29 51.5711 17.3303 52.2466 17.432C52.5371 17.5257 52.6058 17.76 52.6261 18.0271C52.648 18.3395 52.6464 18.6519 52.6464 18.9643C52.6464 30.1063 52.6464 41.2432 52.6464 52.3749C52.6464 55.6409 50.9877 57.9261 48.1918 59.4631C47.4124 59.8723 46.5299 59.8286 45.6958 59.9895Z" fill="#0263D0"/>
<path d="M35.5042 0.00976562C37.1395 1.72793 38.7686 3.46954 40.4117 5.1877C44.2645 9.21967 48.124 13.2485 51.9903 17.2742C52.084 17.3711 52.1653 17.4804 52.2527 17.5866H36.1648C35.4026 17.5866 35.4011 17.5866 35.3995 16.8056L35.3901 0.0113291L35.5042 0.00976562Z" fill="#4E91DE"/>
<path d="M14.8053 37.8477C14.8053 36.3654 14.8053 34.8799 14.8053 33.3992C14.8053 33.1883 14.7022 32.8791 15.0927 32.8915C16.6109 32.9368 18.1416 32.726 19.6473 33.0259C22.2651 33.5476 23.6833 35.4594 23.5287 38.1804C23.3834 40.7467 21.7215 42.5227 19.1396 42.7335C17.8214 42.8413 16.4844 42.7663 15.1614 42.7944C14.7491 42.7944 14.8022 42.5445 14.8022 42.2915L14.8053 37.8477Z" fill="#FEFEFE"/>
<path d="M29.5314 32.7755C32.4991 32.7614 34.6717 34.8857 34.6858 37.8034C34.6983 40.7462 32.5662 42.8877 29.6079 42.9048C26.6028 42.9236 24.4005 40.804 24.3848 37.8784C24.3692 34.9528 26.5325 32.7911 29.5314 32.7755Z" fill="#FEFEFE"/>
<path d="M40.8726 32.778C42.0048 32.7591 43.1049 33.1553 43.9652 33.8917C44.5457 34.3924 44.9476 35.0684 45.1101 35.8176C45.1804 36.1206 45.1241 36.3002 44.7696 36.3299C44.4993 36.3673 44.2313 36.4195 43.9667 36.4861C43.6044 36.558 43.2358 36.7079 42.8734 36.6814C42.4236 36.6486 42.5048 36.1237 42.3064 35.8426C41.3692 34.5196 39.295 34.6367 38.4859 36.1206C38.1909 36.6424 38.0346 37.2311 38.0319 37.8305C38.0291 38.4299 38.1801 39.02 38.4703 39.5444C38.9123 40.3957 39.687 40.794 40.6445 40.7597C41.5208 40.7284 42.1736 40.3129 42.486 39.471C42.5751 39.2289 42.6703 39.1805 42.9046 39.2383C43.5294 39.3945 44.1542 39.5366 44.7868 39.6569C45.1132 39.7194 45.1319 39.8537 45.0335 40.1396C44.5931 41.4204 43.6965 42.2279 42.4407 42.6387C41.3207 43.0084 40.1149 43.0296 38.9826 42.6996C36.7756 42.0748 35.4995 40.2427 35.5339 37.7935C35.5807 34.7539 37.6253 32.7514 40.8726 32.778Z" fill="#FEFEFE"/>
<path d="M17.3013 37.8311C17.3013 37.0298 17.3138 36.2301 17.3013 35.4288C17.3013 35.1273 17.3872 34.9961 17.698 35.0336C17.8343 35.0406 17.9709 35.0406 18.1072 35.0336C20.4329 35.0758 21.6684 36.9782 20.7625 39.1353C20.2861 40.2709 19.2974 40.5708 18.1978 40.6411C17.3075 40.6989 17.306 40.6817 17.306 39.8179L17.3013 37.8311Z" fill="#0263D0"/>
<path d="M26.9229 37.8476C26.9229 35.817 28.5098 34.494 30.3232 35.036C31.5727 35.4062 32.285 36.6917 32.1288 38.2693C31.9944 39.647 31.0479 40.6419 29.7687 40.7575C28.163 40.9012 26.9244 39.6329 26.9229 37.8476Z" fill="#0263D0"/>
</svg>
