<svg width="475" height="437" viewBox="0 0 475 437" fill="none" xmlns="http://www.w3.org/2000/svg">
<path d="M132.07 33.394C129.72 33.9057 128.188 35.5429 127.779 37.8964C127.677 38.5104 127.779 39.5336 126.757 39.2266C126.451 39.1243 126.042 38.1011 126.144 37.4871C126.553 34.4173 128.596 32.6778 131.354 31.4498C131.354 30.1195 131.457 28.7893 131.354 27.459C131.354 27.0497 130.742 26.6404 130.333 26.4357C128.188 25.3102 126.757 23.6729 126.144 21.3194C126.042 20.91 125.94 20.5007 126.042 20.0914C126.144 19.6821 126.553 19.3752 126.86 18.9659C127.166 19.2728 127.677 19.5798 127.779 19.9892C128.085 22.3426 129.311 23.8776 131.457 24.7985C131.661 24.9009 131.865 24.9009 132.172 25.0032C134.011 21.7287 136.871 20.1938 140.651 20.1938C141.06 20.1938 141.775 19.4775 141.979 18.8635C144.226 13.8495 146.78 9.04011 150.356 4.94703C151.582 3.51444 153.216 2.18419 154.851 1.16092C158.324 -0.98795 162.104 -0.0670059 164.454 3.20746C168.847 9.24477 168.847 15.1797 164.045 20.9101C162.002 23.3659 159.244 25.4125 156.894 27.5614C156.383 28.073 155.77 28.38 155.055 28.994C156.383 30.0172 157.711 31.0405 158.937 31.9614C162.411 34.8266 165.577 37.9987 167.11 42.3988C169.051 47.8221 165.578 54.5757 162.411 56.7246C159.652 58.6688 155.975 58.4642 153.012 55.599C150.56 53.2455 148.313 50.4826 146.474 47.6174C144.635 44.9569 143.409 41.7848 141.877 38.9197C141.57 38.408 140.957 37.8964 140.549 37.8964C136.667 38.1011 133.806 36.5662 132.07 33.394ZM148.926 29.0962C149.743 28.5847 150.458 28.073 151.071 27.6637C154.851 25.0031 158.733 22.445 161.593 18.6589C164.965 14.2588 164.965 9.65408 161.593 5.35634C159.959 3.3098 158.222 3.00281 156.077 4.33307C155.055 4.94703 154.136 5.76564 153.318 6.68659C148.824 11.7006 145.759 17.6356 143.613 23.9799C142.49 27.1521 142.388 30.3242 143.307 33.4964C145.248 39.8406 148.415 45.5709 152.501 50.6873C153.523 52.0176 154.953 53.1431 156.383 54.0641C158.222 55.2921 159.755 55.0874 161.083 53.4502C164.249 49.7664 165.271 45.4686 162.717 41.2732C160.878 38.3057 158.324 36.0545 155.566 33.9057C153.421 32.2683 151.173 30.7335 148.926 29.0962ZM140.038 34.4173C138.914 30.9381 138.914 27.3567 140.038 23.8776C136.462 23.7752 134.419 26.0264 134.521 29.5056C134.726 32.6778 136.871 34.6219 140.038 34.4173Z" fill="#060626"/>
<path d="M159.244 27.0508C159.244 28.4834 159.244 29.7113 159.244 31.1439C158.324 30.4275 157.507 29.9159 156.485 29.1996C157.507 28.381 158.222 27.8694 159.244 27.0508Z" fill="black"/>
<path d="M148.926 29.0957C151.276 30.7329 153.523 32.2678 155.669 33.905C158.427 35.9516 160.981 38.2028 162.82 41.2726C165.374 45.4681 164.352 49.8681 161.185 53.4496C159.755 55.0867 158.223 55.2915 156.486 54.0636C155.056 53.1426 153.728 52.017 152.604 50.6867C148.518 45.5703 145.351 39.7377 143.41 33.4957C142.388 30.3236 142.592 27.1514 143.716 23.9793C145.964 17.635 149.028 11.8024 153.421 6.68601C154.238 5.76506 155.158 5.04879 156.179 4.3325C158.325 2.89991 160.061 3.30922 161.696 5.35576C165.067 9.65351 165.067 14.2583 161.696 18.6583C158.835 22.3421 154.954 25.0026 151.174 27.6631C150.356 28.0724 149.641 28.584 148.926 29.0957Z" fill="white"/>
<path d="M140.038 34.4174C136.871 34.7243 134.726 32.6778 134.624 29.4033C134.522 26.0266 136.565 23.7754 140.14 23.7754C139.017 27.3568 138.914 30.9383 140.038 34.4174Z" fill="#E6952A"/>
<path d="M208.756 30.6235L208.647 27.6029C209.759 27.6515 210.725 27.5908 211.547 27.421C212.393 27.2512 213.093 26.9479 213.649 26.5112C214.229 26.0502 214.664 25.4194 214.954 24.6188C215.244 23.8182 215.389 22.8356 215.389 21.671C215.389 20.094 215.244 18.8688 214.954 17.9954C214.688 17.0978 214.229 16.4669 213.576 16.103C212.948 15.7391 212.09 15.5571 211.003 15.5571C210.544 15.5571 210.024 15.5814 209.445 15.6299C208.865 15.6785 208.248 15.7513 207.596 15.8483L206.219 12.7913C206.702 12.7671 207.173 12.7428 207.632 12.7186C208.116 12.67 208.575 12.6458 209.01 12.6458C209.469 12.6215 209.892 12.6094 210.278 12.6094C212.284 12.6094 213.927 12.852 215.207 13.3372C216.488 13.7981 217.431 14.6837 218.035 15.9938C218.663 17.2797 218.977 19.1357 218.977 21.5618C218.977 23.8182 218.554 25.6135 217.708 26.9479C216.887 28.258 215.703 29.2042 214.156 29.7865C212.634 30.3445 210.834 30.6235 208.756 30.6235ZM206.255 38.8845C206.279 37.8655 206.303 36.6282 206.327 35.1725C206.352 33.6926 206.364 32.1277 206.364 30.4779C206.388 28.8281 206.4 27.2512 206.4 25.7469C206.4 24.2185 206.388 22.6414 206.364 21.016C206.364 19.3905 206.352 17.862 206.327 16.4306C206.303 14.9749 206.267 13.7618 206.219 12.7913L210.133 13.0825C210.109 13.689 210.085 14.3926 210.061 15.1932C210.061 15.9938 210.049 16.8551 210.024 17.7771C210 18.6747 209.988 19.5845 209.988 20.5065C209.988 21.4284 209.976 22.3382 209.952 23.2359C209.952 24.1093 209.964 24.9221 209.988 25.6742C209.988 26.4262 209.988 27.3482 209.988 28.44C210.012 29.5075 210.024 30.6477 210.024 31.8608C210.049 33.0739 210.061 34.2627 210.061 35.4273C210.085 36.5918 210.097 37.6593 210.097 38.6298L206.255 38.8845ZM216.077 38.8845C215.449 37.2347 214.773 35.585 214.048 33.9352C213.347 32.2611 212.574 30.5385 211.728 28.7675L215.207 27.6393C215.932 29.4347 216.718 31.2543 217.563 33.0982C218.433 34.9178 219.424 36.8102 220.535 38.7753L216.077 38.8845ZM230.619 39.1029C229.241 39.1029 228.142 38.7511 227.32 38.0475C226.523 37.3439 225.919 36.4098 225.508 35.2453C225.218 34.3477 225.013 33.3651 224.892 32.2975C224.771 31.2058 224.711 30.0534 224.711 28.8403C224.711 27.8213 224.759 26.8509 224.856 25.9289C224.977 25.0069 225.158 24.1579 225.399 23.3815C225.81 22.0956 226.45 21.0645 227.32 20.2881C228.214 19.5117 229.411 19.1236 230.909 19.1236C232.189 19.1236 233.192 19.4025 233.917 19.9606C234.666 20.4943 235.198 21.2465 235.512 22.2169C235.85 23.1873 236.019 24.3276 236.019 25.6378C236.019 26.2928 235.983 26.9843 235.91 27.7121C235.838 28.4157 235.741 29.1436 235.621 29.8956L232.503 27.6029C232.552 27.1177 232.588 26.6567 232.612 26.22C232.66 25.7833 232.685 25.3709 232.685 24.9827C232.685 24.3276 232.624 23.7575 232.503 23.2723C232.383 22.787 232.177 22.411 231.887 22.1441C231.621 21.853 231.223 21.7074 230.691 21.7074C230.063 21.7074 229.567 21.95 229.205 22.4353C228.867 22.9205 228.613 23.5756 228.444 24.4004C228.299 24.9827 228.202 25.6378 228.154 26.3656C228.13 27.0935 228.118 27.8455 228.118 28.6219C228.118 29.2528 228.118 29.8714 228.118 30.4779C228.142 31.0844 228.166 31.6546 228.19 32.1884C228.214 32.6978 228.275 33.1831 228.371 33.644C228.516 34.4932 228.77 35.1725 229.133 35.682C229.495 36.1673 230.027 36.4098 230.727 36.4098C231.259 36.4098 231.682 36.3007 231.996 36.0823C232.31 35.8397 232.528 35.5243 232.648 35.1361C232.793 34.7236 232.866 34.2749 232.866 33.7896C232.866 33.5713 232.854 33.3407 232.83 33.0982C232.805 32.8556 232.757 32.6129 232.685 32.3703H235.91C235.959 32.6372 235.995 32.892 236.019 33.1346C236.043 33.3771 236.055 33.6198 236.055 33.8624C236.055 34.9056 235.85 35.8276 235.439 36.6282C235.028 37.4046 234.424 38.0111 233.627 38.4478C232.83 38.8845 231.827 39.1029 230.619 39.1029ZM225.834 30.1868L225.726 27.421L235.222 27.3482L235.621 29.8956C235.621 29.8956 235.403 29.8956 234.968 29.8956C234.557 29.8956 233.989 29.9078 233.265 29.932C232.564 29.9563 231.779 29.9806 230.909 30.0048C230.039 30.0048 229.157 30.029 228.263 30.0776C227.393 30.1018 226.583 30.1382 225.834 30.1868ZM247.419 39.0665C246.018 39.0665 244.918 38.7025 244.121 37.9747C243.323 37.2469 242.732 36.2764 242.345 35.0633C242.103 34.2385 241.935 33.3407 241.837 32.3703C241.741 31.3756 241.692 30.3202 241.692 29.2042C241.692 28.0396 241.753 26.9479 241.874 25.9289C242.019 24.8857 242.248 23.9395 242.562 23.0903C242.852 22.2897 243.227 21.5982 243.686 21.016C244.169 20.4095 244.762 19.9484 245.462 19.6331C246.187 19.2934 247.02 19.1236 247.963 19.1236C249.292 19.1236 250.319 19.3905 251.044 19.9242C251.793 20.4579 252.312 21.2101 252.602 22.1805C252.917 23.1267 253.073 24.267 253.073 25.6014C253.073 26.0866 253.049 26.5961 253.001 27.1298C252.977 27.6393 252.928 28.173 252.856 28.7311L249.521 28.2216C249.57 27.6636 249.606 27.1298 249.63 26.6204C249.679 26.0866 249.702 25.6014 249.702 25.1647C249.702 24.461 249.642 23.8546 249.521 23.3451C249.425 22.8113 249.231 22.411 248.941 22.1441C248.651 21.853 248.241 21.7074 247.709 21.7074C247.081 21.7074 246.585 21.9622 246.223 22.4716C245.885 22.9569 245.632 23.612 245.462 24.4368C245.317 25.0677 245.221 25.7833 245.172 26.584C245.148 27.3604 245.136 28.173 245.136 29.0222C245.136 29.6045 245.136 30.1626 245.136 30.6963C245.16 31.23 245.184 31.7274 245.208 32.1884C245.233 32.6493 245.281 33.086 245.353 33.4985C245.474 34.3961 245.704 35.1119 246.042 35.6456C246.404 36.1551 246.948 36.4098 247.673 36.4098C248.47 36.4098 249.026 36.2279 249.34 35.864C249.679 35.5 249.847 35.0269 249.847 34.4447C249.847 34.2263 249.836 34.0201 249.811 33.826C249.787 33.6319 249.751 33.4257 249.702 33.2073L252.783 32.7342C252.832 32.9768 252.856 33.2195 252.856 33.4621C252.881 33.7047 252.892 33.9352 252.892 34.1535C252.892 35.1483 252.699 36.0217 252.312 36.7738C251.926 37.5016 251.333 38.0717 250.536 38.4842C249.739 38.8723 248.7 39.0665 247.419 39.0665ZM265.889 30.114C266.179 28.9252 266.397 27.8213 266.542 26.8023C266.687 25.7591 266.759 24.8493 266.759 24.0729C266.759 23.2965 266.65 22.7022 266.433 22.2897C266.215 21.853 265.84 21.6346 265.309 21.6346C264.874 21.6346 264.451 21.853 264.041 22.2897C263.63 22.7022 263.291 23.3572 263.026 24.2549C262.783 25.1525 262.663 26.3292 262.663 27.7849L261.141 29.3134C261.141 28.3186 261.189 27.3118 261.286 26.2928C261.406 25.2738 261.576 24.3276 261.794 23.4542C262.035 22.5566 262.337 21.768 262.7 21.0887C263.086 20.3851 263.557 19.8392 264.113 19.4511C264.668 19.063 265.321 18.8688 266.07 18.8688C266.988 18.8688 267.713 19.0872 268.245 19.5239C268.776 19.9606 269.163 20.5793 269.405 21.3799C269.646 22.1805 269.767 23.0903 269.767 24.1093C269.767 24.9827 269.695 25.9411 269.55 26.9843C269.405 28.0033 269.211 29.0465 268.97 30.114H265.889ZM259.039 38.6662C259.086 37.9869 259.123 37.3196 259.148 36.6646C259.195 35.9853 259.231 35.2817 259.256 34.5538C259.28 33.8018 259.304 33.0011 259.329 32.152C259.353 31.2785 259.365 30.3081 259.365 29.2406C259.389 28.1003 259.389 27.0449 259.365 26.0745C259.365 25.0797 259.34 24.1699 259.293 23.3451C259.268 22.5202 259.231 21.7802 259.184 21.1251C259.159 20.4459 259.123 19.8514 259.075 19.3419L262.482 19.16C262.482 19.7908 262.482 20.5186 262.482 21.3435C262.482 22.1683 262.493 23.1145 262.518 24.1821C262.566 25.2253 262.615 26.4262 262.663 27.7849C262.663 28.8767 262.663 29.932 262.663 30.951C262.663 31.97 262.675 32.9404 262.7 33.8624C262.723 34.7844 262.736 35.6456 262.736 36.4462C262.76 37.2469 262.783 37.9747 262.808 38.6298L259.039 38.6662ZM278.446 39.0301C277.48 39.0301 276.718 38.7996 276.162 38.3386C275.631 37.8777 275.256 37.2226 275.039 36.3735C274.845 35.5 274.749 34.4689 274.749 33.2801C274.749 32.7464 274.749 32.1277 274.749 31.4241C274.773 30.6963 274.773 29.9199 274.749 29.095C274.749 28.2702 274.749 27.421 274.749 26.5476C274.749 25.6742 274.736 24.8129 274.713 23.9637C274.713 23.1145 274.713 22.2897 274.713 21.4891C274.736 20.6884 274.749 19.9606 274.749 19.3055L278.156 18.8688C278.132 19.5967 278.096 20.4822 278.047 21.5255C278.023 22.5687 277.998 23.6726 277.975 24.8371C277.951 26.0017 277.915 27.1298 277.866 28.2216C277.842 29.3134 277.817 30.3081 277.793 31.2058C277.793 32.0792 277.793 32.7464 277.793 33.2073C277.793 33.8624 277.83 34.4325 277.902 34.9178C277.998 35.403 278.143 35.779 278.337 36.0459C278.531 36.2885 278.821 36.4098 279.207 36.4098C279.811 36.4098 280.367 36.0945 280.874 35.4636C281.382 34.8328 281.793 33.8988 282.107 32.6615C282.42 31.3999 282.578 29.8593 282.578 28.0396C282.578 27.4332 282.565 26.8145 282.541 26.1836C282.541 25.5528 282.529 24.8978 282.505 24.2185C282.505 23.5392 282.493 22.8477 282.469 22.1441C282.469 21.4163 282.469 20.6763 282.469 19.9242L286.021 19.9606C285.972 21.4648 285.936 22.787 285.912 23.9273C285.888 25.0677 285.864 26.1594 285.84 27.2026C285.84 28.2458 285.827 29.3376 285.803 30.4779C285.803 31.6182 285.803 32.9404 285.803 34.4447C285.803 35.0269 285.827 35.5364 285.876 35.9731C285.948 36.4098 286.045 36.798 286.166 37.1377C286.311 37.4774 286.48 37.8049 286.673 38.1203L283.846 39.0301C283.58 38.6904 283.363 38.2658 283.194 37.7564C283.025 37.2226 282.904 36.519 282.831 35.6456C282.396 36.6888 281.829 37.5138 281.128 38.1203C280.427 38.7268 279.533 39.0301 278.446 39.0301ZM296.535 38.6662L292.657 38.6298C292.681 38.3386 292.705 37.8898 292.73 37.2833C292.777 36.6524 292.813 35.9004 292.838 35.0269C292.862 34.1535 292.886 33.1831 292.911 32.1156C292.935 31.048 292.947 29.9199 292.947 28.7311C292.947 27.1056 292.922 25.6378 292.875 24.3276C292.826 22.9933 292.777 21.9015 292.73 21.0524C292.681 20.2032 292.657 19.6573 292.657 19.4147H296.427C296.402 19.6088 296.378 20.1425 296.354 21.016C296.329 21.8894 296.305 22.9933 296.282 24.3276C296.257 25.662 296.245 27.142 296.245 28.7675C296.245 29.9078 296.257 30.9996 296.282 32.0428C296.305 33.086 296.329 34.0444 296.354 34.9178C296.402 35.7912 296.438 36.5554 296.463 37.2105C296.51 37.8413 296.535 38.3265 296.535 38.6662ZM296.354 16.3214L292.766 16.5397L292.693 12.9369L296.427 12.7186L296.354 16.3214ZM308.446 39.0301C307.48 39.0301 306.683 38.8967 306.054 38.6298C305.426 38.3386 304.931 37.9383 304.568 37.4288C304.206 36.9193 303.952 36.3128 303.807 35.6092C303.662 34.9056 303.59 34.1171 303.59 33.2437C303.59 32.807 303.59 32.3461 303.59 31.8608C303.613 31.3513 303.626 30.8176 303.626 30.2596C303.65 29.6773 303.674 29.0829 303.698 28.4764C303.698 27.7 303.711 26.9115 303.735 26.1109C303.758 25.3102 303.783 24.5096 303.807 23.709C303.856 22.9084 303.88 22.1077 303.88 21.3071C303.903 20.4822 303.928 19.6695 303.952 18.8688C303.976 18.044 303.988 17.2433 303.988 16.4669L307.794 15.9575C307.721 16.8794 307.649 17.8741 307.576 18.9416C307.504 20.0092 307.432 21.113 307.359 22.2533C307.31 23.3693 307.263 24.4854 307.214 25.6014C307.165 26.7174 307.118 27.8091 307.069 28.8767C307.045 29.7259 307.02 30.5143 306.997 31.2422C306.997 31.9458 306.997 32.5523 306.997 33.0618C306.997 33.7654 307.033 34.3719 307.105 34.8814C307.178 35.3909 307.335 35.7912 307.576 36.0823C307.818 36.3492 308.169 36.4826 308.628 36.4826C309.231 36.4826 309.666 36.3371 309.932 36.0459C310.222 35.7306 310.416 35.3059 310.512 34.7722C310.609 34.2385 310.657 33.6319 310.657 32.9526C310.657 32.71 310.645 32.4553 310.621 32.1884C310.621 31.9214 310.609 31.6546 310.585 31.3877C310.561 31.0966 310.525 30.8055 310.476 30.5143L313.629 29.7137C313.678 30.2232 313.714 30.7205 313.738 31.2058C313.787 31.6667 313.811 32.1156 313.811 32.5523C313.811 33.911 313.629 35.0755 313.267 36.0459C312.928 36.9921 312.361 37.7321 311.563 38.2658C310.79 38.7753 309.751 39.0301 308.446 39.0301ZM301.705 22.4716L301.959 19.4875C302.007 19.4875 302.236 19.4875 302.647 19.4875C303.058 19.4875 303.53 19.4997 304.061 19.5239C304.617 19.5239 305.136 19.5239 305.619 19.5239C306.103 19.5239 306.417 19.5239 306.562 19.5239C306.948 19.5239 307.432 19.5239 308.011 19.5239C308.591 19.4997 309.207 19.4875 309.86 19.4875C310.512 19.4633 311.152 19.4511 311.781 19.4511C312.433 19.4269 313.026 19.4147 313.557 19.4147L313.376 22.1441C313.037 22.1441 312.651 22.1563 312.216 22.1805C311.781 22.1805 311.334 22.1805 310.875 22.1805C310.44 22.1805 309.992 22.1927 309.534 22.2169C309.075 22.2169 308.64 22.2291 308.229 22.2533C307.843 22.2533 307.492 22.2533 307.178 22.2533C306.67 22.2533 306.078 22.2775 305.402 22.3261C304.726 22.3503 304.061 22.3746 303.408 22.3989C302.756 22.4231 302.188 22.4474 301.705 22.4716ZM325.082 39.1029C323.656 39.1029 322.532 38.7875 321.711 38.1567C320.889 37.5258 320.285 36.6404 319.899 35.5C319.609 34.6509 319.415 33.6683 319.319 32.5523C319.221 31.4119 319.174 30.1746 319.174 28.8403C319.174 27.7971 319.221 26.8145 319.319 25.8925C319.415 24.9463 319.584 24.0971 319.826 23.3451C320.091 22.4716 320.466 21.7196 320.95 21.0887C321.432 20.4579 322.037 19.9728 322.762 19.6331C323.487 19.2934 324.357 19.1236 325.372 19.1236C326.7 19.1236 327.739 19.3783 328.489 19.8878C329.261 20.3973 329.805 21.1251 330.12 22.0713C330.457 23.0175 330.627 24.1579 330.627 25.4922C330.627 26.0259 330.602 26.5718 330.555 27.1298C330.53 27.6879 330.47 28.2702 330.373 28.8767C330.301 29.4832 330.216 30.1262 330.12 30.8055L326.966 28.6947C327.039 28.2094 327.099 27.7485 327.148 27.3118C327.195 26.8509 327.231 26.4262 327.256 26.0381C327.304 25.6256 327.329 25.2496 327.329 24.9099C327.329 23.8667 327.171 23.0781 326.858 22.5444C326.543 21.9864 325.988 21.7074 325.19 21.7074C324.489 21.7074 323.958 21.9864 323.596 22.5444C323.233 23.0781 322.979 23.8182 322.834 24.7644C322.786 25.1283 322.737 25.5286 322.689 25.9653C322.641 26.3778 322.605 26.8145 322.581 27.2754C322.581 27.7121 322.581 28.161 322.581 28.6219C322.581 29.3498 322.581 30.0534 322.581 30.7327C322.605 31.3877 322.628 31.9942 322.653 32.5523C322.701 33.086 322.762 33.5713 322.834 34.008C322.979 34.7844 323.233 35.3787 323.596 35.7912C323.958 36.2037 324.489 36.4098 325.19 36.4098C325.963 36.4098 326.507 36.2279 326.821 35.864C327.135 35.5 327.293 35.0148 327.293 34.4083C327.293 34.2141 327.28 34.0201 327.256 33.826C327.231 33.6076 327.184 33.3771 327.111 33.1346L330.337 33.3893C330.385 33.5834 330.41 33.7896 330.41 34.008C330.433 34.2263 330.446 34.4447 330.446 34.663C330.446 35.5364 330.24 36.3128 329.83 36.9921C329.442 37.6472 328.851 38.1688 328.054 38.557C327.28 38.9209 326.289 39.1029 325.082 39.1029ZM320.297 31.0602L320.225 28.3308L329.685 28.258L330.12 30.8055C330.12 30.8055 329.902 30.8055 329.467 30.8055C329.032 30.8055 328.452 30.8176 327.728 30.8418C327.026 30.8418 326.241 30.854 325.372 30.8782C324.502 30.9025 323.619 30.9268 322.726 30.951C321.856 30.9752 321.046 31.0116 320.297 31.0602ZM343.44 30.114C343.73 28.9252 343.947 27.8213 344.092 26.8023C344.237 25.7591 344.31 24.8493 344.31 24.0729C344.31 23.2965 344.201 22.7022 343.983 22.2897C343.766 21.853 343.392 21.6346 342.86 21.6346C342.425 21.6346 342.002 21.853 341.591 22.2897C341.181 22.7022 340.842 23.3572 340.576 24.2549C340.335 25.1525 340.214 26.3292 340.214 27.7849L338.692 29.3134C338.692 28.3186 338.74 27.3118 338.837 26.2928C338.958 25.2738 339.127 24.3276 339.344 23.4542C339.586 22.5566 339.888 21.768 340.25 21.0887C340.637 20.3851 341.109 19.8392 341.664 19.4511C342.22 19.063 342.872 18.8688 343.621 18.8688C344.539 18.8688 345.264 19.0872 345.796 19.5239C346.328 19.9606 346.714 20.5793 346.955 21.3799C347.198 22.1805 347.318 23.0903 347.318 24.1093C347.318 24.9827 347.245 25.9411 347.1 26.9843C346.955 28.0033 346.763 29.0465 346.52 30.114H343.44ZM336.589 38.6662C336.638 37.9869 336.674 37.3196 336.698 36.6646C336.747 35.9853 336.783 35.2817 336.807 34.5538C336.832 33.8018 336.856 33.0011 336.879 32.152C336.904 31.2785 336.916 30.3081 336.916 29.2406C336.941 28.1003 336.941 27.0449 336.916 26.0745C336.916 25.0797 336.892 24.1699 336.843 23.3451C336.819 22.5202 336.783 21.7802 336.734 21.1251C336.711 20.4459 336.674 19.8514 336.626 19.3419L340.033 19.16C340.033 19.7908 340.033 20.5186 340.033 21.3435C340.033 22.1683 340.045 23.1145 340.069 24.1821C340.118 25.2253 340.166 26.4262 340.214 27.7849C340.214 28.8767 340.214 29.932 340.214 30.951C340.214 31.97 340.226 32.9404 340.25 33.8624C340.275 34.7844 340.286 35.6456 340.286 36.4462C340.311 37.2469 340.335 37.9747 340.359 38.6298L336.589 38.6662Z" fill="#060626"/>
<path d="M186.912 37.0574C185.993 37.1297 185.069 36.9855 184.216 36.6361C183.362 36.2869 182.603 35.7421 181.997 35.0458C180.917 33.6688 180.35 31.9576 180.395 30.2072C178.952 32.171 177.123 33.8178 175.019 35.0458C173.162 36.1577 171.045 36.758 168.882 36.7856C168.014 36.8781 167.136 36.7801 166.31 36.4982C165.484 36.2164 164.729 35.7575 164.099 35.1536C163.468 34.5497 162.976 33.8154 162.658 33.0018C162.34 32.1882 162.203 31.3149 162.256 30.4427C162.293 28.6538 162.709 26.8931 163.478 25.2779C164.317 23.4283 165.414 21.7076 166.737 20.1675C168.015 18.6418 169.527 17.3296 171.217 16.2803C172.658 15.3407 174.332 14.8229 176.051 14.7852C176.866 14.7801 177.666 15.0063 178.359 15.4376C179.065 15.8726 179.418 16.7605 179.418 18.1016C179.414 19.4914 178.988 20.8472 178.196 21.9887C177.332 23.2526 176.247 24.3486 174.992 25.2235C173.649 26.1775 172.188 26.9541 170.647 27.5342C169.139 28.1165 167.558 28.4914 165.949 28.6486C165.877 29.011 165.823 29.3554 165.786 29.6816C165.752 29.9825 165.734 30.2849 165.732 30.5877C165.734 31.3201 165.863 32.0467 166.112 32.7352C166.359 33.435 166.814 34.0423 167.416 34.475C168.191 34.9728 169.104 35.2108 170.022 35.1545C172.092 35.1025 174.091 34.388 175.725 33.1157C177.638 31.7419 179.31 30.0611 180.676 28.1413C181.032 26.5774 181.617 25.0751 182.414 23.6832C183.238 22.2079 184.252 20.8462 185.428 19.6329C186.546 18.4635 187.837 17.4733 189.256 16.6971C190.535 15.9799 191.973 15.5967 193.438 15.5826C194.254 15.5775 195.054 15.8037 195.746 16.235C196.452 16.6699 196.805 17.5579 196.805 18.8989C196.823 20.7007 196.153 22.4412 194.932 23.7648C193.596 25.2209 191.954 26.3628 190.125 27.1083C188.206 27.9325 186.174 28.464 184.097 28.6849C184.025 29.0473 183.97 29.3917 183.934 29.7179C183.9 30.0188 183.882 30.3212 183.88 30.624C183.885 31.3805 184.004 32.132 184.233 32.853C184.452 33.5894 184.887 34.2429 185.482 34.7287C186.231 35.2645 187.143 35.5239 188.062 35.4626C189.716 35.4364 191.331 34.957 192.732 34.0763C194.358 33.099 195.823 31.8765 197.077 30.4518C198.397 28.9761 199.528 27.3417 200.444 25.586L201.095 26.0753C200.163 28.183 198.887 30.1212 197.321 31.811C195.891 33.3767 194.2 34.6828 192.325 35.671C190.659 36.5638 188.802 37.0394 186.912 37.0574ZM166.194 27.6519C168.661 26.7829 170.979 25.5358 173.064 23.955C174.146 23.1444 175.099 22.1726 175.888 21.0736C176.6 20.1137 176.989 18.9527 177.001 17.7572C177.017 17.4406 176.941 17.1262 176.784 16.8512C176.67 16.7285 176.528 16.6349 176.371 16.5781C176.213 16.5214 176.045 16.5032 175.879 16.5249C174.875 16.5716 173.909 16.9224 173.109 17.5307C172.051 18.2757 171.101 19.163 170.285 20.1675C169.358 21.2957 168.54 22.5092 167.841 23.792C167.143 25.0097 166.59 26.3053 166.194 27.6519ZM184.296 27.6519C185.389 27.2792 186.458 26.8436 187.5 26.3471C188.66 25.8032 189.768 25.1573 190.813 24.4171C191.819 23.7176 192.7 22.8538 193.42 21.8619C194.095 20.9398 194.457 19.8249 194.452 18.6815C194.462 18.3269 194.367 17.9772 194.18 17.6757C194.066 17.5299 193.916 17.4158 193.745 17.3445C193.573 17.2731 193.387 17.2467 193.203 17.268C191.89 17.3342 190.645 17.875 189.7 18.7902C188.436 19.9105 187.354 21.2221 186.496 22.6774C185.568 24.2345 184.85 25.907 184.36 27.6519H184.296Z" fill="#E6952A"/>
<g clip-path="url(#clip0_847_7866)">
<path d="M209.985 398.207C302.556 398.207 377.599 388.457 377.599 376.429C377.599 364.401 302.556 354.65 209.985 354.65C117.414 354.65 42.3701 364.401 42.3701 376.429C42.3701 388.457 117.414 398.207 209.985 398.207Z" fill="#82A7AF"/>
<path d="M148.015 184.829C148.015 184.829 142.261 212.482 141.151 223.324C140.04 234.167 125.804 283.572 143.983 291.074C162.162 298.575 166.698 266.325 167.068 259.282C167.439 252.238 156.916 182.754 148.015 184.829Z" fill="#C7C3C1"/>
<path d="M60.1326 279.061C35.978 289.602 34.8152 315.75 44.5048 324.008C54.1942 332.265 145.663 362.198 199.149 368.735C252.635 375.272 310.948 362.111 322.576 355.23C334.203 348.349 339.792 313.412 312.274 304.467C284.756 295.521 240.295 298.747 221.241 298.892C175.894 299.236 84.2871 268.52 60.1326 279.061Z" fill="#2E2E47"/>
<path d="M168.363 366.413C170.627 363.667 174.75 361.316 174.75 361.316C174.75 361.316 177.725 361.807 182.064 362.606C182.514 362.689 180.752 365.212 181.23 365.301C181.534 365.358 183.822 363.262 186.043 363.355C196.591 363.796 210.324 368.275 214.368 370.97C229.363 380.963 229.284 388.069 224.642 389.396C220.107 390.694 206.87 385.504 183.822 383.928C174.503 383.292 165.309 382.26 165.309 378.553C165.309 374.847 163.921 371.804 168.363 366.413Z" fill="#9C6F43"/>
<path d="M55.2164 285.704C55.2164 285.704 47.3873 283.539 40.3248 301.342C33.2624 319.144 36.122 330.386 58.0165 353.677C79.911 376.969 165.463 396.004 165.463 396.004C165.463 396.004 184.189 370.056 178.018 350.286C178.018 350.286 152.402 338.226 124.93 321.801C102.246 308.239 79.9443 290.355 55.2164 285.704Z" fill="#2E2E47"/>
<path d="M194.881 379.387C194.881 379.387 187.815 375.062 184.976 377.657C184.377 378.205 182.569 379.645 180.089 381.726C179.773 381.99 178.867 382.63 177.492 383.934C168.301 392.652 152.147 406.877 152.054 418.804C151.931 434.744 168.839 424.488 169.95 422.511C171.061 420.534 189.45 407.56 198.213 401.134C206.975 394.709 202.162 381.858 194.881 379.387Z" fill="#9C6F43"/>
<path d="M192.936 382.074C192.936 382.074 188.308 386.43 189.326 391.712C190.344 396.995 193.769 398.663 196.916 398.107C200.063 397.551 211.929 394.523 211.929 394.245C211.929 394.098 206.902 390.875 204.709 386.646C202.75 382.869 203.598 378.027 203.598 378.027L192.936 382.074Z" fill="white"/>
<path d="M293.921 318.889C293.921 318.889 314.587 313.532 324.308 324.428C337.177 338.85 329.533 358.081 302.828 376.828C265.247 403.209 214.549 415.344 214.549 415.344C214.549 415.344 190.839 404.516 189.021 377.708C189.021 377.708 239.557 338.367 293.921 318.889Z" fill="#2E2E47"/>
<path d="M147.104 187.109C141.944 202.302 163.004 245.506 163.004 245.506L154.368 289.578C154.368 289.578 157.564 303.897 210.83 307.681C243.121 309.976 278.062 298.838 278.062 298.838C278.062 298.838 280.455 243.553 254.201 203.089C224.283 156.977 157.286 157.131 147.104 187.109Z" fill="#EAE6E4"/>
<path d="M129.19 332.363L199.956 302.268L109.547 270.514L40.4541 296.178L129.19 332.363Z" fill="#C7C3C1"/>
<path d="M129.98 324.297L179.839 302.269L109.285 275.812L80.4365 299.812L129.98 324.297Z" fill="#2E2E47"/>
<path d="M162.404 305.786L171.24 302.627L157.277 297.414L148.599 300.055L162.404 305.786Z" fill="#454560"/>
<path d="M146.468 298.835L155.304 295.676L142.681 291.174L134.003 293.815L146.468 298.835Z" fill="#454560"/>
<path d="M131.833 292.833L140.669 289.674L127.481 284.705L118.559 287.421L131.833 292.833Z" fill="#454560"/>
<path d="M116.095 286.751L124.931 283.592L110.967 278.379L102.289 281.02L116.095 286.751Z" fill="#454560"/>
<path d="M146.468 307.603L155.304 304.443L141.34 299.23L132.662 301.872L146.468 307.603Z" fill="#454560"/>
<path d="M130.532 300.652L139.368 297.493L126.745 292.99L118.067 295.632L130.532 300.652Z" fill="#454560"/>
<path d="M115.898 294.65L124.733 291.49L111.546 286.521L102.623 289.237L115.898 294.65Z" fill="#454560"/>
<path d="M100.159 288.569L108.995 285.41L95.0314 280.197L86.3535 282.839L100.159 288.569Z" fill="#454560"/>
<path d="M142.366 315.304L151.201 312.145L137.238 306.932L128.56 309.573L142.366 315.304Z" fill="#454560"/>
<path d="M126.43 308.353L135.265 305.194L122.643 300.691L113.965 303.333L126.43 308.353Z" fill="#454560"/>
<path d="M111.795 302.349L120.631 299.189L107.443 294.221L98.5205 296.937L111.795 302.349Z" fill="#454560"/>
<path d="M96.0568 296.269L104.893 293.109L90.9289 287.896L82.251 290.538L96.0568 296.269Z" fill="#454560"/>
<path d="M129.19 332.364L27.513 314.136L9.27637 233.453L110.954 251.681L129.19 332.364Z" fill="#EAE6E4"/>
<path d="M57.3563 275.357C57.3563 275.357 61.7621 272.111 64.7548 275.357C67.7474 278.603 64.5054 283.014 60.349 283.097C56.1925 283.18 56.6082 279.684 56.6082 279.684C56.6082 279.684 60.2659 280.157 59.6008 278.506C58.9356 276.855 57.3563 275.357 57.3563 275.357Z" fill="white"/>
<path d="M185.689 295.726C185.645 295.726 185.6 295.719 185.557 295.702C185.369 295.629 185.275 295.417 185.348 295.229C189.507 284.44 189.556 249.628 189.556 249.278C189.556 249.076 189.719 248.912 189.921 248.912C190.123 248.912 190.286 249.076 190.286 249.278C190.286 250.714 190.238 284.576 186.03 295.492C185.973 295.637 185.835 295.726 185.689 295.726Z" fill="#2E2E47"/>
<path d="M177.977 165.774C182.183 164.74 193.524 165.811 195.055 168.702C196.586 171.592 166.292 186.707 162.801 185.189C159.31 183.671 163.493 174.911 166.815 171.742C170.137 168.574 171.531 167.359 177.977 165.774Z" fill="#EAE6E4"/>
<path d="M168.375 156.539C168.375 156.539 180.684 168 183.825 169.538C186.966 171.076 186.221 175.443 184.898 177.479C184.006 178.852 187.041 202.491 184.099 203.863C181.115 205.255 172.145 184.35 170.173 181.637C165.258 174.871 157.693 168.409 157.438 166.229C157.182 164.05 168.375 156.539 168.375 156.539Z" fill="#CC8B70"/>
<path d="M174.102 136.329C174.102 136.329 177.114 146.628 173.492 153.926C169.871 161.224 166.865 159.131 166.662 154.207C166.459 149.282 165.094 131.586 174.102 136.329Z" fill="#2E2E47"/>
<path d="M139.679 146.965C139.679 146.965 138.082 146.021 137.228 147.184C136.374 148.346 136.738 154.504 138.094 154.63C139.45 154.757 141.183 148.519 139.679 146.965Z" fill="#CC8B70"/>
<path d="M174.759 149.69C173.26 149.192 172.138 149.206 171.478 148.732C171.257 148.574 171.091 148.355 170.977 148.05C170.836 147.675 170.776 147.166 170.809 146.442C170.809 146.442 172.19 138.306 166.694 133.541C161.199 128.775 146.275 129.805 142.298 135.769C138.321 141.733 139.582 148.728 138.921 152.614C138.619 154.387 137.077 163.174 136.971 166.255C136.774 171.959 138.45 179.683 149.926 180.532C161.568 181.393 168.531 173.613 170.053 169.94C171.575 166.267 171.672 158.932 171.672 158.932C171.672 158.932 174.904 159.229 175.925 156.819C176.945 154.408 177.377 150.56 174.759 149.69Z" fill="#CC8B70"/>
<path d="M170.053 169.94C171.575 166.267 171.672 158.932 171.672 158.932C171.672 158.932 170.087 153.437 170.05 152.535C170.013 151.632 168.806 152.204 168.806 152.204C168.806 152.204 166.239 161.193 163.806 163.322C161.372 165.452 157.343 162.108 147.612 162.245C143.587 162.302 137.686 162.641 137.29 162.978C137.12 164.301 136.998 165.466 136.971 166.255C136.774 171.96 138.45 179.684 149.926 180.532C161.568 181.393 168.531 173.613 170.053 169.94Z" fill="#AF7E79"/>
<path d="M148.422 161.524C147.018 161.524 146.014 161.166 145.53 160.476C145.134 159.912 145.133 159.169 145.526 158.436C145.744 158.028 146.021 157.647 146.313 157.244C147.069 156.199 147.927 155.016 148.251 152.78C148.515 150.957 148.147 150.453 145.786 149.412C144.198 148.712 140.698 148.692 140.663 148.692C140.461 148.692 140.298 148.527 140.299 148.325C140.299 148.124 140.463 147.961 140.664 147.961C140.664 147.961 140.665 147.961 140.665 147.961C140.815 147.961 144.352 147.981 146.08 148.743C148.585 149.847 149.311 150.563 148.974 152.885C148.624 155.299 147.671 156.615 146.905 157.673C146.627 158.056 146.365 158.418 146.17 158.782C146.018 159.065 145.812 159.605 146.128 160.056C146.352 160.376 147.168 161.077 149.879 160.675C150.08 160.649 150.264 160.784 150.294 160.983C150.323 161.183 150.185 161.369 149.986 161.399C149.421 161.482 148.898 161.524 148.422 161.524ZM154.215 150.155C154.044 150.155 153.892 150.035 153.857 149.861C153.818 149.662 153.946 149.47 154.144 149.431C156.111 149.039 160.658 148.593 160.85 148.574C161.055 148.556 161.23 148.701 161.249 148.902C161.269 149.103 161.122 149.282 160.921 149.302C160.874 149.306 156.218 149.764 154.286 150.148C154.263 150.153 154.239 150.155 154.215 150.155ZM144.27 138.127C144.27 138.127 142.211 138.702 140.791 141.811C139.37 144.92 139.131 150.265 139.131 150.265C139.131 150.265 138.136 143.903 138.953 140.837C139.771 137.772 140.91 131.973 143.182 132.114C145.454 132.255 145.523 137.928 144.27 138.127ZM159.804 139.725C159.804 139.725 164.328 141.599 165.562 144.482C166.796 147.364 167.881 153.493 169.569 153.849C171.257 154.205 170.913 151.285 171.661 149.513C172.409 147.741 171.814 137.011 170.665 136.453C169.516 135.895 160.281 138.037 159.804 139.725ZM161.111 154.075C158.18 154.075 154.686 153.55 154.651 153.545C154.451 153.515 154.314 153.328 154.344 153.129C154.374 152.929 154.558 152.79 154.76 152.822C154.795 152.827 158.236 153.343 161.11 153.343C161.312 153.343 161.476 153.507 161.476 153.709C161.476 153.911 161.312 154.075 161.111 154.075Z" fill="#2E2E47"/>
<path d="M145.895 153.165C143.406 153.165 140.964 152.681 140.861 152.66C140.663 152.621 140.535 152.428 140.575 152.23C140.614 152.032 140.808 151.902 141.004 151.943C141.029 151.948 143.481 152.434 145.895 152.434C146.096 152.434 146.26 152.597 146.26 152.8C146.26 153.002 146.096 153.165 145.895 153.165Z" fill="#2E2E47"/>
<path d="M153.112 166.706C153.112 166.706 151.108 163.69 148.188 163.761C145.269 163.831 144.503 167.042 144.503 167.042L153.112 166.706Z" fill="white"/>
<path d="M141.724 134.544C141.724 134.544 141.326 139.962 144.783 142.525C148.241 145.089 162.157 146.026 166.561 145.409C170.965 144.792 180.987 138.625 178.145 137.723C175.303 136.821 169.909 123.091 155.716 122.066C141.524 121.041 136.544 126.454 141.724 134.544Z" fill="#2E2E47"/>
<path d="M141.834 126.329C142.05 126.397 142.295 126.353 142.475 126.19C142.52 126.149 147.12 122.047 152.988 121.67C159.04 121.281 165.415 123.294 168.851 126.679C169.109 126.933 169.526 126.931 169.781 126.672C170.035 126.412 170.032 125.995 169.773 125.741C166.086 122.109 159.306 119.945 152.904 120.356C146.567 120.764 141.792 125.033 141.592 125.214C141.323 125.458 141.302 125.874 141.546 126.144C141.627 126.233 141.727 126.295 141.834 126.329ZM142.207 152.55C142.207 152.55 141.93 153.659 143.017 154.261C144.105 154.864 145.285 153.005 144.822 152.799C144.36 152.593 142.207 152.55 142.207 152.55ZM155.837 153.466C155.837 153.466 155.56 154.575 156.647 155.177C157.735 155.779 158.915 153.92 158.452 153.715C157.989 153.509 155.837 153.466 155.837 153.466Z" fill="#2E2E47"/>
<path d="M193.808 178.748C189.543 178.748 185.115 177.895 184.827 177.839C184.63 177.8 184.5 177.607 184.539 177.409C184.578 177.211 184.768 177.081 184.968 177.121C185.076 177.141 195.795 179.206 199.777 176.978C200.216 176.732 200.428 176.427 200.444 176.017C200.538 173.588 194.114 168.758 191.631 167.102C191.463 166.99 191.417 166.763 191.529 166.595C191.641 166.426 191.867 166.381 192.035 166.493C192.058 166.509 194.354 168.044 196.603 169.948C199.692 172.562 201.229 174.614 201.174 176.045C201.156 176.507 200.961 177.153 200.133 177.617C198.605 178.472 196.233 178.748 193.808 178.748Z" fill="#2E2E47"/>
<path d="M158.542 193.802C158.318 193.802 158.208 193.705 158.115 193.624C156.975 192.627 157.9 185.805 158.211 183.739C158.241 183.539 158.426 183.405 158.626 183.431C158.826 183.461 158.963 183.648 158.933 183.847C158.333 187.839 158.031 192.444 158.572 193.05C159.497 193.135 164.739 188.739 169.297 184.402C169.443 184.263 169.674 184.269 169.813 184.416C169.952 184.562 169.946 184.794 169.8 184.932C169.775 184.957 167.234 187.371 164.594 189.639C160.546 193.117 159.139 193.802 158.542 193.802Z" fill="#2E2E47"/>
<path d="M137.58 203.924L136.11 190.687C136.11 190.687 125.071 176.881 124.108 172.254C123.146 167.628 126.204 161.019 128.68 159.944C131.156 158.87 131.914 161.622 133.218 161.567C134.522 161.511 135.784 161.105 136.177 161.765C136.358 162.068 136.376 162.396 136.522 162.728C137.34 162.154 138.568 161.817 140.117 162.944C140.916 163.524 141.335 164.227 141.506 164.94C142.83 165.348 144.09 165.825 144.733 166.462C145.99 167.704 144.103 172.576 143.695 173.649C143.287 174.722 146.088 179.908 148.168 181.742C150.247 183.576 155.073 200.931 152.707 203.167C150.341 205.402 137.58 203.924 137.58 203.924Z" fill="#CC8B70"/>
<path d="M125.965 193.995C125.965 193.995 151.29 188.929 153.345 192.532C155.4 196.135 156.789 211.446 156.789 214.448C156.789 217.451 163.639 288.431 148.458 289.118C133.277 289.804 119.202 285.064 118.711 268.756C118.365 257.288 125.965 193.995 125.965 193.995Z" fill="#EAE6E4"/>
<path d="M189.047 294.074C189.047 294.074 177.13 289.538 167.804 289.523C165.082 289.519 149.54 296.571 149.74 297.951C149.94 299.332 156.336 298.12 156.336 298.12C156.336 298.12 148.507 301.855 148.599 302.627C148.691 303.399 151.492 303.465 151.492 303.465C151.492 303.465 149.267 305 149.984 305.768C150.7 306.537 165.334 303.518 166.067 303.725C166.8 303.932 162.808 304.973 161.827 305.388C160.846 305.803 157.641 306.32 157.766 307.72C157.892 309.12 169.964 306.143 172.651 306.079C175.338 306.015 177.405 309.369 185.332 308.894C190.664 308.575 198.607 304 198.656 298.654C198.704 293.307 189.047 294.074 189.047 294.074Z" fill="#CC8B70"/>
<path d="M215.942 172.586C215.942 172.586 255.929 260.393 252.72 265.027C250.438 268.323 183.359 280.966 183.359 280.966C183.359 280.966 182.509 319.442 187.34 319.889C206.854 321.698 275.836 318.57 291.721 292.99C310.727 262.383 252.223 177.059 215.942 172.586Z" fill="#EAE6E4"/>
<path d="M203.07 250.944C197.474 250.944 189.947 249.68 184.084 248.695C180.875 248.156 178.103 247.691 176.704 247.627L172.049 247.415C171.848 247.405 171.692 247.234 171.701 247.032C171.71 246.831 171.886 246.666 172.082 246.684L176.737 246.896C178.18 246.962 180.839 247.409 184.205 247.974C191.775 249.245 202.143 250.986 207.347 249.843C208.281 249.638 208.733 249.48 208.95 249.38C208.022 248.981 204.44 248.518 200.965 248.068C196.789 247.527 191.591 246.854 186.62 245.863C173.524 243.253 163.198 245.833 163.095 245.859C162.9 245.91 162.7 245.791 162.65 245.595C162.6 245.4 162.718 245.2 162.913 245.15C163.018 245.123 173.505 242.504 186.762 245.146C191.71 246.132 196.893 246.803 201.059 247.342C208.255 248.274 209.802 248.55 209.837 249.356C209.86 249.866 209.271 250.169 207.504 250.557C206.267 250.829 204.756 250.944 203.07 250.944Z" fill="#2E2E47"/>
<path d="M189.838 246.232C189.831 246.232 189.824 246.232 189.817 246.231C189.615 246.22 189.461 246.047 189.473 245.846C189.475 245.813 189.654 242.573 189.473 240.032C189.291 237.48 184.584 205.72 184.536 205.399C184.507 205.2 184.644 205.013 184.844 204.984C185.043 204.958 185.229 205.092 185.259 205.292C185.453 206.602 190.018 237.4 190.202 239.979C190.386 242.568 190.204 245.854 190.202 245.887C190.191 246.082 190.03 246.232 189.838 246.232Z" fill="#2E2E47"/>
<path d="M267.77 282.313C266.282 282.314 264.363 281.915 262.261 280.984C259.189 279.622 254.299 275.865 250.37 272.845C247.707 270.798 244.688 268.478 244.122 268.462C243.699 268.576 240.196 269.218 235.348 270.107C227.233 271.596 214.971 273.845 209.551 275.024C206.34 275.721 202.528 276.829 198.842 277.901C192.562 279.726 186.624 281.458 183.347 281.333C183.145 281.326 182.987 281.157 182.994 280.955C183.002 280.753 183.166 280.596 183.372 280.603C186.533 280.704 192.689 278.927 198.638 277.198C202.336 276.123 206.16 275.012 209.396 274.309C214.828 273.128 227.097 270.878 235.216 269.388C239.867 268.535 243.541 267.861 243.969 267.749C244.633 267.574 246.279 268.779 250.815 272.265C254.713 275.261 259.565 278.989 262.557 280.315C266.304 281.976 269.493 281.779 270.041 280.915C270.316 280.48 269.751 279.89 269.39 279.576C268.303 278.632 264.381 276.901 260.229 275.067C252.177 271.511 246.877 269.053 246.591 267.368C246.485 266.742 246.58 266.294 246.882 265.998C247.404 265.486 248.324 265.661 249.214 265.832C249.76 265.936 250.585 266.094 250.669 265.858C250.712 265.736 250.804 265.642 250.929 265.591C251.774 265.245 256.784 267.571 270.473 274.29C274.302 276.169 278.215 278.09 280.703 279.235C277.236 277.212 270.553 273.686 265.286 270.907C260.573 268.42 256.121 266.071 253.896 264.789C249.792 262.423 250.676 260.105 251.531 257.864C252.038 256.536 252.562 255.163 252.24 253.611C251.724 251.131 247.838 244.278 242.918 235.601C239.153 228.961 234.885 221.435 230.983 213.865C222.019 196.474 213.854 181.946 213.773 181.802C213.673 181.625 213.736 181.402 213.911 181.303C214.088 181.203 214.31 181.267 214.409 181.442C214.49 181.587 222.662 196.127 231.632 213.529C235.528 221.086 239.791 228.606 243.553 235.24C248.505 243.972 252.415 250.869 252.955 253.462C253.321 255.223 252.733 256.765 252.214 258.125C251.333 260.433 250.697 262.101 254.261 264.155C256.473 265.431 260.919 267.777 265.627 270.26C278.738 277.178 283.435 279.762 283.675 280.482C283.728 280.64 283.685 280.805 283.563 280.912C283.196 281.232 282.636 281.075 270.151 274.947C262.792 271.335 252.785 266.423 251.274 266.28C250.898 266.898 249.935 266.714 249.077 266.55C248.438 266.428 247.643 266.276 247.394 266.52C247.248 266.662 247.269 266.994 247.312 267.246C247.553 268.669 255.05 271.98 260.524 274.398C264.91 276.335 268.698 278.008 269.869 279.023C271.124 280.113 270.902 280.921 270.658 281.307C270.259 281.936 269.219 282.313 267.77 282.313Z" fill="#2E2E47"/>
<path d="M222.971 367.144C222.861 367.144 222.752 367.094 222.681 367C222.558 366.84 222.589 366.61 222.749 366.487C222.945 366.337 242.443 351.407 248.92 345.732C252.488 342.606 259.56 338.603 266.398 334.731C272.13 331.487 277.543 328.422 280.133 326.281C281.618 325.052 282.984 323.634 284.305 322.263C288.089 318.335 292.002 314.273 299.574 313.349C309.723 312.103 320.221 319.941 320.326 320.02C320.487 320.142 320.519 320.371 320.398 320.533C320.276 320.694 320.047 320.726 319.886 320.604C319.784 320.526 309.516 312.874 299.663 314.075C292.347 314.968 288.526 318.935 284.83 322.771C283.495 324.157 282.115 325.59 280.598 326.844C277.959 329.027 272.518 332.107 266.758 335.368C259.952 339.222 252.913 343.206 249.401 346.283C242.906 351.973 223.389 366.918 223.193 367.068C223.126 367.119 223.048 367.144 222.971 367.144Z" fill="white"/>
<path d="M178.018 350.652C177.96 350.652 177.902 350.639 177.848 350.61C177.545 350.45 147.474 334.581 140.574 332.717C140.379 332.664 140.264 332.463 140.316 332.268C140.369 332.074 140.568 331.959 140.764 332.01C147.743 333.896 176.949 349.308 178.189 349.963C178.367 350.057 178.435 350.279 178.341 350.457C178.276 350.581 178.149 350.652 178.018 350.652Z" fill="white"/>
<path d="M209.474 340.274C209.317 340.274 209.172 340.173 209.124 340.015C209.065 339.822 209.174 339.617 209.367 339.558C211.006 339.056 249.616 327.261 258.338 328C258.539 328.017 258.688 328.194 258.671 328.395C258.654 328.596 258.477 328.75 258.277 328.729C249.699 328.013 209.981 340.135 209.581 340.258C209.545 340.269 209.509 340.274 209.474 340.274Z" fill="white"/>
<path d="M209.474 343.981C209.278 343.981 209.115 343.826 209.109 343.628C209.101 343.426 209.259 343.257 209.461 343.25L254.001 341.678C254.201 341.655 254.372 341.829 254.379 342.03C254.386 342.232 254.229 342.401 254.027 342.409L209.487 343.981C209.482 343.981 209.478 343.981 209.474 343.981Z" fill="white"/>
<path d="M279.255 321.244C279.165 321.244 279.075 321.211 279.005 321.145C278.858 321.007 278.851 320.775 278.989 320.628C279.086 320.525 288.876 310.256 302.805 309.393C303.004 309.387 303.18 309.533 303.192 309.735C303.205 309.937 303.052 310.11 302.851 310.123C289.207 310.969 279.617 321.027 279.521 321.129C279.449 321.206 279.352 321.244 279.255 321.244Z" fill="white"/>
<path d="M145.865 289.888C145.655 289.888 145.478 289.731 145.479 289.522C145.479 289.32 145.642 289.156 145.844 289.156C145.853 289.16 145.858 289.156 145.865 289.156C153.627 289.157 154.474 284.424 155.757 277.262C156.036 275.702 156.326 274.087 156.711 272.373C158.365 265.014 158.228 255.992 158.068 245.546C158.017 242.212 157.965 238.764 157.965 235.144C157.965 220.226 155.467 194.896 155.442 194.642C155.421 194.441 155.568 194.262 155.769 194.242C155.972 194.224 156.148 194.368 156.169 194.57C156.194 194.824 158.696 220.19 158.695 235.144C158.695 238.759 158.748 242.203 158.798 245.535C158.959 256.028 159.097 265.089 157.424 272.533C157.042 274.232 156.754 275.839 156.476 277.392C155.176 284.645 154.236 289.888 145.865 289.888Z" fill="#2E2E47"/>
<path d="M353.742 395.4L352.355 375.636L355.481 374.855L350.812 372.331L349.485 351.18L411.013 361.875L470.262 352.08L470.314 359.682L468.917 365.392L470.397 372.036L470.481 384.319L415.324 401.611L353.742 395.4Z" fill="#EAE6E4"/>
<path d="M349.485 351.178L413.448 341.5L470.262 352.078L411.013 361.873L349.485 351.178Z" fill="white"/>
<path d="M416.31 381.301L416.272 381.298L355.462 375.047C355.355 375.036 355.277 374.941 355.288 374.834C355.299 374.727 355.393 374.649 355.501 374.66L416.273 380.907L468.861 365.204C468.964 365.173 469.073 365.231 469.103 365.334C469.134 365.437 469.075 365.546 468.972 365.576L416.31 381.301ZM422.219 385.756C422.134 385.756 422.056 385.7 422.032 385.614C422.003 385.511 422.064 385.403 422.167 385.374L470.345 371.847C470.448 371.818 470.555 371.878 470.585 371.982C470.613 372.086 470.553 372.193 470.45 372.222L422.272 385.749C422.254 385.754 422.237 385.756 422.219 385.756Z" fill="#2E2E47"/>
<path d="M437.233 361.536L469.181 349.346L416.305 339.012L437.233 361.536Z" fill="#FFC97D"/>
<path d="M452.052 344.088L466.699 348.057L441.643 359.041L431.496 354.713L452.052 344.088Z" fill="#EAE6E4"/>
<path d="M353.878 346.199L437.232 361.537L466.957 344.723L451.162 341.331L455.142 338.308L432.621 330.983L427.329 334.251L401.909 328.764L353.878 346.199Z" fill="#FFEA8F"/>
<path d="M401.441 330.67L416.304 334.373L409.399 338.403L392.921 334.185L401.441 330.67Z" fill="white"/>
<path d="M371.299 342.026L412.688 329.99L468.829 337.395L436.048 353.603L371.299 342.026Z" fill="#D34848"/>
<path d="M436.048 353.696L371.299 342.119V328.164L436.048 339.741V353.696Z" fill="#FA634B"/>
<path d="M461.26 325.74V333.287L459.339 333.715L461.26 334.284V338.058L436.047 350.756V336.42L461.26 325.74Z" fill="#EAE6E4"/>
<path d="M429.98 350.352L392.301 343.615V335.494L429.98 342.231V350.352Z" fill="white"/>
<path d="M371.299 328.164L412.688 316.129L468.829 323.534L436.048 339.741L371.299 328.164Z" fill="#F9874E"/>
<path d="M379.3 341.155C381.974 341.155 384.141 339.114 384.141 336.598C384.141 334.081 381.974 332.041 379.3 332.041C376.626 332.041 374.459 334.081 374.459 336.598C374.459 339.114 376.626 341.155 379.3 341.155Z" fill="white"/>
<path d="M379.299 340.515C381.597 340.515 383.46 338.762 383.46 336.6C383.46 334.437 381.597 332.684 379.299 332.684C377.002 332.684 375.139 334.437 375.139 336.6C375.139 338.762 377.002 340.515 379.299 340.515Z" fill="#2E2E47"/>
<path d="M397.429 336.411V344.532L392.301 343.615V335.494L397.429 336.411Z" fill="#EAE6E4"/>
<path d="M371.299 342.026L412.688 329.99L468.829 337.395L436.048 353.603L371.299 342.026Z" fill="#D34848"/>
<path d="M436.048 353.696L371.299 342.119V328.164L436.048 339.741V353.696Z" fill="#FA634B"/>
<path d="M461.26 325.74V333.287L459.339 333.715L461.26 334.284V338.058L436.047 350.756V336.42L461.26 325.74Z" fill="#EAE6E4"/>
<path d="M429.98 350.352L392.301 343.615V335.494L429.98 342.231V350.352Z" fill="white"/>
<path d="M371.299 328.164L412.688 316.129L468.829 323.534L436.048 339.741L371.299 328.164Z" fill="#F9874E"/>
<path d="M379.3 341.155C381.974 341.155 384.141 339.114 384.141 336.598C384.141 334.081 381.974 332.041 379.3 332.041C376.626 332.041 374.459 334.081 374.459 336.598C374.459 339.114 376.626 341.155 379.3 341.155Z" fill="white"/>
<path d="M379.299 340.515C381.597 340.515 383.46 338.762 383.46 336.6C383.46 334.437 381.597 332.684 379.299 332.684C377.002 332.684 375.139 334.437 375.139 336.6C375.139 338.762 377.002 340.515 379.299 340.515Z" fill="#2E2E47"/>
<path d="M397.429 336.411V344.532L392.301 343.615V335.494L397.429 336.411Z" fill="#EAE6E4"/>
<path d="M365.183 324.797L406.572 312.762L462.713 320.166L429.932 336.374L365.183 324.797Z" fill="#548FA3"/>
<path d="M429.932 336.468L365.183 324.891V310.936L429.932 322.512V336.468Z" fill="#84CECA"/>
<path d="M455.144 308.512V316.059L453.224 316.486L455.144 317.056V320.829L429.932 333.527V319.192L455.144 308.512Z" fill="#EAE6E4"/>
<path d="M423.864 333.123L386.185 326.386V318.266L423.864 325.003V333.123Z" fill="white"/>
<path d="M365.183 310.936L406.572 298.9L462.713 306.305L429.932 322.513L365.183 310.936Z" fill="#B0FFD5"/>
<path d="M373.184 323.926C375.857 323.926 378.025 321.886 378.025 319.369C378.025 316.853 375.857 314.812 373.184 314.812C370.51 314.812 368.343 316.853 368.343 319.369C368.343 321.886 370.51 323.926 373.184 323.926Z" fill="white"/>
<path d="M373.183 323.287C375.481 323.287 377.343 321.534 377.343 319.371C377.343 317.208 375.481 315.455 373.183 315.455C370.886 315.455 369.023 317.208 369.023 319.371C369.023 321.534 370.886 323.287 373.183 323.287Z" fill="#2E2E47"/>
<path d="M391.313 319.183V327.303L386.185 326.386V318.266L391.313 319.183Z" fill="#EAE6E4"/>
<path d="M443.101 321.452L475.049 309.262L422.173 298.928L443.101 321.452Z" fill="#F9874E"/>
<path d="M457.92 304.004L472.568 307.973L447.511 318.957L437.364 314.629L457.92 304.004Z" fill="#EAE6E4"/>
<path d="M359.747 306.115L443.101 321.453L472.826 304.639L457.03 301.247L461.011 298.223L438.49 290.899L433.198 294.167L407.778 288.68L359.747 306.115Z" fill="#FFB761"/>
<path d="M407.31 290.586L422.173 294.289L415.268 298.319L398.79 294.101L407.31 290.586Z" fill="white"/>
<path d="M357.395 298.383L432.08 312.761L473.335 302.859L473.169 298.958L471.905 297.478L472.996 294.906L472.792 290.133L431.893 296.638L358.67 284.795L358.263 289.138L359.375 291.044L357.954 292.423L357.395 298.383Z" fill="#EAE6E4"/>
<path d="M358.67 284.796L406.05 278.633L472.792 290.134L431.893 296.639L358.67 284.796Z" fill="#F4F4F4"/>
<path d="M389.055 296.833C389.042 296.833 389.028 296.832 389.015 296.829L362.143 291.155C362.038 291.132 361.971 291.029 361.993 290.924C362.016 290.819 362.119 290.752 362.224 290.774L389.095 296.448C389.2 296.471 389.267 296.574 389.245 296.679C389.226 296.771 389.145 296.833 389.055 296.833ZM429.389 305.082L429.356 305.076L398.76 299.975C398.654 299.957 398.583 299.857 398.601 299.751C398.618 299.645 398.717 299.573 398.824 299.591L429.387 304.687L450.039 301.023C450.145 301.003 450.245 301.075 450.264 301.18C450.283 301.286 450.212 301.387 450.107 301.406L429.389 305.082Z" fill="#2E2E47"/>
</g>
<defs>
<clipPath id="clip0_847_7866">
<rect width="475" height="326" fill="white" transform="translate(0 111)"/>
</clipPath>
</defs>
</svg>
