<svg width="15" height="14" viewBox="0 0 15 14" fill="none" xmlns="http://www.w3.org/2000/svg">
<path d="M7.50033 2.1875C5.80241 2.1875 4.40658 2.99688 3.33626 4.03867C2.33366 5.01758 1.64095 6.17969 1.28678 7C1.64095 7.82031 2.33366 8.98242 3.33366 9.96133C4.40658 11.0031 5.80241 11.8125 7.50033 11.8125C9.19824 11.8125 10.5941 11.0031 11.6644 9.96133C12.667 8.98242 13.3597 7.82031 13.7139 7C13.3597 6.17969 12.667 5.01758 11.667 4.03867C10.5941 2.99688 9.19824 2.1875 7.50033 2.1875ZM2.4847 3.07891C3.71126 1.88125 5.39616 0.875 7.50033 0.875C9.60449 0.875 11.2894 1.88125 12.516 3.07891C13.7347 4.26836 14.5498 5.6875 14.9378 6.66367C15.0238 6.87969 15.0238 7.12031 14.9378 7.33633C14.5498 8.3125 13.7347 9.73438 12.516 10.9211C11.2894 12.1187 9.60449 13.125 7.50033 13.125C5.39616 13.125 3.71126 12.1187 2.4847 10.9211C1.26595 9.73438 0.450846 8.3125 0.0654297 7.33633C-0.0205078 7.12031 -0.0205078 6.87969 0.0654297 6.66367C0.450846 5.6875 1.26595 4.26562 2.4847 3.07891ZM7.50033 9.1875C8.65137 9.1875 9.58366 8.20859 9.58366 7C9.58366 5.79141 8.65137 4.8125 7.50033 4.8125C7.4821 4.8125 7.46647 4.8125 7.44824 4.8125C7.4821 4.95195 7.50033 5.09961 7.50033 5.25C7.50033 6.21523 6.75293 7 5.83366 7C5.69043 7 5.5498 6.98086 5.41699 6.94531C5.41699 6.96445 5.41699 6.98086 5.41699 7C5.41699 8.20859 6.34928 9.1875 7.50033 9.1875ZM7.50033 3.5C8.38438 3.5 9.23223 3.86875 9.85735 4.52513C10.4825 5.1815 10.8337 6.07174 10.8337 7C10.8337 7.92826 10.4825 8.8185 9.85735 9.47487C9.23223 10.1313 8.38438 10.5 7.50033 10.5C6.61627 10.5 5.76842 10.1313 5.1433 9.47487C4.51818 8.8185 4.16699 7.92826 4.16699 7C4.16699 6.07174 4.51818 5.1815 5.1433 4.52513C5.76842 3.86875 6.61627 3.5 7.50033 3.5Z" fill="#888888"/>
</svg>
