<svg width="10" height="11" viewBox="0 0 10 11" fill="none" xmlns="http://www.w3.org/2000/svg">
<path d="M9.31076 8.98634C9.59026 9.26082 9.59026 9.70617 9.31076 9.98068C9.03126 10.2552 8.57777 10.2552 8.29824 9.98068L4.77321 6.49318L1.22313 9.97951C0.943629 10.254 0.490143 10.254 0.210611 9.97951C-0.0689208 9.70502 -0.068891 9.25968 0.210611 8.98517L3.76189 5.50001L0.209626 1.98732C-0.0698755 1.71284 -0.0698755 1.26749 0.209626 0.992982C0.489128 0.71847 0.942614 0.7185 1.22215 0.992982L4.77321 4.50685L8.3233 1.02052C8.6028 0.746039 9.05628 0.746039 9.33582 1.02052C9.61535 1.295 9.61532 1.74035 9.33582 2.01486L5.78454 5.50001L9.31076 8.98634Z" fill="#2E234E"/>
</svg>
