<svg width="15" height="15" viewBox="0 0 15 15" fill="none" xmlns="http://www.w3.org/2000/svg">
<path d="M14.0713 9.38396L11.1943 8.15056C10.5671 7.87865 9.82793 8.05947 9.40137 8.58855L8.59746 9.56999C7.28555 8.8156 6.18662 7.71697 5.4334 6.4323L6.41631 5.62722C6.94102 5.1989 7.12207 4.46413 6.85635 3.83865L5.61621 0.923899C5.31855 0.244212 4.58086 -0.126687 3.86221 0.0394267L1.18887 0.656419C0.489258 0.81638 0 1.43074 0 2.15027C0 9.23718 5.7627 14.9999 12.8496 14.9999C13.5691 14.9999 14.1835 14.5109 14.3174 13.8125L14.9344 11.1365C15.1289 10.4152 14.7539 9.67693 14.0713 9.38396ZM13.5908 10.8195L12.9729 13.4975C12.9592 13.5298 12.9112 13.5937 12.8493 13.5937C6.5388 13.5937 1.40599 8.46084 1.40599 2.1503C1.40599 2.08895 1.44398 2.0409 1.50396 2.02716L4.17993 1.40958C4.18909 1.40729 4.1987 1.40638 4.20785 1.40638C4.25866 1.40638 4.30626 1.43705 4.32642 1.48281L5.56099 4.36357C5.58296 4.41531 5.56831 4.47572 5.52437 4.51188L4.0957 5.6574C3.84302 5.86429 3.76611 6.21814 3.90984 6.51111C4.87693 8.48073 6.49559 10.1 8.46551 11.0668C8.73211 11.2105 9.11267 11.1336 9.3198 10.8809L10.492 9.44917C10.5245 9.40798 10.5853 9.3924 10.6362 9.41621L13.5149 10.6493C13.5703 10.6994 13.6025 10.7609 13.5908 10.8195Z" fill="#888888"/>
</svg>
