<svg width="28" height="28" viewBox="0 0 28 28" fill="none" xmlns="http://www.w3.org/2000/svg">
<path d="M8.99261 8.91602H8.70655L8.172 11.5895H9.52716L8.99261 8.91602Z" fill="white"/>
<path d="M19.8057 14.2637C20.0943 15.0389 20.4782 15.6665 20.903 16.2004C21.3278 15.6665 21.7562 15.0389 22.0448 14.2637H19.8057Z" fill="white"/>
<path d="M23.621 6.86523H15.3207L17.0514 20.7528C17.082 21.3208 16.9267 21.8556 16.556 22.2743L13.6251 25.6238H23.621C24.7266 25.6238 25.626 24.7244 25.626 23.6188V8.91487C25.626 7.80922 24.7266 6.86523 23.621 6.86523ZM23.621 14.2617H23.4425C23.0622 15.4819 22.4591 16.4366 21.8324 17.1892C22.3233 17.6381 22.8483 18.0063 23.3703 18.4188C23.6582 18.6492 23.7052 19.0695 23.4741 19.358C23.2441 19.646 22.8221 19.6927 22.5349 19.4618C21.9677 19.0141 21.4353 18.6394 20.903 18.1508C20.3706 18.6394 19.8828 19.0141 19.3156 19.4618C19.0284 19.6927 18.6064 19.646 18.3764 19.358C18.1453 19.0695 18.1923 18.6492 18.4802 18.4188C19.0022 18.0063 19.4826 17.6381 19.9736 17.1892C19.3469 16.4366 18.7883 15.4819 18.408 14.2617H18.2295C17.8601 14.2617 17.5612 13.9628 17.5612 13.5934C17.5612 13.224 17.8601 12.925 18.2295 12.925H20.2346V12.2567C20.2346 11.8872 20.5335 11.5883 20.903 11.5883C21.2724 11.5883 21.5713 11.8872 21.5713 12.2567V12.925H23.621C23.9904 12.925 24.2893 13.224 24.2893 13.5934C24.2893 13.9628 23.9904 14.2617 23.621 14.2617Z" fill="white"/>
<path d="M13.6926 4.56695C13.568 3.5657 12.7123 2.81055 11.7032 2.81055H4.81843C3.71279 2.81055 2.81335 3.70998 2.81335 4.81562V19.6086C2.81335 20.7143 3.71279 21.6137 4.81843 21.6137C8.81388 21.6137 11.6881 21.6137 15.3585 21.6137C15.5535 21.3908 15.7169 21.2513 15.7238 20.9604C15.7255 20.8874 13.7017 4.63931 13.6926 4.56695ZM11.0094 15.5854C10.655 15.6584 10.296 15.4283 10.2229 15.0613L9.79575 12.925H7.90603L7.47886 15.0613C7.40708 15.4229 7.0585 15.6605 6.69238 15.5854C6.33079 15.513 6.0958 15.1612 6.16825 14.7989L7.50492 8.11536C7.56757 7.80337 7.84173 7.57818 8.16023 7.57818H9.5415C9.86 7.57818 10.1342 7.80337 10.1968 8.11536L11.5335 14.7989C11.606 15.1612 11.371 15.513 11.0094 15.5854Z" fill="white"/>
<path d="M10.622 22.9512L10.7367 23.8682C10.8132 24.4823 11.2212 25.1086 11.8924 25.4213C13.1591 24.0269 12.3928 24.8705 14.1363 22.9512H10.622Z" fill="white"/>
</svg>
