<svg width="34" height="34" viewBox="0 0 34 34" fill="none" xmlns="http://www.w3.org/2000/svg">
<path fill-rule="evenodd" clip-rule="evenodd" d="M7.67822 0H26.3218C28.3564 0.0058675 30.306 0.820475 31.7446 2.26586C33.1833 3.71125 33.9942 5.66993 34 7.714V26.2888C33.9934 28.3324 33.1823 30.2903 31.7437 31.7351C30.3051 33.1799 28.3559 33.9941 26.3218 34H7.67822C5.6441 33.9941 3.69493 33.1799 2.25632 31.7351C0.81772 30.2903 0.00656983 28.3324 0 26.2888V7.714C0.00584028 5.66993 0.816669 3.71125 2.25535 2.26586C3.69403 0.820475 5.64363 0.0058675 7.67822 0Z" fill="#0A66C2"/>
<path fill-rule="evenodd" clip-rule="evenodd" d="M13.6105 13.1791H17.9076V15.403H17.9684C18.5688 14.3244 20.0298 13.1791 22.2129 13.1791C26.7479 13.1791 27.5863 16.0146 27.5863 19.7034V27.5036H23.1066V20.5707C23.1066 18.9834 23.0734 16.9402 20.7769 16.9402C18.4803 16.9402 18.0874 18.6665 18.0874 20.4567V27.5175H13.6105V13.1791ZM11.0677 8.83707C11.0677 9.3 10.9311 9.75253 10.6751 10.1374C10.4191 10.5224 10.0552 10.8224 9.62951 10.9995C9.20381 11.1767 8.73537 11.223 8.28344 11.1327C7.83152 11.0424 7.41639 10.8195 7.09057 10.4921C6.76475 10.1648 6.54286 9.74773 6.45297 9.2937C6.36308 8.83967 6.40921 8.36905 6.58555 7.94136C6.76188 7.51367 7.06049 7.14811 7.44361 6.89092C7.82674 6.63373 8.27717 6.49646 8.73796 6.49646C9.35562 6.4972 9.94778 6.74403 10.3845 7.18282C10.8213 7.62161 11.067 8.21653 11.0677 8.83707ZM6.41374 13.1791H11.0677V27.5036H6.41374V13.1791Z" fill="white"/>
</svg>
