<svg width="222" height="58" viewBox="0 0 222 58" fill="none" xmlns="http://www.w3.org/2000/svg">
<path d="M6.06962 33.394C3.71997 33.9057 2.18759 35.5429 1.77896 37.8964C1.6768 38.5104 1.77896 39.5336 0.757378 39.2266C0.450904 39.1243 0.0422955 38.1011 0.144454 37.4871C0.553086 34.4173 2.59622 32.6778 5.35449 31.4498C5.35449 30.1195 5.45666 28.7893 5.35449 27.459C5.35449 27.0497 4.74155 26.6404 4.33291 26.4357C2.18759 25.3102 0.757403 23.6729 0.144454 21.3194C0.0422955 20.91 -0.0598377 20.5007 0.0423204 20.0914C0.144479 19.6821 0.553098 19.3752 0.859574 18.9659C1.16604 19.2728 1.6768 19.5798 1.77896 19.9892C2.08543 22.3426 3.31137 23.8776 5.45669 24.7985C5.66101 24.9009 5.86533 24.9009 6.17181 25.0032C8.01065 21.7287 10.8711 20.1938 14.651 20.1938C15.0595 20.1938 15.7747 19.4775 15.979 18.8635C18.2264 13.8495 20.7804 9.04011 24.356 4.94703C25.5819 3.51444 27.2163 2.18419 28.8508 1.16092C32.3242 -0.98795 36.1041 -0.0670059 38.4538 3.20746C42.8466 9.24477 42.8466 15.1797 38.0451 20.9101C36.0019 23.3659 33.2437 25.4125 30.894 27.5614C30.3832 28.073 29.7703 28.38 29.0552 28.994C30.3833 30.0172 31.7113 31.0405 32.9372 31.9614C36.4106 34.8266 39.5775 37.9987 41.1099 42.3988C43.0509 47.8221 39.5775 54.5757 36.4106 56.7246C33.6524 58.6688 29.9746 58.4642 27.0121 55.599C24.5602 53.2455 22.3128 50.4826 20.4739 47.6174C18.6351 44.9569 17.4092 41.7848 15.8769 38.9197C15.5704 38.408 14.9574 37.8964 14.5487 37.8964C10.6667 38.1011 7.8063 36.5662 6.06962 33.394ZM22.9257 29.0962C23.743 28.5847 24.4582 28.073 25.071 27.6637C28.8509 25.0031 32.7329 22.445 35.5934 18.6589C38.9646 14.2588 38.9646 9.65408 35.5934 5.35634C33.9589 3.3098 32.2221 3.00281 30.0768 4.33307C29.0552 4.94703 28.1358 5.76564 27.3185 6.68659C22.8235 11.7006 19.7588 17.6356 17.6134 23.9799C16.4897 27.1521 16.3876 30.3242 17.3071 33.4964C19.248 39.8406 22.4149 45.5709 26.5012 50.6873C27.5228 52.0176 28.953 53.1431 30.3832 54.0641C32.2221 55.2921 33.7545 55.0874 35.0826 53.4502C38.2495 49.7664 39.271 45.4686 36.7171 41.2732C34.8782 38.3057 32.3242 36.0545 29.566 33.9057C27.4206 32.2683 25.1732 30.7335 22.9257 29.0962ZM14.038 34.4173C12.9142 30.9381 12.9142 27.3567 14.038 23.8776C10.4624 23.7752 8.41928 26.0264 8.52144 29.5056C8.72575 32.6778 10.871 34.6219 14.038 34.4173Z" fill="#060626"/>
<path d="M33.2437 27.0508C33.2437 28.4834 33.2437 29.7113 33.2437 31.1439C32.3242 30.4275 31.507 29.9159 30.4854 29.1996C31.507 28.381 32.222 27.8694 33.2437 27.0508Z" fill="black"/>
<path d="M22.9261 29.0957C25.2758 30.7329 27.5233 32.2678 29.6686 33.905C32.4269 35.9516 34.9809 38.2028 36.8197 41.2726C39.3736 45.4681 38.3521 49.8681 35.1852 53.4496C33.755 55.0867 32.2226 55.2915 30.4859 54.0636C29.0557 53.1426 27.7277 52.017 26.6039 50.6867C22.5176 45.5703 19.3507 39.7377 17.4097 33.4957C16.3881 30.3236 16.5923 27.1514 17.7162 23.9793C19.9636 17.635 23.0283 11.8024 27.4212 6.68601C28.2384 5.76506 29.1579 5.04879 30.1794 4.3325C32.3248 2.89991 34.0614 3.30922 35.6959 5.35576C39.0671 9.65351 39.0671 14.2583 35.6959 18.6583C32.8355 22.3421 28.9536 25.0026 25.1737 27.6631C24.3563 28.0724 23.6413 28.584 22.9261 29.0957Z" fill="white"/>
<path d="M14.0381 34.4174C10.8712 34.7243 8.72593 32.6778 8.62377 29.4033C8.52162 26.0266 10.5648 23.7754 14.1404 23.7754C13.0166 27.3568 12.9144 30.9383 14.0381 34.4174Z" fill="#E6952A"/>
<path d="M82.7559 30.6235L82.6472 27.6029C83.7586 27.6515 84.7252 27.5908 85.5468 27.421C86.3925 27.2512 87.0932 26.9479 87.649 26.5112C88.2289 26.0502 88.6638 25.4194 88.9538 24.6188C89.2437 23.8182 89.3887 22.8356 89.3887 21.671C89.3887 20.094 89.2437 18.8688 88.9538 17.9954C88.6879 17.0978 88.2289 16.4669 87.5765 16.103C86.9482 15.7391 86.0904 15.5571 85.0031 15.5571C84.544 15.5571 84.0245 15.5814 83.4445 15.6299C82.8646 15.6785 82.2485 15.7513 81.5961 15.8483L80.2188 12.7913C80.7021 12.7671 81.1732 12.7428 81.6323 12.7186C82.1156 12.67 82.5747 12.6458 83.0096 12.6458C83.4687 12.6215 83.8916 12.6094 84.2782 12.6094C86.2838 12.6094 87.9268 12.852 89.2075 13.3372C90.4882 13.7981 91.4305 14.6837 92.0346 15.9938C92.6629 17.2797 92.977 19.1357 92.977 21.5618C92.977 23.8182 92.5541 25.6135 91.7084 26.9479C90.8869 28.258 89.7028 29.2042 88.1564 29.7865C86.6341 30.3445 84.834 30.6235 82.7559 30.6235ZM80.255 38.8845C80.2791 37.8655 80.3034 36.6282 80.3275 35.1725C80.3516 33.6926 80.3637 32.1277 80.3637 30.4779C80.3879 28.8281 80.4 27.2512 80.4 25.7469C80.4 24.2185 80.3879 22.6414 80.3637 21.016C80.3637 19.3905 80.3516 17.862 80.3275 16.4306C80.3034 14.9749 80.2671 13.7618 80.2188 12.7913L84.1332 13.0825C84.1091 13.689 84.0848 14.3926 84.0607 15.1932C84.0607 15.9938 84.0486 16.8551 84.0245 17.7771C84.0003 18.6747 83.9882 19.5845 83.9882 20.5065C83.9882 21.4284 83.9761 22.3382 83.952 23.2359C83.952 24.1093 83.9641 24.9221 83.9882 25.6742C83.9882 26.4262 83.9882 27.3482 83.9882 28.44C84.0123 29.5075 84.0245 30.6477 84.0245 31.8608C84.0486 33.0739 84.0607 34.2627 84.0607 35.4273C84.0848 36.5918 84.097 37.6593 84.097 38.6298L80.255 38.8845ZM90.0774 38.8845C89.4491 37.2347 88.7725 35.585 88.0477 33.9352C87.3469 32.2611 86.5737 30.5385 85.728 28.7675L89.2075 27.6393C89.9324 29.4347 90.7177 31.2543 91.5634 33.0982C92.4333 34.9178 93.424 36.8102 94.5355 38.7753L90.0774 38.8845ZM104.619 39.1029C103.241 39.1029 102.142 38.7511 101.32 38.0475C100.523 37.3439 99.9189 36.4098 99.5081 35.2453C99.2181 34.3477 99.0128 33.3651 98.8919 32.2975C98.7712 31.2058 98.7107 30.0534 98.7107 28.8403C98.7107 27.8213 98.759 26.8509 98.8557 25.9289C98.9765 25.0069 99.1577 24.1579 99.3993 23.3815C99.8101 22.0956 100.45 21.0645 101.32 20.2881C102.214 19.5117 103.411 19.1236 104.909 19.1236C106.189 19.1236 107.192 19.4025 107.917 19.9606C108.666 20.4943 109.198 21.2465 109.512 22.2169C109.85 23.1873 110.019 24.3276 110.019 25.6378C110.019 26.2928 109.983 26.9843 109.91 27.7121C109.838 28.4157 109.741 29.1436 109.621 29.8956L106.503 27.6029C106.552 27.1177 106.588 26.6567 106.612 26.22C106.66 25.7833 106.685 25.3709 106.685 24.9827C106.685 24.3276 106.624 23.7575 106.503 23.2723C106.383 22.787 106.177 22.411 105.887 22.1441C105.621 21.853 105.223 21.7074 104.691 21.7074C104.063 21.7074 103.567 21.95 103.205 22.4353C102.867 22.9205 102.613 23.5756 102.444 24.4004C102.299 24.9827 102.202 25.6378 102.154 26.3656C102.13 27.0935 102.118 27.8455 102.118 28.6219C102.118 29.2528 102.118 29.8714 102.118 30.4779C102.142 31.0844 102.166 31.6546 102.19 32.1884C102.214 32.6978 102.275 33.1831 102.371 33.644C102.516 34.4932 102.77 35.1725 103.133 35.682C103.495 36.1673 104.027 36.4098 104.727 36.4098C105.259 36.4098 105.682 36.3007 105.996 36.0823C106.31 35.8397 106.528 35.5243 106.648 35.1361C106.793 34.7236 106.866 34.2749 106.866 33.7896C106.866 33.5713 106.854 33.3407 106.83 33.0982C106.805 32.8556 106.757 32.6129 106.685 32.3703H109.91C109.959 32.6372 109.995 32.892 110.019 33.1346C110.043 33.3771 110.055 33.6198 110.055 33.8624C110.055 34.9056 109.85 35.8276 109.439 36.6282C109.028 37.4046 108.424 38.0111 107.627 38.4478C106.83 38.8845 105.827 39.1029 104.619 39.1029ZM99.8343 30.1868L99.7255 27.421L109.222 27.3482L109.621 29.8956C109.621 29.8956 109.403 29.8956 108.968 29.8956C108.557 29.8956 107.989 29.9078 107.265 29.932C106.564 29.9563 105.779 29.9806 104.909 30.0048C104.039 30.0048 103.157 30.029 102.263 30.0776C101.393 30.1018 100.583 30.1382 99.8343 30.1868ZM121.419 39.0665C120.018 39.0665 118.918 38.7025 118.121 37.9747C117.323 37.2469 116.732 36.2764 116.345 35.0633C116.103 34.2385 115.935 33.3407 115.837 32.3703C115.741 31.3756 115.692 30.3202 115.692 29.2042C115.692 28.0396 115.753 26.9479 115.874 25.9289C116.019 24.8857 116.248 23.9395 116.562 23.0903C116.852 22.2897 117.227 21.5982 117.686 21.016C118.169 20.4095 118.762 19.9484 119.462 19.6331C120.187 19.2934 121.02 19.1236 121.963 19.1236C123.292 19.1236 124.319 19.3905 125.044 19.9242C125.793 20.4579 126.312 21.2101 126.602 22.1805C126.917 23.1267 127.073 24.267 127.073 25.6014C127.073 26.0866 127.049 26.5961 127.001 27.1298C126.977 27.6393 126.928 28.173 126.856 28.7311L123.521 28.2216C123.57 27.6636 123.606 27.1298 123.63 26.6204C123.679 26.0866 123.702 25.6014 123.702 25.1647C123.702 24.461 123.642 23.8546 123.521 23.3451C123.425 22.8113 123.231 22.411 122.941 22.1441C122.651 21.853 122.241 21.7074 121.709 21.7074C121.081 21.7074 120.585 21.9622 120.223 22.4716C119.885 22.9569 119.632 23.612 119.462 24.4368C119.317 25.0677 119.221 25.7833 119.172 26.584C119.148 27.3604 119.136 28.173 119.136 29.0222C119.136 29.6045 119.136 30.1626 119.136 30.6963C119.16 31.23 119.184 31.7274 119.208 32.1884C119.233 32.6493 119.281 33.086 119.353 33.4985C119.474 34.3961 119.704 35.1119 120.042 35.6456C120.404 36.1551 120.948 36.4098 121.673 36.4098C122.47 36.4098 123.026 36.2279 123.34 35.864C123.679 35.5 123.847 35.0269 123.847 34.4447C123.847 34.2263 123.836 34.0201 123.811 33.826C123.787 33.6319 123.751 33.4257 123.702 33.2073L126.783 32.7342C126.832 32.9768 126.856 33.2195 126.856 33.4621C126.881 33.7047 126.892 33.9352 126.892 34.1535C126.892 35.1483 126.699 36.0217 126.312 36.7738C125.926 37.5016 125.333 38.0717 124.536 38.4842C123.739 38.8723 122.7 39.0665 121.419 39.0665ZM139.889 30.114C140.179 28.9252 140.397 27.8213 140.542 26.8023C140.687 25.7591 140.759 24.8493 140.759 24.0729C140.759 23.2965 140.65 22.7022 140.433 22.2897C140.215 21.853 139.84 21.6346 139.309 21.6346C138.874 21.6346 138.451 21.853 138.041 22.2897C137.63 22.7022 137.291 23.3572 137.026 24.2549C136.783 25.1525 136.663 26.3292 136.663 27.7849L135.141 29.3134C135.141 28.3186 135.189 27.3118 135.286 26.2928C135.406 25.2738 135.576 24.3276 135.794 23.4542C136.035 22.5566 136.337 21.768 136.7 21.0887C137.086 20.3851 137.557 19.8392 138.113 19.4511C138.668 19.063 139.321 18.8688 140.07 18.8688C140.988 18.8688 141.713 19.0872 142.245 19.5239C142.776 19.9606 143.163 20.5793 143.405 21.3799C143.646 22.1805 143.767 23.0903 143.767 24.1093C143.767 24.9827 143.695 25.9411 143.55 26.9843C143.405 28.0033 143.211 29.0465 142.97 30.114H139.889ZM133.039 38.6662C133.086 37.9869 133.123 37.3196 133.148 36.6646C133.195 35.9853 133.231 35.2817 133.256 34.5538C133.28 33.8018 133.304 33.0011 133.329 32.152C133.353 31.2785 133.365 30.3081 133.365 29.2406C133.389 28.1003 133.389 27.0449 133.365 26.0745C133.365 25.0797 133.34 24.1699 133.293 23.3451C133.268 22.5202 133.231 21.7802 133.184 21.1251C133.159 20.4459 133.123 19.8514 133.075 19.3419L136.482 19.16C136.482 19.7908 136.482 20.5186 136.482 21.3435C136.482 22.1683 136.493 23.1145 136.518 24.1821C136.566 25.2253 136.615 26.4262 136.663 27.7849C136.663 28.8767 136.663 29.932 136.663 30.951C136.663 31.97 136.675 32.9404 136.7 33.8624C136.723 34.7844 136.736 35.6456 136.736 36.4462C136.76 37.2469 136.783 37.9747 136.808 38.6298L133.039 38.6662ZM152.446 39.0301C151.48 39.0301 150.718 38.7996 150.162 38.3386C149.631 37.8777 149.256 37.2226 149.039 36.3735C148.845 35.5 148.749 34.4689 148.749 33.2801C148.749 32.7464 148.749 32.1277 148.749 31.4241C148.773 30.6963 148.773 29.9199 148.749 29.095C148.749 28.2702 148.749 27.421 148.749 26.5476C148.749 25.6742 148.736 24.8129 148.713 23.9637C148.713 23.1145 148.713 22.2897 148.713 21.4891C148.736 20.6884 148.749 19.9606 148.749 19.3055L152.156 18.8688C152.132 19.5967 152.096 20.4822 152.047 21.5255C152.023 22.5687 151.998 23.6726 151.975 24.8371C151.951 26.0017 151.915 27.1298 151.866 28.2216C151.842 29.3134 151.817 30.3081 151.793 31.2058C151.793 32.0792 151.793 32.7464 151.793 33.2073C151.793 33.8624 151.83 34.4325 151.902 34.9178C151.998 35.403 152.143 35.779 152.337 36.0459C152.531 36.2885 152.821 36.4098 153.207 36.4098C153.811 36.4098 154.367 36.0945 154.874 35.4636C155.382 34.8328 155.793 33.8988 156.107 32.6615C156.42 31.3999 156.578 29.8593 156.578 28.0396C156.578 27.4332 156.565 26.8145 156.541 26.1836C156.541 25.5528 156.529 24.8978 156.505 24.2185C156.505 23.5392 156.493 22.8477 156.469 22.1441C156.469 21.4163 156.469 20.6763 156.469 19.9242L160.021 19.9606C159.972 21.4648 159.936 22.787 159.912 23.9273C159.888 25.0677 159.864 26.1594 159.84 27.2026C159.84 28.2458 159.827 29.3376 159.803 30.4779C159.803 31.6182 159.803 32.9404 159.803 34.4447C159.803 35.0269 159.827 35.5364 159.876 35.9731C159.948 36.4098 160.045 36.798 160.166 37.1377C160.311 37.4774 160.48 37.8049 160.673 38.1203L157.846 39.0301C157.58 38.6904 157.363 38.2658 157.194 37.7564C157.025 37.2226 156.904 36.519 156.831 35.6456C156.396 36.6888 155.829 37.5138 155.128 38.1203C154.427 38.7268 153.533 39.0301 152.446 39.0301ZM170.535 38.6662L166.657 38.6298C166.681 38.3386 166.705 37.8898 166.73 37.2833C166.777 36.6524 166.813 35.9004 166.838 35.0269C166.862 34.1535 166.886 33.1831 166.911 32.1156C166.935 31.048 166.947 29.9199 166.947 28.7311C166.947 27.1056 166.922 25.6378 166.875 24.3276C166.826 22.9933 166.777 21.9015 166.73 21.0524C166.681 20.2032 166.657 19.6573 166.657 19.4147H170.427C170.402 19.6088 170.378 20.1425 170.354 21.016C170.329 21.8894 170.305 22.9933 170.282 24.3276C170.257 25.662 170.245 27.142 170.245 28.7675C170.245 29.9078 170.257 30.9996 170.282 32.0428C170.305 33.086 170.329 34.0444 170.354 34.9178C170.402 35.7912 170.438 36.5554 170.463 37.2105C170.51 37.8413 170.535 38.3265 170.535 38.6662ZM170.354 16.3214L166.766 16.5397L166.693 12.9369L170.427 12.7186L170.354 16.3214ZM182.446 39.0301C181.48 39.0301 180.683 38.8967 180.054 38.6298C179.426 38.3386 178.931 37.9383 178.568 37.4288C178.206 36.9193 177.952 36.3128 177.807 35.6092C177.662 34.9056 177.59 34.1171 177.59 33.2437C177.59 32.807 177.59 32.3461 177.59 31.8608C177.613 31.3513 177.626 30.8176 177.626 30.2596C177.65 29.6773 177.674 29.0829 177.698 28.4764C177.698 27.7 177.711 26.9115 177.735 26.1109C177.758 25.3102 177.783 24.5096 177.807 23.709C177.856 22.9084 177.88 22.1077 177.88 21.3071C177.903 20.4822 177.928 19.6695 177.952 18.8688C177.976 18.044 177.988 17.2433 177.988 16.4669L181.794 15.9575C181.721 16.8794 181.649 17.8741 181.576 18.9416C181.504 20.0092 181.432 21.113 181.359 22.2533C181.31 23.3693 181.263 24.4854 181.214 25.6014C181.165 26.7174 181.118 27.8091 181.069 28.8767C181.045 29.7259 181.02 30.5143 180.997 31.2422C180.997 31.9458 180.997 32.5523 180.997 33.0618C180.997 33.7654 181.033 34.3719 181.105 34.8814C181.178 35.3909 181.335 35.7912 181.576 36.0823C181.818 36.3492 182.169 36.4826 182.628 36.4826C183.231 36.4826 183.666 36.3371 183.932 36.0459C184.222 35.7306 184.416 35.3059 184.512 34.7722C184.609 34.2385 184.657 33.6319 184.657 32.9526C184.657 32.71 184.645 32.4553 184.621 32.1884C184.621 31.9214 184.609 31.6546 184.585 31.3877C184.561 31.0966 184.525 30.8055 184.476 30.5143L187.629 29.7137C187.678 30.2232 187.714 30.7205 187.738 31.2058C187.787 31.6667 187.811 32.1156 187.811 32.5523C187.811 33.911 187.629 35.0755 187.267 36.0459C186.928 36.9921 186.361 37.7321 185.563 38.2658C184.79 38.7753 183.751 39.0301 182.446 39.0301ZM175.705 22.4716L175.959 19.4875C176.007 19.4875 176.236 19.4875 176.647 19.4875C177.058 19.4875 177.53 19.4997 178.061 19.5239C178.617 19.5239 179.136 19.5239 179.619 19.5239C180.103 19.5239 180.417 19.5239 180.562 19.5239C180.948 19.5239 181.432 19.5239 182.011 19.5239C182.591 19.4997 183.207 19.4875 183.86 19.4875C184.512 19.4633 185.152 19.4511 185.781 19.4511C186.433 19.4269 187.026 19.4147 187.557 19.4147L187.376 22.1441C187.037 22.1441 186.651 22.1563 186.216 22.1805C185.781 22.1805 185.334 22.1805 184.875 22.1805C184.44 22.1805 183.992 22.1927 183.534 22.2169C183.075 22.2169 182.64 22.2291 182.229 22.2533C181.843 22.2533 181.492 22.2533 181.178 22.2533C180.67 22.2533 180.078 22.2775 179.402 22.3261C178.726 22.3503 178.061 22.3746 177.408 22.3989C176.756 22.4231 176.188 22.4474 175.705 22.4716ZM199.082 39.1029C197.656 39.1029 196.532 38.7875 195.711 38.1567C194.889 37.5258 194.285 36.6404 193.899 35.5C193.609 34.6509 193.415 33.6683 193.319 32.5523C193.221 31.4119 193.174 30.1746 193.174 28.8403C193.174 27.7971 193.221 26.8145 193.319 25.8925C193.415 24.9463 193.584 24.0971 193.826 23.3451C194.091 22.4716 194.466 21.7196 194.95 21.0887C195.432 20.4579 196.037 19.9728 196.762 19.6331C197.487 19.2934 198.357 19.1236 199.372 19.1236C200.7 19.1236 201.739 19.3783 202.489 19.8878C203.261 20.3973 203.805 21.1251 204.12 22.0713C204.457 23.0175 204.627 24.1579 204.627 25.4922C204.627 26.0259 204.602 26.5718 204.555 27.1298C204.53 27.6879 204.47 28.2702 204.373 28.8767C204.301 29.4832 204.216 30.1262 204.12 30.8055L200.966 28.6947C201.039 28.2094 201.099 27.7485 201.148 27.3118C201.195 26.8509 201.231 26.4262 201.256 26.0381C201.304 25.6256 201.329 25.2496 201.329 24.9099C201.329 23.8667 201.171 23.0781 200.858 22.5444C200.543 21.9864 199.988 21.7074 199.19 21.7074C198.489 21.7074 197.958 21.9864 197.596 22.5444C197.233 23.0781 196.979 23.8182 196.834 24.7644C196.786 25.1283 196.737 25.5286 196.689 25.9653C196.641 26.3778 196.605 26.8145 196.581 27.2754C196.581 27.7121 196.581 28.161 196.581 28.6219C196.581 29.3498 196.581 30.0534 196.581 30.7327C196.605 31.3877 196.628 31.9942 196.653 32.5523C196.701 33.086 196.762 33.5713 196.834 34.008C196.979 34.7844 197.233 35.3787 197.596 35.7912C197.958 36.2037 198.489 36.4098 199.19 36.4098C199.963 36.4098 200.507 36.2279 200.821 35.864C201.135 35.5 201.293 35.0148 201.293 34.4083C201.293 34.2141 201.28 34.0201 201.256 33.826C201.231 33.6076 201.184 33.3771 201.111 33.1346L204.337 33.3893C204.385 33.5834 204.41 33.7896 204.41 34.008C204.433 34.2263 204.446 34.4447 204.446 34.663C204.446 35.5364 204.24 36.3128 203.83 36.9921C203.442 37.6472 202.851 38.1688 202.054 38.557C201.28 38.9209 200.289 39.1029 199.082 39.1029ZM194.297 31.0602L194.225 28.3308L203.685 28.258L204.12 30.8055C204.12 30.8055 203.902 30.8055 203.467 30.8055C203.032 30.8055 202.452 30.8176 201.728 30.8418C201.026 30.8418 200.241 30.854 199.372 30.8782C198.502 30.9025 197.619 30.9268 196.726 30.951C195.856 30.9752 195.046 31.0116 194.297 31.0602ZM217.44 30.114C217.73 28.9252 217.947 27.8213 218.092 26.8023C218.237 25.7591 218.31 24.8493 218.31 24.0729C218.31 23.2965 218.201 22.7022 217.983 22.2897C217.766 21.853 217.392 21.6346 216.86 21.6346C216.425 21.6346 216.002 21.853 215.591 22.2897C215.181 22.7022 214.842 23.3572 214.576 24.2549C214.335 25.1525 214.214 26.3292 214.214 27.7849L212.692 29.3134C212.692 28.3186 212.74 27.3118 212.837 26.2928C212.958 25.2738 213.127 24.3276 213.344 23.4542C213.586 22.5566 213.888 21.768 214.25 21.0887C214.637 20.3851 215.109 19.8392 215.664 19.4511C216.22 19.063 216.872 18.8688 217.621 18.8688C218.539 18.8688 219.264 19.0872 219.796 19.5239C220.328 19.9606 220.714 20.5793 220.955 21.3799C221.198 22.1805 221.318 23.0903 221.318 24.1093C221.318 24.9827 221.245 25.9411 221.1 26.9843C220.955 28.0033 220.763 29.0465 220.52 30.114H217.44ZM210.589 38.6662C210.638 37.9869 210.674 37.3196 210.698 36.6646C210.747 35.9853 210.783 35.2817 210.807 34.5538C210.832 33.8018 210.856 33.0011 210.879 32.152C210.904 31.2785 210.916 30.3081 210.916 29.2406C210.941 28.1003 210.941 27.0449 210.916 26.0745C210.916 25.0797 210.892 24.1699 210.843 23.3451C210.819 22.5202 210.783 21.7802 210.734 21.1251C210.711 20.4459 210.674 19.8514 210.626 19.3419L214.033 19.16C214.033 19.7908 214.033 20.5186 214.033 21.3435C214.033 22.1683 214.045 23.1145 214.069 24.1821C214.118 25.2253 214.166 26.4262 214.214 27.7849C214.214 28.8767 214.214 29.932 214.214 30.951C214.214 31.97 214.226 32.9404 214.25 33.8624C214.275 34.7844 214.286 35.6456 214.286 36.4462C214.311 37.2469 214.335 37.9747 214.359 38.6298L210.589 38.6662Z" fill="#060626"/>
<path d="M60.9121 37.0574C59.9929 37.1297 59.0694 36.9855 58.216 36.6361C57.3624 36.2869 56.6026 35.7421 55.9973 35.0458C54.9169 33.6688 54.3503 31.9576 54.3952 30.2072C52.9523 32.171 51.1225 33.8178 49.0187 35.0458C47.1624 36.1577 45.0451 36.758 42.882 36.7856C42.0141 36.8781 41.1365 36.7801 40.3103 36.4982C39.4842 36.2164 38.7294 35.7575 38.0986 35.1536C37.4678 34.5497 36.9762 33.8154 36.6581 33.0018C36.3399 32.1882 36.2029 31.3149 36.2564 30.4427C36.2929 28.6538 36.7095 26.8931 37.4783 25.2779C38.3167 23.4283 39.4139 21.7076 40.7369 20.1675C42.0146 18.6418 43.5271 17.3296 45.2172 16.2803C46.6577 15.3407 48.3318 14.8229 50.0506 14.7852C50.8661 14.7801 51.6663 15.0063 52.3587 15.4376C53.0647 15.8726 53.4177 16.7605 53.4177 18.1016C53.4136 19.4914 52.9875 20.8472 52.1958 21.9887C51.3324 23.2526 50.2466 24.3486 48.9917 25.2235C47.6486 26.1775 46.1883 26.9541 44.647 27.5342C43.1387 28.1165 41.5584 28.4914 39.9493 28.6486C39.877 29.011 39.8227 29.3554 39.7865 29.6816C39.752 29.9825 39.7339 30.2849 39.7321 30.5877C39.734 31.3201 39.8627 32.0467 40.1123 32.7352C40.3587 33.435 40.8136 34.0423 41.4157 34.475C42.1905 34.9728 43.1036 35.2108 44.0225 35.1545C46.0921 35.1025 48.0905 34.388 49.7247 33.1157C51.6375 31.7419 53.3105 30.0611 54.6758 28.1413C55.0319 26.5774 55.6174 25.0751 56.4137 23.6832C57.2385 22.2079 58.2517 20.8462 59.4277 19.6329C60.546 18.4635 61.8373 17.4733 63.2564 16.6971C64.5347 15.9799 65.9728 15.5967 67.4382 15.5826C68.2535 15.5775 69.0538 15.8037 69.7462 16.235C70.4521 16.6699 70.8052 17.5579 70.8052 18.8989C70.8231 20.7007 70.1529 22.4412 68.9316 23.7648C67.5958 25.2209 65.9545 26.3628 64.1254 27.1083C62.206 27.9325 60.174 28.464 58.0972 28.6849C58.0248 29.0473 57.9704 29.3917 57.9343 29.7179C57.8999 30.0188 57.8817 30.3212 57.8799 30.624C57.885 31.3805 58.0039 32.132 58.233 32.853C58.4521 33.5894 58.8873 34.2429 59.4821 34.7287C60.2313 35.2645 61.1429 35.5239 62.0617 35.4626C63.7158 35.4364 65.3311 34.957 66.7321 34.0763C68.3579 33.099 69.8233 31.8765 71.0767 30.4518C72.3966 28.9761 73.5276 27.3417 74.4438 25.586L75.0955 26.0753C74.1629 28.183 72.8875 30.1212 71.3211 31.811C69.8908 33.3767 68.2003 34.6828 66.3248 35.671C64.6588 36.5638 62.8017 37.0394 60.9121 37.0574ZM40.1938 27.6519C42.661 26.7829 44.9787 25.5358 47.0636 23.955C48.1463 23.1444 49.0987 22.1726 49.8877 21.0736C50.5997 20.1137 50.9894 18.9527 51.001 17.7572C51.0166 17.4406 50.9412 17.1262 50.7837 16.8512C50.6698 16.7285 50.5281 16.6349 50.3707 16.5781C50.2132 16.5214 50.0446 16.5032 49.8786 16.5249C48.875 16.5716 47.9091 16.9224 47.109 17.5307C46.0512 18.2757 45.1009 19.163 44.2849 20.1675C43.3578 21.2957 42.5396 22.5092 41.8411 23.792C41.1433 25.0097 40.5903 26.3053 40.1938 27.6519ZM58.2963 27.6519C59.3886 27.2792 60.4584 26.8436 61.5004 26.3471C62.6596 25.8032 63.7681 25.1573 64.8132 24.4171C65.819 23.7176 66.7001 22.8538 67.42 21.8619C68.0954 20.9398 68.4571 19.8249 68.4519 18.6815C68.4616 18.3269 68.3673 17.9772 68.1803 17.6757C68.0656 17.5299 67.9157 17.4158 67.7445 17.3445C67.5734 17.2731 67.387 17.2467 67.2028 17.268C65.8896 17.3342 64.6449 17.875 63.6999 18.7902C62.4357 19.9105 61.3544 21.2221 60.4958 22.6774C59.5685 24.2345 58.8504 25.907 58.3597 27.6519H58.2963Z" fill="#E6952A"/>
</svg>
