<svg width="61" height="60" viewBox="0 0 61 60" fill="none" xmlns="http://www.w3.org/2000/svg">
<path d="M14.3015 0.00976562H35.3881C35.713 0.411192 35.6598 0.892277 35.6598 1.35462C35.6661 6.17486 35.6661 10.9956 35.6598 15.8169C35.6598 17.3055 35.6599 17.307 37.1468 17.307C41.5204 17.307 45.8939 17.307 50.2674 17.307C50.9304 17.284 51.5941 17.3238 52.2495 17.4257C52.3612 17.4638 52.4578 17.5367 52.525 17.6337C52.5922 17.7307 52.6265 17.8467 52.6229 17.9646C52.6447 18.2177 52.6478 18.4707 52.6478 18.7237C52.6478 30.0158 52.6478 41.3072 52.6478 52.5982C52.6478 55.5253 50.5329 58.5665 47.8057 59.613C47.1232 59.8754 46.4 59.8379 45.6924 59.991H14.1843C12.7785 59.8879 11.4805 59.4584 10.3825 58.5384C8.5081 56.9764 7.35849 55.0286 7.35693 52.5326C7.34652 37.5502 7.34652 22.5672 7.35693 7.58376C7.35693 4.66288 8.77832 2.5261 11.1463 0.920397C12.1147 0.262808 13.2065 0.159715 14.3015 0.00976562Z" fill="#E4252A"/>
<path d="M35.5054 0.00976562C36.9112 1.49676 38.3076 2.99157 39.7228 4.47076C43.7704 8.69953 47.8205 12.9241 51.8733 17.1446C52.0077 17.2836 52.1311 17.4351 52.2576 17.5819C46.8735 17.5819 41.4894 17.5819 36.1052 17.596C35.5336 17.596 35.3852 17.4195 35.3867 16.865C35.4024 11.2419 35.3867 5.62818 35.3867 0.00976562H35.5054Z" fill="#EC676A"/>
<path d="M25.863 39.3125C25.863 37.6339 25.863 35.9558 25.863 34.2783C25.863 34.0533 25.799 33.7862 26.1754 33.7972C27.8498 33.8503 29.5367 33.641 31.1956 33.9674C33.9852 34.5266 35.5425 36.5322 35.4738 39.4046C35.4035 42.3177 33.7447 44.2358 30.8988 44.6544C29.3368 44.8872 27.7436 44.706 26.166 44.7622C25.7646 44.7763 25.8536 44.4998 25.8536 44.2936C25.8578 42.6306 25.8609 40.9703 25.863 39.3125Z" fill="#FEFEFE"/>
<path d="M16.2569 39.2953C16.2569 37.6381 16.2678 35.9808 16.2475 34.3236C16.2475 33.9268 16.3428 33.7815 16.7645 33.7894C18.0891 33.8144 19.4199 33.7894 20.7413 33.8034C21.1317 33.8001 21.5217 33.8315 21.9066 33.8971C23.6981 34.2361 24.8103 35.6887 24.7025 37.5147C24.5947 39.3406 23.3279 40.648 21.502 40.7761C20.8413 40.8214 20.1774 40.8229 19.5152 40.8073C19.1544 40.7995 19.0466 40.9198 19.0466 41.2759C19.0653 42.2709 19.0325 43.2658 19.0622 44.2592C19.0763 44.6825 18.9294 44.7888 18.5327 44.7669C17.9486 44.7286 17.3627 44.7286 16.7786 44.7669C16.31 44.8044 16.2397 44.6107 16.246 44.2061C16.2694 42.5708 16.2569 40.9338 16.2569 39.2953Z" fill="#FEFEFE"/>
<path d="M36.8956 39.2541C36.8956 37.6155 36.9049 35.9739 36.8956 34.3385C36.8956 33.9543 36.9612 33.7918 37.397 33.795C39.6602 33.8168 41.9267 33.8121 44.1868 33.795C44.5617 33.795 44.7132 33.8871 44.6851 34.2854C44.6554 34.7723 44.6554 35.2605 44.6851 35.7474C44.7054 36.102 44.5961 36.216 44.229 36.216C42.8826 36.1942 41.5362 36.216 40.1898 36.1988C39.8133 36.1988 39.6977 36.2926 39.6977 36.6815C39.6977 37.9576 39.6837 37.9576 40.977 37.9592C41.7189 37.9592 42.4609 37.9764 43.2012 37.9592C43.573 37.9451 43.7307 38.0373 43.7026 38.4387C43.6605 39.0385 43.8932 39.8226 43.5949 40.1944C43.2965 40.5661 42.464 40.2943 41.8689 40.3193C41.3431 40.356 40.8155 40.356 40.2897 40.3193C39.7712 40.2678 39.6837 40.4755 39.6977 40.9441C39.7305 42.075 39.6977 43.2074 39.7165 44.3383C39.7243 44.7053 39.6087 44.8069 39.2479 44.7944C38.6231 44.7678 37.9983 44.7631 37.3735 44.7944C36.9877 44.8147 36.8846 44.6897 36.8893 44.3086C36.9112 42.6045 36.8956 40.9269 36.8956 39.2541Z" fill="#FEFEFE"/>
<path d="M28.5967 39.289C28.5967 38.394 28.6045 37.499 28.5967 36.604C28.5967 36.3181 28.6451 36.1666 28.9747 36.1947C29.362 36.2275 29.7557 36.1838 30.1399 36.24C31.8175 36.4821 32.6953 37.5552 32.6859 39.314C32.6765 41.0728 31.7831 42.1021 30.0806 42.3286C28.6029 42.5254 28.6029 42.5254 28.6029 41.0415L28.5967 39.289Z" fill="#E4252A"/>
<path d="M20.0418 38.406C19.0483 38.4341 19.0483 38.4341 19.0483 37.4157C19.0483 36.1989 19.0483 36.1973 20.2557 36.2005C20.4704 36.1932 20.6852 36.1984 20.8993 36.2161C21.4928 36.2848 21.8739 36.6847 21.9036 37.2454C21.9181 37.3827 21.9053 37.5215 21.866 37.6538C21.8267 37.7861 21.7616 37.9094 21.6745 38.0165C21.5875 38.1236 21.4801 38.2125 21.3586 38.278C21.237 38.3435 21.1038 38.3843 20.9664 38.3982C20.6589 38.4246 20.3497 38.4272 20.0418 38.406Z" fill="#E4252A"/>
</svg>
