<svg width="531" height="405" viewBox="0 0 531 405" fill="none" xmlns="http://www.w3.org/2000/svg">
<g clip-path="url(#clip0_847_5195)">
<path d="M505.753 299.919C477.712 405.552 392.646 402.411 253.121 402.411C113.597 402.411 0.490234 409 0.490234 299.919C0.490234 190.837 121.421 147.11 253.121 102.409C451.589 35.0474 547.317 143.336 505.753 299.919Z" fill="#EFEDEF"/>
<path d="M425.551 404.814L425.244 403.765C476.035 389.718 505.132 359.163 519.589 304.693C541.797 221.043 527.783 149.212 481.14 107.616C430.661 62.6017 347.208 56.7021 246.146 91.0004L245.774 89.9706C347.245 55.5305 431.103 61.5122 481.901 106.813C528.859 148.688 542.993 220.913 520.679 304.966C506.11 359.854 476.772 390.649 425.551 404.814Z" fill="#6A8D99"/>
<path d="M327.477 404.007L296.038 301.162L304.797 298.641L337.092 404.287L327.477 404.007Z" fill="#C38F86"/>
<path d="M262.544 404.007L252.929 404.287L285.223 298.641L293.982 301.162L262.544 404.007Z" fill="#C38F86"/>
<path d="M299.514 292.508H290.377V404.306H299.514V292.508Z" fill="#C38F86"/>
<path d="M334.179 287.332H248.449C244.241 287.332 240.83 290.642 240.83 294.724C240.83 298.807 244.241 302.116 248.449 302.116H334.179C338.387 302.116 341.798 298.807 341.798 294.724C341.798 290.642 338.387 287.332 334.179 287.332Z" fill="#935B50"/>
<path d="M193.517 242.126V242.529C193.516 243.559 193.095 244.546 192.344 245.274C191.594 246.002 190.577 246.411 189.516 246.411H177.499C176.438 246.411 175.42 246.002 174.67 245.274C173.92 244.546 173.498 243.559 173.498 242.529V226.815C173.498 225.786 173.92 224.799 174.67 224.071C175.42 223.343 176.438 222.934 177.499 222.934H189.516C190.577 222.934 191.594 223.343 192.344 224.071C193.095 224.799 193.516 225.786 193.517 226.815V242.126Z" fill="#FFBA55"/>
<path d="M200.141 226.939H193.517V229.269H198.941V239.796H193.517V242.125H200.141C200.299 242.126 200.455 242.096 200.601 242.037C200.747 241.979 200.879 241.893 200.99 241.785C201.102 241.677 201.19 241.548 201.25 241.407C201.311 241.265 201.342 241.114 201.341 240.961V228.104C201.342 227.951 201.311 227.799 201.25 227.658C201.19 227.517 201.102 227.388 200.99 227.28C200.879 227.172 200.746 227.086 200.601 227.028C200.455 226.969 200.299 226.939 200.141 226.939Z" fill="#025182"/>
<path d="M187.68 230.971H184.308C183.866 230.971 183.508 231.318 183.508 231.747V235.02C183.508 235.448 183.866 235.796 184.308 235.796H187.68C188.122 235.796 188.48 235.448 188.48 235.02V231.747C188.48 231.318 188.122 230.971 187.68 230.971Z" fill="#935B50"/>
<path d="M186.558 222.934H185.431V230.97H186.558V222.934Z" fill="#E5CAF3"/>
<path d="M216.501 374.359C216.501 374.359 217.327 400.568 215.174 401.039C213.022 401.511 159.81 396.167 169.757 393.299L186.11 389.449C188.929 388.816 191.501 387.407 193.515 385.39C195.529 383.374 196.9 380.836 197.464 378.081L199.024 370.017L216.501 374.359ZM281.95 366.742C281.95 366.742 295.269 386.455 293.85 387.729C292.43 389.002 249.11 407.47 255.336 401.058L265.99 391.178C267.843 389.486 269.135 387.298 269.703 384.891C270.271 382.484 270.088 379.968 269.179 377.662L266.469 370.828L281.95 366.742Z" fill="#F9977A"/>
<path d="M262.163 269.875C256.554 274.074 259.182 279.092 261.517 285.448L287.057 370.061L268.632 379.607L224.788 295.968C224.788 295.968 210.402 278.967 228.734 267.252L262.163 269.875Z" fill="#6C7FD8"/>
<path d="M271.51 230.876L263.88 225.377C262.785 224.591 261.492 224.107 260.137 223.976C257.751 223.741 253.915 223.253 252.236 222.429C250.608 221.629 249.786 222.323 250.618 223.859C251.107 224.762 252.831 225.953 257.346 227.361L253.417 228.302C252.837 228.442 252.233 228.467 251.642 228.376C251.051 228.285 250.485 228.08 249.977 227.772L245.652 225.139C245.382 224.975 245.062 224.909 244.748 224.95C244.433 224.992 244.143 225.139 243.929 225.367C243.808 225.497 243.717 225.651 243.663 225.818C243.609 225.985 243.594 226.161 243.617 226.335C243.64 226.509 243.702 226.675 243.798 226.824C243.894 226.972 244.022 227.098 244.173 227.194L251.981 232.282C251.981 232.282 251.23 238.307 257.239 239.613C263.248 240.918 271.51 238.608 271.51 238.608L271.51 230.876Z" fill="#F9977A"/>
<path d="M241.316 242.381L267.272 240.84L240.557 205.418L215.184 207.034L241.316 242.381Z" fill="#6C7FD8"/>
<path d="M273.89 239.001L260.385 227.911C260.385 227.911 253.114 225.821 248.927 224.201C247.763 223.767 246.49 223.691 245.28 223.983C244.07 224.276 242.982 224.922 242.164 225.835C240.598 227.59 240.654 229.361 245.01 232.152C251.525 236.325 254.846 237.863 256.809 238.415C257.488 238.606 261.287 240.012 261.287 240.012L273.89 239.001Z" fill="#F9977A"/>
<path d="M256.47 229.77C255.482 229.532 254.509 229.238 253.556 228.89C252.598 228.558 251.663 228.167 250.74 227.751C249.816 227.333 248.918 226.863 248.05 226.344C247.171 225.836 246.352 225.238 245.606 224.559C247.37 225.543 249.176 226.378 251.003 227.211C252.821 228.056 254.66 228.859 256.47 229.77ZM254.738 232.099C253.644 231.893 252.565 231.616 251.508 231.272C250.446 230.938 249.406 230.545 248.391 230.094C247.368 229.648 246.386 229.117 245.458 228.506C244.5 227.927 243.68 227.155 243.055 226.242C243.842 226.988 244.736 227.619 245.71 228.117C246.667 228.63 247.643 229.118 248.648 229.552C250.644 230.451 252.692 231.244 254.738 232.099ZM252.573 233.902C251.651 233.753 250.743 233.535 249.856 233.252C248.966 232.978 248.092 232.654 247.24 232.283C245.516 231.564 243.929 230.57 242.542 229.344C243.366 229.775 244.171 230.205 244.996 230.601C245.828 230.984 246.651 231.379 247.493 231.739L252.573 233.902Z" fill="#DD765E"/>
<path d="M244.976 174.999L236.334 171.023C235.114 170.466 234.077 169.592 233.336 168.499C232.058 166.6 229.895 163.595 228.363 162.55C226.876 161.536 227.179 160.539 229.019 160.559C230.101 160.571 232.004 161.493 235.349 164.661L234.516 160.947C234.388 160.391 234.141 159.868 233.792 159.411C233.442 158.954 232.998 158.573 232.488 158.293L228.052 155.825C227.78 155.678 227.573 155.439 227.473 155.153C227.373 154.867 227.386 154.555 227.509 154.278C227.586 154.116 227.697 153.971 227.834 153.852C227.97 153.733 228.131 153.643 228.305 153.587C228.479 153.53 228.663 153.509 228.846 153.524C229.029 153.54 229.207 153.591 229.369 153.676L237.696 157.983C237.696 157.983 243.14 154.69 247.046 159.158C250.953 163.626 252.389 171.583 252.389 171.583L244.976 174.999Z" fill="#F9977A"/>
<path d="M240.849 160.11C240.26 159.855 239.699 159.541 239.176 159.174C238.656 158.809 238.161 158.411 237.695 157.981C238.32 158.163 238.907 158.449 239.431 158.828C239.961 159.19 240.438 159.622 240.849 160.11ZM242.774 159.223C242.261 158.866 241.767 158.484 241.294 158.079C241.072 157.868 240.826 157.69 240.59 157.501C240.354 157.304 240.093 157.138 239.813 157.005C240.148 156.985 240.481 157.061 240.771 157.224C241.058 157.375 241.329 157.553 241.58 157.756C242.071 158.166 242.477 158.664 242.774 159.223ZM245.126 159.146C244.898 158.715 244.777 158.296 244.55 157.935C244.365 157.547 244.059 157.226 243.675 157.016C243.934 156.977 244.199 157.032 244.418 157.172C244.632 157.32 244.809 157.512 244.936 157.734C245.171 158.168 245.238 158.668 245.126 159.146Z" fill="#DD765E"/>
<path d="M307.574 117.549C304.365 117.237 301.124 117.643 298.102 118.737C296.692 119.277 291.534 121.252 289.213 126.015C288.332 127.824 288.221 129.958 287.998 134.225C287.858 136.891 286.863 138.84 287.03 142.076C287.221 144.7 287.814 147.282 288.788 149.737C290.259 153.592 289.554 155.851 290.225 156.554C292.931 159.387 300.571 156.729 300.884 160.569C301.077 162.941 299.162 163.469 299.468 166.241C299.865 169.834 312.156 167.32 315.73 165.355C316.217 165.088 320.621 162.1 319.912 157.922C319.533 155.69 316.961 145.253 317.087 143.886C317.543 138.945 320.157 138.228 321.938 132.2C322.425 130.681 322.489 129.064 322.123 127.514C321.757 125.963 320.974 124.535 319.854 123.373C316.569 120.124 312.234 118.068 307.574 117.549Z" fill="#F9977A"/>
<path d="M289.374 139.579C289.962 139.547 290.406 138.965 290.365 138.281C290.325 137.596 289.815 137.068 289.227 137.101C288.639 137.134 288.195 137.715 288.236 138.399C288.276 139.084 288.786 139.612 289.374 139.579Z" fill="#0A0709"/>
<path d="M298.979 139.151C299.567 139.119 300.011 138.537 299.971 137.853C299.93 137.169 299.421 136.64 298.833 136.673C298.245 136.706 297.801 137.287 297.841 137.972C297.882 138.656 298.391 139.184 298.979 139.151Z" fill="#0A0709"/>
<path d="M287.022 136.228C286.885 136.228 286.752 136.186 286.64 136.11C286.528 136.033 286.444 135.924 286.398 135.799C286.353 135.674 286.349 135.538 286.386 135.41C286.424 135.283 286.501 135.169 286.608 135.086C287.746 134.272 289.106 133.802 290.519 133.734C291.931 133.667 293.332 134.005 294.547 134.707C294.7 134.79 294.812 134.929 294.859 135.093C294.906 135.256 294.884 135.431 294.798 135.579C294.712 135.727 294.57 135.836 294.401 135.882C294.232 135.928 294.052 135.907 293.899 135.824C292.911 135.257 291.775 134.981 290.628 135.027C289.481 135.074 288.372 135.442 287.436 136.086C287.319 136.178 287.173 136.228 287.022 136.228ZM296.978 135.783C296.841 135.783 296.707 135.742 296.596 135.666C296.484 135.589 296.4 135.481 296.354 135.355C296.309 135.23 296.304 135.095 296.341 134.967C296.379 134.839 296.456 134.726 296.562 134.643C297.701 133.829 299.061 133.359 300.473 133.292C301.885 133.224 303.286 133.562 304.501 134.262C304.654 134.346 304.766 134.484 304.813 134.648C304.86 134.812 304.838 134.987 304.752 135.135C304.666 135.283 304.523 135.392 304.355 135.438C304.186 135.483 304.006 135.462 303.853 135.379C302.866 134.807 301.729 134.527 300.58 134.574C299.431 134.621 298.322 134.992 297.389 135.644C297.272 135.734 297.127 135.783 296.978 135.783Z" fill="#1E1D22"/>
<path d="M295.182 136.11C295.514 137.154 295.47 138.277 295.055 139.293C294.697 140.318 294.185 141.285 293.536 142.166C293.201 142.611 292.727 142.939 292.817 143.373C292.929 143.844 293.224 144.254 293.641 144.518C294.572 145.04 295.67 145.21 296.723 144.994C296.193 145.185 295.628 145.266 295.064 145.231C294.501 145.196 293.951 145.046 293.451 144.791C293.188 144.646 292.96 144.449 292.783 144.212C292.605 143.976 292.481 143.705 292.419 143.418C292.398 143.261 292.41 143.102 292.454 142.949C292.499 142.797 292.575 142.655 292.678 142.533L293.188 141.904C293.826 141.062 294.349 140.143 294.743 139.171C295.192 138.213 295.345 137.15 295.182 136.11ZM312.658 135.75C313.059 135.711 313.463 135.755 313.844 135.88C314.225 136.005 314.574 136.208 314.868 136.475C315.163 136.734 315.425 137.027 315.646 137.349C315.86 137.67 316.026 138.018 316.14 138.384C315.662 137.819 315.141 137.289 314.581 136.799C314.31 136.56 314.013 136.35 313.694 136.175C313.37 135.989 313.022 135.846 312.658 135.75Z" fill="#DD765E"/>
<path d="M313.787 140.882C313.332 140.18 313.144 139.346 313.256 138.524C313.313 138.114 313.436 137.715 313.621 137.341C313.804 136.973 314.055 136.641 314.363 136.361C314.212 136.741 314.04 137.091 313.935 137.463C313.811 137.824 313.73 138.197 313.693 138.575C313.598 139.344 313.63 140.123 313.787 140.882Z" fill="#DD765E"/>
<path d="M297.879 160.104C297.879 160.104 305.407 159.898 309.422 154.112C311.336 151.353 311.066 145.957 310.705 142.827C310.542 141.423 310.707 140.002 311.188 138.668C311.856 136.82 312.662 134.307 314.55 134.058C315.941 133.875 316.484 133.504 317.052 134.744C317.989 136.794 316.662 139.161 315.739 140.809C314.416 143.168 313.219 143.724 313.278 145.313C313.323 146.524 317.143 148.817 317.819 148.313C319.197 147.285 318.268 144.431 321.813 137.38C324.051 132.928 325.141 132.063 325.287 129.339C325.339 128.372 325.555 124.369 322.874 122.166C321.631 121.144 320.971 121.502 315.698 119.684C314.238 119.217 312.804 118.674 311.403 118.059C307.179 116.138 307.215 115.052 304.773 114.518C302.568 114.037 302.483 114.912 298.316 114.867C294.298 114.824 293.9 114.005 292.073 114.582C288.901 115.584 287.52 118.867 287.149 119.749C286.399 121.274 286.057 122.958 286.155 124.645C286.424 126.356 287.184 127.958 288.349 129.268C288.897 129.743 290.869 126.778 291.968 125.647C293.046 124.538 294.354 124.914 296.112 124.938C297.825 124.961 297.783 125.961 300.354 126.722C301.27 126.994 304.801 125.32 306.061 127.136C307.403 129.072 308.38 129.27 307.892 131.149C307.587 132.322 307.885 133.734 308.48 136.558C308.907 138.585 307.506 145.793 307.506 145.793C307.207 146.411 306.67 146.892 306.011 147.134C305.352 147.375 304.622 147.357 303.976 147.085C302.014 146.248 299.998 145.536 297.939 144.956C296.71 144.623 295.422 144.551 294.161 144.743C292.9 144.935 291.697 145.388 290.631 146.07C289.899 146.536 289.147 147.054 288.555 147.518C288.166 147.819 287.86 148.211 287.668 148.657C287.476 149.103 287.403 149.589 287.456 150.07C287.835 153.12 289.573 160.543 297.879 160.104ZM290.191 149.792C290.427 148.321 292.721 147.651 294.031 147.269C295.067 146.875 296.199 146.787 297.287 147.016C297.545 147.078 299.892 147.717 300.19 149.449C300.488 151.181 298.475 152.487 298.159 152.684C297.398 153.156 296.528 153.439 295.627 153.506C294.726 153.573 293.822 153.423 292.995 153.069C291.774 152.546 289.96 151.207 290.191 149.792Z" fill="#1E1D22"/>
<path d="M299.157 149.277C299.157 149.277 295.148 153.126 291.21 149.632L299.157 149.277Z" fill="#0A0709"/>
<path d="M252.803 166.995C262.89 170.945 278.127 188.954 278.127 188.954L295.481 173.358L299.374 164.251L314.975 160.269C316.308 159.958 317.473 159.176 318.243 158.075C319.013 156.974 319.331 155.634 319.137 154.317L319.118 154.209L327.743 167.631C334.559 178.237 336.626 190.469 335.643 202.812L332.639 254.025C332.639 254.025 283.707 259.648 285.853 254.025L286.243 244.986L280.917 244.385L269.328 242.175L270.83 228.519L282.849 228.117L287.356 224.703L287.837 210.432L285.175 210.86C278.195 211.981 269.74 208.92 265.383 203.696L244.004 176.904C244.548 174.69 245.63 172.635 247.161 170.911C248.692 169.187 250.627 167.844 252.803 166.995Z" fill="#F73C4F"/>
<path d="M323.936 161.707C322.265 162.722 320.582 163.714 318.867 164.649C317.161 165.598 315.452 166.543 313.721 167.445C310.26 169.255 306.772 171.014 303.238 172.686L302.774 172.905L302.595 172.467L300.928 168.383C300.399 167.011 299.859 165.643 299.374 164.251C300.105 165.538 300.781 166.848 301.468 168.153L303.449 172.102L302.807 171.883C306.243 170.029 309.727 168.262 313.238 166.546C314.992 165.686 316.769 164.868 318.548 164.054C320.319 163.226 322.122 162.455 323.936 161.707ZM287.356 224.703C289.024 224.033 290.738 223.478 292.487 223.041C294.228 222.581 295.979 222.157 297.74 221.768C301.259 220.986 304.794 220.279 308.346 219.645L308.139 219.892L307.193 199.434C306.976 196.005 307.037 192.564 307.378 189.144C307.661 185.664 308.686 182.279 310.386 179.203C311.306 177.657 312.575 176.332 314.098 175.328C315.651 174.345 317.442 173.772 319.293 173.665C321.131 173.545 322.973 173.816 324.692 174.459C326.41 175.103 327.963 176.103 329.242 177.39C329.879 178.032 330.446 178.737 330.934 179.493C331.402 180.253 331.796 181.054 332.111 181.885C332.755 183.499 333.287 185.152 333.704 186.834C334.525 190.184 335.057 193.596 335.296 197.032C335.739 203.879 335.544 210.751 334.714 217.564C334.338 220.969 333.827 224.355 333.249 227.73C332.952 229.48 332.258 231.145 331.217 232.603C330.176 234.062 328.814 235.277 327.229 236.162C326.448 236.598 325.626 236.962 324.775 237.249L322.296 238.139C320.64 238.724 318.973 239.278 317.302 239.818C313.954 240.886 310.577 241.873 307.153 242.684C303.735 243.518 300.271 244.168 296.779 244.631C293.291 245.118 289.758 245.238 286.243 244.986C289.755 245.159 293.276 244.961 296.745 244.396C300.212 243.857 303.646 243.133 307.031 242.226C310.416 241.326 313.77 240.322 317.092 239.213C318.75 238.654 320.403 238.081 322.044 237.477L324.501 236.56C325.309 236.278 326.087 235.923 326.825 235.498C328.291 234.657 329.545 233.511 330.497 232.142C331.449 230.772 332.075 229.214 332.33 227.581C332.867 224.217 333.377 220.848 333.731 217.463C334.524 210.707 334.687 203.896 334.219 197.112C333.97 193.736 333.432 190.385 332.612 187.095C332.214 185.456 331.703 183.845 331.083 182.272C330.529 180.72 329.635 179.303 328.464 178.117C327.298 176.933 325.88 176.011 324.308 175.415C322.736 174.819 321.049 174.564 319.365 174.667C317.687 174.754 316.061 175.266 314.65 176.151C313.251 177.068 312.084 178.279 311.236 179.695C309.598 182.652 308.601 185.903 308.306 189.248C307.926 192.621 307.82 196.018 307.992 199.407L308.636 219.874L308.643 220.087L308.429 220.121C304.873 220.678 301.328 221.306 297.793 222.004C296.027 222.355 294.269 222.74 292.518 223.158C290.762 223.555 289.037 224.071 287.356 224.703ZM295.481 173.358C294.971 174.874 294.393 176.363 293.851 177.866C293.272 179.358 292.69 180.833 292.202 182.34C291.202 185.341 290.421 188.405 289.863 191.512C289.338 194.631 288.984 197.775 288.802 200.93L288.379 205.684C288.197 207.267 288.053 208.852 287.837 210.433C287.798 208.838 287.832 207.248 287.828 205.655L287.938 200.884C287.969 199.294 288.03 197.708 288.142 196.101C288.271 194.502 288.481 192.908 288.756 191.325C289.322 188.162 290.204 185.059 291.39 182.062C292.594 179.069 294.037 176.224 295.481 173.358ZM278.127 188.954C277.794 190.88 277.426 192.706 277.2 194.56C277.061 195.483 276.998 196.41 276.931 197.343C276.859 198.281 276.882 199.214 276.84 200.201C276.418 199.305 276.152 198.348 276.054 197.368C275.944 196.389 275.954 195.401 276.084 194.425C276.213 193.453 276.444 192.496 276.774 191.57C277.093 190.639 277.549 189.758 278.127 188.954Z" fill="#B02336"/>
<path d="M318.904 227.917C317.254 226.35 315.677 224.83 313.968 223.455C313.119 222.767 312.233 222.121 311.315 221.522C310.369 220.928 309.392 220.381 308.388 219.883C310.725 220.151 312.923 221.104 314.687 222.616C315.576 223.344 316.387 224.157 317.108 225.042C317.837 225.917 318.441 226.884 318.904 227.917ZM329.42 239.565C329.146 240.705 328.674 241.792 328.026 242.779C327.385 243.786 326.594 244.697 325.679 245.48C324.747 246.267 323.669 246.873 322.502 247.268C321.347 247.654 320.113 247.767 318.904 247.599C320.03 247.345 321.124 246.97 322.165 246.481C323.165 245.985 324.099 245.372 324.945 244.655C326.65 243.147 328.153 241.437 329.42 239.565ZM328.132 245.992C327.653 247.039 326.93 247.965 326.021 248.696C325.12 249.446 324.106 250.057 323.013 250.507C321.918 250.936 320.768 251.216 319.594 251.339C319.014 251.398 318.429 251.421 317.846 251.408C317.265 251.375 316.687 251.31 316.114 251.214C316.683 251.067 317.245 250.988 317.799 250.874C318.349 250.735 318.903 250.655 319.439 250.501C320.508 250.236 321.558 249.902 322.581 249.5C324.641 248.677 326.524 247.487 328.132 245.992ZM282.849 228.118C283.423 230.275 283.79 232.479 283.946 234.702C284.152 236.922 284.144 239.155 283.922 241.373C283.346 239.216 282.979 237.011 282.825 234.788C282.622 232.569 282.63 230.336 282.849 228.118ZM258.73 170.379C257.406 172.349 255.907 174.202 254.249 175.919C252.629 177.668 250.853 179.275 248.94 180.72C250.263 178.749 251.762 176.895 253.421 175.18C255.043 173.433 256.82 171.826 258.73 170.379Z" fill="#B02336"/>
<path d="M237.747 190.975H237.308V203.402H237.747V190.975Z" fill="#7CA1B1"/>
<path d="M257.643 220.081L257.475 219.686L271.427 214.055L271.597 214.448L257.643 220.081Z" fill="#7CA1B1"/>
<path d="M256.267 197.106L250.838 209.533L251.242 209.699L256.671 197.272L256.267 197.106Z" fill="#7CA1B1"/>
<path d="M332.639 254.024C333.085 262.783 330.545 271.441 325.411 278.658C322.887 282.1 319.541 284.898 315.66 286.813C311.778 288.727 307.477 289.7 303.123 289.65L260.776 289.532C253.602 289.846 247.495 289.779 245.394 296.206L218.093 379.72L197.19 377.312L214.234 285.527C214.234 285.527 214.876 267.251 235.458 264.462L285.302 255.735L286.077 248.85L332.639 254.024Z" fill="#6C7FD8"/>
<path d="M285.415 255.919L285.191 255.552L295.369 249.713L295.594 250.08L285.415 255.919Z" fill="#5E7C24"/>
<path d="M237.527 320.27C237.926 316.483 238.353 312.701 238.81 308.922C239.134 305.083 240.354 301.367 242.378 298.054C244.355 294.676 247.432 292.031 251.126 290.535C252.054 290.183 253.026 289.951 254.017 289.846C255.004 289.793 255.993 289.818 256.976 289.921C258.912 290.225 260.892 290.143 262.794 289.68C260.902 290.217 258.917 290.375 256.96 290.145C255.99 290.068 255.016 290.065 254.045 290.136C253.087 290.259 252.15 290.505 251.258 290.866C247.675 292.379 244.7 294.987 242.786 298.294C240.781 301.547 239.55 305.193 239.182 308.967C238.659 312.738 238.108 316.506 237.527 320.27Z" fill="#065082"/>
<path d="M403.134 254.734H393.417V404.289H403.134V254.734Z" fill="#935B50"/>
<path d="M420.059 247.504H131.42C130.495 247.504 129.745 248.232 129.745 249.129V253.109C129.745 254.007 130.495 254.735 131.42 254.735H420.059C420.984 254.735 421.734 254.007 421.734 253.109V249.129C421.734 248.232 420.984 247.504 420.059 247.504Z" fill="#935B50"/>
<path d="M158.84 254.734H149.123V404.289H158.84V254.734Z" fill="#935B50"/>
<path d="M141.372 254.734H410.773V275.135C410.773 275.562 410.687 275.985 410.518 276.379C410.35 276.774 410.103 277.132 409.792 277.434C409.481 277.736 409.112 277.975 408.705 278.139C408.299 278.302 407.863 278.386 407.423 278.386H144.722C144.282 278.386 143.847 278.302 143.44 278.139C143.034 277.975 142.664 277.736 142.353 277.434C142.042 277.132 141.795 276.774 141.627 276.379C141.459 275.985 141.372 275.562 141.372 275.135L141.372 254.734Z" fill="#C38F86"/>
<path d="M215.276 100.348H132.426C131.829 100.348 131.257 100.118 130.835 99.7083C130.413 99.2989 130.176 98.7435 130.176 98.1645V11.1306C130.176 10.5515 130.413 9.99618 130.835 9.58673C131.257 9.17729 131.829 8.94727 132.426 8.94727H230.625C231.222 8.94727 231.794 9.17729 232.216 9.58673C232.638 9.99618 232.875 10.5515 232.875 11.1306V83.916L215.276 100.348ZM230.625 100.348C231.222 100.348 231.794 100.118 232.216 99.7083C232.638 99.2989 232.875 98.7435 232.875 98.1645V83.916L215.276 100.348H230.625Z" fill="#FFBA55"/>
<path d="M147.775 19.1859C147.554 19.1859 147.334 19.1436 147.13 19.0613C146.925 18.979 146.739 18.8584 146.582 18.7064C146.425 18.5543 146.301 18.3738 146.216 18.1751C146.131 17.9764 146.088 17.7635 146.088 17.5484V1.82887C146.088 1.39459 146.266 0.978092 146.582 0.671008C146.899 0.363923 147.328 0.191406 147.775 0.191406C148.223 0.191406 148.652 0.363923 148.969 0.671008C149.285 0.978092 149.463 1.39459 149.463 1.82887V17.5484C149.463 17.7635 149.419 17.9764 149.335 18.1751C149.25 18.3738 149.125 18.5543 148.969 18.7064C148.812 18.8584 148.626 18.979 148.421 19.0613C148.216 19.1436 147.997 19.1859 147.775 19.1859ZM136.525 19.1859C136.304 19.1859 136.084 19.1436 135.88 19.0613C135.675 18.979 135.489 18.8584 135.332 18.7064C135.175 18.5543 135.051 18.3738 134.966 18.1751C134.881 17.9764 134.838 17.7635 134.838 17.5484V1.82887C134.838 1.39459 135.016 0.978092 135.332 0.671008C135.649 0.363923 136.078 0.191406 136.525 0.191406C136.973 0.191406 137.402 0.363923 137.719 0.671008C138.035 0.978092 138.213 1.39459 138.213 1.82887V17.5484C138.213 17.7635 138.169 17.9764 138.085 18.1751C138 18.3738 137.875 18.5543 137.719 18.7064C137.562 18.8584 137.376 18.979 137.171 19.0613C136.966 19.1436 136.747 19.1859 136.525 19.1859ZM159.025 19.1859C158.804 19.1859 158.584 19.1436 158.38 19.0613C158.175 18.979 157.989 18.8584 157.832 18.7064C157.675 18.5543 157.551 18.3738 157.466 18.1751C157.381 17.9764 157.338 17.7635 157.338 17.5484V1.82887C157.338 1.39459 157.516 0.978092 157.832 0.671008C158.149 0.363923 158.578 0.191406 159.025 0.191406C159.473 0.191406 159.902 0.363923 160.219 0.671008C160.535 0.978092 160.713 1.39459 160.713 1.82887V17.5484C160.713 17.7635 160.669 17.9764 160.585 18.1751C160.5 18.3738 160.375 18.5543 160.219 18.7064C160.062 18.8584 159.876 18.979 159.671 19.0613C159.466 19.1436 159.247 19.1859 159.025 19.1859ZM170.275 19.1859C170.054 19.1859 169.834 19.1436 169.63 19.0613C169.425 18.979 169.239 18.8584 169.082 18.7064C168.925 18.5543 168.801 18.3738 168.716 18.1751C168.631 17.9764 168.588 17.7635 168.588 17.5484V1.82887C168.588 1.39459 168.766 0.978092 169.082 0.671008C169.399 0.363923 169.828 0.191406 170.275 0.191406C170.723 0.191406 171.152 0.363923 171.469 0.671008C171.785 0.978092 171.963 1.39459 171.963 1.82887V17.5484C171.963 17.7635 171.919 17.9764 171.835 18.1751C171.75 18.3738 171.625 18.5543 171.469 18.7064C171.312 18.8584 171.126 18.979 170.921 19.0613C170.716 19.1436 170.497 19.1859 170.275 19.1859ZM181.525 19.1859C181.304 19.1859 181.084 19.1436 180.88 19.0613C180.675 18.979 180.489 18.8584 180.332 18.7064C180.175 18.5543 180.051 18.3738 179.966 18.1751C179.881 17.9764 179.838 17.7635 179.838 17.5484V1.82887C179.838 1.39459 180.016 0.978092 180.332 0.671008C180.649 0.363923 181.078 0.191406 181.525 0.191406C181.973 0.191406 182.402 0.363923 182.719 0.671008C183.035 0.978092 183.213 1.39459 183.213 1.82887V17.5484C183.213 17.7635 183.169 17.9764 183.085 18.1751C183 18.3738 182.875 18.5543 182.719 18.7064C182.562 18.8584 182.376 18.979 182.171 19.0613C181.966 19.1436 181.747 19.1859 181.525 19.1859ZM192.775 19.1859C192.554 19.1859 192.334 19.1436 192.13 19.0613C191.925 18.979 191.739 18.8584 191.582 18.7064C191.425 18.5543 191.301 18.3738 191.216 18.1751C191.131 17.9764 191.088 17.7635 191.088 17.5484V1.82887C191.088 1.39459 191.266 0.978092 191.582 0.671008C191.899 0.363923 192.328 0.191406 192.775 0.191406C193.223 0.191406 193.652 0.363923 193.969 0.671008C194.285 0.978092 194.463 1.39459 194.463 1.82887V17.5484C194.463 17.7635 194.419 17.9764 194.335 18.1751C194.25 18.3738 194.125 18.5543 193.969 18.7064C193.812 18.8584 193.626 18.979 193.421 19.0613C193.216 19.1436 192.997 19.1859 192.775 19.1859ZM204.025 19.1859C203.804 19.1859 203.584 19.1436 203.38 19.0613C203.175 18.979 202.989 18.8584 202.832 18.7064C202.675 18.5543 202.551 18.3738 202.466 18.1751C202.381 17.9764 202.338 17.7635 202.338 17.5484V1.82887C202.338 1.39459 202.516 0.978092 202.832 0.671008C203.149 0.363923 203.578 0.191406 204.025 0.191406C204.473 0.191406 204.902 0.363923 205.219 0.671008C205.535 0.978092 205.713 1.39459 205.713 1.82887V17.5484C205.713 17.7635 205.669 17.9764 205.585 18.1751C205.5 18.3738 205.375 18.5543 205.219 18.7064C205.062 18.8584 204.876 18.979 204.671 19.0613C204.466 19.1436 204.247 19.1859 204.025 19.1859ZM215.275 19.1859C215.054 19.1859 214.834 19.1436 214.63 19.0613C214.425 18.979 214.239 18.8584 214.082 18.7064C213.925 18.5543 213.801 18.3738 213.716 18.1751C213.631 17.9764 213.588 17.7635 213.588 17.5484V1.82887C213.588 1.39459 213.766 0.978092 214.082 0.671008C214.399 0.363923 214.828 0.191406 215.275 0.191406C215.723 0.191406 216.152 0.363923 216.469 0.671008C216.785 0.978092 216.963 1.39459 216.963 1.82887V17.5484C216.963 17.7635 216.919 17.9764 216.835 18.1751C216.75 18.3738 216.625 18.5543 216.469 18.7064C216.312 18.8584 216.126 18.979 215.921 19.0613C215.716 19.1436 215.497 19.1859 215.275 19.1859ZM226.525 19.1859C226.304 19.1859 226.084 19.1436 225.88 19.0613C225.675 18.979 225.489 18.8584 225.332 18.7064C225.175 18.5543 225.051 18.3738 224.966 18.1751C224.881 17.9764 224.838 17.7635 224.838 17.5484V1.82887C224.838 1.39459 225.016 0.978092 225.332 0.671008C225.649 0.363923 226.078 0.191406 226.525 0.191406C226.973 0.191406 227.402 0.363923 227.719 0.671008C228.035 0.978092 228.213 1.39459 228.213 1.82887V17.5484C228.213 17.7635 228.169 17.9764 228.085 18.1751C228 18.3738 227.875 18.5543 227.719 18.7064C227.562 18.8584 227.376 18.979 227.171 19.0613C226.966 19.1436 226.747 19.1859 226.525 19.1859Z" fill="#E6952A"/>
<path d="M232.797 83.8379L215.198 83.9951L215.353 100.427L232.797 83.8379Z" fill="#E6952A"/>
<path d="M191.088 43.1809C195.114 43.1809 198.378 40.0138 198.378 36.1071C198.378 32.2003 195.114 29.0332 191.088 29.0332C187.062 29.0332 183.798 32.2003 183.798 36.1071C183.798 40.0138 187.062 43.1809 191.088 43.1809Z" fill="#E6952A"/>
<path d="M211.316 43.1809C215.343 43.1809 218.606 40.0138 218.606 36.1071C218.606 32.2003 215.343 29.0332 211.316 29.0332C207.29 29.0332 204.026 32.2003 204.026 36.1071C204.026 40.0138 207.29 43.1809 211.316 43.1809Z" fill="#E6952A"/>
<path d="M148.999 60.6457C153.025 60.6457 156.289 57.4787 156.289 53.5719C156.289 49.6651 153.025 46.498 148.999 46.498C144.973 46.498 141.709 49.6651 141.709 53.5719C141.709 57.4787 144.973 60.6457 148.999 60.6457Z" fill="#E6952A"/>
<path d="M170.275 60.6457C174.301 60.6457 177.565 57.4787 177.565 53.5719C177.565 49.6651 174.301 46.498 170.275 46.498C166.249 46.498 162.985 49.6651 162.985 53.5719C162.985 57.4787 166.249 60.6457 170.275 60.6457Z" fill="#E6952A"/>
<path d="M191.088 60.6457C195.114 60.6457 198.378 57.4787 198.378 53.5719C198.378 49.6651 195.114 46.498 191.088 46.498C187.062 46.498 183.798 49.6651 183.798 53.5719C183.798 57.4787 187.062 60.6457 191.088 60.6457Z" fill="#E6952A"/>
<path d="M211.316 60.6457C215.343 60.6457 218.606 57.4787 218.606 53.5719C218.606 49.6651 215.343 46.498 211.316 46.498C207.29 46.498 204.026 49.6651 204.026 53.5719C204.026 57.4787 207.29 60.6457 211.316 60.6457Z" fill="#E6952A"/>
<path d="M148.999 78.1125C153.025 78.1125 156.289 74.9455 156.289 71.0387C156.289 67.1319 153.025 63.9648 148.999 63.9648C144.973 63.9648 141.709 67.1319 141.709 71.0387C141.709 74.9455 144.973 78.1125 148.999 78.1125Z" fill="#E6952A"/>
<path d="M170.275 78.1125C174.301 78.1125 177.565 74.9455 177.565 71.0387C177.565 67.1319 174.301 63.9648 170.275 63.9648C166.249 63.9648 162.985 67.1319 162.985 71.0387C162.985 74.9455 166.249 78.1125 170.275 78.1125Z" fill="#E6952A"/>
<path d="M191.088 78.1125C195.114 78.1125 198.378 74.9455 198.378 71.0387C198.378 67.1319 195.114 63.9648 191.088 63.9648C187.062 63.9648 183.798 67.1319 183.798 71.0387C183.798 74.9455 187.062 78.1125 191.088 78.1125Z" fill="#E6952A"/>
<path d="M211.316 78.1125C215.343 78.1125 218.606 74.9455 218.606 71.0387C218.606 67.1319 215.343 63.9648 211.316 63.9648C207.29 63.9648 204.026 67.1319 204.026 71.0387C204.026 74.9455 207.29 78.1125 211.316 78.1125Z" fill="#E6952A"/>
<path d="M148.999 94.4875C153.025 94.4875 156.289 91.3205 156.289 87.4137C156.289 83.5069 153.025 80.3398 148.999 80.3398C144.973 80.3398 141.709 83.5069 141.709 87.4137C141.709 91.3205 144.973 94.4875 148.999 94.4875Z" fill="#E6952A"/>
<path d="M166.039 64.1191C167.877 66.146 169.505 68.3435 170.899 70.6797C171.595 71.8393 172.274 73.0079 172.881 74.2185C173.514 75.4272 174.059 76.6772 174.512 77.9592C173.569 76.9594 172.698 75.8971 171.907 74.78C171.102 73.6839 170.369 72.5459 169.652 71.3988C168.205 69.093 166.995 66.6547 166.039 64.1191Z" fill="#AF2F2F"/>
<path d="M174.512 64.1191C173.557 66.6548 172.347 69.0931 170.899 71.3988C170.183 72.5459 169.45 73.6839 168.644 74.78C167.853 75.8971 166.982 76.9594 166.039 77.9592C166.493 76.6772 167.038 75.4273 167.67 74.2185C168.277 73.0079 168.957 71.8393 169.652 70.6797C171.046 68.3435 172.674 66.146 174.512 64.1191Z" fill="#AF2F2F"/>
<path d="M257.417 404.802C253.868 402.502 253.385 397.916 256.301 394.39L268.567 379.56C268.793 379.31 269.093 379.133 269.425 379.053C269.758 378.974 270.108 378.994 270.428 379.113L279.161 382.783C279.498 382.908 279.868 382.924 280.216 382.829C280.563 382.735 280.87 382.534 281.091 382.257L286.184 375.895C286.326 375.694 286.516 375.531 286.737 375.419C286.959 375.307 287.206 375.25 287.456 375.252C287.706 375.255 287.952 375.317 288.171 375.433C288.391 375.55 288.577 375.717 288.714 375.92L293.886 386.62C294.013 386.957 293.999 387.329 293.845 387.656C293.692 387.983 293.412 388.237 293.067 388.365L257.428 404.809L257.417 404.802ZM168.637 396.466C166.573 392.445 168.953 388.095 174.022 386.579L195.344 380.203C195.722 380.106 196.121 380.114 196.494 380.227C196.868 380.34 197.201 380.553 197.456 380.842L203.774 388.964C204.042 389.267 204.397 389.487 204.794 389.595C205.191 389.702 205.612 389.694 206.003 389.57L214.984 386.74C216.202 386.357 217.589 387.157 217.461 388.17L215.891 400.568C215.784 400.954 215.527 401.284 215.173 401.489C214.82 401.694 214.398 401.757 213.998 401.666L168.644 396.478L168.637 396.466Z" fill="#F73C4F"/>
<path d="M413.667 115.892L414.983 114.12L364.51 78.791H349.249V80.9743H363.783L413.667 115.892Z" fill="#F58A97"/>
<path d="M414.323 117.119C414.784 117.12 415.233 116.978 415.606 116.716C415.979 116.453 416.256 116.082 416.398 115.656C416.539 115.231 416.539 114.773 416.395 114.348C416.252 113.923 415.973 113.553 415.599 113.292L405.138 105.969C404.669 105.642 404.086 105.508 403.516 105.598C402.946 105.687 402.435 105.993 402.097 106.447C401.759 106.902 401.621 107.468 401.713 108.021C401.806 108.575 402.12 109.07 402.589 109.398L413.05 116.72C413.42 116.98 413.866 117.12 414.323 117.119Z" fill="#FEC165"/>
<path d="M388.313 95.8164H386.063V231.026H388.313V95.8164Z" fill="#F58A97"/>
<path d="M344.675 99.0277L331.216 89.2642C332.739 85.8158 335.403 82.9585 338.788 81.1443C342.172 79.33 346.083 78.6625 349.902 79.2471C349.902 79.2471 353.038 92.9413 344.675 99.0277Z" fill="#FEC165"/>
<path d="M366.803 246.115H407.573L387.188 230.715L366.803 246.115Z" fill="#FEC165"/>
<path d="M386.092 97.9707H388.284C388.906 97.9707 389.409 97.482 389.409 96.8791V94.7515C389.409 94.1486 388.906 93.6598 388.284 93.6598H386.092C385.47 93.6598 384.967 94.1486 384.967 94.7515V96.8791C384.967 97.482 385.47 97.9707 386.092 97.9707Z" fill="#FEC165"/>
<path d="M27.8143 378.419C27.8143 378.419 23.643 398.468 25.175 399.096C26.7071 399.724 66.8877 402.178 59.9018 398.746L48.2998 393.769C46.2707 392.899 44.5431 391.479 43.3237 389.681C42.1044 387.883 41.445 385.781 41.4244 383.629L41.3634 377.236L27.8143 378.419ZM86.438 380.422C86.438 380.422 83.595 400.688 85.1653 401.22C86.7356 401.751 126.996 401.71 119.798 398.718L107.892 394.471C105.81 393.728 103.992 392.418 102.657 390.699C101.322 388.98 100.526 386.924 100.363 384.777L99.8815 378.402L86.438 380.422Z" fill="#F9977A"/>
<path d="M39.3741 177.039C39.3741 177.039 35.2275 208.78 37.165 290.155L23.9609 373.75C23.8291 375.063 24.2361 376.373 25.0937 377.397C25.9514 378.421 27.1904 379.075 28.542 379.218L41.2036 380.557C42.3942 380.683 43.5928 380.404 44.5945 379.767C45.5961 379.13 46.3386 378.175 46.6948 377.065L71.8226 298.794L82.9295 377.283C83.0992 378.483 83.7111 379.582 84.6518 380.378C85.5925 381.174 86.7984 381.613 88.0466 381.613H101.02C102.347 381.614 103.624 381.118 104.585 380.229C105.546 379.34 106.117 378.126 106.179 376.839C107.464 350.203 112.75 219.582 95.2518 175.92L39.3741 177.039Z" fill="#FFBA55"/>
<path d="M71.8236 298.793C72.7445 290.707 73.7632 282.634 74.7819 274.561L77.9023 250.354L81.0617 226.154C81.5926 222.121 82.0898 218.085 82.5531 214.046C83.1161 210.019 83.4449 205.964 83.5381 201.901C83.6628 205.971 83.5172 210.045 83.1022 214.097C82.744 218.151 82.3505 222.202 81.9217 226.249C81.0524 234.342 80.0367 242.417 79.0172 250.491C77.9147 258.555 76.8375 266.622 75.6359 274.672C74.4383 282.723 73.2043 290.768 71.8236 298.793ZM103.91 278.765C102.991 280.618 102.275 282.558 101.774 284.555C101.274 286.514 101.069 288.534 101.165 290.55C101.214 291.55 101.35 292.544 101.572 293.522C101.823 294.495 102.16 295.446 102.579 296.363C103.451 298.229 104.581 299.971 105.936 301.542C105.535 301.201 105.137 300.85 104.747 300.488C104.336 300.146 103.958 299.768 103.617 299.359L102.619 298.105C102.308 297.668 102.031 297.209 101.789 296.734C101.265 295.794 100.846 294.802 100.539 293.776C99.7264 290.655 99.8629 287.372 100.932 284.324C101.589 282.319 102.597 280.439 103.91 278.765ZM43.2487 223.595C43.3556 225.851 43.5884 228.083 43.884 230.295C44.1769 232.499 44.628 234.68 45.234 236.823C45.8128 238.954 46.676 241.003 47.8015 242.918C48.9365 244.851 50.5059 246.51 52.393 247.773C50.2184 246.834 48.3679 245.308 47.0618 243.377C45.7435 241.46 44.7601 239.345 44.1513 237.117C42.9404 232.71 42.6336 228.116 43.2487 223.595ZM40.6065 238.03C40.8165 240.201 41.3625 242.329 42.2262 244.342C43.4743 247.341 45.3425 250.061 47.7155 252.332C48.1126 252.708 48.4826 253.114 48.9036 253.466L50.1816 254.512C50.6005 254.872 51.0443 255.204 51.5099 255.505L52.8744 256.466C53.803 257.085 54.7937 257.61 55.7399 258.238C54.6846 257.834 53.6319 257.398 52.5937 256.926C51.5777 256.407 50.5954 255.827 49.6521 255.191C47.7506 253.905 46.0562 252.352 44.6242 250.583C43.2162 248.787 42.1278 246.775 41.4038 244.631C40.6567 242.51 40.3848 240.26 40.6065 238.03ZM57.3356 196.916C57.0269 198.577 56.6987 200.233 56.3032 201.87C55.9195 203.512 55.5452 205.155 55.1134 206.783L55.0579 206.993L54.8459 207.101C52.0199 208.533 49.1709 209.921 46.2851 211.236C44.8511 211.912 43.38 212.515 41.9292 213.158C40.4744 213.793 38.997 214.384 37.5078 214.952C38.8698 214.137 40.2434 213.345 41.6398 212.596C43.0402 211.856 44.4204 211.076 45.8376 210.368C48.654 208.917 51.5071 207.538 54.3836 206.204L54.1161 206.521C54.5915 204.904 55.1238 203.302 55.6473 201.698C56.1585 200.09 56.7374 198.501 57.3356 196.916Z" fill="#E6952A"/>
<path d="M98.5063 189.26C93.9778 191.376 89.2567 193.08 84.4037 194.35C79.5436 195.632 74.5855 196.535 69.5768 197.049L65.8074 197.326L62.0262 197.381C60.7661 197.435 59.5071 197.33 58.2483 197.272C56.988 197.242 55.7305 197.141 54.4822 196.971C49.479 196.41 44.5741 195.211 39.8945 193.405C41.111 193.71 42.3204 194.025 43.5227 194.349C44.1264 194.503 44.7219 194.685 45.3308 194.815L47.1757 195.129C48.4045 195.334 49.618 195.614 50.8528 195.766L54.5681 196.135C59.5291 196.532 64.5176 196.475 69.4675 195.964C74.4273 195.495 79.3466 194.685 84.1884 193.541C86.6136 192.976 89.0251 192.346 91.4078 191.618C93.8096 190.943 96.1645 190.126 98.5063 189.26Z" fill="#E6952A"/>
<path d="M91.1339 193.777C91.1128 192.196 90.8387 190.628 90.3215 189.129C90.063 188.39 89.7654 187.663 89.43 186.953C89.096 186.228 88.7065 185.522 88.3585 184.742C89.0673 185.232 89.6859 185.835 90.1883 186.524C90.7006 187.218 91.1054 187.981 91.3897 188.788C91.6618 189.607 91.7935 190.463 91.7794 191.323C91.7837 192.181 91.5615 193.026 91.1339 193.777ZM51.2684 198.381C50.9451 197.337 50.7768 196.253 50.7685 195.163C50.7426 194.067 50.8469 192.971 51.0794 191.898C51.3269 190.815 51.7351 189.772 52.2912 188.803C52.8637 187.843 53.6596 187.025 54.6154 186.416C54.0118 187.287 53.4972 188.212 53.0789 189.179C52.7059 190.141 52.4047 191.128 52.1778 192.132C51.7614 194.198 51.4578 196.284 51.2684 198.381Z" fill="#E6952A"/>
<path d="M55.0435 85.6328L76.1348 86.7777C76.1348 86.7777 104.315 88.8207 104.276 112.428L106.684 134.885C108.749 138.075 110.33 141.537 111.378 145.165C114.136 155.003 110.662 164.065 100.413 166.314L101.3 181.386C101.392 182.956 100.914 184.507 99.9491 185.771C98.9842 187.034 97.5934 187.929 96.0188 188.3C85.8288 190.709 64.389 195.214 54.26 193.148L38.0161 189.256L38.1103 159.387C38.1103 159.387 8.25755 167.779 11.0764 150.995C13.3481 137.469 20.4187 112.204 29.6193 97.4842C31.246 94.9056 33.414 92.6883 35.9824 90.9766C38.5507 89.265 41.4617 88.0974 44.5259 87.5499L55.0435 85.6328Z" fill="#6C7FD8"/>
<path d="M54.2598 140.509C54.2598 140.509 65.7751 129.083 77.9275 133.779L58.5535 151.435L54.2598 140.509Z" fill="#F9977A"/>
<path d="M91.9693 119.459C91.9144 122.172 91.8287 124.883 91.7122 127.593L91.3082 135.719L90.7768 143.838C90.5834 146.543 90.3565 149.247 90.0961 151.949C90.1502 149.236 90.2357 146.524 90.3524 143.815L90.7572 135.689L91.2898 127.57C91.4826 124.864 91.7092 122.161 91.9693 119.459ZM19.0479 141.163C24.9146 140.96 30.7818 140.781 36.6501 140.663L54.2544 140.251L54.4398 140.246L54.5076 140.416C56.1413 144.517 57.7052 148.644 59.3075 152.757L59.3896 152.968L59.1699 153.035L46.8963 156.801C42.8113 158.075 38.695 159.255 34.5952 160.484C38.6645 159.163 42.7174 157.792 46.8015 156.515L59.0356 152.63L58.8977 152.908C57.2715 148.805 55.6065 144.715 54.0116 140.6L54.2645 140.766L36.657 141.008C30.7881 141.109 24.9181 141.148 19.0479 141.163Z" fill="#065082"/>
<path d="M39.5044 116.611C39.5 120.657 39.2824 124.69 39.0825 128.725C38.818 132.756 38.5716 136.788 38.1094 140.809C38.1124 136.763 38.331 132.73 38.5315 128.695C38.7966 124.664 39.044 120.632 39.5044 116.611ZM84.5854 160.375C85.2264 161.514 85.9869 162.586 86.8549 163.573C87.6998 164.557 88.695 165.408 89.8058 166.099C90.9027 166.798 92.1488 167.246 93.4502 167.41C94.7721 167.569 96.1124 167.509 97.4133 167.23C96.1384 167.714 94.7685 167.915 93.4033 167.82C92.0193 167.709 90.6838 167.274 89.5116 166.552C88.3643 165.816 87.3544 164.896 86.5253 163.831C85.6983 162.783 85.0439 161.617 84.5854 160.375ZM94.6208 147.622C96.4633 145.349 98.4625 143.217 100.449 141.073C102.483 138.971 104.503 136.857 106.683 134.886C104.842 137.159 102.842 139.291 100.855 141.435C98.8209 143.536 96.7994 145.649 94.6208 147.622Z" fill="#065082"/>
<path d="M105.352 132.76L74.4754 133.907L51.0371 159.708L84.7331 157.816L105.352 132.76Z" fill="#025182"/>
<path d="M90.2681 160.983C87.1615 161.129 81.2702 160.969 76.5145 158.279L75.2378 157.369C74.4101 156.778 73.4619 156.365 72.4567 156.158C69.3025 155.564 66.186 154.794 63.1223 153.854C62.9022 153.768 62.7152 153.618 62.5878 153.424C62.4603 153.23 62.3988 153.002 62.4119 152.772C62.6043 152.446 62.8958 152.187 63.2465 152.028C63.5972 151.87 63.9898 151.821 64.3703 151.889L72.6727 153.699L66.9487 149.639C66.7655 149.509 66.6146 149.341 66.507 149.147C66.3993 148.954 66.3376 148.739 66.3264 148.519C66.3151 148.299 66.3546 148.08 66.442 147.877C66.5294 147.673 66.6624 147.492 66.8314 147.345L66.8577 147.322C67.0901 147.118 67.3811 146.986 67.6922 146.945C68.0033 146.905 68.3198 146.957 68.5998 147.094C71.7221 148.632 81.523 153.245 80.8031 150.291L75.9436 145.519C75.8192 145.397 75.7237 145.25 75.6636 145.089C75.6035 144.927 75.5802 144.755 75.5954 144.584C75.6117 144.401 75.6713 144.225 75.7696 144.069C75.868 143.912 76.0023 143.78 76.1621 143.683C76.322 143.585 76.5029 143.525 76.6908 143.506C76.8786 143.488 77.0683 143.512 77.2449 143.577L78.0338 143.867C78.1406 143.906 78.2412 143.96 78.3326 144.026L83.9637 148.108C84.4517 148.467 85.0359 148.682 85.6465 148.727C86.5301 148.815 87.4226 148.695 88.248 148.376C89.0734 148.058 89.8073 147.55 90.3873 146.898C91.7485 145.315 92.8022 144.11 93.427 143.398C93.5087 143.306 93.6093 143.23 93.7226 143.177C93.8359 143.124 93.9594 143.094 94.0851 143.09C94.2109 143.085 94.3362 143.106 94.4532 143.151C94.5701 143.196 94.6761 143.264 94.7645 143.351C94.86 143.445 94.9328 143.558 94.9775 143.682C95.0222 143.806 95.0378 143.939 95.023 144.07L93.9916 153.188C94.4113 154.678 94.496 156.239 94.2399 157.764C94.0393 158.652 93.5403 159.45 92.8213 160.032C92.1024 160.615 91.2042 160.949 90.2681 160.983ZM70.5924 42.9123C73.9641 42.5998 77.3641 43.0694 80.512 44.2824C81.9857 44.8813 87.3756 47.0717 89.7647 52.2692C90.6721 54.2431 90.769 56.5637 90.9635 61.2048C91.085 64.1038 92.1103 66.231 91.9058 69.7476C91.682 72.5936 91.0374 75.3937 89.9917 78.0616C88.414 82.2405 89.1328 84.7023 88.4225 85.4609C85.5596 88.5182 77.5737 85.564 77.2106 89.7366C76.9864 92.313 78.9887 92.9038 78.6424 95.9143C78.1934 99.817 65.3303 96.9813 61.6009 94.816C61.0925 94.5208 56.5032 91.2355 57.2852 86.6996C57.703 84.2764 60.4959 72.9515 60.3762 71.4642C59.9431 66.0887 57.2099 65.2877 55.3974 58.7197C54.898 57.0684 54.8442 55.3203 55.241 53.6429C55.6379 51.9656 56.4721 50.4153 57.6636 49.1406C61.0872 45.6576 65.6635 43.453 70.5924 42.9123Z" fill="#F9977A"/>
<path d="M90.6769 65.7272C90.7198 64.9832 90.2547 64.3529 89.6381 64.3194C89.0214 64.2859 88.4868 64.8619 88.4439 65.606C88.401 66.35 88.8661 66.9803 89.4827 67.0137C90.0993 67.0472 90.634 66.4712 90.6769 65.7272Z" fill="#0A0709"/>
<path d="M80.6095 65.1803C80.6524 64.4363 80.1873 63.806 79.5707 63.7725C78.954 63.7391 78.4194 64.3151 78.3765 65.0591C78.3336 65.8031 78.7987 66.4334 79.4153 66.4669C80.032 66.5003 80.5666 65.9243 80.6095 65.1803Z" fill="#0A0709"/>
<path d="M91.9744 63.3767C91.8084 63.3771 91.6477 63.3205 91.5207 63.2168C90.5635 62.5065 89.4072 62.0939 88.2038 62.0332C87.0004 61.9725 85.8063 62.2666 84.7784 62.8768C84.6979 62.9214 84.6091 62.9502 84.5171 62.9616C84.4251 62.973 84.3317 62.9666 84.2423 62.943C84.1528 62.9193 84.069 62.8788 83.9957 62.8237C83.9223 62.7686 83.8609 62.7001 83.8149 62.622C83.7689 62.5439 83.7391 62.4577 83.7274 62.3684C83.7157 62.2792 83.7222 62.1885 83.7466 62.1017C83.771 62.0149 83.8128 61.9336 83.8695 61.8625C83.9263 61.7913 83.9969 61.7317 84.0774 61.687C85.3615 60.9528 86.842 60.6066 88.3298 60.6926C89.8176 60.7786 91.2452 61.293 92.4304 62.17C92.5406 62.2606 92.6195 62.3818 92.6565 62.5174C92.6934 62.6529 92.6865 62.7962 92.6368 62.9279C92.587 63.0595 92.4968 63.1731 92.3784 63.2534C92.2599 63.3337 92.1189 63.3768 91.9744 63.3767ZM81.5418 62.8096C81.3758 62.81 81.2151 62.7533 81.0881 62.6497C80.131 61.9391 78.9746 61.5264 77.7711 61.4659C76.5676 61.4054 75.3734 61.6999 74.3458 62.3107C74.1832 62.4002 73.9907 62.4236 73.8105 62.3756C73.6302 62.3277 73.4769 62.2123 73.3841 62.0549C73.2914 61.8974 73.2667 61.7107 73.3156 61.5356C73.3645 61.3606 73.4828 61.2115 73.6448 61.121C74.9288 60.3866 76.4092 60.0403 77.897 60.1261C79.3848 60.2119 80.8125 60.7261 81.9977 61.6028C82.108 61.6934 82.1869 61.8147 82.2238 61.9503C82.2608 62.0858 82.2539 62.2291 82.2042 62.3607C82.1544 62.4924 82.0642 62.606 81.9458 62.6863C81.8273 62.7666 81.6863 62.8096 81.5418 62.8096Z" fill="#1E1D22"/>
<path d="M83.413 63.1928C83.2378 64.3082 83.3836 65.4489 83.8343 66.4889C84.2345 67.5411 84.7671 68.5413 85.42 69.4668L85.9459 70.1491C86.1672 70.4104 86.2776 70.7437 86.2546 71.0812C86.2048 71.392 86.0862 71.6887 85.9069 71.9508C85.7275 72.2129 85.4918 72.4341 85.2159 72.5993C84.6883 72.8914 84.0998 73.0645 83.4939 73.1058C82.8881 73.1471 82.2804 73.0556 81.7159 72.838C82.2722 72.965 82.8489 72.9842 83.4128 72.8946C83.9768 72.805 84.517 72.6082 85.0025 72.3157C85.439 72.0177 85.7356 71.5637 85.8273 71.0535C85.8902 70.5975 85.3774 70.2199 85.039 69.7341C84.3774 68.7682 83.8584 67.7173 83.4971 66.6118C83.086 65.5114 83.0565 64.3109 83.413 63.1928ZM65.0933 62.6556C64.7068 62.7563 64.3368 62.9093 63.9944 63.1103C63.6577 63.3006 63.3442 63.5272 63.06 63.7859C62.4716 64.3152 61.9232 64.8849 61.4189 65.4905C61.5367 65.1003 61.7097 64.7278 61.9331 64.3837C62.1644 64.0392 62.4385 63.7235 62.7491 63.4437C63.0568 63.1543 63.4262 62.9337 63.8312 62.7976C64.2362 62.6614 64.667 62.613 65.0933 62.6556Z" fill="#DD765E"/>
<path d="M63.863 68.2239C64.0316 67.3999 64.0706 66.5559 63.9786 65.7206C63.9445 65.3092 63.8635 64.9027 63.7372 64.5085C63.632 64.1028 63.4554 63.7197 63.3008 63.3047C63.6248 63.6164 63.8876 63.9827 64.0764 64.3857C64.2665 64.7937 64.3911 65.2275 64.4461 65.6721C64.5548 66.5622 64.3492 67.4618 63.863 68.2239Z" fill="#DD765E"/>
<path d="M70.4031 73.615C70.4031 73.615 69.0003 65.7674 69.4667 63.5677C70.117 60.5027 70.4421 58.9702 70.1332 57.6918C69.6387 55.6454 70.6649 55.4381 72.09 53.3452C73.4275 51.3808 77.1139 53.2298 78.0771 52.9426C80.7802 52.1363 80.7446 51.0489 82.5414 51.038C84.3841 51.0269 85.7589 50.6293 86.8789 51.8434C88.0211 53.0825 90.0614 56.3223 90.6401 55.8108C91.8803 54.382 92.691 52.6494 92.9832 50.803C93.1023 48.9738 92.76 47.1441 91.9859 45.4722C91.6054 44.5101 90.1881 40.9292 86.8715 39.8137C84.9613 39.1712 84.5366 40.0581 80.3236 40.0714C75.9539 40.0852 75.8732 39.1329 73.556 39.6381C70.9911 40.1975 71.0193 41.3791 66.5728 43.4319C65.1 44.088 63.5916 44.666 62.0542 45.1633C56.5091 47.095 55.8213 46.7006 54.5082 47.8011C51.6772 50.1738 51.8662 54.5278 51.9118 55.5794C52.0404 58.5414 53.1747 59.491 55.4807 64.3497C59.1319 72.0442 58.1318 75.1399 59.5674 76.2689C60.2717 76.8227 64.2979 74.3619 64.3559 73.0448C64.432 71.3182 63.1823 70.7042 61.8174 68.1286C60.8642 66.3286 59.4949 63.7443 60.4968 61.5233C61.103 60.1809 61.6695 60.5878 63.126 60.799C65.1027 61.0857 65.9254 63.8245 66.6084 65.8389C67.1011 67.2967 67.2608 68.841 67.0763 70.3646C66.6693 73.7642 71.0093 75.0102 70.4031 73.615Z" fill="#1E1D22"/>
<path d="M79.125 77.4727C80.4024 78.2041 81.8119 78.6924 83.2778 78.9114C83.9711 78.9921 84.674 78.9351 85.3438 78.7439C86.0711 78.533 86.7773 78.2588 87.4537 77.9247C87.0239 78.613 86.4045 79.1713 85.6654 79.5365C85.2848 79.7291 84.8787 79.87 84.4586 79.9555C84.031 80.0168 83.5975 80.0307 83.1666 79.997C82.3238 79.9054 81.5155 79.6207 80.8084 79.1665C80.1152 78.7412 79.5378 78.1603 79.125 77.4727Z" fill="#DD765E"/>
<path d="M126.37 404.172C128.693 400.562 127.019 396.143 122.588 394.132L103.946 385.676C103.614 385.541 103.247 385.505 102.894 385.572C102.54 385.638 102.214 385.805 101.958 386.051L95.3149 393.107C95.0444 393.365 94.698 393.535 94.3234 393.594C93.9488 393.654 93.5646 393.599 93.2235 393.437L85.3883 389.738C84.3252 389.236 82.9768 389.847 82.98 390.828L83.0184 402.844C83.062 403.214 83.2535 403.554 83.552 403.789C83.8505 404.024 84.2321 404.136 84.6149 404.102L126.363 404.183L126.37 404.172ZM67.1393 404.172C69.4623 400.562 67.7885 396.143 63.3566 394.132L44.7155 385.676C44.3828 385.541 44.0165 385.505 43.6627 385.572C43.3089 385.638 42.9833 385.805 42.7268 386.051L36.084 393.107C35.8134 393.365 35.467 393.535 35.0925 393.594C34.7179 393.654 34.3336 393.599 33.9926 393.437L26.1573 389.738C25.0943 389.236 23.7459 389.847 23.749 390.828L23.7875 402.844C23.831 403.214 24.0226 403.554 24.3211 403.789C24.6195 404.024 25.0011 404.136 25.384 404.102L67.1322 404.183L67.1393 404.172Z" fill="#6C7FD8"/>
<path d="M83.5194 73.0784C85.9001 73.1277 86.4115 71.9998 90.2069 77.4723C90.2069 77.4723 85.6794 75.8255 76.415 77.4723C76.415 77.4723 80.1106 73.0079 83.5194 73.0784Z" fill="#1E1D22"/>
<path d="M453.609 144.548V404.288H514.125V144.548C514.125 143.801 513.819 143.084 513.275 142.556C512.73 142.027 511.991 141.73 511.221 141.73H456.513C456.131 141.73 455.754 141.803 455.402 141.945C455.049 142.087 454.729 142.294 454.459 142.556C454.19 142.817 453.976 143.128 453.83 143.47C453.684 143.812 453.609 144.178 453.609 144.548Z" fill="#935B50"/>
<path d="M507.881 188.984H459.851C458.248 188.984 456.948 190.246 456.948 191.802V224.967C456.948 226.523 458.248 227.785 459.851 227.785H507.881C509.485 227.785 510.785 226.523 510.785 224.967V191.802C510.785 190.246 509.485 188.984 507.881 188.984Z" fill="#E19974"/>
<path d="M507.881 145.957H459.851C458.248 145.957 456.948 147.218 456.948 148.775V181.94C456.948 183.496 458.248 184.757 459.851 184.757H507.881C509.485 184.757 510.785 183.496 510.785 181.94V148.775C510.785 147.218 509.485 145.957 507.881 145.957Z" fill="#E19974"/>
<path d="M507.366 179.834C507.544 179.993 507.687 180.185 507.786 180.399C507.885 180.613 507.939 180.844 507.944 181.079C507.949 181.313 507.905 181.546 507.815 181.764C507.724 181.981 507.59 182.179 507.419 182.345C507.248 182.511 507.044 182.641 506.82 182.729C506.596 182.817 506.355 182.859 506.114 182.854C505.872 182.85 505.634 182.797 505.413 182.701C505.193 182.605 504.995 182.466 504.831 182.294C505.06 181.978 505.271 181.651 505.462 181.313C505.559 181.127 505.682 180.954 505.829 180.801C506.1 180.533 506.454 180.454 507.366 179.834ZM504.831 148.422C504.995 148.25 505.193 148.111 505.413 148.015C505.634 147.919 505.872 147.866 506.114 147.862C506.355 147.857 506.596 147.9 506.82 147.987C507.044 148.075 507.248 148.205 507.419 148.371C507.59 148.537 507.724 148.735 507.815 148.952C507.905 149.17 507.949 149.403 507.944 149.638C507.939 149.872 507.885 150.103 507.786 150.317C507.687 150.531 507.544 150.723 507.366 150.882C507.041 150.66 506.704 150.456 506.356 150.27C506.164 150.176 505.986 150.057 505.829 149.915C505.552 149.65 505.47 149.308 504.831 148.422ZM460.368 150.882C460.191 150.723 460.048 150.531 459.948 150.317C459.849 150.103 459.795 149.872 459.79 149.638C459.785 149.403 459.829 149.17 459.92 148.952C460.01 148.735 460.145 148.537 460.316 148.371C460.487 148.205 460.69 148.075 460.915 147.987C461.139 147.9 461.379 147.857 461.621 147.862C461.862 147.866 462.101 147.919 462.321 148.015C462.541 148.111 462.74 148.25 462.903 148.422C462.674 148.738 462.464 149.065 462.272 149.403C462.176 149.589 462.052 149.761 461.906 149.915C461.634 150.183 461.281 150.262 460.368 150.882ZM462.903 182.294C462.74 182.466 462.542 182.605 462.321 182.701C462.101 182.797 461.862 182.85 461.621 182.854C461.379 182.859 461.139 182.817 460.915 182.729C460.69 182.641 460.487 182.511 460.316 182.345C460.145 182.179 460.01 181.981 459.92 181.764C459.83 181.546 459.786 181.313 459.79 181.079C459.795 180.844 459.849 180.613 459.948 180.399C460.048 180.185 460.191 179.993 460.368 179.834C460.693 180.056 461.03 180.26 461.378 180.446C461.571 180.54 461.748 180.66 461.906 180.801C462.183 181.066 462.265 181.408 462.903 182.294ZM507.366 222.861C507.544 223.02 507.687 223.212 507.786 223.426C507.885 223.64 507.939 223.871 507.944 224.105C507.949 224.34 507.905 224.573 507.815 224.791C507.724 225.008 507.59 225.206 507.419 225.372C507.248 225.538 507.044 225.668 506.82 225.756C506.596 225.844 506.355 225.886 506.114 225.881C505.872 225.877 505.634 225.824 505.413 225.728C505.193 225.632 504.995 225.493 504.831 225.321C505.06 225.006 505.271 224.678 505.462 224.34C505.559 224.154 505.682 223.982 505.829 223.829C506.1 223.56 506.454 223.481 507.366 222.861ZM504.831 191.45C504.995 191.277 505.193 191.138 505.413 191.042C505.634 190.946 505.872 190.894 506.114 190.889C506.355 190.884 506.596 190.927 506.82 191.014C507.044 191.102 507.248 191.232 507.419 191.398C507.59 191.564 507.724 191.762 507.815 191.979C507.905 192.197 507.949 192.43 507.944 192.665C507.939 192.899 507.885 193.13 507.786 193.344C507.687 193.558 507.544 193.75 507.366 193.909C507.041 193.687 506.704 193.483 506.356 193.297C506.164 193.203 505.986 193.084 505.829 192.942C505.552 192.677 505.47 192.335 504.831 191.45ZM460.368 193.909C460.191 193.75 460.048 193.558 459.948 193.344C459.849 193.13 459.795 192.899 459.79 192.665C459.785 192.43 459.829 192.197 459.92 191.979C460.01 191.762 460.145 191.564 460.316 191.398C460.487 191.232 460.69 191.102 460.915 191.014C461.139 190.927 461.379 190.884 461.621 190.889C461.862 190.894 462.101 190.946 462.321 191.042C462.542 191.138 462.74 191.277 462.903 191.45C462.674 191.765 462.464 192.092 462.272 192.43C462.176 192.616 462.052 192.788 461.906 192.942C461.634 193.21 461.281 193.289 460.368 193.909ZM462.903 225.321C462.74 225.493 462.541 225.632 462.321 225.728C462.101 225.824 461.862 225.877 461.621 225.881C461.379 225.886 461.139 225.844 460.915 225.756C460.69 225.668 460.487 225.538 460.316 225.372C460.145 225.206 460.01 225.008 459.92 224.791C459.829 224.573 459.785 224.34 459.79 224.105C459.795 223.871 459.849 223.64 459.948 223.426C460.048 223.212 460.191 223.02 460.368 222.861C460.693 223.083 461.03 223.287 461.378 223.473C461.571 223.567 461.749 223.687 461.906 223.829C462.183 224.093 462.265 224.435 462.903 225.321Z" fill="#D6694B"/>
<path d="M507.881 275.039H459.851C458.248 275.039 456.948 276.301 456.948 277.857V311.022C456.948 312.578 458.248 313.839 459.851 313.839H507.881C509.485 313.839 510.785 312.578 510.785 311.022V277.857C510.785 276.301 509.485 275.039 507.881 275.039Z" fill="#E19974"/>
<path d="M507.881 318.066H459.851C458.248 318.066 456.948 319.328 456.948 320.884V354.049C456.948 355.605 458.248 356.867 459.851 356.867H507.881C509.485 356.867 510.785 355.605 510.785 354.049V320.884C510.785 319.328 509.485 318.066 507.881 318.066Z" fill="#E19974"/>
<path d="M491.017 160.074H476.715C476.094 160.074 475.59 160.563 475.59 161.166V164.9C475.59 165.503 476.094 165.992 476.715 165.992H491.017C491.639 165.992 492.142 165.503 492.142 164.9V161.166C492.142 160.563 491.639 160.074 491.017 160.074Z" fill="#D6694B"/>
<path d="M491.017 289.156H476.715C476.094 289.156 475.59 289.645 475.59 290.248V293.982C475.59 294.585 476.094 295.074 476.715 295.074H491.017C491.639 295.074 492.142 294.585 492.142 293.982V290.248C492.142 289.645 491.639 289.156 491.017 289.156Z" fill="#D6694B"/>
<path d="M491.017 332.184H476.715C476.094 332.184 475.59 332.672 475.59 333.275V337.01C475.59 337.613 476.094 338.101 476.715 338.101H491.017C491.639 338.101 492.142 337.613 492.142 337.01V333.275C492.142 332.672 491.639 332.184 491.017 332.184Z" fill="#D6694B"/>
<path d="M491.017 203.102H476.715C476.094 203.102 475.59 203.59 475.59 204.193V207.928C475.59 208.531 476.094 209.019 476.715 209.019H491.017C491.639 209.019 492.142 208.531 492.142 207.928V204.193C492.142 203.59 491.639 203.102 491.017 203.102Z" fill="#D6694B"/>
<path d="M507.366 308.914C507.544 309.073 507.687 309.265 507.786 309.479C507.885 309.693 507.939 309.924 507.944 310.158C507.949 310.393 507.905 310.626 507.815 310.844C507.724 311.061 507.59 311.259 507.419 311.425C507.248 311.591 507.044 311.721 506.82 311.809C506.596 311.896 506.355 311.939 506.114 311.934C505.872 311.93 505.634 311.877 505.413 311.781C505.193 311.685 504.995 311.546 504.831 311.374C505.06 311.059 505.271 310.731 505.462 310.393C505.559 310.207 505.682 310.035 505.829 309.882C506.1 309.613 506.454 309.534 507.366 308.914ZM504.831 277.503C504.995 277.33 505.193 277.191 505.413 277.095C505.634 276.999 505.872 276.947 506.114 276.942C506.355 276.937 506.596 276.98 506.82 277.067C507.044 277.155 507.248 277.285 507.419 277.451C507.59 277.617 507.724 277.815 507.815 278.032C507.905 278.25 507.949 278.483 507.944 278.718C507.939 278.952 507.885 279.183 507.786 279.397C507.687 279.611 507.544 279.803 507.366 279.962C507.041 279.74 506.704 279.536 506.356 279.35C506.164 279.256 505.986 279.137 505.829 278.995C505.552 278.73 505.47 278.388 504.831 277.503ZM460.368 279.962C460.191 279.803 460.048 279.611 459.948 279.397C459.849 279.183 459.795 278.952 459.79 278.718C459.785 278.483 459.829 278.25 459.92 278.032C460.01 277.815 460.145 277.617 460.316 277.451C460.487 277.285 460.69 277.155 460.915 277.067C461.139 276.98 461.379 276.937 461.621 276.942C461.862 276.947 462.101 276.999 462.321 277.095C462.541 277.191 462.74 277.33 462.903 277.503C462.674 277.818 462.464 278.145 462.272 278.483C462.176 278.669 462.052 278.842 461.906 278.995C461.634 279.263 461.281 279.342 460.368 279.962ZM462.903 311.374C462.74 311.546 462.541 311.685 462.321 311.781C462.101 311.877 461.862 311.93 461.621 311.934C461.379 311.939 461.139 311.896 460.915 311.809C460.69 311.721 460.487 311.591 460.316 311.425C460.145 311.259 460.01 311.061 459.92 310.844C459.83 310.626 459.786 310.393 459.79 310.158C459.795 309.924 459.849 309.693 459.948 309.479C460.048 309.265 460.191 309.073 460.368 308.914C460.693 309.136 461.03 309.341 461.378 309.526C461.571 309.62 461.749 309.74 461.906 309.882C462.183 310.146 462.265 310.488 462.903 311.374ZM507.366 351.941C507.544 352.1 507.687 352.292 507.786 352.506C507.885 352.72 507.939 352.951 507.944 353.186C507.949 353.42 507.905 353.653 507.815 353.871C507.724 354.088 507.59 354.286 507.419 354.452C507.248 354.618 507.044 354.749 506.82 354.836C506.596 354.924 506.355 354.966 506.114 354.961C505.872 354.957 505.634 354.905 505.413 354.808C505.193 354.712 504.995 354.573 504.831 354.401C505.06 354.086 505.271 353.758 505.462 353.42C505.559 353.234 505.682 353.062 505.829 352.909C506.1 352.64 506.454 352.561 507.366 351.941ZM504.831 320.529C504.995 320.357 505.193 320.218 505.413 320.122C505.634 320.026 505.872 319.974 506.114 319.969C506.355 319.964 506.596 320.007 506.82 320.094C507.044 320.182 507.248 320.312 507.419 320.478C507.59 320.644 507.724 320.842 507.815 321.059C507.905 321.277 507.949 321.51 507.944 321.745C507.939 321.979 507.885 322.21 507.786 322.424C507.687 322.638 507.544 322.83 507.366 322.989C507.041 322.767 506.704 322.563 506.356 322.377C506.164 322.283 505.986 322.164 505.829 322.022C505.552 321.757 505.47 321.415 504.831 320.529ZM460.368 322.989C460.191 322.83 460.048 322.638 459.948 322.424C459.849 322.21 459.795 321.979 459.79 321.745C459.786 321.51 459.83 321.277 459.92 321.059C460.01 320.842 460.145 320.644 460.316 320.478C460.487 320.312 460.69 320.182 460.915 320.094C461.139 320.007 461.379 319.964 461.621 319.969C461.862 319.974 462.101 320.026 462.321 320.122C462.541 320.218 462.74 320.357 462.903 320.529C462.674 320.845 462.464 321.172 462.272 321.51C462.176 321.696 462.052 321.869 461.906 322.022C461.634 322.29 461.281 322.369 460.368 322.989ZM462.903 354.401C462.74 354.573 462.541 354.712 462.321 354.808C462.101 354.905 461.862 354.957 461.621 354.961C461.379 354.966 461.139 354.924 460.915 354.836C460.69 354.749 460.487 354.618 460.316 354.452C460.145 354.286 460.01 354.088 459.92 353.871C459.829 353.653 459.785 353.42 459.79 353.186C459.795 352.951 459.849 352.72 459.948 352.506C460.048 352.292 460.191 352.1 460.368 351.941C460.693 352.163 461.03 352.368 461.378 352.553C461.571 352.647 461.749 352.767 461.906 352.909C462.183 353.173 462.265 353.515 462.903 354.401Z" fill="#D6694B"/>
<path d="M471.166 342.371C471.166 342.371 500.705 342.953 505.193 338.109C505.193 338.109 495.52 371.739 502.822 388.239L469.968 384.873C469.968 384.873 473.81 358.827 471.166 342.371Z" fill="#7CA1B1"/>
<path d="M463.934 346.492C463.934 346.492 493.473 347.074 497.961 342.23C497.961 342.23 488.287 375.861 495.59 392.36L462.735 388.994C462.735 388.994 466.578 362.948 463.934 346.492Z" fill="#F65B2B"/>
<path d="M467.628 349.658C467.628 349.658 497.168 350.24 501.656 345.396C501.656 345.396 491.982 379.027 499.285 395.526L466.43 392.16C466.43 392.16 470.272 366.114 467.628 349.658Z" fill="white"/>
<path d="M471.245 215.305C471.245 215.305 500.785 215.886 505.272 211.043C505.272 211.043 495.599 244.673 502.902 261.173L470.047 257.806C470.047 257.806 473.889 231.761 471.245 215.305Z" fill="#FFBA55"/>
<path d="M464.012 219.426C464.012 219.426 493.551 220.007 498.039 215.164C498.039 215.164 488.366 248.794 495.668 265.294L462.813 261.927C462.813 261.927 466.656 235.882 464.012 219.426Z" fill="#F65B2B"/>
<path d="M467.707 222.592C467.707 222.592 497.246 223.173 501.734 218.33C501.734 218.33 492.06 251.96 499.363 268.46L466.508 265.093C466.508 265.093 470.351 239.048 467.707 222.592Z" fill="white"/>
<path d="M507.881 361.094H459.851C458.248 361.094 456.948 362.355 456.948 363.911V397.077C456.948 398.633 458.248 399.894 459.851 399.894H507.881C509.485 399.894 510.785 398.633 510.785 397.077V363.911C510.785 362.355 509.485 361.094 507.881 361.094Z" fill="#E19974"/>
<path d="M491.017 375.211H476.715C476.094 375.211 475.59 375.7 475.59 376.303V380.037C475.59 380.64 476.094 381.129 476.715 381.129H491.017C491.639 381.129 492.142 380.64 492.142 380.037V376.303C492.142 375.7 491.639 375.211 491.017 375.211Z" fill="#D6694B"/>
<path d="M507.366 394.969C507.544 395.128 507.687 395.32 507.786 395.534C507.885 395.748 507.939 395.979 507.944 396.213C507.949 396.448 507.905 396.681 507.815 396.899C507.724 397.116 507.59 397.314 507.419 397.48C507.248 397.646 507.044 397.776 506.82 397.864C506.596 397.951 506.355 397.994 506.114 397.989C505.872 397.984 505.634 397.932 505.413 397.836C505.193 397.74 504.995 397.601 504.831 397.428C505.06 397.113 505.271 396.786 505.462 396.448C505.559 396.262 505.682 396.089 505.829 395.936C506.1 395.668 506.454 395.588 507.366 394.969ZM504.831 363.557C504.995 363.385 505.193 363.246 505.413 363.15C505.634 363.053 505.872 363.001 506.114 362.996C506.355 362.992 506.596 363.034 506.82 363.122C507.044 363.209 507.248 363.34 507.419 363.506C507.59 363.672 507.724 363.87 507.815 364.087C507.905 364.305 507.949 364.538 507.944 364.772C507.939 365.007 507.885 365.238 507.786 365.452C507.687 365.666 507.544 365.858 507.366 366.017C507.041 365.795 506.704 365.59 506.356 365.405C506.164 365.311 505.986 365.191 505.829 365.049C505.552 364.785 505.47 364.443 504.831 363.557ZM460.368 366.017C460.191 365.858 460.048 365.666 459.948 365.452C459.849 365.238 459.795 365.007 459.79 364.772C459.785 364.538 459.829 364.305 459.92 364.087C460.01 363.87 460.145 363.672 460.316 363.506C460.487 363.34 460.69 363.209 460.915 363.122C461.139 363.034 461.379 362.992 461.621 362.996C461.862 363.001 462.101 363.053 462.321 363.15C462.541 363.246 462.74 363.385 462.903 363.557C462.674 363.872 462.464 364.2 462.272 364.538C462.176 364.724 462.052 364.896 461.906 365.049C461.634 365.318 461.281 365.397 460.368 366.017ZM462.903 397.428C462.74 397.601 462.541 397.74 462.321 397.836C462.101 397.932 461.862 397.984 461.621 397.989C461.379 397.994 461.139 397.951 460.915 397.864C460.69 397.776 460.487 397.646 460.316 397.48C460.145 397.314 460.01 397.116 459.92 396.899C459.83 396.681 459.786 396.448 459.79 396.213C459.795 395.979 459.849 395.748 459.948 395.534C460.048 395.32 460.191 395.128 460.368 394.969C460.693 395.191 461.03 395.395 461.378 395.581C461.571 395.675 461.748 395.794 461.906 395.936C462.183 396.201 462.265 396.543 462.903 397.428Z" fill="#D6694B"/>
<path d="M507.881 232.012H459.851C458.248 232.012 456.948 233.273 456.948 234.829V267.994C456.948 269.551 458.248 270.812 459.851 270.812H507.881C509.485 270.812 510.785 269.551 510.785 267.994V234.829C510.785 233.273 509.485 232.012 507.881 232.012Z" fill="#E19974"/>
<path d="M491.017 246.129H476.715C476.094 246.129 475.59 246.618 475.59 247.221V250.955C475.59 251.558 476.094 252.047 476.715 252.047H491.017C491.639 252.047 492.142 251.558 492.142 250.955V247.221C492.142 246.618 491.639 246.129 491.017 246.129Z" fill="#D6694B"/>
<path d="M507.366 265.889C507.544 266.048 507.687 266.24 507.786 266.454C507.885 266.667 507.939 266.899 507.944 267.133C507.949 267.368 507.905 267.601 507.815 267.818C507.724 268.036 507.59 268.234 507.419 268.4C507.248 268.565 507.044 268.696 506.82 268.784C506.596 268.871 506.355 268.914 506.114 268.909C505.872 268.904 505.634 268.852 505.413 268.756C505.193 268.659 504.995 268.521 504.831 268.348C505.06 268.033 505.271 267.706 505.462 267.368C505.559 267.181 505.682 267.009 505.828 266.856C506.1 266.588 506.454 266.508 507.366 265.889ZM504.831 234.477C504.995 234.305 505.193 234.166 505.413 234.07C505.634 233.973 505.872 233.921 506.114 233.916C506.355 233.912 506.596 233.954 506.82 234.042C507.044 234.129 507.248 234.26 507.419 234.426C507.59 234.592 507.724 234.789 507.815 235.007C507.905 235.225 507.949 235.458 507.944 235.692C507.939 235.927 507.885 236.158 507.786 236.372C507.687 236.586 507.544 236.778 507.366 236.937C507.041 236.715 506.704 236.51 506.356 236.324C506.164 236.231 505.986 236.111 505.828 235.969C505.552 235.705 505.47 235.362 504.831 234.477ZM460.368 236.937C460.19 236.778 460.048 236.586 459.948 236.372C459.849 236.158 459.795 235.927 459.79 235.692C459.785 235.458 459.829 235.225 459.92 235.007C460.01 234.789 460.145 234.592 460.316 234.426C460.487 234.26 460.69 234.129 460.915 234.042C461.139 233.954 461.379 233.912 461.621 233.916C461.862 233.921 462.101 233.973 462.321 234.07C462.541 234.166 462.739 234.305 462.903 234.477C462.674 234.792 462.464 235.119 462.272 235.457C462.176 235.644 462.052 235.816 461.906 235.969C461.634 236.238 461.281 236.317 460.368 236.937ZM462.903 268.348C462.739 268.521 462.541 268.659 462.321 268.756C462.101 268.852 461.862 268.904 461.621 268.909C461.379 268.914 461.139 268.871 460.915 268.784C460.69 268.696 460.487 268.565 460.316 268.4C460.145 268.234 460.01 268.036 459.92 267.818C459.829 267.601 459.785 267.368 459.79 267.133C459.795 266.899 459.849 266.667 459.948 266.454C460.048 266.24 460.19 266.048 460.368 265.889C460.693 266.111 461.03 266.315 461.378 266.501C461.571 266.595 461.748 266.714 461.906 266.856C462.183 267.12 462.264 267.463 462.903 268.348Z" fill="#D6694B"/>
<path d="M546.75 403.197H-15.75V405.381H546.75V403.197Z" fill="#935B50"/>
</g>
<defs>
<clipPath id="clip0_847_5195">
<rect width="531" height="405" fill="white"/>
</clipPath>
</defs>
</svg>
