<svg width="18" height="15" viewBox="0 0 18 15" fill="none" xmlns="http://www.w3.org/2000/svg">
<path d="M6.3 7.5C8.28844 7.5 9.9 5.821 9.9 3.75C9.9 1.679 8.28844 0 6.3 0C4.31156 0 2.7 1.679 2.7 3.75C2.7 5.821 4.31156 7.5 6.3 7.5ZM6.3 1.40625C7.54059 1.40625 8.55 2.45771 8.55 3.75C8.55 5.04228 7.54059 6.09375 6.3 6.09375C5.05941 6.09375 4.05 5.04199 4.05 3.75C4.05 2.45771 5.05969 1.40625 6.3 1.40625ZM7.72594 8.90625H4.87406C2.18166 8.90625 0 11.1797 0 13.9834C0 14.5459 0.4365 15 0.974812 15H11.6241C12.1641 15 12.6 14.5459 12.6 13.9834C12.6 11.1797 10.4175 8.90625 7.72594 8.90625ZM1.36997 13.5938C1.55756 11.751 3.05719 10.3125 4.87406 10.3125H7.72594C9.54309 10.3125 11.0194 11.7519 11.2303 13.5938H1.36997ZM13.4747 9.375H11.3977C12.69 10.4795 13.5 12.1318 13.5 13.9834C13.5 14.3584 13.3931 14.7041 13.2188 15H17.1C17.5978 15 18 14.5781 18 14.0361C18 11.4727 15.9862 9.375 13.4747 9.375ZM12.15 7.5C13.8909 7.5 15.3 6.03223 15.3 4.21875C15.3 2.40527 13.8909 0.9375 12.15 0.9375C11.4438 0.9375 10.7989 1.18813 10.2735 1.59697C10.5975 2.24502 10.8 2.9707 10.8 3.75C10.8 4.79063 10.4645 5.74629 9.91153 6.52471C10.4822 7.125 11.2725 7.5 12.15 7.5Z" fill="#888888"/>
</svg>
