<svg width="284" height="321" viewBox="0 0 284 321" fill="none" xmlns="http://www.w3.org/2000/svg">
<path d="M120.914 18.1386C120.426 18.301 119.837 18.7883 119.106 19.6006C120.122 18.7477 120.812 18.2807 121.158 18.1995L121.401 18.2604C121.381 18.1995 121.32 18.1792 121.259 18.1792C121.239 18.1792 121.198 18.1792 121.158 18.1995L120.914 18.1386ZM268.924 48.4952C268.68 48.4952 268.111 49.0638 267.258 50.1603L268.924 48.4952ZM172.431 14.4227C169.363 17.4076 166.377 20.4331 163.452 23.5398C163.98 23.9865 164.305 24.2505 164.427 24.3114C166.032 25.0221 167.312 25.7328 168.307 26.4638C168.551 26.5856 169.12 27.1745 170.014 28.2101C172.573 31.2559 174.544 34.7484 175.905 38.6471C177.245 42.6676 177.835 46.7287 177.692 50.8101C177.631 52.3533 177.51 53.3686 177.347 53.8356L176.961 55.46C176.128 57.9576 175.702 59.4602 175.661 59.9475C175.702 59.7648 178.728 56.6377 184.741 50.5867C184.924 50.0588 185.026 49.5917 185.046 49.1856L184.802 45.5103C184.843 44.4748 184.823 43.1549 184.741 41.5102C184.559 38.8705 184.132 36.3323 183.462 33.8956C182.751 31.4793 182.019 29.469 181.227 27.8649C179.785 24.9815 178.789 23.2352 178.281 22.6261C177.51 21.5093 176.697 20.3925 175.844 19.296L173.67 15.5801C173.386 15.2349 172.979 14.8288 172.431 14.4227ZM243.551 73.8568C243.409 73.9989 243.226 74.1614 243.064 74.3644L243.551 73.8568ZM61.6165 -0.197266C54.9128 3.92474 51.0531 6.44262 50.0171 7.39698C47.945 8.69653 43.5774 12.7779 36.8534 19.6615L36.7518 19.763L36.7112 19.8036C35.5939 20.9407 34.4157 22.1591 33.1765 23.4586C27.3666 29.9157 22.8975 37.4085 19.7488 45.8961C16.661 54.4651 15.2593 63.237 15.564 72.212C15.6453 75.2172 15.9703 78.4458 16.5594 81.8977L17.4126 86.0604C18.2049 89.1874 18.8549 91.4616 19.3425 92.883L20.1551 97.7766L20.7239 99.4011L20.8254 99.6447L29.7637 90.3651C29.5606 89.7966 29.3371 89.3499 29.0934 88.9844C27.7932 87.4411 26.9807 86.3243 26.6556 85.6136C26.2087 84.5578 25.8431 83.5425 25.5384 82.5069C23.832 77.0854 22.8365 71.4201 22.5521 65.5112C22.1865 56.2316 23.5475 47.4191 26.5947 39.0329C27.7323 35.9871 28.8699 33.388 29.9872 31.2559L32.628 26.545C34.7407 23.154 36.9753 20.0879 39.3317 17.3467L39.5146 17.1842L42.1351 15.0521C42.1554 14.9709 43.4352 14.0369 46.0355 12.2297C47.9247 10.9098 50.1796 9.6915 52.8204 8.53409L52.8001 8.49348L61.6165 -0.197266ZM133.123 65.0036C133.184 65.1457 133.245 65.3082 133.265 65.5112C134.545 67.1763 133.651 74.202 130.604 86.6086C130.888 87.7457 127.049 100.396 119.045 124.539L114.556 129.006C114.474 129.149 114.393 129.291 114.312 129.433C112.382 131.443 111.021 132.864 110.269 133.717C87.1109 162.409 69.9251 183.344 58.7116 196.502C58.5491 196.542 58.3866 196.563 58.2444 196.563C56.7411 196.563 57.1474 193.862 59.4023 188.441C61.0884 183.283 68.178 169.556 80.651 147.281C99.6042 114.244 117.095 86.8117 133.123 65.0036ZM171.842 247.387C171.131 248.321 170.867 248.849 171.05 248.971L171.842 247.387ZM59.1382 257.987C58.4272 258.677 57.7365 259.347 57.0864 259.977C57.7771 259.347 58.4678 258.677 59.1382 257.987ZM256.349 193.618C256.166 194.045 253.201 197.192 247.452 203.081C249.219 207.832 248.935 214.472 246.598 222.98C244.953 227.975 243.531 231.427 242.332 233.295C240.667 236.28 238.879 238.94 236.99 241.275C232.907 244.707 229.27 247.103 226.101 248.464C221.287 250.738 216.574 252.24 211.963 252.971C208.306 253.459 205.32 253.702 202.963 253.702C201.927 253.702 201.033 253.662 200.241 253.56C197.682 253.357 196.341 253.215 196.199 253.093C194.98 252.707 193.781 252.179 192.562 251.469C192.034 251.286 191.669 251.205 191.486 251.205C191.465 251.205 191.445 251.205 191.425 251.205V251.225C188.317 254.19 185.371 257.215 182.588 260.261L183.787 260.444L188.865 260.383L194.086 260.769C194.655 260.789 195.224 260.789 195.792 260.789C197.56 260.789 199.347 260.687 201.135 260.505C203.695 260.241 206.315 259.774 208.956 259.104C210.866 258.738 213.994 257.621 218.341 255.753C223.359 253.357 227.605 250.555 231.099 247.387L235.141 243.387C234.938 243.611 234.735 243.814 234.532 244.037L239.793 238.798L240.748 237.864L243.328 235.021C246.416 231.366 248.995 227.285 251.047 222.777C253.14 217.802 254.399 213.822 254.826 210.837C255.151 209.436 255.415 207.426 255.659 204.847L256.349 193.618ZM57.0255 260.058C55.38 261.561 53.694 262.901 51.9469 264.099C48.6763 266.251 46.1167 267.713 44.2681 268.464C40.896 269.967 37.8894 270.982 35.2486 271.531C34.0703 271.774 33.4203 271.896 33.2578 271.896C33.2375 271.896 33.2171 271.896 33.2171 271.876C32.9734 271.896 32.689 271.916 32.3639 271.916C31.6529 271.916 30.7388 271.855 29.6215 271.734C28.8699 271.774 28.4839 271.815 28.4636 271.876V271.896C26.8791 273.399 23.8929 276.404 19.5253 280.871C20.3176 280.79 20.8254 280.729 21.0692 280.648C24.1164 279.693 27.2041 278.82 30.2919 278.008C32.6483 277.277 34.6798 276.526 36.3862 275.774C40.7131 273.866 44.5728 271.591 48.0263 268.911C48.9201 268.241 49.7123 267.591 50.3827 266.921C51.5609 265.52 53.7752 263.226 57.0255 260.058ZM242.17 3.21405C242.089 3.21405 242.007 3.27497 241.926 3.41711L240.545 4.79788H240.524L216.635 28.7177L213.75 31.6011L206.64 41.7741C199.591 52.9015 192.441 64.699 185.188 77.126C147.546 142.083 124.57 181.313 116.242 194.816C114.068 198.451 111.955 201.923 109.924 205.193C110.594 202.045 111.651 198.065 113.093 193.233L147.81 89.1468C152.178 76.0498 155.59 63.765 158.109 52.2924C159.349 47.3784 159.552 43.1549 158.719 39.6624C158.658 39.1141 158.373 38.8502 157.866 38.8502C157.033 38.8502 155.611 39.5608 153.579 40.9619C145.129 48.8811 133.956 59.9678 120.081 74.2426C109.152 86.3446 90.9503 113.27 65.4762 154.997C41.9523 194.999 30.7185 217.254 31.8155 221.762C31.9373 221.782 32.0795 221.782 32.2014 221.782C34.2532 221.782 36.7721 220.178 39.799 216.97L47.5387 209.172C47.0105 209.721 46.5433 210.228 46.1167 210.655L64.0542 192.684C63.6073 193.09 63.1807 193.476 62.7744 193.822L74.7192 181.78C77.1773 179.384 83.1903 172.44 92.738 160.947C85.6077 170.734 76.7913 182.532 66.3294 196.36C53.308 213.294 42.2164 227.102 33.0749 237.763C31.6123 238.656 30.4138 239.082 29.459 239.103C24.5633 239.103 26.4525 227.285 35.1267 203.67C44.8572 177.009 64.1761 132.56 93.063 70.283C106.064 41.4696 114.738 24.5754 119.086 19.6209C114.495 23.4383 103.139 34.8906 85.0389 53.998C83.109 59.6633 81.1792 64.7599 79.2087 69.2677C47.1324 138.327 25.3149 187.527 13.7967 216.909C6.1382 236.91 1.93315 249.804 1.18152 255.57C-0.0576536 261.967 0.693976 265.256 3.4364 265.439C8.10869 263.124 11.4809 260.769 13.5326 258.393C16.5797 255.428 19.4847 252.586 22.2271 249.905C21.8818 250.271 21.5364 250.636 21.2114 250.981C24.4617 247.793 27.6917 244.585 30.881 241.377C46.3402 226.087 55.1972 216.848 57.4115 213.68C73.4597 195.162 91.9864 171.485 112.971 142.631C107.506 158.835 100.803 178.572 92.799 201.802C89.508 211.629 86.8875 220.604 84.9373 228.727C83.9013 233.945 83.4747 236.544 83.6778 236.544C83.6778 236.544 83.6982 236.544 83.6982 236.524C84.1247 238.758 84.592 239.874 85.0592 239.874C85.2624 239.874 85.4655 239.671 85.6686 239.265L100.112 224.808L111.772 213.376C111.549 213.538 111.326 213.66 111.122 213.761L113.479 211.406C120.528 202.878 128.877 190.552 138.567 174.409C141.655 169.841 163.919 132.052 205.36 61.044L199.977 74.4863C142.122 206.715 113.499 272.81 114.068 272.81C107.181 289.237 103.83 299.41 104.012 303.37C106.714 300.71 109.274 298.192 111.671 295.796C114.596 293.034 120.792 286.861 130.258 277.257C130.015 277.48 129.812 277.602 129.669 277.602C129.608 277.602 129.568 277.582 129.527 277.541C136.657 269.926 140.395 265.297 140.72 263.632C140.72 263.652 140.741 263.672 140.741 263.672C141.817 263.672 174.015 208.665 237.355 98.6295C235.344 103.889 233.028 109.696 230.388 116.072C220.271 140.662 205.503 174.917 186.102 218.797L171.761 247.306C174.808 243.245 186.001 231.549 205.32 212.239L212.47 192.948C238.391 133.555 253.749 97.6751 258.503 85.3091C266.385 65.9173 270.61 53.795 271.199 48.9623C271.179 47.7236 270.935 47.1145 270.508 47.1145C270.204 47.1145 269.777 47.4191 269.269 48.0485L267.116 50.2009C267.136 50.1806 267.136 50.1603 267.156 50.14L243.531 73.7553L242.332 74.9533L235.812 83.8268L213.364 120.762L138.689 250.047L140.152 246.23L225.126 49.7745C237.457 20.1691 243.226 4.8588 242.414 3.80291C242.414 3.41711 242.292 3.21405 242.17 3.21405Z" fill="#EFDBDD"/>
<path d="M273.921 205.396C271.037 205.396 267.685 207.265 264.13 211.468C251.88 226.027 237.437 268.648 222.912 312.488H224.395H230.997C231.099 312.203 231.18 311.96 231.2 311.777C231.058 310.599 231.119 309.523 231.383 308.589C232.013 306.599 232.582 305.076 233.069 304.061L247.025 275.044L263.378 238.921C265.308 234.758 266.689 232.058 267.482 230.778C267.604 230.575 267.725 230.413 267.868 230.25C267.868 231.286 268.01 231.794 268.274 231.794H268.315L268.233 232.159C267.685 233.926 266.872 236.037 265.775 238.535L262.281 246.068C254.277 261.764 249.544 271.247 248.122 274.537L242.495 286.964L234.065 306.619L232.196 310.599L231.424 312.02L231.119 312.488H239.265V313.767C258.665 284.933 276.968 256.647 281.945 235.124C285.846 218.169 281.478 205.396 273.921 205.396Z" fill="#708AFF"/>
<path d="M216.472 190.633C214.949 190.633 213.608 191.607 212.612 193.719C208.204 203.039 209.992 234.635 213.628 272.89C217.589 284.2 218.443 298.191 218.95 312.506H219.072H221.002H220.982H222.912C222.465 313.826 222.038 315.146 221.591 316.486H222.546C223.155 315.166 223.785 313.846 224.374 312.506H222.932H222.891H222.912C228.965 294.252 234.999 276.2 240.87 260.301C241.479 254.23 241.54 248.057 240.849 241.762C238.229 217.152 224.517 190.633 216.472 190.633Z" fill="#0C1882"/>
<path d="M196.442 252.26C194.675 252.26 193.334 253.458 192.847 256.179C191.77 261.945 194.411 274.555 197.986 286.515C200.2 293.927 202.801 301.074 205.096 306.191C207.554 311.633 209.667 314.76 211.597 316.486H219.072C219.032 315.166 218.991 313.826 218.95 312.506C218.463 298.191 217.61 284.2 213.628 272.89C213.141 271.489 212.592 270.129 212.003 268.829C207.757 259.346 200.769 252.26 196.442 252.26ZM208.793 312.486H213.242H211.028H208.793Z" fill="#708AFF"/>
<path d="M184.965 278.678C183.381 278.678 182.324 279.51 182.182 281.46C181.776 287.145 189.19 302.334 195.468 312.486C196.361 313.928 197.215 315.268 198.047 316.466H209.098C209.017 315.37 208.956 314.273 208.855 313.177C208.855 313.177 208.855 313.177 208.855 313.156C208.834 312.933 208.814 312.71 208.794 312.486C208.103 304.811 206.62 297.298 201.542 290.556C200.485 289.155 199.287 287.775 198.007 286.495C193.558 282.069 188.175 278.678 184.965 278.678Z" fill="#0C1882"/>
<path d="M222.221 215.77C222.16 215.872 222.059 216.258 221.937 216.907C221.774 218.187 221.673 219.161 221.652 219.831C221.591 220.745 221.551 221.903 221.51 223.283L221.49 225.578V228.278L221.51 231.284C221.531 233.355 221.551 235.487 221.591 237.7C221.754 248.767 221.835 255.061 221.856 256.544C221.896 260.747 221.916 263.021 221.896 263.326C221.896 264.808 221.856 268.93 221.774 275.692C221.693 281.195 221.591 287.591 221.47 294.88V297.5L221.551 299.571L221.673 301.155L221.835 302.333C221.998 303.307 222.384 304.282 223.013 305.297L223.115 305.825L223.156 306.576L223.318 305.439L223.42 303.835L223.46 301.805L223.44 299.429C223.42 297.723 223.379 295.875 223.298 293.865C223.278 292.931 223.156 289.763 222.973 284.382C222.892 282.21 222.831 280.098 222.79 278.027C222.749 275.956 222.709 274.006 222.688 272.179C222.668 270.351 222.648 268.605 222.648 266.899V264.361C222.648 261.072 222.688 257.518 222.79 253.721C222.831 251.792 222.892 249.68 222.973 247.427L223.399 236.055L223.481 232.543L223.521 229.416L223.501 226.654L223.46 224.258L223.379 222.207L223.278 220.501C223.196 219.486 223.115 218.694 223.034 218.126C222.953 217.557 222.871 217.212 222.79 217.07C222.729 217.09 222.668 217.09 222.607 217.09C222.465 217.09 222.384 217.009 222.363 216.867C222.282 216.542 222.242 216.176 222.242 215.75H222.221V215.77ZM201.44 269.519C201.155 270.067 201.054 271.062 201.135 272.504C201.358 274.656 201.683 276.504 202.13 278.088C202.232 278.535 202.618 279.875 203.288 282.129L205.767 289.865L206.214 291.611C207.067 295.429 207.595 297.784 207.818 298.718C208.326 300.667 208.611 301.784 208.712 302.028C209.159 303.49 209.647 304.607 210.175 305.378C210.419 305.703 210.642 305.947 210.866 306.089L212.125 306.678C212.247 306.779 212.328 306.942 212.409 307.165L212.389 306.678L212.308 305.987L211.962 304.14C211.658 302.678 211.251 301.053 210.744 299.246C210.5 298.353 210.236 297.479 209.972 296.606C208.611 292.586 207.859 290.312 207.757 289.784C207.595 289.398 206.579 285.499 204.751 278.088C204.223 276.057 203.735 274.453 203.329 273.275C202.923 272.098 202.598 271.306 202.334 270.92C202.212 270.717 202.09 270.636 202.008 270.636C201.907 270.737 201.826 270.798 201.744 270.798C201.704 270.798 201.683 270.778 201.643 270.737C201.521 270.575 201.46 270.169 201.44 269.519ZM267.867 230.228C267.725 230.37 267.603 230.553 267.481 230.756C266.689 232.035 265.308 234.756 263.378 238.898L247.025 275.022L233.069 304.038C232.561 305.053 231.992 306.576 231.383 308.566C231.119 309.5 231.058 310.577 231.2 311.754C231.159 312.039 231.017 312.445 230.794 312.973L231.424 312.018L232.196 310.597L234.064 306.617L242.495 286.961L248.122 274.534C249.564 271.245 254.277 261.762 262.281 246.066L265.775 238.533C266.872 236.035 267.705 233.923 268.233 232.157L268.314 231.791H268.274C268.01 231.771 267.867 231.263 267.867 230.228ZM190.49 289.926C190.267 290.84 190.389 291.875 190.856 293.012C191.018 293.662 191.77 295.043 193.07 297.155C193.862 298.414 195.447 300.667 197.824 303.916L201.46 309.724C202.313 310.983 202.821 311.693 202.963 311.835C203.674 312.749 204.345 313.399 204.974 313.764C205.259 313.927 205.523 314.008 205.746 314.028L207.026 313.988C207.148 314.008 207.27 314.11 207.371 314.252L207.25 313.907C206.66 312.526 205.563 310.556 203.898 307.998C203.512 307.409 203.126 306.861 202.719 306.312C201.907 305.277 201.196 304.322 200.566 303.449C196.544 297.419 194.086 293.865 193.192 292.789C192.136 291.489 191.506 290.819 191.343 290.819C191.242 290.758 191.14 290.738 191.079 290.738C191.039 290.738 190.998 290.738 190.978 290.758C190.856 290.941 190.775 291.022 190.714 291.022C190.693 291.022 190.673 291.002 190.653 290.982C190.572 290.86 190.511 290.494 190.511 289.906H190.49V289.926Z" fill="white"/>
<path d="M15.2388 312.486V316.466C64.9681 316.466 114.698 316.466 164.427 316.466C197.58 316.466 230.733 316.466 263.886 316.466V312.486H139.562H15.2388Z" fill="#EFDBDD"/>
<path d="M75.938 283.756L86.7249 306.965C80.3665 309.544 74.0081 312.123 70.5547 314.397C67.1013 316.671 66.5122 318.661 65.9434 320.631L84.2872 320.204C85.7295 318.316 87.1718 316.427 88.7969 315.453C90.4221 314.478 92.1691 314.458 93.9365 314.417L96.1913 319.473L101.575 319.351L103.586 284.121L75.938 283.756Z" fill="#E8977C"/>
<path d="M102.997 294.414C98.8121 297.947 95.4602 299.917 93.0022 300.282C92.2709 300.506 91.438 300.628 90.5035 300.628C88.4924 300.628 86.0344 300.12 83.0888 299.084L86.7454 306.963C78.0712 310.415 72.6879 312.892 70.5752 314.395C68.0766 315.938 66.5327 318.009 65.9639 320.628L84.3077 320.202C85.8515 318.07 87.2329 316.567 88.4112 315.715C89.5894 314.882 91.1536 314.456 93.0631 314.435C93.3475 314.435 93.6522 314.415 93.9366 314.415L96.1915 319.471L101.575 319.349L102.997 294.414Z" fill="#0C1882"/>
<path d="M77.2788 309.604C77.3194 309.807 77.746 310.66 78.1117 311.249C78.457 311.838 78.6399 312.203 79.1274 313.016C79.6149 313.828 79.879 314.153 80.0822 314.275C80.3056 314.396 80.3056 313.422 80.3056 313.422C80.3056 313.422 80.7322 313.665 80.4478 313.056C80.1634 312.447 79.6759 311.615 79.4727 311.269C79.2696 310.924 78.8227 310.092 78.5383 309.706C78.1523 309.097 77.3804 309.787 77.2788 309.604ZM80.8338 307.878C80.8541 308.102 81.2807 309.056 81.6057 309.726C81.9308 310.396 82.1136 310.802 82.5808 311.736C83.0481 312.67 83.2918 313.036 83.5153 313.178C83.7387 313.32 83.7387 312.325 83.7387 312.325C83.7387 312.325 84.1857 312.61 83.9216 311.919C83.6575 311.229 83.1903 310.295 83.0074 309.889C82.8246 309.483 82.398 308.548 82.1136 308.102C81.7479 307.452 80.9354 308.081 80.8338 307.878Z" fill="#C98D1E"/>
<path d="M67.9344 316.59C67.3656 317.26 66.8984 317.991 66.5327 318.803H76.568H85.3437C86.0547 317.91 86.7048 317.179 87.3345 316.59H67.9344Z" fill="white"/>
<path d="M75.9385 283.756L82.1547 297.117L91.0523 294.64L103.18 291.249L103.586 284.121L75.9385 283.756Z" fill="black" fill-opacity="0.204"/>
<path d="M142.711 282.476L162.721 298.436C158.191 303.573 153.641 308.711 151.568 312.305C149.476 315.899 149.862 317.909 150.228 319.939L166.459 311.371C166.906 309.035 167.353 306.7 168.368 305.117C169.384 303.533 170.948 302.72 172.512 301.888L176.778 305.401L181.552 302.883L167.617 270.455L142.711 282.476Z" fill="#E8977C"/>
<path d="M171.7 279.959C169.526 284.995 167.414 288.223 165.362 289.665C164.813 290.193 164.102 290.66 163.269 291.086C161.482 291.98 159.024 292.63 155.936 293.015L162.741 298.437C156.525 305.402 152.808 310.011 151.589 312.306C150.024 314.803 149.578 317.341 150.248 319.94L166.479 311.372C166.926 308.772 167.474 306.823 168.145 305.524C168.836 304.244 170.034 303.168 171.74 302.295C172.005 302.153 172.269 302.011 172.512 301.889L176.778 305.402L181.552 302.884L171.7 279.959Z" fill="#0C1882"/>
<path d="M155.448 305.015C155.57 305.178 156.342 305.746 156.911 306.112C157.48 306.477 157.805 306.721 158.617 307.228C159.41 307.736 159.796 307.919 159.938 307.959C160.08 308 160.08 307.025 160.08 307.025C160.08 307.025 160.364 307.107 159.816 306.68C159.288 306.254 158.495 305.726 158.15 305.502C157.805 305.279 157.033 304.731 156.606 304.507C156.017 304.162 155.631 305.117 155.448 305.015ZM157.866 301.888C157.988 302.091 158.8 302.761 159.389 303.188C159.978 303.634 160.324 303.919 161.157 304.548C161.989 305.178 162.375 305.401 162.538 305.441C162.68 305.502 162.68 304.507 162.68 304.507C162.68 304.507 162.985 304.609 162.436 304.101C161.888 303.594 161.055 302.964 160.71 302.7C160.364 302.436 159.552 301.766 159.105 301.482C158.495 301.076 158.048 302.01 157.866 301.888Z" fill="#C98D1E"/>
<path d="M150.207 315.431C149.984 316.284 149.903 317.157 149.943 318.03L158.922 313.563L166.784 309.644C167.027 308.528 167.292 307.573 167.576 306.781L150.207 315.431Z" fill="white"/>
<path d="M142.711 282.475L154.23 291.653L161.076 285.46L170.42 277.033L167.596 270.475L142.711 282.475Z" fill="black" fill-opacity="0.204"/>
<path d="M96.5166 160.094L71.3472 222.228L65.6592 293.765L113.621 287.165L96.7603 222.391L122.966 174.673L96.5166 160.094Z" fill="#2340C9"/>
<path d="M108.319 167.465L110.087 225.64L132.981 296.608L172.228 270.901L130.746 216.726L138.405 170.165L108.319 167.465Z" fill="#2340C9"/>
<path d="M96.5166 160.094L91.438 172.663L116.181 187.1L133.935 197.456L138.425 170.145L110.229 167.627L96.5166 160.094Z" fill="black" fill-opacity="0.204"/>
<path d="M99.6657 217.092L71.0226 226.31L70.9413 227.346L76.4871 225.539L98.0609 218.655L98.9547 218.371L99.0157 218.27L99.6657 217.092ZM99.0969 231.265L69.2349 248.931L69.1334 250.129L99.3407 232.24L99.2188 231.793L99.0969 231.265ZM103.729 249.073L67.3457 272.749L67.2441 273.988L103.993 250.048L103.729 249.073ZM140.111 228.95L131.701 232.991L115.003 240.869L115.308 241.804L140.721 229.742L140.111 228.95ZM146.389 237.133L121.768 261.804L122.093 262.799L146.998 237.905L146.389 237.133ZM153.417 246.332L127.476 279.531L127.842 280.648L154.006 247.063L153.417 246.332ZM160.405 255.449L149.659 285.663L151.02 284.77L161.096 256.342L160.974 256.2L160.405 255.449ZM107.629 264.099L89.5492 290.476L90.8087 290.293C95.481 283.43 101.189 275.105 107.934 265.297L107.629 264.099Z" fill="white"/>
<path d="M120.163 192.279L119.878 195.386C119.025 204.727 118.944 211.468 119.594 215.631C120.203 220.788 122.052 224.809 125.18 227.692C127.313 229.56 129.853 231.063 132.798 232.159C136.658 233.54 140.782 234.677 145.149 235.591L130.726 216.747L133.347 200.848C129.548 198.229 125.16 195.366 120.163 192.279Z" fill="black" fill-opacity="0.208"/>
<path d="M73.2161 90.7517C72.0785 88.2948 70.9409 85.8581 71.9567 85.6551C71.9973 85.6551 72.0582 85.6348 72.1192 85.6348C73.2771 85.6348 76.2633 87.6044 77.9291 90.2644C79.6761 93.0666 79.9808 96.6403 79.3104 99.9095C78.6401 103.179 77.0149 106.143 75.3898 109.108C74.6381 109.92 73.8865 110.712 73.2161 110.712C72.7895 110.712 72.3833 110.387 72.0176 109.514C71.0831 107.301 70.4737 101.554 68.6657 97.9805C66.8578 94.4067 63.8716 93.0463 61.8808 90.9345C59.89 88.8227 58.8946 86.0409 59.7681 85.6957C59.829 85.6754 59.9103 85.6551 59.9915 85.6551C61.0682 85.6551 63.6075 87.5638 65.9843 88.7212C68.5439 89.9801 70.88 90.3659 73.2161 90.7517Z" fill="#E8977C"/>
<path d="M68.9907 98.6914C69.3158 99.4021 69.5798 100.174 69.8236 101.006C70.0268 101.534 70.6159 103.93 71.591 108.174C71.7332 108.722 71.8754 109.169 72.0379 109.555C72.302 110.245 72.6676 110.631 73.1348 110.733C73.1552 110.733 73.1958 110.733 73.2161 110.733C73.7646 110.733 74.4959 110.205 75.41 109.128C76.2429 107.646 77.0149 106.164 77.7259 104.641C78.3353 103.382 78.8025 102.103 79.1276 100.763L68.9907 98.6914Z" fill="black" fill-opacity="0.208"/>
<path d="M106.186 132.724C93.7943 145.902 81.4229 159.1 73.9675 159.1C72.8909 159.1 71.9158 158.816 71.0626 158.227C64.3183 153.537 64.9886 129.069 65.659 104.601L85.5467 102.936C81.2807 117.88 76.9944 132.805 80.5087 132.805C80.8338 132.805 81.2197 132.683 81.7073 132.399C87.2125 129.231 102.895 106.57 108.664 103.382C109.152 103.118 109.578 102.976 109.944 102.976C113.743 102.976 109.964 117.86 106.186 132.724Z" fill="#0C1882"/>
<path d="M60.2759 104.397L88.4924 100.6L84.7952 110.631L64.6841 110.773L60.2759 104.397Z" fill="#FCB232"/>
<path d="M120.63 70.1606C120.63 70.1606 120.02 72.3536 120.101 73.4704C120.528 79.9478 122.783 87.2781 119.614 92.9433C116.303 98.8725 111.204 103.604 106.917 108.883C105.699 110.365 102.733 112.721 104.195 113.959C104.845 114.508 105.617 114.731 106.43 114.731C108.908 114.731 111.915 112.721 114.373 111.807C122.722 108.721 133.59 103.908 135.256 95.1769C136.658 87.8669 136.8 78.6889 131.843 73.1252C129.873 70.9119 126.683 69.125 123.697 69.125C123.189 69.125 122.681 69.1859 122.173 69.2874C121.584 69.4296 120.63 70.1606 120.63 70.1606Z" fill="#000642"/>
<path d="M87.5786 167.67L143.91 185.599C147.831 151.73 151.751 117.86 143.626 104.438C140.375 99.0778 135.216 96.9863 129.731 96.9863C121.483 96.9863 112.484 101.738 108.218 107.261C101.108 116.459 107.08 127.851 105.821 138.267C104.541 148.684 96.07 158.187 87.5786 167.67Z" fill="#FCB232"/>
<path d="M119.35 103.26C118.7 103.26 117.989 103.767 117.217 104.783C114.089 108.986 110.655 115.687 106.877 124.865C106.41 125.961 105.963 127.058 105.516 128.154C102.063 136.703 99.117 145.515 96.6792 154.592L95.887 157.983L95.562 159.364C94.8916 162.694 94.4447 165.354 94.2821 167.405L94.1196 169.74L111.834 175.385C112.768 173.557 113.723 171.547 114.678 169.293C116.668 164.582 118.334 159.628 119.675 154.45L120.589 150.632C121.138 148.115 121.564 145.617 121.91 143.16C123.108 134.571 123.25 123.992 122.316 111.443L122.092 108.011C121.381 104.844 120.488 103.26 119.35 103.26Z" fill="black" fill-opacity="0.208"/>
<path d="M124.042 98.4663C125.749 95.5423 127.475 92.6183 126.927 91.1563C126.378 89.6943 123.555 89.7349 122.966 86.5266C122.376 83.3184 124.022 76.8815 127.293 73.9372C128.715 72.658 130.441 72.0488 132.026 72.0488C134.098 72.0488 135.946 73.125 136.515 75.1759C137.531 78.7902 134.667 85.4708 133.874 89.8364C133.082 94.2021 134.362 96.2123 135.642 98.2429C131.579 106.467 127.496 114.69 125.566 114.731C125.566 114.731 125.566 114.731 125.545 114.731C123.636 114.711 123.839 106.588 124.042 98.4663Z" fill="#E8977C"/>
<path d="M132.087 72.0488C131.559 72.0488 130.99 72.1097 130.401 72.2519C128.187 72.658 126.257 74.5058 124.571 77.7953C124.002 79.0948 123.596 80.3335 123.291 81.4909C124.855 80.4756 126.135 79.968 127.151 79.9477C127.191 79.9477 127.252 79.9477 127.293 79.9477C128.309 79.9477 129.223 80.6177 130.076 81.9782L130.482 82.7295C130.746 83.2575 130.97 83.826 131.153 84.4352C131.335 85.0443 131.478 85.6332 131.579 86.2424C131.681 86.8515 131.701 87.4404 131.681 87.9886L131.6 88.7805C131.518 89.2882 131.335 89.7146 131.112 90.0598C130.604 90.7096 129.934 91.0954 129.06 91.2172C128.593 91.2781 128.146 91.3187 127.699 91.3187C127.455 91.3187 127.212 91.3187 126.948 91.2984C126.968 91.3796 126.988 91.4609 126.988 91.5624C128.146 91.9888 129.223 92.4964 130.198 93.0853C131.275 93.7148 132.209 94.5067 133.001 95.4813C133.387 95.9687 133.712 96.4763 134.017 97.0449L134.423 97.8977C134.647 98.4053 134.85 98.9333 135.012 99.4815C135.215 99.0754 135.398 98.6693 135.601 98.2632C134.911 97.2885 134.362 96.192 133.936 94.9331C133.672 94.0803 133.55 93.0447 133.59 91.8467C133.611 91.2375 133.692 90.5674 133.834 89.8567L134.078 88.7196L135.845 82.2422C136.089 81.3487 136.272 80.4756 136.434 79.6228C136.597 78.7699 136.678 77.978 136.698 77.2267L136.658 76.1505C136.536 75.3586 136.414 74.8713 136.312 74.6885C135.419 72.922 133.997 72.0488 132.087 72.0488Z" fill="black" fill-opacity="0.208"/>
<path d="M124.916 96.9648C124.774 97.2085 124.632 97.4725 124.469 97.7364L124.043 98.4675C123.9 102.691 123.88 106.427 124.002 109.635C124.103 111.707 124.347 113.189 124.754 114.082L125.099 114.549L125.546 114.712C125.871 114.692 126.257 114.468 126.683 114.042C127.191 113.514 127.76 112.803 128.369 111.869C128.207 111.971 128.044 112.052 127.902 112.113C127.598 112.255 127.313 112.316 127.049 112.316L126.643 112.255C126.176 112.092 125.79 111.686 125.485 111.016C124.916 109.635 124.611 107.706 124.571 105.229C124.51 103.727 124.611 100.965 124.916 96.9648Z" fill="black" fill-opacity="0.208"/>
<path d="M128.43 78.0606C124.509 79.4007 120.569 80.7612 117.887 80.7612C116.648 80.7612 115.693 80.4769 115.084 79.7865C113.194 77.5732 115.104 71.1973 118.151 67.9281C120.142 65.7757 122.62 64.9635 124.895 64.9635C126.074 64.9635 127.211 65.1869 128.186 65.5524C131.03 66.6083 132.574 68.8825 134.118 71.1567C138.283 71.7253 142.447 72.3141 147.119 79.0149C151.365 85.1065 156.058 96.2746 160.324 96.2746C160.75 96.2746 161.177 96.1527 161.603 95.9091C166.215 93.249 170.217 75.096 181.491 65.329C186.996 60.5572 194.228 57.7754 202.273 57.7754C210.703 57.7754 220.027 60.8415 229.128 67.8672C246.944 81.5937 264.008 110.427 257.121 132.418C250.56 153.374 222.242 168.136 198.21 168.136C197.031 168.136 195.853 168.095 194.675 168.034C169.973 166.491 151.385 148.236 143.036 134.347C134.687 120.458 136.536 110.955 136.19 104.864C135.825 98.7721 133.265 96.0918 132.615 93.1272C131.965 90.1626 133.245 86.9137 132.859 84.3553C132.473 81.7968 130.462 79.9084 128.43 78.0606Z" fill="#000642"/>
<path d="M135.358 97.6348C130.645 120.235 125.952 142.835 126.48 159.039C127.008 175.263 132.757 185.09 138.506 194.939C144.54 190.918 150.573 186.898 151.589 180.095C152.604 173.293 148.562 163.729 148.44 151.058C148.318 138.388 152.076 122.631 150.553 113.209C149.009 103.767 142.183 100.701 135.358 97.6348Z" fill="#0C1882"/>
<path d="M124.205 97.6348C121.605 119.95 119.025 142.266 113.499 157.313C107.994 172.339 99.5433 180.095 91.1128 187.852C86.6031 182.248 82.073 176.623 83.17 169.739C84.2669 162.836 90.9706 154.673 95.0132 143.038C99.0557 131.403 100.478 116.316 104.906 108.173C109.335 100.031 116.77 98.8328 124.205 97.6348Z" fill="#0C1882"/>
<path d="M92.9208 159.465C92.8801 159.465 92.8395 159.465 92.7989 159.485L92.3317 159.587C92.2707 159.587 92.2301 159.566 92.1895 159.505L92.2504 159.627C92.3113 159.749 92.5957 160.176 93.1239 160.886L95.4804 163.993L97.8978 167.445C98.1822 167.851 98.5275 168.277 98.9135 168.744C99.1166 168.968 99.2588 169.11 99.3401 169.171C99.3807 169.191 99.4213 169.211 99.4417 169.211C99.462 169.211 99.4823 169.191 99.4823 169.171C99.5432 169.11 99.5839 168.826 99.6042 168.318C99.6245 168.318 99.6448 168.338 99.6448 168.338C99.6854 168.338 99.6854 168.318 99.6854 168.277C99.6448 168.156 99.6042 168.054 99.5635 167.973C99.5432 167.871 99.2385 167.425 98.6494 166.592L96.3742 163.526L94.3021 160.643C93.9974 160.236 93.8146 159.972 93.6927 159.891L93.4896 159.709C93.3474 159.607 93.2255 159.546 93.1239 159.526C93.0427 159.485 92.9817 159.465 92.9208 159.465ZM147.201 164.866L147.14 164.886C146.571 165.13 145.718 165.556 144.56 166.166L140.72 168.277L137.104 170.166C136.596 170.43 136.271 170.613 136.15 170.714L135.906 170.917C135.764 171.039 135.682 171.181 135.621 171.283C135.581 171.404 135.54 171.506 135.54 171.608V172.095C135.52 172.156 135.479 172.217 135.398 172.257L135.56 172.196C135.825 172.135 137.653 171.141 141.025 169.211C141.005 169.211 142.427 168.48 145.311 166.998C145.839 166.734 146.347 166.43 146.896 166.105C147.16 165.942 147.282 165.841 147.302 165.82C147.241 165.82 147.201 165.496 147.201 164.866Z" fill="#FCB232"/>
<path d="M119.492 191.488C121.422 200.523 123.372 209.559 128.532 215.631C133.692 221.722 142.082 224.87 150.471 228.017L162.538 209.498C157.074 208.991 151.609 208.504 148.054 204.95C144.499 201.397 142.854 194.797 141.228 188.178L119.492 191.488Z" fill="white"/>
<path d="M138.71 209.723C138.364 209.824 138.08 209.987 137.856 210.19C137.775 210.251 137.714 210.332 137.653 210.393L137.572 210.515L137.227 211.063L138.71 209.723Z" fill="#EFDBDD"/>
<path d="M126.582 196.605L126.541 196.626C125.972 196.89 125.261 197.702 124.367 199.062C124.266 199.205 124.246 199.347 124.266 199.509C124.286 199.59 124.408 199.733 124.632 199.936C124.672 200.017 124.692 200.098 124.672 200.118C124.733 200.057 124.855 199.915 124.997 199.692C125.627 198.717 125.993 198.189 126.074 198.108C126.297 197.803 126.521 197.54 126.765 197.316C126.846 197.316 126.927 197.357 127.008 197.438C127.801 198.271 128.207 198.656 128.247 198.656C128.532 198.798 128.857 198.88 129.243 198.88C129.446 198.88 129.71 198.839 130.015 198.758L131.315 198.311C131.416 198.271 131.518 198.25 131.599 198.21C131.681 198.189 131.742 198.169 131.782 198.149L133.509 197.824C133.61 197.803 133.773 197.763 134.037 197.702C134.911 197.479 135.581 197.296 136.028 197.154C136.068 197.133 136.109 197.133 136.15 197.113C136.333 197.052 136.454 196.991 136.536 196.971L137.226 196.605C137.247 196.585 137.287 196.585 137.308 196.565C137.328 196.565 137.369 196.545 137.389 196.545C137.775 196.463 137.978 196.423 138.019 196.402L138.384 196.26C138.405 196.118 138.344 195.874 138.222 195.529L137.49 195.59C137.308 195.611 137.165 195.651 137.064 195.671C137.064 195.671 137.044 195.671 137.023 195.671C136.942 195.692 136.861 195.732 136.759 195.773L136.129 196.138L135.845 196.26C135.601 196.362 135.114 196.545 134.342 196.788C134.301 196.809 134.281 196.809 134.24 196.829C133.976 196.91 133.753 196.971 133.529 197.032L131.599 197.438C131.579 197.438 131.538 197.458 131.457 197.479C131.213 197.56 130.685 197.743 129.893 198.027C129.669 198.088 129.487 198.128 129.365 198.149C129.121 198.169 128.877 198.149 128.633 198.047C128.572 198.007 128.512 197.966 128.451 197.885C127.78 197.133 127.415 196.768 127.374 196.768C127.11 196.585 126.846 196.524 126.582 196.605ZM130.259 201.905L130.218 201.926C129.71 202.108 129.263 202.413 128.918 202.819C128.227 203.712 127.638 204.586 127.11 205.459C126.785 206.048 126.643 206.413 126.663 206.596C126.663 206.616 126.704 206.657 126.825 206.718L127.333 206.839L127.394 206.88C128.085 205.52 128.755 204.382 129.405 203.428C129.649 203.063 129.994 202.799 130.401 202.636C130.421 202.636 130.462 202.616 130.482 202.616C131.051 202.433 131.559 202.372 132.026 202.453C132.107 202.474 132.249 202.535 132.432 202.657L133.549 203.408C133.671 203.489 133.773 203.55 133.854 203.57C134.159 203.692 134.504 203.733 134.931 203.692C135.073 203.672 135.215 203.651 135.357 203.611C135.784 203.448 136.068 203.347 136.211 203.306C136.272 203.286 136.292 203.286 136.312 203.286L137.755 203.144C137.998 203.103 138.283 203.022 138.587 202.92C138.628 202.9 138.669 202.9 138.709 202.88L139.664 202.474C140.416 202.189 140.863 202.027 141.005 201.946C141.838 201.54 142.325 201.255 142.467 201.093C142.508 201.052 142.467 200.89 142.305 200.626C142.244 200.524 142.183 200.443 142.122 200.423C142.122 200.403 142.081 200.423 142.021 200.423C141.98 200.423 141.939 200.443 141.919 200.443C141.838 200.464 141.777 200.504 141.716 200.524L140.314 201.276L139.278 201.743L138.486 202.129C138.486 202.129 138.405 202.169 138.222 202.23C138.181 202.25 138.12 202.271 138.08 202.271C137.897 202.332 137.734 202.372 137.592 202.393C137.551 202.393 137.165 202.453 136.434 202.514L136.129 202.555C136.109 202.555 136.068 202.575 136.008 202.596C135.845 202.636 135.561 202.738 135.154 202.9C135.012 202.941 134.85 202.981 134.687 202.981C134.464 203.002 134.24 202.961 134.017 202.88C132.96 202.108 132.331 201.722 132.148 201.743C131.62 201.641 130.99 201.702 130.259 201.905ZM135.601 209.175C135.215 209.296 134.911 209.479 134.667 209.702C133.59 210.901 132.94 211.692 132.696 212.038C132.534 212.281 132.453 212.423 132.473 212.444C132.453 212.484 132.656 212.626 133.082 212.911C133.184 212.83 133.367 212.647 133.61 212.342L135.256 210.23C135.378 210.068 135.642 209.926 136.048 209.804C136.068 209.804 136.089 209.784 136.129 209.784C136.495 209.682 136.881 209.682 137.287 209.804C137.572 209.865 138.222 210.21 139.278 210.84C139.4 210.901 139.542 210.941 139.684 210.941C139.948 210.941 140.334 210.901 140.822 210.779C141.066 210.718 141.553 210.576 142.285 210.352L143.118 210.129L143.341 210.068H143.361C143.768 209.946 144.214 209.723 144.661 209.459L146.165 208.342L146.876 207.895C146.998 207.814 147.099 207.733 147.18 207.672C147.201 207.51 147.079 207.286 146.855 206.982C146.815 206.982 146.754 207.002 146.713 207.022C146.53 207.083 146.287 207.205 145.982 207.388C145.86 207.449 145.291 207.916 144.296 208.768C144.072 208.931 143.829 209.073 143.564 209.215C143.382 209.317 143.178 209.398 142.975 209.459L142.224 209.662C141.33 209.926 140.903 210.068 140.924 210.048C140.7 210.109 140.477 210.17 140.274 210.21C139.989 210.271 139.745 210.291 139.583 210.271C138.405 209.52 137.653 209.134 137.267 209.093C136.759 208.972 136.251 208.992 135.743 209.154H135.723C135.682 209.154 135.642 209.175 135.601 209.175ZM149.618 210.515C149.293 210.738 149.049 210.901 148.907 211.022C147.546 212.159 146.551 212.951 145.941 213.378C145.596 213.642 145.21 213.906 144.824 214.17C144.54 214.373 144.154 214.596 143.707 214.86C143.585 214.941 143.503 215.002 143.443 215.043C143.097 215.307 142.752 215.652 142.407 216.038C141.655 216.87 141.147 217.784 140.863 218.799C140.781 219.084 140.781 219.287 140.842 219.388C140.883 219.449 140.924 219.49 140.964 219.53L141.452 219.733C141.492 219.754 141.492 219.794 141.492 219.835L141.878 218.515C141.96 218.292 142.041 218.068 142.142 217.845C142.346 217.358 142.671 216.87 143.118 216.342C143.402 216.018 143.666 215.754 143.95 215.55C146.612 213.865 148.521 212.545 149.618 211.611C149.882 211.368 150.045 211.185 150.146 211.043C150.024 210.84 149.842 210.657 149.618 210.515ZM154.29 210.312C154.27 210.312 154.27 210.312 154.29 210.312C154.067 210.555 153.803 210.921 153.498 211.449C153.275 211.835 152.889 212.586 152.34 213.703C152.239 213.906 152.117 214.088 152.015 214.271C151.568 214.84 150.817 215.693 149.74 216.809C149.618 216.952 149.517 217.073 149.476 217.155C149.435 217.195 149.435 217.276 149.496 217.439C149.496 217.459 149.577 217.581 149.76 217.825C149.781 217.865 149.801 217.906 149.801 217.947L149.781 217.987C150.106 217.784 150.573 217.317 151.223 216.545C152.157 215.408 152.767 214.596 153.051 214.109L154.372 211.814C154.554 211.489 154.717 211.165 154.839 210.88C154.9 210.799 154.859 210.677 154.758 210.535C154.676 210.454 154.595 210.393 154.494 210.352C154.372 210.312 154.311 210.291 154.29 210.312Z" fill="#C98D1E"/>
<path d="M153.011 186.045C151.04 188.482 149.07 190.939 147.282 192.055C146.185 192.746 145.149 192.949 144.133 192.949C143.504 192.949 142.894 192.868 142.285 192.807C142.61 194.086 142.955 195.365 143.199 196.218C143.443 197.091 143.626 197.538 143.788 197.985C141.35 200.401 138.933 202.838 139.928 205.721C140.68 207.873 143.341 210.29 146.266 210.29C147.241 210.29 148.257 210.026 149.232 209.376C153.092 206.797 156.403 198.33 159.714 189.842L153.011 186.045Z" fill="#E8977C"/>
<path d="M153.011 186.045L152.523 186.654C151.67 187.751 150.878 188.685 150.146 189.477L156.545 197.7C157.622 195.223 158.678 192.604 159.715 189.842L153.011 186.045Z" fill="black" fill-opacity="0.208"/>
<path d="M142.285 101.594C155.651 110.711 168.998 119.828 172.858 134.996C176.717 150.164 171.029 171.404 165.362 192.623L147.018 182.085C155.509 168.724 164.021 155.383 160.73 146.611C157.459 137.839 142.407 133.656 137.369 126.915C132.331 120.194 137.308 110.894 142.285 101.594Z" fill="#0C1882"/>
<path d="M166.255 197.111L142.203 181.882L151.101 175.648L166.987 189.395L166.255 197.111Z" fill="#FCB232"/>
<path d="M86.0956 55.0112C86.0956 70.1997 73.7851 82.5048 58.59 82.5048C43.3949 82.5048 31.0845 70.1997 31.0845 55.0112C31.0845 39.8227 43.3949 27.5176 58.59 27.5176C73.7851 27.5176 86.0956 39.843 86.0956 55.0112Z" fill="#2340C9"/>
<path d="M58.1637 37.793C54.9541 37.8742 52.2726 38.9707 50.1396 41.1231C48.0066 43.2551 46.8893 45.9355 46.8081 49.1437C46.8081 50.1996 46.9503 51.1946 47.2143 52.1489L47.7019 53.55C48.0878 54.4638 48.5754 55.2963 49.1645 56.0679C49.6114 56.6567 50.1193 57.1847 50.6474 57.6517C50.0177 58.1594 49.4286 58.7482 48.8598 59.3777C48.8395 59.398 48.8395 59.398 48.8192 59.4183C47.2956 61.2255 46.3205 63.2966 45.8939 65.6115C45.5486 66.9313 45.6095 68.84 46.0971 71.3579C46.2799 72.3123 47.1128 72.962 48.0472 72.962C48.1691 72.962 48.3113 72.9417 48.4332 72.9214C49.5099 72.7184 50.2209 71.6625 50.0177 70.5863C49.6317 68.6167 49.5505 67.2968 49.7536 66.6064C49.7739 66.5252 49.7943 66.4643 49.8146 66.3831C50.1193 64.7383 50.7896 63.2763 51.8663 61.9971C52.6586 61.1036 53.5118 60.393 54.4665 59.8447C55.1369 60.0681 55.8479 60.2508 56.5995 60.3726C57.1074 60.4336 57.6152 60.4539 58.1231 60.4539C59.8295 60.4539 61.4343 60.1087 62.8767 59.4386C62.9579 59.4589 63.0188 59.4995 63.1001 59.5198C64.4612 60.1696 65.5988 61.0833 66.5332 62.2814C68.4225 64.9008 68.9303 67.7638 68.0365 70.8706C67.7318 71.9265 68.3412 73.0433 69.3975 73.3478C69.5804 73.4088 69.7632 73.4291 69.946 73.4291C70.8195 73.4291 71.6118 72.8605 71.8556 71.9874C73.1151 67.6014 72.3837 63.5809 69.7022 59.9056C69.6819 59.8853 69.6819 59.8853 69.6616 59.865C68.7475 58.667 67.6708 57.672 66.4317 56.8598C67.9959 55.1948 68.9709 53.1236 69.3569 50.6869L69.4585 49.1437C69.3772 45.9355 68.2803 43.2551 66.1269 41.1231C64.0549 38.9707 61.3734 37.8742 58.1637 37.793Z" fill="white"/>
<path d="M78.5388 26.5645H78.5185C78.2544 26.5848 78.0309 26.7675 77.9497 27.0112L75.9183 34.0572L68.1582 34.6054C67.8941 34.6257 67.6706 34.8085 67.6097 35.0724C67.5488 35.3364 67.6503 35.6004 67.8738 35.7425L74.7197 40.291L72.9727 46.8902C72.9117 47.1542 73.0133 47.4182 73.2165 47.5603C73.318 47.6415 73.4399 47.6618 73.5618 47.6618C73.6837 47.6618 73.8259 47.6212 73.9275 47.54L79.717 43.2352L85.3847 47.5603C85.4863 47.6415 85.6285 47.6821 85.7707 47.6821C85.8926 47.6821 86.0348 47.6415 86.1363 47.5603C86.3598 47.3979 86.441 47.1136 86.3598 46.8496L83.8205 39.5803L90.4836 34.8694C90.7071 34.707 90.7883 34.443 90.7274 34.179C90.6461 33.915 90.4227 33.7526 90.1383 33.7323L81.7485 33.5901L79.1076 26.93C79.0263 26.7269 78.7826 26.5645 78.5388 26.5645Z" fill="#FCB232"/>
</svg>
