<svg width="43" height="13" viewBox="0 0 43 13" fill="none" xmlns="http://www.w3.org/2000/svg">
<path d="M8.57984 6.68717L7.44438 1.19795C7.36468 0.877808 7.16999 0.598168 6.8974 0.412313C6.62482 0.226459 6.29338 0.14738 5.96625 0.190142H0.712187L0.671875 0.452173C4.75688 1.43311 7.45781 3.81155 8.57984 6.68717ZM12.3961 0.31108L9.07703 8.78342L8.73438 7.50686C7.65287 5.40318 6.02924 3.62646 4.03125 2.3603L7.06141 12.7139H10.6425L15.9772 0.31108H12.3961ZM17.3545 0.31108L15.2381 12.7408H18.5975L20.7206 0.31108H17.3545ZM39.5869 0.31108H36.9531C36.5847 0.263063 36.2107 0.338578 35.8897 0.525804C35.5688 0.713031 35.3189 1.0014 35.1794 1.34577L30.1739 12.7273H33.7281C33.7281 12.7273 34.3059 11.1955 34.4403 10.8595H38.7739C38.8747 11.2895 39.1838 12.7139 39.1838 12.7139H42.3281L39.5869 0.31108ZM35.4145 8.31983C35.6967 7.60764 36.7583 4.84624 36.7583 4.84624C36.7583 4.84624 37.0405 4.13405 37.2084 3.66374L37.4436 4.73202L38.223 8.31983H35.4145ZM27.5469 5.28967C26.3711 4.71858 25.6455 4.32889 25.6522 3.75108C25.6589 3.17327 26.2636 2.6828 27.5872 2.6828C28.4558 2.6596 29.3194 2.82224 30.1202 3.15983L30.4292 3.30092L30.8861 0.613423C29.915 0.261664 28.8888 0.0864559 27.8559 0.096079C24.4966 0.096079 22.1517 1.77577 22.1316 4.19452C22.1316 5.97499 23.8112 6.97608 25.0945 7.55389C26.3778 8.1317 26.875 8.55499 26.875 9.0992C26.875 9.93233 25.8202 10.3153 24.8594 10.3153C23.7601 10.3407 22.67 10.1107 21.6747 9.64342L21.238 9.44186L20.7609 12.2234C21.9686 12.6738 23.248 12.9014 24.5369 12.8953C28.0911 12.8953 30.4023 11.229 30.4292 8.64905C30.4225 7.25155 29.5222 6.17655 27.5469 5.28967Z" fill="#273991"/>
</svg>
